<?xml version="1.0" encoding="UTF-8"?>
<svg width="481px" height="176px" viewBox="0 0 481 176" version="1.1" xmlns="http://www.w3.org/2000/svg" xmlns:xlink="http://www.w3.org/1999/xlink">
    <!-- Generator: Sketch 50.2 (55047) - http://www.bohemiancoding.com/sketch -->
    <title>Group 9</title>
    <desc>Created with Sketch.</desc>
    <defs></defs>
    <g id="Page-1" stroke="none" stroke-width="1" fill="none" fill-rule="evenodd">
        <g id="Artboard-5" transform="translate(-182.000000, -128.000000)">
            <g id="Group-9" transform="translate(183.000000, 137.000000)">
                <g id="Group-8">
                    <g id="Group-7">
                        <g id="Group" stroke-linecap="round">
                            <g id="Group-2" transform="translate(0.000000, 58.000000)">
                                <path d="M188,104.739152 L287.836837,5.68434189e-14" id="VerticalDiv" stroke="#979797" stroke-width="2" stroke-dasharray="4"></path>
                                <g id="Platform" stroke="#000000">
                                    <polyline id="Path-2" stroke-width="4" points="1 106.278713 377.104166 106.278713 477.686229 1"></polyline>
                                    <polyline id="Path-2" stroke-width="2" transform="translate(238.343115, 52.639356) scale(-1, -1) translate(-238.343115, -52.639356) " points="0 105.278713 376.104166 105.278713 476.686229 0"></polyline>
                                </g>
                            </g>
                            <path d="M51.5,110.5 L427.000333,110.5" id="HorizontalDiv" stroke="#979797" stroke-width="2" stroke-dasharray="4"></path>
                            <path d="M237.5,111.5 L237.5,0.5" id="Arrow" stroke="#000000" stroke-width="5"></path>
                            <path id="Arrow-decoration-1" d="M237.5,0.5 L234.5,11.3 L240.5,11.3 L237.5,0.5 Z" stroke="#000000" stroke-width="5"></path>
                        </g>
                        <g id="Group-5" transform="translate(274.000000, 122.000000)" fill="#000000">
                            <path d="M10.1225347,18.7291667 C10.7795473,18.0416632 11.4086868,17.3424515 12.0099722,16.6315104 C12.5881664,15.9283819 13.035793,15.2760447 13.3528652,14.6744792 C13.6774035,14.0651011 13.7924658,13.5768248 13.6980555,13.2096354 C13.5802076,12.8424461 13.173112,12.6471355 12.4767566,12.6236979 C11.5481039,12.6471355 10.4832343,13.0338504 9.28211588,13.7838542 C8.07387788,14.549483 6.84262896,15.5885351 5.58833219,16.9010417 C3.89284536,18.658863 2.74584583,20.1002548 2.14729919,21.2252604 C1.5412865,22.3580786 1.84800009,22.9322916 3.06744916,22.9479167 C3.7549526,22.9479167 4.44384823,22.8033869 5.13415674,22.5143229 C5.80172059,22.240884 6.427094,21.8971375 7.0102957,21.4830729 C7.61693502,21.0690083 8.19040991,20.6119817 8.73073757,20.1119792 C9.24797409,19.6197892 9.71190183,19.1588563 10.1225347,18.7291667 Z M20.5810338,11.4518229 C19.9830567,12.061201 19.4070615,12.5494773 18.853031,12.9166667 C18.2463917,13.3307312 17.6852667,13.5377604 17.1696391,13.5377604 C16.357135,13.5377604 15.72225,13.4908859 15.2649649,13.3971354 L15.1732938,13.4440104 C15.4736923,14.756517 14.8134883,16.2525958 13.192662,17.9322917 C11.6614283,19.5182371 9.89647614,20.8541612 7.89775258,21.9401042 C5.86916481,23.0572973 4.03136859,23.6315103 2.3843088,23.6627604 C0.797670392,23.6471353 0.00406636356,23.104172 0.00347290168,22.0338542 C-0.058927899,20.9791614 0.719580203,19.5963627 2.33902056,17.8854167 C4.00395021,16.1432205 5.87819794,14.7174535 7.96181997,13.6080729 C10.037283,12.4908798 11.9769872,11.9244792 13.7809907,11.9088542 C14.4769997,11.9244792 15.1939152,11.9713538 15.9317587,12.0494792 C16.631579,12.1510422 17.391636,12.2018229 18.2119527,12.2018229 C18.6572674,12.2018229 19.0488496,12.1354173 19.386711,12.0026042 C19.6943618,11.8932286 19.9830915,11.7096367 20.2529088,11.4518229 L20.5810338,11.4518229 Z M32.9896944,7.98307292 L25.3607882,7.98307292 L26.4694914,6.82291667 L34.0983977,6.82291667 L32.9896944,7.98307292 Z" id="Ïƒâ»-D"></path>
                            <path d="M51.9621995,10.4897188 L37.2292732,19.3937188 C35.9165694,20.6657188 35.1019425,21.4577188 33.9647811,22.4657188 C31.9620004,24.2177187 30.3223351,25.2497187 29.3623351,25.2497187 C28.7863351,25.2497187 28.948412,24.7697188 29.4885043,24.1937188 C31.3113157,22.2497188 33.7624925,21.1457188 36.2692732,19.3937188 C38.1070461,17.6897188 39.4392614,16.3457187 40.6769729,15.0257188 C41.4871113,14.1617188 43.7585034,11.7137188 42.3905034,11.7137188 C41.9585034,11.7137188 41.0989304,12.1697187 39.3812189,13.4897188 L38.9972189,13.4897188 C40.869465,11.9537187 43.3267495,10.1777187 44.5507495,10.1777187 C45.8227495,10.1777187 44.8295265,11.5697187 43.2542574,13.2497187 C41.859019,14.7377188 40.0197499,16.4177188 38.8900692,17.5457187 L49.8021995,10.4897188 L51.9621995,10.4897188 Z M57.5368265,8.55078125 L60.5695712,5.31640625 L57.3351962,5.31640625 L58.4230285,4.15625 L61.6574035,4.15625 L64.6901482,0.921875 L65.8503045,0.921875 L62.8175598,4.15625 L66.0519348,4.15625 L64.9641024,5.31640625 L61.7297274,5.31640625 L58.6969828,8.55078125 L57.5368265,8.55078125 Z" id="D-ð›¾âº"></path>
                        </g>
                        <g id="Group-4" transform="translate(116.000000, 72.000000)" fill="#000000">
                            <path d="M10.138942,16.5520833 C10.7994893,15.8645799 11.4322237,15.1653681 12.0371642,14.4544271 C12.6189735,13.7512986 13.0699538,13.0989613 13.3901189,12.4973958 C13.7177902,11.8880178 13.8353629,11.3997414 13.7428404,11.0325521 C13.6268804,10.6653627 13.220789,10.4700522 12.524554,10.4466146 C11.5957809,10.4700522 10.528923,10.8567671 9.3239486,11.6067708 C8.11177426,12.3723997 6.87518325,13.4114518 5.61413846,14.7239583 C3.90961411,16.4817796 2.75520393,17.9231715 2.15087328,19.0481771 C1.53903641,20.1809952 1.84279779,20.7552083 3.06216652,20.7708333 C3.74966996,20.7708333 4.43930867,20.6263035 5.13110334,20.3372396 C5.80007304,20.0638007 6.42721375,19.7200542 7.01254429,19.3059896 C7.62131245,18.891925 8.19713706,18.4348983 8.74003539,17.9348958 C9.25980242,17.4427059 9.72609996,16.981773 10.138942,16.5520833 Z M20.6348563,9.27473958 C20.0337461,9.88411763 19.4552406,10.372394 18.8993222,10.7395833 C18.2905541,11.1536479 17.7283646,11.3606771 17.2127371,11.3606771 C16.400233,11.3606771 15.7655889,11.3138026 15.3087858,11.2200521 L15.2168737,11.2669271 C15.5105242,12.5794336 14.8426284,14.0755124 13.2131663,15.7552083 C11.6737787,17.3411538 9.90195817,18.6770779 7.89765143,19.7630208 C5.86331981,20.8802139 4.02257138,21.4544269 2.37535092,21.4856771 C0.788792852,21.470052 -0.00201962925,20.9270887 0.00288975262,19.8567708 C-0.0540885378,18.8020781 0.731528971,17.4192794 2.35976585,15.7083333 C4.03365268,13.9661371 5.91523072,12.5403701 8.00455644,11.4309896 C10.0857633,10.3137965 12.0283795,9.74739591 13.8324634,9.73177083 C14.528392,9.74739591 15.2450665,9.79427044 15.9825084,9.87239583 C16.6818065,9.97395884 17.4416025,10.0247396 18.2619191,10.0247396 C18.7072338,10.0247396 19.0991574,9.958334 19.4377017,9.82552083 C19.7459148,9.71614529 20.0355884,9.53255337 20.3067313,9.27473958 L20.6348563,9.27473958 Z M25.5592605,9.04036458 L28.6668196,5.80598958 L25.4324446,5.80598958 L26.5471125,4.64583333 L29.7814875,4.64583333 L32.8890466,1.41145833 L34.0492029,1.41145833 L30.9416438,4.64583333 L34.1760188,4.64583333 L33.0613508,5.80598958 L29.8269758,5.80598958 L26.7194167,9.04036458 L25.5592605,9.04036458 Z" id="D-Ïƒâº"></path>
                            <path d="M52.2625492,6.41159375 L37.3454478,15.3155938 C36.0064333,16.5875938 35.1754242,17.3795938 34.0174127,18.3875938 C31.9783928,20.1395937 30.317381,21.1715937 29.357381,21.1715937 C28.781381,21.1715937 28.9533865,20.6915938 29.5053931,20.1155938 C31.3684152,18.1715937 33.8424278,17.0675938 36.3854478,15.3155938 C38.2584672,13.6115938 39.6184825,12.2675938 40.8834975,10.9475938 C41.7115074,10.0835938 44.0335353,7.63559375 42.6655353,7.63559375 C42.2335353,7.63559375 41.3645301,8.09159375 39.619515,9.41159375 L39.235515,9.41159375 C41.1395325,7.87559375 43.6335528,6.09959375 44.8575528,6.09959375 C46.1295528,6.09959375 45.1075369,7.49159375 43.4975178,9.17159375 C42.0715008,10.6595937 40.1974817,12.3395938 39.0444688,13.4675938 L50.1025492,6.41159375 L52.2625492,6.41159375 Z M65.3714597,1.23828125 L57.7425535,1.23828125 L58.8543831,0.078125 L66.4832894,0.078125 L65.3714597,1.23828125 Z" id="ð›¾â»-D"></path>
                        </g>
                        <g id="Group-3" transform="translate(320.000000, 71.000000)" fill="#000000">
                            <path d="M10.138942,15.140625 C10.7994893,14.4531216 11.4322237,13.7539098 12.0371642,13.0429687 C12.6189735,12.3398402 13.0699538,11.687503 13.3901189,11.0859375 C13.7177902,10.4765595 13.8353629,9.98828309 13.7428404,9.62109375 C13.6268804,9.25390441 13.220789,9.05859387 12.524554,9.03515625 C11.5957809,9.05859387 10.528923,9.44530875 9.3239486,10.1953125 C8.11177426,10.9609413 6.87518325,11.9999934 5.61413846,13.3125 C3.90961411,15.0703213 2.75520393,16.5117131 2.15087328,17.6367187 C1.53903641,18.7695369 1.84279779,19.3437499 3.06216652,19.359375 C3.74966996,19.359375 4.43930867,19.2148452 5.13110334,18.9257813 C5.80007304,18.6523424 6.42721375,18.3085958 7.01254429,17.8945313 C7.62131245,17.4804667 8.19713706,17.02344 8.74003539,16.5234375 C9.25980242,16.0312475 9.72609996,15.5703146 10.138942,15.140625 Z M20.6348563,7.86328125 C20.0337461,8.4726593 19.4552406,8.96093566 18.8993222,9.328125 C18.2905541,9.74218957 17.7283646,9.94921875 17.2127371,9.94921875 C16.400233,9.94921875 15.7655889,9.90234422 15.3087858,9.80859375 L15.2168737,9.85546875 C15.5105242,11.1679753 14.8426284,12.6640541 13.2131663,14.34375 C11.6737787,15.9296954 9.90195817,17.2656196 7.89765143,18.3515625 C5.86331981,19.4687556 4.02257138,20.0429686 2.37535092,20.0742188 C0.788792852,20.0585937 -0.00201962925,19.5156304 0.00288975262,18.4453125 C-0.0540885378,17.3906197 0.731528971,16.0078211 2.35976585,14.296875 C4.03365268,12.5546788 5.91523072,11.1289118 8.00455644,10.0195313 C10.0857633,8.90233816 12.0283795,8.33593758 13.8324634,8.3203125 C14.528392,8.33593758 15.2450665,8.38281211 15.9825084,8.4609375 C16.6818065,8.56250051 17.4416025,8.61328125 18.2619191,8.61328125 C18.7072338,8.61328125 19.0991574,8.54687566 19.4377017,8.4140625 C19.7459148,8.30468695 20.0355884,8.12109504 20.3067313,7.86328125 L20.6348563,7.86328125 Z M25.5592605,7.62890625 L28.6668196,4.39453125 L25.4324446,4.39453125 L26.5471125,3.234375 L29.7814875,3.234375 L32.8890466,0 L34.0492029,0 L30.9416438,3.234375 L34.1760188,3.234375 L33.0613508,4.39453125 L29.8269758,4.39453125 L26.7194167,7.62890625 L25.5592605,7.62890625 Z" id="D-Ïƒâº"></path>
                            <path d="M51.9621995,9.56784375 L37.2292732,18.4718438 C35.9165694,19.7438438 35.1019425,20.5358438 33.9647811,21.5438438 C31.9620004,23.2958438 30.3223351,24.3278437 29.3623351,24.3278437 C28.7863351,24.3278437 28.948412,23.8478438 29.4885043,23.2718438 C31.3113157,21.3278438 33.7624925,20.2238438 36.2692732,18.4718438 C38.1070461,16.7678438 39.4392614,15.4238437 40.6769729,14.1038438 C41.4871113,13.2398438 43.7585034,10.7918438 42.3905034,10.7918438 C41.9585034,10.7918438 41.0989304,11.2478437 39.3812189,12.5678438 L38.9972189,12.5678438 C40.869465,11.0318438 43.3267495,9.25584375 44.5507495,9.25584375 C45.8227495,9.25584375 44.8295265,10.6478437 43.2542574,12.3278437 C41.859019,13.8158438 40.0197499,15.4958438 38.8900692,16.6238438 L49.8021995,9.56784375 L51.9621995,9.56784375 Z M57.5368265,7.62890625 L60.5695712,4.39453125 L57.3351962,4.39453125 L58.4230285,3.234375 L61.6574035,3.234375 L64.6901482,0 L65.8503045,0 L62.8175598,3.234375 L66.0519348,3.234375 L64.9641024,4.39453125 L61.7297274,4.39453125 L58.6969828,7.62890625 L57.5368265,7.62890625 Z" id="D-ð›¾âº"></path>
                        </g>
                        <g id="Group-6" transform="translate(83.000000, 125.000000)" fill="#000000">
                            <path d="M10.1225347,15.90625 C10.7795473,15.2187466 11.4086868,14.5195348 12.0099722,13.8085937 C12.5881664,13.1054652 13.035793,12.453128 13.3528652,11.8515625 C13.6774035,11.2421845 13.7924658,10.7539081 13.6980555,10.3867187 C13.5802076,10.0195294 13.173112,9.82421887 12.4767566,9.80078125 C11.5481039,9.82421887 10.4832343,10.2109337 9.28211588,10.9609375 C8.07387788,11.7265663 6.84262896,12.7656184 5.58833219,14.078125 C3.89284536,15.8359463 2.74584583,17.2773381 2.14729919,18.4023437 C1.5412865,19.5351619 1.84800009,20.1093749 3.06744916,20.125 C3.7549526,20.125 4.44384823,19.9804702 5.13415674,19.6914062 C5.80172059,19.4179674 6.427094,19.0742208 7.0102957,18.6601562 C7.61693502,18.2460917 8.19040991,17.789065 8.73073757,17.2890625 C9.24797409,16.7968725 9.71190183,16.3359396 10.1225347,15.90625 Z M20.5810338,8.62890625 C19.9830567,9.2382843 19.4070615,9.72656066 18.853031,10.09375 C18.2463917,10.5078146 17.6852667,10.7148438 17.1696391,10.7148438 C16.357135,10.7148438 15.72225,10.6679692 15.2649649,10.5742188 L15.1732938,10.6210938 C15.4736923,11.9336003 14.8134883,13.4296791 13.192662,15.109375 C11.6614283,16.6953204 9.89647614,18.0312446 7.89775258,19.1171875 C5.86916481,20.2343806 4.03136859,20.8085936 2.3843088,20.8398438 C0.797670392,20.8242187 0.00406636356,20.2812554 0.00347290168,19.2109375 C-0.058927899,18.1562447 0.719580203,16.7734461 2.33902056,15.0625 C4.00395021,13.3203038 5.87819794,11.8945368 7.96181997,10.7851562 C10.037283,9.66796316 11.9769872,9.10156258 13.7809907,9.0859375 C14.4769997,9.10156258 15.1939152,9.14843711 15.9317587,9.2265625 C16.631579,9.32812551 17.391636,9.37890625 18.2119527,9.37890625 C18.6572674,9.37890625 19.0488496,9.31250066 19.386711,9.1796875 C19.6943618,9.07031195 19.9830915,8.88672004 20.2529088,8.62890625 L20.5810338,8.62890625 Z M32.9896944,5.16015625 L25.3607882,5.16015625 L26.4694914,4 L34.0983977,4 L32.9896944,5.16015625 Z" id="Ïƒâ»-D"></path>
                            <path d="M52.2625492,6.33346875 L37.3454478,15.2374688 C36.0064333,16.5094688 35.1754242,17.3014688 34.0174127,18.3094688 C31.9783928,20.0614687 30.317381,21.0934687 29.357381,21.0934687 C28.781381,21.0934687 28.9533865,20.6134688 29.5053931,20.0374688 C31.3684152,18.0934687 33.8424278,16.9894688 36.3854478,15.2374688 C38.2584672,13.5334687 39.6184825,12.1894688 40.8834975,10.8694687 C41.7115074,10.0054688 44.0335353,7.55746875 42.6655353,7.55746875 C42.2335353,7.55746875 41.3645301,8.01346875 39.619515,9.33346875 L39.235515,9.33346875 C41.1395325,7.79746875 43.6335528,6.02146875 44.8575528,6.02146875 C46.1295528,6.02146875 45.1075369,7.41346875 43.4975178,9.09346875 C42.0715008,10.5814687 40.1974817,12.2614688 39.0444688,13.3894688 L50.1025492,6.33346875 L52.2625492,6.33346875 Z M65.3714597,1.16015625 L57.7425535,1.16015625 L58.8543831,0 L66.4832894,0 L65.3714597,1.16015625 Z" id="ð›¾â»-D"></path>
                        </g>
                    </g>
                </g>
                <path d="M237.5,110.5 L274.5,125.5" id="Line-2" stroke="#000000" stroke-width="6" stroke-linecap="round"></path>
                <path id="Line-2-decoration-1" d="M274.5,125.5 L265.618331,118.662167 L263.364101,124.222603 L274.5,125.5 Z" stroke="#000000" stroke-width="6" stroke-linecap="round"></path>
                <path d="M237.5,109.5 L281.5,91.5" id="Line" stroke="#000000" stroke-width="6" stroke-linecap="round"></path>
                <path id="Line-decoration-1" d="M281.5,91.5 L270.368194,92.8125939 L272.639991,98.3658756 L281.5,91.5 Z" stroke="#000000" stroke-width="6" stroke-linecap="round"></path>
                <path d="M235.5,109.5 L196.5,92.5" id="Line-3" stroke="#000000" stroke-width="6" stroke-linecap="round"></path>
                <path id="Line-3-decoration-1" d="M196.5,92.5 L205.20156,99.5656104 L207.599073,94.0654346 L196.5,92.5 Z" stroke="#000000" stroke-width="6" stroke-linecap="round"></path>
                <path d="M235.5,110.5 L192.5,128.5" id="Line-4" stroke="#000000" stroke-width="6" stroke-linecap="round"></path>
                <path id="Line-4-decoration-1" d="M192.5,128.5 L203.620777,127.097032 L201.303948,121.562386 L192.5,128.5 Z" stroke="#000000" stroke-width="6" stroke-linecap="round"></path>
            </g>
        </g>
    </g>
</svg>