<?xml version="1.0" encoding="UTF-8"?>
<svg width="771px" height="390px" viewBox="0 0 771 390" version="1.1" xmlns="http://www.w3.org/2000/svg" xmlns:xlink="http://www.w3.org/1999/xlink">
    <!-- Generator: Sketch 50.2 (55047) - http://www.bohemiancoding.com/sketch -->
    <title>Group 3</title>
    <desc>Created with Sketch.</desc>
    <defs></defs>
    <g id="Page-1" stroke="none" stroke-width="1" fill="none" fill-rule="evenodd">
        <g id="Artboard" transform="translate(-39.000000, -69.000000)">
            <g id="Group-3" transform="translate(40.000000, 78.000000)">
                <g id="Group-4">
                    <g id="Group">
                        <g id="Group-2" transform="translate(0.000000, 58.000000)">
                            <path d="M188,104.739152 L287.836837,5.68434189e-14" id="VerticalDiv" stroke="#979797" stroke-width="2" stroke-linecap="round" stroke-dasharray="4"></path>
                            <g id="Platform">
                                <polyline id="Path-2" stroke="#D0021B" stroke-width="4" stroke-linecap="round" points="1 106.278713 377.104166 106.278713 477.686229 1"></polyline>
                                <polyline id="Path-2" stroke="#D0021B" stroke-width="2" stroke-linecap="round" transform="translate(238.343115, 52.639356) scale(-1, -1) translate(-238.343115, -52.639356) " points="0 105.278713 376.104166 105.278713 476.686229 0"></polyline>
                                <path d="M41.191775,88.776 L34.5727091,94.944 L22.0687091,94.944 L22.7889544,94.2 C23.1409562,94.2 23.5248246,94.196 23.9405713,94.188 C24.3563179,94.18 24.7069096,94.1360004 24.9923567,94.056 C25.1828251,94.0079998 25.3758858,93.9160007 25.5715445,93.78 C25.7672032,93.6439993 25.9424761,93.4960008 26.0973683,93.336 L38.875914,80.136 C39.0308062,79.9759992 39.1420797,79.8280007 39.2097378,79.692 C39.2773959,79.5559993 39.2624586,79.4640002 39.1649256,79.416 C39.0343706,79.3359996 38.7689684,79.292 38.368711,79.284 C37.9684536,79.276 37.5923296,79.272 37.2403279,79.272 L37.9373395,78.552 C39.1868783,78.6000002 40.4515042,78.62 41.7312552,78.612 C43.0110061,78.604 44.3063546,78.5840002 45.6173395,78.552 L44.9203279,79.272 L44.2243279,79.272 C43.9843267,79.272 43.7444568,79.276 43.504711,79.284 C43.2649652,79.292 43.0294785,79.3079999 42.7982436,79.332 C42.5670087,79.3560001 42.3719047,79.3839998 42.2129256,79.416 C42.0064571,79.4640002 41.7933966,79.5559993 41.5737378,79.692 C41.3540789,79.8280007 41.1668062,79.9759992 41.011914,80.136 L28.2333683,93.336 C28.0939653,93.4800007 27.9703088,93.6159994 27.8623951,93.744 C27.7544814,93.8720006 27.7178023,93.9759996 27.7523567,94.056 C27.7709111,94.1360004 27.8763149,94.18 28.0685713,94.188 C28.2608277,94.196 28.4449535,94.2 28.6209544,94.2 L30.5409544,94.2 C31.1809576,94.2 31.8822686,94.1160008 32.6449085,93.948 C33.4075483,93.7799992 34.2297062,93.4720022 35.1114067,93.024 C36.1500428,92.4799973 37.1172159,91.8280038 38.0129548,91.068 C38.9086937,90.3079962 39.7682919,89.5440038 40.591775,88.776 L41.191775,88.776 Z M49.0015217,92.088 C48.4728447,92.5680024 47.9026434,92.9999981 47.2909009,93.384 C46.6791583,93.7680019 46.057637,94.0959986 45.4263184,94.368 C44.7949997,94.6400014 44.1856469,94.8479993 43.5982417,94.992 C43.0108364,95.1360007 42.4771406,95.208 41.9971382,95.208 C41.2771346,95.208 40.7286701,95.0680014 40.3517283,94.788 C39.9747865,94.5079986 39.7861447,94.1120026 39.7857974,93.6 C39.7849392,93.0719974 39.9817802,92.4720034 40.3763264,91.8 C40.7708725,91.1279966 41.3243894,90.4240037 42.0368937,89.688 C42.7339087,88.9679964 43.5238064,88.2760033 44.4066104,87.612 C45.2894144,86.9479967 46.2263757,86.3520026 47.2175225,85.824 C48.17718,85.3119974 49.0965271,84.9160014 49.9755916,84.636 C50.854656,84.3559986 51.6301783,84.216 52.3021817,84.216 C52.8941846,84.216 53.3695004,84.319999 53.7281433,84.528 C54.0867862,84.736001 54.2495125,85.0719977 54.2163271,85.536 C54.1526741,86.0480026 53.898812,86.6159969 53.454733,87.24 C53.0106541,87.8640031 52.4788382,88.4959968 51.8592692,89.136 C51.6888877,89.3120009 51.5156992,89.4 51.3396983,89.4 L44.3076983,89.4 C43.6101724,90.1040035 42.9958898,90.7839967 42.4648321,91.44 C41.9337745,92.0960033 41.5966795,92.6879974 41.4535369,93.216 C41.3548186,93.6320021 41.405546,93.9679987 41.6057207,94.224 C41.8058954,94.4800013 42.1619786,94.608 42.6739812,94.608 C43.0579831,94.608 43.4879354,94.5440006 43.9638509,94.416 C44.4397665,94.2879994 44.9380144,94.1080012 45.4586096,93.876 C45.9792049,93.6439988 46.4945152,93.3720016 47.0045561,93.06 C47.514597,92.7479984 48.003481,92.4000019 48.4712229,92.016 C48.6271368,91.8879994 48.7770919,91.824 48.9210926,91.824 L49.0410926,91.824 C49.1541149,91.8560002 49.1409247,91.9439993 49.0015217,92.088 Z M50.4836064,88.896 C51.0097292,88.3359972 51.4726109,87.8000026 51.8722656,87.288 C52.2719203,86.7759974 52.5445919,86.2960022 52.6902888,85.848 C52.7915613,85.5119983 52.7670048,85.244001 52.6166184,85.044 C52.4662319,84.843999 52.1910419,84.744 51.7910399,84.744 C51.3270375,84.744 50.7791298,84.8719987 50.1473003,85.128 C49.5154708,85.3840013 48.8702052,85.7199979 48.2114841,86.136 C47.552763,86.5520021 46.9508175,86.9919977 46.4056296,87.456 C45.8604416,87.9200023 45.3317725,88.3999975 44.8196064,88.896 L50.4836064,88.896 Z M70.2068872,79.728 C69.8661243,80.0800018 69.4985571,80.3439991 69.1041745,80.52 C68.7097919,80.6960009 68.3766049,80.784 68.1046036,80.784 C67.8486023,80.784 67.6977941,80.6960009 67.6521745,80.52 C67.6065549,80.3439991 67.7541243,80.0800018 68.0948872,79.728 C68.3736932,79.4399986 68.6704106,79.2120008 68.9850482,79.044 C69.2996858,78.8759992 69.5762348,78.7680002 69.8147034,78.72 C69.6991269,78.6079994 69.4813411,78.552 69.1613395,78.552 C68.8573379,78.552 68.4998958,78.6319992 68.0890023,78.792 C67.6781087,78.9520008 67.2450096,79.1679986 66.7896918,79.44 C66.2559062,79.7600016 65.7472778,80.115998 65.2637913,80.508 C64.7803048,80.900002 64.3372083,81.3039979 63.9344885,81.72 L61.1464422,84.6 L63.9304422,84.6 L63.2101969,85.344 L60.4981969,85.344 L52.7613683,93.336 C52.6064761,93.4960008 52.4912026,93.6439993 52.4155445,93.78 C52.3398864,93.9160007 52.3508237,94.0079998 52.4483567,94.056 C52.5629116,94.1360004 52.8123139,94.18 53.1965713,94.188 C53.5808286,94.196 53.9329528,94.2 54.2529544,94.2 L53.5327091,94.944 C52.5876827,94.9119998 51.6390536,94.892 50.6867934,94.884 C49.7345332,94.876 48.7471817,94.8959998 47.7247091,94.944 L48.4449544,94.2 C48.7169558,94.2 49.0088251,94.196 49.3205713,94.188 C49.6323174,94.18 49.9069098,94.1360004 50.1443567,94.056 C50.3343143,93.9919997 50.5151196,93.8920007 50.6867782,93.756 C50.8584368,93.6199993 51.0139653,93.4800007 51.1533683,93.336 L58.8901969,85.344 L56.9701969,85.344 L57.6904422,84.6 L59.6104422,84.6 L62.3984885,81.72 C62.8786544,81.2239975 63.435451,80.7480023 64.0688948,80.292 C64.7023386,79.8359977 65.3576885,79.4400017 66.0349639,79.104 C66.7277286,78.7519982 67.3950374,78.480001 68.0369104,78.288 C68.6787833,78.095999 69.2477125,78 69.743715,78 C69.9997163,78 70.2169912,78.0399996 70.3955464,78.12 C70.5741016,78.2000004 70.6976763,78.3119993 70.7662743,78.456 C70.8348724,78.6000007 70.8246196,78.7799989 70.7355157,78.996 C70.6464117,79.2120011 70.470204,79.4559986 70.2068872,79.728 Z M65.0079892,92.04 C64.6362478,92.4240019 64.2203847,92.8039981 63.7603875,93.18 C63.3003903,93.5560019 62.8312506,93.8959985 62.3529544,94.2 C61.8746582,94.5040015 61.4024535,94.7479991 60.936326,94.932 C60.4701985,95.1160009 60.0451401,95.208 59.6611382,95.208 C59.2451361,95.208 58.891224,95.1480006 58.5993911,95.028 C58.3075582,94.9079994 58.1565355,94.6880016 58.1463184,94.368 C58.1361013,94.0479984 58.268478,93.684002 58.5434526,93.276 C58.8184272,92.867998 59.1572693,92.4560021 59.5599892,92.04 L66.0421969,85.344 L64.0021969,85.344 L64.5133387,84.816 C65.0253413,84.816 65.6051209,84.6840013 66.2526951,84.42 C66.9002692,84.1559987 67.5651515,83.8080022 68.2473619,83.376 C68.9295722,82.9439978 69.605729,82.4480028 70.2758525,81.888 C70.9459759,81.3279972 71.5598345,80.7600029 72.1174465,80.184 L72.7174465,80.184 L68.4424422,84.6 L71.8264422,84.6 L71.1061969,85.344 L67.7221969,85.344 L61.2399892,92.04 C60.883737,92.4080018 60.5748512,92.7559984 60.3133224,93.084 C60.0517936,93.4120016 59.8773738,93.7119986 59.7900579,93.984 C59.6753395,94.4000021 59.8579788,94.608 60.3379812,94.608 C60.5939825,94.608 60.8878084,94.5400007 61.2194678,94.404 C61.5511272,94.2679993 61.8971212,94.0800012 62.2574602,93.84 C62.6177992,93.5999988 62.9849833,93.3240016 63.3590235,93.012 C63.7330637,92.6999984 64.0827155,92.3760017 64.4079892,92.04 L65.8020123,90.6 L66.4020123,90.6 L65.0079892,92.04 Z" id="Left" fill="#000000"></path>
                                <path d="M401.214861,22.4 C400.840901,22.7360017 400.418947,23.0719983 399.948987,23.408 C399.479027,23.7440017 399.00514,24.0439987 398.527314,24.308 C398.049487,24.5720013 397.589542,24.7839992 397.147465,24.944 C396.705387,25.1040008 396.308353,25.184 395.956352,25.184 C395.364349,25.184 394.896487,25.1120007 394.552753,24.968 C394.209019,24.8239993 394.013423,24.6080014 393.965958,24.32 C393.918493,24.0319986 394.02671,23.6760021 394.29061,23.252 C394.554511,22.8279979 395.006992,22.3280029 395.648066,21.752 L397.998659,19.64 C398.443849,19.239998 398.790774,18.8600018 399.039445,18.5 C399.288115,18.1399982 399.423361,17.8280013 399.445185,17.564 C399.467009,17.2999987 399.382508,17.0920008 399.191678,16.94 C399.000849,16.7879992 398.705438,16.712 398.305436,16.712 L395.377436,16.712 L388.325656,23.048 C388.14758,23.2080008 388.014862,23.3559993 387.927497,23.492 C387.840133,23.6280007 387.84174,23.7199998 387.932318,23.768 C388.051281,23.8480004 388.310307,23.892 388.709405,23.9 C389.108504,23.908 389.476048,23.912 389.81205,23.912 L388.984,24.656 C386.754834,24.5599995 384.426857,24.5599995 382,24.656 L382.82805,23.912 C383.180052,23.912 383.5605,23.908 383.969405,23.9 C384.378311,23.892 384.731278,23.8480004 385.028318,23.768 C385.225741,23.7199998 385.436132,23.6280007 385.659497,23.492 C385.882862,23.3559993 386.08358,23.2080008 386.261656,23.048 L400.952863,9.848 C401.130939,9.6879992 401.259658,9.54000068 401.339022,9.404 C401.418386,9.26799932 401.41278,9.17600024 401.322202,9.128 C401.203239,9.0479996 400.948212,9.00400004 400.557114,8.996 C400.166016,8.98799996 399.794471,8.984 399.44247,8.984 L400.243808,8.264 L407.707808,8.264 C408.507812,8.264 409.18096,8.35999904 409.727273,8.552 C410.273585,8.74400096 410.616527,9.07199768 410.75611,9.536 C410.874538,9.90400184 410.820379,10.3479974 410.593634,10.868 C410.366888,11.3880026 409.906274,11.9599969 409.211777,12.584 C408.535087,13.192003 407.736284,13.7479975 406.815342,14.252 C405.894401,14.7560025 404.990962,15.1759983 404.105,15.512 C403.469884,15.7520012 402.863296,15.9519992 402.285218,16.112 C401.70714,16.2720008 401.156685,16.3999995 400.633837,16.496 C401.134727,16.7360012 401.380699,17.1079975 401.371762,17.612 C401.362825,18.1160025 400.968269,18.7759959 400.188081,19.592 L398.173488,21.704 C397.320263,22.6000045 396.695382,23.3159973 396.298828,23.852 C395.902274,24.3880027 395.983997,24.656 396.544,24.656 C397.008002,24.656 397.633301,24.4320022 398.419916,23.984 C399.206531,23.5359978 399.938172,23.008003 400.614861,22.4 C400.810745,22.2239991 400.996684,22.136 401.172685,22.136 C401.420686,22.136 401.410745,22.2239991 401.214861,22.4 Z M406.739777,12.584 C407.274005,12.1039976 407.743774,11.6280024 408.149098,11.156 C408.554422,10.6839976 408.751156,10.2880016 408.739307,9.968 C408.734687,9.58399808 408.524062,9.32400068 408.107424,9.188 C407.690785,9.05199932 407.186472,8.984 406.59447,8.984 L405.20247,8.984 C405.026469,8.984 404.834019,8.98799996 404.625114,8.996 C404.416209,9.00400004 404.21124,9.0479996 404.010202,9.128 C403.825163,9.2080004 403.648964,9.31599932 403.481599,9.452 C403.314235,9.58800068 403.159324,9.71999936 403.016863,9.848 L395.965084,16.184 L398.581084,16.184 C399.173087,16.184 399.828762,16.1160007 400.54813,15.98 C401.267497,15.8439993 402.056862,15.5840019 402.916247,15.2 C403.640401,14.8799984 404.320678,14.4880023 404.9571,14.024 C405.593521,13.5599977 406.187741,13.0800025 406.739777,12.584 Z M419.648863,9.848 C419.257096,10.2000018 418.799209,10.4999988 418.27519,10.748 C417.751171,10.9960012 417.313167,11.12 416.961165,11.12 C416.609163,11.12 416.447173,10.9960012 416.47519,10.748 C416.503207,10.4999988 416.713096,10.2000018 417.104863,9.848 C417.496631,9.49599824 417.954517,9.19600124 418.478536,8.948 C419.002556,8.69999876 419.44056,8.576 419.792561,8.576 C420.144563,8.576 420.306553,8.69999876 420.278536,8.948 C420.25052,9.19600124 420.040631,9.49599824 419.648863,9.848 Z M404.752,24.656 C403.130837,24.5599995 401.410854,24.5599995 399.592,24.656 L400.42005,23.912 C400.692051,23.912 400.9845,23.908 401.297405,23.9 C401.610311,23.892 401.891279,23.8480004 402.140318,23.768 C402.339549,23.7039997 402.534844,23.6040007 402.726209,23.468 C402.917574,23.3319993 403.093388,23.1920007 403.253656,23.048 L410.652682,16.4 C410.901989,16.1759989 411.125936,15.964001 411.324531,15.764 C411.523126,15.563999 411.621653,15.4000006 411.620113,15.272 C411.584765,15.1599994 411.435997,15.0960001 411.173803,15.08 C410.911609,15.0639999 410.644516,15.056 410.372514,15.056 L411.200564,14.312 L414.878388,14.048 L404.861656,23.048 C404.701388,23.1920007 404.557573,23.3319993 404.430209,23.468 C404.302844,23.6040007 404.267547,23.7039997 404.324318,23.768 C404.37928,23.8480004 404.542308,23.892 404.813405,23.9 C405.084503,23.908 405.340049,23.912 405.58005,23.912 L404.752,24.656 Z M427.876648,14.984 C427.609534,15.2240012 427.341654,15.3999994 427.073,15.512 C426.804346,15.6240006 426.582022,15.68 426.406021,15.68 C426.23002,15.68 426.132347,15.6240006 426.113,15.512 C426.093652,15.3999994 426.217534,15.2240012 426.484648,14.984 C426.680532,14.8079991 426.867894,14.6720005 427.04674,14.576 C427.225586,14.4799995 427.406622,14.4000003 427.589853,14.336 C426.631656,14.3199999 425.493324,14.6239969 424.174824,15.248 C424.122673,15.5680016 423.966457,15.923998 423.706172,16.316 C423.445886,16.708002 423.066442,17.1279978 422.567829,17.576 C422.033601,18.0560024 421.422093,18.5119978 420.733286,18.944 C420.044479,19.3760022 419.34601,19.7519984 418.637856,20.072 C417.895894,20.4080017 417.195432,20.6599992 416.53645,20.828 C415.877468,20.9960008 415.291984,21.08 414.779982,21.08 C414.363979,21.08 414.018761,21.0200006 413.744316,20.9 C413.469871,20.7799994 413.299111,20.5920013 413.232031,20.336 C412.687493,20.6240014 412.220703,20.9319984 411.831647,21.26 C411.442591,21.5880016 411.157154,21.8839987 410.975329,22.148 C410.793504,22.4120013 410.720652,22.6319991 410.756769,22.808 C410.792886,22.9840009 410.970943,23.072 411.290945,23.072 L413.234945,23.072 C413.906948,23.072 414.537971,23.1159996 415.128033,23.204 C415.718094,23.2920004 416.10343,23.5279981 416.28405,23.912 C416.411515,24.2000014 416.316135,24.5839976 415.997908,25.064 C415.679681,25.5440024 415.226748,26.0479974 414.639097,26.576 C414.069254,27.0880026 413.415553,27.5279982 412.677976,27.896 C411.9404,28.2640018 411.238968,28.5599989 410.573659,28.784 C409.657504,29.1040016 408.812207,29.3279994 408.037743,29.456 C407.263279,29.5840006 406.556056,29.648 405.916053,29.648 C405.276049,29.648 404.711285,29.5840006 404.221743,29.456 C403.732201,29.3279994 403.385509,29.1040016 403.181659,28.784 C403.014963,28.5599989 402.972403,28.2640018 403.053976,27.896 C403.13555,27.5279982 403.461254,27.0880026 404.031097,26.576 C404.45848,26.1919981 404.941789,25.8440016 405.481038,25.532 C406.020287,25.2199984 406.558558,24.9520011 407.095866,24.728 C407.73279,24.4719987 408.338474,24.2800006 408.912937,24.152 C408.838627,23.959999 408.891547,23.7040016 409.071698,23.384 C409.25185,23.0639984 409.53116,22.7160019 409.909639,22.34 C410.288118,21.9639981 410.755946,21.576002 411.313136,21.176 C411.870327,20.775998 412.488798,20.4000018 413.168567,20.048 C413.172717,19.7279984 413.319193,19.3520022 413.607997,18.92 C413.896802,18.4879978 414.299408,18.0400023 414.815829,17.576 C415.350058,17.0959976 415.957566,16.6400022 416.638373,16.208 C417.319179,15.7759978 418.013649,15.4000016 418.721803,15.08 C419.479765,14.7439983 420.192678,14.4880009 420.860564,14.312 C421.52845,14.1359991 422.110386,14.048 422.606388,14.048 C423.550393,14.048 424.077852,14.3359971 424.188782,14.912 C424.934359,14.5439982 425.641983,14.264001 426.311677,14.072 C426.981371,13.879999 427.56421,13.784 428.060212,13.784 C428.380214,13.784 428.518656,13.9039988 428.475543,14.144 C428.43243,14.3840012 428.2328,14.6639984 427.876648,14.984 Z M420.767829,17.576 C421.230827,17.1599979 421.634656,16.7720018 421.979327,16.412 C422.323998,16.0519982 422.552598,15.7280014 422.665134,15.44 C422.758055,15.1839987 422.744649,14.9840007 422.624916,14.84 C422.505183,14.6959993 422.285319,14.624 421.965317,14.624 C421.645316,14.624 421.265186,14.6959993 420.824916,14.84 C420.384646,14.9840007 419.934056,15.1839987 419.473134,15.44 C418.928596,15.7280014 418.431998,16.0519982 417.983327,16.412 C417.534655,16.7720018 417.078827,17.1599979 416.615829,17.576 C416.170639,17.976002 415.775714,18.3559982 415.431043,18.716 C415.086372,19.0760018 414.857772,19.3999986 414.745236,19.688 C414.539779,20.2320027 414.765049,20.504 415.421052,20.504 C416.093056,20.504 416.931775,20.2320027 417.937236,19.688 C418.465774,19.3999986 418.958372,19.0760018 419.415043,18.716 C419.871715,18.3559982 420.322639,17.976002 420.767829,17.576 Z M413.391097,26.576 C413.747249,26.2559984 413.997138,25.9560014 414.14077,25.676 C414.284403,25.3959986 414.309256,25.1760008 414.215331,25.016 C414.03625,24.7599987 413.705425,24.6080002 413.222845,24.56 C412.740265,24.5119998 412.218982,24.488 411.658979,24.488 L409.714979,24.488 C409.122976,24.488 408.404389,24.687998 407.559197,25.088 C406.680197,25.5040021 405.920171,25.9999971 405.279097,26.576 C404.88733,26.9280018 404.63873,27.2519985 404.53329,27.548 C404.42785,27.8440015 404.419382,28.095999 404.507885,28.304 C404.621157,28.5760014 404.863013,28.7719994 405.233458,28.892 C405.603904,29.0120006 406.045121,29.072 406.557123,29.072 C407.069126,29.072 407.639899,29.0120006 408.269458,28.892 C408.899018,28.7719994 409.581153,28.5760014 410.315885,28.304 C410.867385,28.095999 411.419848,27.8440015 411.97329,27.548 C412.526732,27.2519985 412.99933,26.9280018 413.391097,26.576 Z M430.288,24.656 C429.429418,24.6079998 428.552138,24.584 427.656134,24.584 C426.744129,24.584 425.821427,24.6079998 424.888,24.656 L425.71605,23.912 C425.988051,23.912 426.2805,23.908 426.593405,23.9 C426.906311,23.892 427.187279,23.8480004 427.436318,23.768 C427.635549,23.7039997 427.826844,23.6040007 428.010209,23.468 C428.193574,23.3319993 428.365388,23.1920007 428.525656,23.048 L434.882942,17.336 C435.328132,16.935998 435.731057,16.5560018 436.091728,16.196 C436.452399,15.8359982 436.705903,15.5040015 436.852247,15.2 C436.955745,14.991999 436.944916,14.8400005 436.819761,14.744 C436.694605,14.6479995 436.50403,14.6 436.248029,14.6 C435.784026,14.6 435.240735,14.699999 434.618138,14.9 C433.99554,15.100001 433.353271,15.3679983 432.69131,15.704 C432.029348,16.0400017 431.365071,16.4319978 430.698457,16.88 C430.031843,17.3280022 429.422527,17.7999975 428.870491,18.296 L423.581656,23.048 C423.421388,23.1920007 423.285573,23.3319993 423.174209,23.468 C423.062844,23.6040007 423.035547,23.7039997 423.092318,23.768 C423.16328,23.8480004 423.346308,23.892 423.641405,23.9 C423.936503,23.908 424.220048,23.912 424.49205,23.912 L423.664,24.656 C423.361806,24.6399999 423.047165,24.628 422.720067,24.62 C422.392969,24.612 422.078328,24.6000001 421.776134,24.584 L421.032134,24.584 C420.120129,24.584 419.197427,24.6079998 418.264,24.656 L419.09205,23.912 C419.364051,23.912 419.6565,23.908 419.969405,23.9 C420.282311,23.892 420.563279,23.8480004 420.812318,23.768 C421.011549,23.7039997 421.206844,23.6040007 421.398209,23.468 C421.589574,23.3319993 421.765388,23.1920007 421.925656,23.048 L436.082638,10.328 C436.314137,10.119999 436.533632,9.91200104 436.741131,9.704 C436.94863,9.49599896 437.043608,9.32800064 437.026068,9.2 C436.99072,9.08799944 436.829952,9.02400008 436.543758,9.008 C436.257564,8.99199992 435.978471,8.984 435.70647,8.984 L436.507808,8.264 L438.588076,8.12 L440.257632,8 L430.908682,16.4 C431.978411,15.7119966 433.054116,15.1480022 434.135828,14.708 C435.21754,14.2679978 436.142384,14.048 436.910388,14.048 C437.34239,14.048 437.724512,14.0999995 438.056765,14.204 C438.389018,14.3080005 438.536163,14.5279983 438.498205,14.864 C438.460246,15.2000017 438.248416,15.5879978 437.862707,16.028 C437.476998,16.4680022 437.043748,16.9039978 436.562942,17.336 L430.205656,23.048 C430.045388,23.1920007 429.909573,23.3319993 429.798209,23.468 C429.686844,23.6040007 429.659547,23.7039997 429.716318,23.768 C429.78728,23.8480004 429.970308,23.892 430.265405,23.9 C430.560503,23.908 430.844048,23.912 431.11605,23.912 L430.288,24.656 Z M441.344066,21.752 C440.916683,22.1360019 440.445759,22.5159981 439.931279,22.892 C439.4168,23.2680019 438.898395,23.6079985 438.37605,23.912 C437.853704,24.2160015 437.346145,24.4599991 436.853356,24.644 C436.360567,24.8280009 435.922178,24.92 435.538176,24.92 C435.122174,24.92 434.776955,24.8600006 434.502511,24.74 C434.228066,24.6199994 434.10892,24.4000016 434.145071,24.08 C434.181222,23.7599984 434.366341,23.396002 434.700434,22.988 C435.034528,22.579998 435.433068,22.1680021 435.896066,21.752 L443.348514,15.056 L441.308514,15.056 L441.896163,14.528 C442.408165,14.528 443.007071,14.3960013 443.692899,14.132 C444.378726,13.8679987 445.094033,13.5200022 445.83884,13.088 C446.583647,12.6559978 447.331672,12.1600028 448.082939,11.6 C448.834206,11.0399972 449.530367,10.4720029 450.171441,9.896 L450.771441,9.896 L445.856564,14.312 L449.240564,14.312 L448.412514,15.056 L445.028514,15.056 L437.576066,21.752 C437.16649,22.1200018 436.80718,22.4679984 436.498125,22.796 C436.189069,23.1240016 435.97118,23.4239986 435.844451,23.696 C435.669455,24.1120021 435.821956,24.32 436.301958,24.32 C436.557959,24.32 436.861638,24.2520007 437.213004,24.116 C437.56437,23.9799993 437.937604,23.7920012 438.332719,23.552 C438.727834,23.3119988 439.13501,23.0360016 439.554258,22.724 C439.973507,22.4119984 440.370106,22.0880017 440.744066,21.752 L442.346743,20.312 L442.946743,20.312 L441.344066,21.752 Z" id="Right" fill="#000000"></path>
                            </g>
                        </g>
                        <path d="M237.5,111.5 L237.5,0.5" id="Arrow" stroke="#000000" stroke-width="5" stroke-linecap="round"></path>
                        <path id="Arrow-decoration-1" d="M237.5,0.5 L234.5,11.3 L240.5,11.3 L237.5,0.5 Z" stroke="#000000" stroke-width="5" stroke-linecap="round"></path>
                    </g>
                    <g id="Group" transform="translate(0.000000, 214.000000)">
                        <g id="Group-2" transform="translate(0.000000, 58.000000)">
                            <path d="M188,104.739152 L287.836837,5.68434189e-14" id="VerticalDiv" stroke="#979797" stroke-width="2" stroke-linecap="round" stroke-dasharray="4"></path>
                            <g id="Platform">
                                <polyline id="Path-2" stroke="#4A90E2" stroke-width="4" stroke-linecap="round" points="1 106.278713 377.104166 106.278713 477.686229 1"></polyline>
                                <polyline id="Path-2" stroke="#4A90E2" stroke-width="2" stroke-linecap="round" transform="translate(238.343115, 52.639356) scale(-1, -1) translate(-238.343115, -52.639356) " points="0 105.278713 376.104166 105.278713 476.686229 0"></polyline>
                                <path d="M41.191775,88.776 L34.5727091,94.944 L22.0687091,94.944 L22.7889544,94.2 C23.1409562,94.2 23.5248246,94.196 23.9405713,94.188 C24.3563179,94.18 24.7069096,94.1360004 24.9923567,94.056 C25.1828251,94.0079998 25.3758858,93.9160007 25.5715445,93.78 C25.7672032,93.6439993 25.9424761,93.4960008 26.0973683,93.336 L38.875914,80.136 C39.0308062,79.9759992 39.1420797,79.8280007 39.2097378,79.692 C39.2773959,79.5559993 39.2624586,79.4640002 39.1649256,79.416 C39.0343706,79.3359996 38.7689684,79.292 38.368711,79.284 C37.9684536,79.276 37.5923296,79.272 37.2403279,79.272 L37.9373395,78.552 C39.1868783,78.6000002 40.4515042,78.62 41.7312552,78.612 C43.0110061,78.604 44.3063546,78.5840002 45.6173395,78.552 L44.9203279,79.272 L44.2243279,79.272 C43.9843267,79.272 43.7444568,79.276 43.504711,79.284 C43.2649652,79.292 43.0294785,79.3079999 42.7982436,79.332 C42.5670087,79.3560001 42.3719047,79.3839998 42.2129256,79.416 C42.0064571,79.4640002 41.7933966,79.5559993 41.5737378,79.692 C41.3540789,79.8280007 41.1668062,79.9759992 41.011914,80.136 L28.2333683,93.336 C28.0939653,93.4800007 27.9703088,93.6159994 27.8623951,93.744 C27.7544814,93.8720006 27.7178023,93.9759996 27.7523567,94.056 C27.7709111,94.1360004 27.8763149,94.18 28.0685713,94.188 C28.2608277,94.196 28.4449535,94.2 28.6209544,94.2 L30.5409544,94.2 C31.1809576,94.2 31.8822686,94.1160008 32.6449085,93.948 C33.4075483,93.7799992 34.2297062,93.4720022 35.1114067,93.024 C36.1500428,92.4799973 37.1172159,91.8280038 38.0129548,91.068 C38.9086937,90.3079962 39.7682919,89.5440038 40.591775,88.776 L41.191775,88.776 Z M49.0015217,92.088 C48.4728447,92.5680024 47.9026434,92.9999981 47.2909009,93.384 C46.6791583,93.7680019 46.057637,94.0959986 45.4263184,94.368 C44.7949997,94.6400014 44.1856469,94.8479993 43.5982417,94.992 C43.0108364,95.1360007 42.4771406,95.208 41.9971382,95.208 C41.2771346,95.208 40.7286701,95.0680014 40.3517283,94.788 C39.9747865,94.5079986 39.7861447,94.1120026 39.7857974,93.6 C39.7849392,93.0719974 39.9817802,92.4720034 40.3763264,91.8 C40.7708725,91.1279966 41.3243894,90.4240037 42.0368937,89.688 C42.7339087,88.9679964 43.5238064,88.2760033 44.4066104,87.612 C45.2894144,86.9479967 46.2263757,86.3520026 47.2175225,85.824 C48.17718,85.3119974 49.0965271,84.9160014 49.9755916,84.636 C50.854656,84.3559986 51.6301783,84.216 52.3021817,84.216 C52.8941846,84.216 53.3695004,84.319999 53.7281433,84.528 C54.0867862,84.736001 54.2495125,85.0719977 54.2163271,85.536 C54.1526741,86.0480026 53.898812,86.6159969 53.454733,87.24 C53.0106541,87.8640031 52.4788382,88.4959968 51.8592692,89.136 C51.6888877,89.3120009 51.5156992,89.4 51.3396983,89.4 L44.3076983,89.4 C43.6101724,90.1040035 42.9958898,90.7839967 42.4648321,91.44 C41.9337745,92.0960033 41.5966795,92.6879974 41.4535369,93.216 C41.3548186,93.6320021 41.405546,93.9679987 41.6057207,94.224 C41.8058954,94.4800013 42.1619786,94.608 42.6739812,94.608 C43.0579831,94.608 43.4879354,94.5440006 43.9638509,94.416 C44.4397665,94.2879994 44.9380144,94.1080012 45.4586096,93.876 C45.9792049,93.6439988 46.4945152,93.3720016 47.0045561,93.06 C47.514597,92.7479984 48.003481,92.4000019 48.4712229,92.016 C48.6271368,91.8879994 48.7770919,91.824 48.9210926,91.824 L49.0410926,91.824 C49.1541149,91.8560002 49.1409247,91.9439993 49.0015217,92.088 Z M50.4836064,88.896 C51.0097292,88.3359972 51.4726109,87.8000026 51.8722656,87.288 C52.2719203,86.7759974 52.5445919,86.2960022 52.6902888,85.848 C52.7915613,85.5119983 52.7670048,85.244001 52.6166184,85.044 C52.4662319,84.843999 52.1910419,84.744 51.7910399,84.744 C51.3270375,84.744 50.7791298,84.8719987 50.1473003,85.128 C49.5154708,85.3840013 48.8702052,85.7199979 48.2114841,86.136 C47.552763,86.5520021 46.9508175,86.9919977 46.4056296,87.456 C45.8604416,87.9200023 45.3317725,88.3999975 44.8196064,88.896 L50.4836064,88.896 Z M70.2068872,79.728 C69.8661243,80.0800018 69.4985571,80.3439991 69.1041745,80.52 C68.7097919,80.6960009 68.3766049,80.784 68.1046036,80.784 C67.8486023,80.784 67.6977941,80.6960009 67.6521745,80.52 C67.6065549,80.3439991 67.7541243,80.0800018 68.0948872,79.728 C68.3736932,79.4399986 68.6704106,79.2120008 68.9850482,79.044 C69.2996858,78.8759992 69.5762348,78.7680002 69.8147034,78.72 C69.6991269,78.6079994 69.4813411,78.552 69.1613395,78.552 C68.8573379,78.552 68.4998958,78.6319992 68.0890023,78.792 C67.6781087,78.9520008 67.2450096,79.1679986 66.7896918,79.44 C66.2559062,79.7600016 65.7472778,80.115998 65.2637913,80.508 C64.7803048,80.900002 64.3372083,81.3039979 63.9344885,81.72 L61.1464422,84.6 L63.9304422,84.6 L63.2101969,85.344 L60.4981969,85.344 L52.7613683,93.336 C52.6064761,93.4960008 52.4912026,93.6439993 52.4155445,93.78 C52.3398864,93.9160007 52.3508237,94.0079998 52.4483567,94.056 C52.5629116,94.1360004 52.8123139,94.18 53.1965713,94.188 C53.5808286,94.196 53.9329528,94.2 54.2529544,94.2 L53.5327091,94.944 C52.5876827,94.9119998 51.6390536,94.892 50.6867934,94.884 C49.7345332,94.876 48.7471817,94.8959998 47.7247091,94.944 L48.4449544,94.2 C48.7169558,94.2 49.0088251,94.196 49.3205713,94.188 C49.6323174,94.18 49.9069098,94.1360004 50.1443567,94.056 C50.3343143,93.9919997 50.5151196,93.8920007 50.6867782,93.756 C50.8584368,93.6199993 51.0139653,93.4800007 51.1533683,93.336 L58.8901969,85.344 L56.9701969,85.344 L57.6904422,84.6 L59.6104422,84.6 L62.3984885,81.72 C62.8786544,81.2239975 63.435451,80.7480023 64.0688948,80.292 C64.7023386,79.8359977 65.3576885,79.4400017 66.0349639,79.104 C66.7277286,78.7519982 67.3950374,78.480001 68.0369104,78.288 C68.6787833,78.095999 69.2477125,78 69.743715,78 C69.9997163,78 70.2169912,78.0399996 70.3955464,78.12 C70.5741016,78.2000004 70.6976763,78.3119993 70.7662743,78.456 C70.8348724,78.6000007 70.8246196,78.7799989 70.7355157,78.996 C70.6464117,79.2120011 70.470204,79.4559986 70.2068872,79.728 Z M65.0079892,92.04 C64.6362478,92.4240019 64.2203847,92.8039981 63.7603875,93.18 C63.3003903,93.5560019 62.8312506,93.8959985 62.3529544,94.2 C61.8746582,94.5040015 61.4024535,94.7479991 60.936326,94.932 C60.4701985,95.1160009 60.0451401,95.208 59.6611382,95.208 C59.2451361,95.208 58.891224,95.1480006 58.5993911,95.028 C58.3075582,94.9079994 58.1565355,94.6880016 58.1463184,94.368 C58.1361013,94.0479984 58.268478,93.684002 58.5434526,93.276 C58.8184272,92.867998 59.1572693,92.4560021 59.5599892,92.04 L66.0421969,85.344 L64.0021969,85.344 L64.5133387,84.816 C65.0253413,84.816 65.6051209,84.6840013 66.2526951,84.42 C66.9002692,84.1559987 67.5651515,83.8080022 68.2473619,83.376 C68.9295722,82.9439978 69.605729,82.4480028 70.2758525,81.888 C70.9459759,81.3279972 71.5598345,80.7600029 72.1174465,80.184 L72.7174465,80.184 L68.4424422,84.6 L71.8264422,84.6 L71.1061969,85.344 L67.7221969,85.344 L61.2399892,92.04 C60.883737,92.4080018 60.5748512,92.7559984 60.3133224,93.084 C60.0517936,93.4120016 59.8773738,93.7119986 59.7900579,93.984 C59.6753395,94.4000021 59.8579788,94.608 60.3379812,94.608 C60.5939825,94.608 60.8878084,94.5400007 61.2194678,94.404 C61.5511272,94.2679993 61.8971212,94.0800012 62.2574602,93.84 C62.6177992,93.5999988 62.9849833,93.3240016 63.3590235,93.012 C63.7330637,92.6999984 64.0827155,92.3760017 64.4079892,92.04 L65.8020123,90.6 L66.4020123,90.6 L65.0079892,92.04 Z" id="Left" fill="#000000"></path>
                                <path d="M401.214861,22.4 C400.840901,22.7360017 400.418947,23.0719983 399.948987,23.408 C399.479027,23.7440017 399.00514,24.0439987 398.527314,24.308 C398.049487,24.5720013 397.589542,24.7839992 397.147465,24.944 C396.705387,25.1040008 396.308353,25.184 395.956352,25.184 C395.364349,25.184 394.896487,25.1120007 394.552753,24.968 C394.209019,24.8239993 394.013423,24.6080014 393.965958,24.32 C393.918493,24.0319986 394.02671,23.6760021 394.29061,23.252 C394.554511,22.8279979 395.006992,22.3280029 395.648066,21.752 L397.998659,19.64 C398.443849,19.239998 398.790774,18.8600018 399.039445,18.5 C399.288115,18.1399982 399.423361,17.8280013 399.445185,17.564 C399.467009,17.2999987 399.382508,17.0920008 399.191678,16.94 C399.000849,16.7879992 398.705438,16.712 398.305436,16.712 L395.377436,16.712 L388.325656,23.048 C388.14758,23.2080008 388.014862,23.3559993 387.927497,23.492 C387.840133,23.6280007 387.84174,23.7199998 387.932318,23.768 C388.051281,23.8480004 388.310307,23.892 388.709405,23.9 C389.108504,23.908 389.476048,23.912 389.81205,23.912 L388.984,24.656 C386.754834,24.5599995 384.426857,24.5599995 382,24.656 L382.82805,23.912 C383.180052,23.912 383.5605,23.908 383.969405,23.9 C384.378311,23.892 384.731278,23.8480004 385.028318,23.768 C385.225741,23.7199998 385.436132,23.6280007 385.659497,23.492 C385.882862,23.3559993 386.08358,23.2080008 386.261656,23.048 L400.952863,9.848 C401.130939,9.6879992 401.259658,9.54000068 401.339022,9.404 C401.418386,9.26799932 401.41278,9.17600024 401.322202,9.128 C401.203239,9.0479996 400.948212,9.00400004 400.557114,8.996 C400.166016,8.98799996 399.794471,8.984 399.44247,8.984 L400.243808,8.264 L407.707808,8.264 C408.507812,8.264 409.18096,8.35999904 409.727273,8.552 C410.273585,8.74400096 410.616527,9.07199768 410.75611,9.536 C410.874538,9.90400184 410.820379,10.3479974 410.593634,10.868 C410.366888,11.3880026 409.906274,11.9599969 409.211777,12.584 C408.535087,13.192003 407.736284,13.7479975 406.815342,14.252 C405.894401,14.7560025 404.990962,15.1759983 404.105,15.512 C403.469884,15.7520012 402.863296,15.9519992 402.285218,16.112 C401.70714,16.2720008 401.156685,16.3999995 400.633837,16.496 C401.134727,16.7360012 401.380699,17.1079975 401.371762,17.612 C401.362825,18.1160025 400.968269,18.7759959 400.188081,19.592 L398.173488,21.704 C397.320263,22.6000045 396.695382,23.3159973 396.298828,23.852 C395.902274,24.3880027 395.983997,24.656 396.544,24.656 C397.008002,24.656 397.633301,24.4320022 398.419916,23.984 C399.206531,23.5359978 399.938172,23.008003 400.614861,22.4 C400.810745,22.2239991 400.996684,22.136 401.172685,22.136 C401.420686,22.136 401.410745,22.2239991 401.214861,22.4 Z M406.739777,12.584 C407.274005,12.1039976 407.743774,11.6280024 408.149098,11.156 C408.554422,10.6839976 408.751156,10.2880016 408.739307,9.968 C408.734687,9.58399808 408.524062,9.32400068 408.107424,9.188 C407.690785,9.05199932 407.186472,8.984 406.59447,8.984 L405.20247,8.984 C405.026469,8.984 404.834019,8.98799996 404.625114,8.996 C404.416209,9.00400004 404.21124,9.0479996 404.010202,9.128 C403.825163,9.2080004 403.648964,9.31599932 403.481599,9.452 C403.314235,9.58800068 403.159324,9.71999936 403.016863,9.848 L395.965084,16.184 L398.581084,16.184 C399.173087,16.184 399.828762,16.1160007 400.54813,15.98 C401.267497,15.8439993 402.056862,15.5840019 402.916247,15.2 C403.640401,14.8799984 404.320678,14.4880023 404.9571,14.024 C405.593521,13.5599977 406.187741,13.0800025 406.739777,12.584 Z M419.648863,9.848 C419.257096,10.2000018 418.799209,10.4999988 418.27519,10.748 C417.751171,10.9960012 417.313167,11.12 416.961165,11.12 C416.609163,11.12 416.447173,10.9960012 416.47519,10.748 C416.503207,10.4999988 416.713096,10.2000018 417.104863,9.848 C417.496631,9.49599824 417.954517,9.19600124 418.478536,8.948 C419.002556,8.69999876 419.44056,8.576 419.792561,8.576 C420.144563,8.576 420.306553,8.69999876 420.278536,8.948 C420.25052,9.19600124 420.040631,9.49599824 419.648863,9.848 Z M404.752,24.656 C403.130837,24.5599995 401.410854,24.5599995 399.592,24.656 L400.42005,23.912 C400.692051,23.912 400.9845,23.908 401.297405,23.9 C401.610311,23.892 401.891279,23.8480004 402.140318,23.768 C402.339549,23.7039997 402.534844,23.6040007 402.726209,23.468 C402.917574,23.3319993 403.093388,23.1920007 403.253656,23.048 L410.652682,16.4 C410.901989,16.1759989 411.125936,15.964001 411.324531,15.764 C411.523126,15.563999 411.621653,15.4000006 411.620113,15.272 C411.584765,15.1599994 411.435997,15.0960001 411.173803,15.08 C410.911609,15.0639999 410.644516,15.056 410.372514,15.056 L411.200564,14.312 L414.878388,14.048 L404.861656,23.048 C404.701388,23.1920007 404.557573,23.3319993 404.430209,23.468 C404.302844,23.6040007 404.267547,23.7039997 404.324318,23.768 C404.37928,23.8480004 404.542308,23.892 404.813405,23.9 C405.084503,23.908 405.340049,23.912 405.58005,23.912 L404.752,24.656 Z M427.876648,14.984 C427.609534,15.2240012 427.341654,15.3999994 427.073,15.512 C426.804346,15.6240006 426.582022,15.68 426.406021,15.68 C426.23002,15.68 426.132347,15.6240006 426.113,15.512 C426.093652,15.3999994 426.217534,15.2240012 426.484648,14.984 C426.680532,14.8079991 426.867894,14.6720005 427.04674,14.576 C427.225586,14.4799995 427.406622,14.4000003 427.589853,14.336 C426.631656,14.3199999 425.493324,14.6239969 424.174824,15.248 C424.122673,15.5680016 423.966457,15.923998 423.706172,16.316 C423.445886,16.708002 423.066442,17.1279978 422.567829,17.576 C422.033601,18.0560024 421.422093,18.5119978 420.733286,18.944 C420.044479,19.3760022 419.34601,19.7519984 418.637856,20.072 C417.895894,20.4080017 417.195432,20.6599992 416.53645,20.828 C415.877468,20.9960008 415.291984,21.08 414.779982,21.08 C414.363979,21.08 414.018761,21.0200006 413.744316,20.9 C413.469871,20.7799994 413.299111,20.5920013 413.232031,20.336 C412.687493,20.6240014 412.220703,20.9319984 411.831647,21.26 C411.442591,21.5880016 411.157154,21.8839987 410.975329,22.148 C410.793504,22.4120013 410.720652,22.6319991 410.756769,22.808 C410.792886,22.9840009 410.970943,23.072 411.290945,23.072 L413.234945,23.072 C413.906948,23.072 414.537971,23.1159996 415.128033,23.204 C415.718094,23.2920004 416.10343,23.5279981 416.28405,23.912 C416.411515,24.2000014 416.316135,24.5839976 415.997908,25.064 C415.679681,25.5440024 415.226748,26.0479974 414.639097,26.576 C414.069254,27.0880026 413.415553,27.5279982 412.677976,27.896 C411.9404,28.2640018 411.238968,28.5599989 410.573659,28.784 C409.657504,29.1040016 408.812207,29.3279994 408.037743,29.456 C407.263279,29.5840006 406.556056,29.648 405.916053,29.648 C405.276049,29.648 404.711285,29.5840006 404.221743,29.456 C403.732201,29.3279994 403.385509,29.1040016 403.181659,28.784 C403.014963,28.5599989 402.972403,28.2640018 403.053976,27.896 C403.13555,27.5279982 403.461254,27.0880026 404.031097,26.576 C404.45848,26.1919981 404.941789,25.8440016 405.481038,25.532 C406.020287,25.2199984 406.558558,24.9520011 407.095866,24.728 C407.73279,24.4719987 408.338474,24.2800006 408.912937,24.152 C408.838627,23.959999 408.891547,23.7040016 409.071698,23.384 C409.25185,23.0639984 409.53116,22.7160019 409.909639,22.34 C410.288118,21.9639981 410.755946,21.576002 411.313136,21.176 C411.870327,20.775998 412.488798,20.4000018 413.168567,20.048 C413.172717,19.7279984 413.319193,19.3520022 413.607997,18.92 C413.896802,18.4879978 414.299408,18.0400023 414.815829,17.576 C415.350058,17.0959976 415.957566,16.6400022 416.638373,16.208 C417.319179,15.7759978 418.013649,15.4000016 418.721803,15.08 C419.479765,14.7439983 420.192678,14.4880009 420.860564,14.312 C421.52845,14.1359991 422.110386,14.048 422.606388,14.048 C423.550393,14.048 424.077852,14.3359971 424.188782,14.912 C424.934359,14.5439982 425.641983,14.264001 426.311677,14.072 C426.981371,13.879999 427.56421,13.784 428.060212,13.784 C428.380214,13.784 428.518656,13.9039988 428.475543,14.144 C428.43243,14.3840012 428.2328,14.6639984 427.876648,14.984 Z M420.767829,17.576 C421.230827,17.1599979 421.634656,16.7720018 421.979327,16.412 C422.323998,16.0519982 422.552598,15.7280014 422.665134,15.44 C422.758055,15.1839987 422.744649,14.9840007 422.624916,14.84 C422.505183,14.6959993 422.285319,14.624 421.965317,14.624 C421.645316,14.624 421.265186,14.6959993 420.824916,14.84 C420.384646,14.9840007 419.934056,15.1839987 419.473134,15.44 C418.928596,15.7280014 418.431998,16.0519982 417.983327,16.412 C417.534655,16.7720018 417.078827,17.1599979 416.615829,17.576 C416.170639,17.976002 415.775714,18.3559982 415.431043,18.716 C415.086372,19.0760018 414.857772,19.3999986 414.745236,19.688 C414.539779,20.2320027 414.765049,20.504 415.421052,20.504 C416.093056,20.504 416.931775,20.2320027 417.937236,19.688 C418.465774,19.3999986 418.958372,19.0760018 419.415043,18.716 C419.871715,18.3559982 420.322639,17.976002 420.767829,17.576 Z M413.391097,26.576 C413.747249,26.2559984 413.997138,25.9560014 414.14077,25.676 C414.284403,25.3959986 414.309256,25.1760008 414.215331,25.016 C414.03625,24.7599987 413.705425,24.6080002 413.222845,24.56 C412.740265,24.5119998 412.218982,24.488 411.658979,24.488 L409.714979,24.488 C409.122976,24.488 408.404389,24.687998 407.559197,25.088 C406.680197,25.5040021 405.920171,25.9999971 405.279097,26.576 C404.88733,26.9280018 404.63873,27.2519985 404.53329,27.548 C404.42785,27.8440015 404.419382,28.095999 404.507885,28.304 C404.621157,28.5760014 404.863013,28.7719994 405.233458,28.892 C405.603904,29.0120006 406.045121,29.072 406.557123,29.072 C407.069126,29.072 407.639899,29.0120006 408.269458,28.892 C408.899018,28.7719994 409.581153,28.5760014 410.315885,28.304 C410.867385,28.095999 411.419848,27.8440015 411.97329,27.548 C412.526732,27.2519985 412.99933,26.9280018 413.391097,26.576 Z M430.288,24.656 C429.429418,24.6079998 428.552138,24.584 427.656134,24.584 C426.744129,24.584 425.821427,24.6079998 424.888,24.656 L425.71605,23.912 C425.988051,23.912 426.2805,23.908 426.593405,23.9 C426.906311,23.892 427.187279,23.8480004 427.436318,23.768 C427.635549,23.7039997 427.826844,23.6040007 428.010209,23.468 C428.193574,23.3319993 428.365388,23.1920007 428.525656,23.048 L434.882942,17.336 C435.328132,16.935998 435.731057,16.5560018 436.091728,16.196 C436.452399,15.8359982 436.705903,15.5040015 436.852247,15.2 C436.955745,14.991999 436.944916,14.8400005 436.819761,14.744 C436.694605,14.6479995 436.50403,14.6 436.248029,14.6 C435.784026,14.6 435.240735,14.699999 434.618138,14.9 C433.99554,15.100001 433.353271,15.3679983 432.69131,15.704 C432.029348,16.0400017 431.365071,16.4319978 430.698457,16.88 C430.031843,17.3280022 429.422527,17.7999975 428.870491,18.296 L423.581656,23.048 C423.421388,23.1920007 423.285573,23.3319993 423.174209,23.468 C423.062844,23.6040007 423.035547,23.7039997 423.092318,23.768 C423.16328,23.8480004 423.346308,23.892 423.641405,23.9 C423.936503,23.908 424.220048,23.912 424.49205,23.912 L423.664,24.656 C423.361806,24.6399999 423.047165,24.628 422.720067,24.62 C422.392969,24.612 422.078328,24.6000001 421.776134,24.584 L421.032134,24.584 C420.120129,24.584 419.197427,24.6079998 418.264,24.656 L419.09205,23.912 C419.364051,23.912 419.6565,23.908 419.969405,23.9 C420.282311,23.892 420.563279,23.8480004 420.812318,23.768 C421.011549,23.7039997 421.206844,23.6040007 421.398209,23.468 C421.589574,23.3319993 421.765388,23.1920007 421.925656,23.048 L436.082638,10.328 C436.314137,10.119999 436.533632,9.91200104 436.741131,9.704 C436.94863,9.49599896 437.043608,9.32800064 437.026068,9.2 C436.99072,9.08799944 436.829952,9.02400008 436.543758,9.008 C436.257564,8.99199992 435.978471,8.984 435.70647,8.984 L436.507808,8.264 L438.588076,8.12 L440.257632,8 L430.908682,16.4 C431.978411,15.7119966 433.054116,15.1480022 434.135828,14.708 C435.21754,14.2679978 436.142384,14.048 436.910388,14.048 C437.34239,14.048 437.724512,14.0999995 438.056765,14.204 C438.389018,14.3080005 438.536163,14.5279983 438.498205,14.864 C438.460246,15.2000017 438.248416,15.5879978 437.862707,16.028 C437.476998,16.4680022 437.043748,16.9039978 436.562942,17.336 L430.205656,23.048 C430.045388,23.1920007 429.909573,23.3319993 429.798209,23.468 C429.686844,23.6040007 429.659547,23.7039997 429.716318,23.768 C429.78728,23.8480004 429.970308,23.892 430.265405,23.9 C430.560503,23.908 430.844048,23.912 431.11605,23.912 L430.288,24.656 Z M441.344066,21.752 C440.916683,22.1360019 440.445759,22.5159981 439.931279,22.892 C439.4168,23.2680019 438.898395,23.6079985 438.37605,23.912 C437.853704,24.2160015 437.346145,24.4599991 436.853356,24.644 C436.360567,24.8280009 435.922178,24.92 435.538176,24.92 C435.122174,24.92 434.776955,24.8600006 434.502511,24.74 C434.228066,24.6199994 434.10892,24.4000016 434.145071,24.08 C434.181222,23.7599984 434.366341,23.396002 434.700434,22.988 C435.034528,22.579998 435.433068,22.1680021 435.896066,21.752 L443.348514,15.056 L441.308514,15.056 L441.896163,14.528 C442.408165,14.528 443.007071,14.3960013 443.692899,14.132 C444.378726,13.8679987 445.094033,13.5200022 445.83884,13.088 C446.583647,12.6559978 447.331672,12.1600028 448.082939,11.6 C448.834206,11.0399972 449.530367,10.4720029 450.171441,9.896 L450.771441,9.896 L445.856564,14.312 L449.240564,14.312 L448.412514,15.056 L445.028514,15.056 L437.576066,21.752 C437.16649,22.1200018 436.80718,22.4679984 436.498125,22.796 C436.189069,23.1240016 435.97118,23.4239986 435.844451,23.696 C435.669455,24.1120021 435.821956,24.32 436.301958,24.32 C436.557959,24.32 436.861638,24.2520007 437.213004,24.116 C437.56437,23.9799993 437.937604,23.7920012 438.332719,23.552 C438.727834,23.3119988 439.13501,23.0360016 439.554258,22.724 C439.973507,22.4119984 440.370106,22.0880017 440.744066,21.752 L442.346743,20.312 L442.946743,20.312 L441.344066,21.752 Z" id="Right" fill="#000000"></path>
                            </g>
                        </g>
                        <path d="M237.5,111.5 L237.5,0.5" id="Arrow" stroke="#000000" stroke-width="5" stroke-linecap="round"></path>
                        <path id="Arrow-decoration-1" d="M237.5,0.5 L234.5,11.3 L240.5,11.3 L237.5,0.5 Z" stroke="#000000" stroke-width="5" stroke-linecap="round"></path>
                    </g>
                </g>
                <text id="There-are-four-uniqu" font-family="Euclid" font-size="24" font-weight="normal" fill="#000000">
                    <tspan x="541.292" y="62">There are four unique </tspan>
                    <tspan x="565.544" y="89">outcomes for this </tspan>
                    <tspan x="563.24" y="116">combined system.</tspan>
                </text>
                <text id="LR-LL-RL-RR" font-family="Euclid" font-size="48" font-weight="normal" line-spacing="60" letter-spacing="20">
                    <tspan x="603.836" y="178" fill="#D0021B">L</tspan>
                    <tspan x="653.836" y="178" fill="#4A90E2">R</tspan>
                    <tspan x="709.164" y="178" fill="#D0021B"></tspan>
                    <tspan x="606.5" y="238" fill="#D0021B">L</tspan>
                    <tspan x="656.5" y="238" fill="#4A90E2">L</tspan>
                    <tspan x="706.5" y="238" fill="#D0021B"></tspan>
                    <tspan x="603.836" y="298" fill="#D0021B">R</tspan>
                    <tspan x="659.164" y="298" fill="#4A90E2">L</tspan>
                    <tspan x="601.172" y="358" fill="#D0021B">R</tspan>
                    <tspan x="656.5" y="358" fill="#4A90E2">R </tspan>
                    <tspan x="745" y="358" fill="#4A90E2"></tspan>
                </text>
            </g>
        </g>
    </g>
</svg>