<?xml version="1.0" encoding="UTF-8"?>
<svg width="686px" height="448px" viewBox="0 0 686 448" version="1.1" xmlns="http://www.w3.org/2000/svg" xmlns:xlink="http://www.w3.org/1999/xlink">
    <!-- Generator: Sketch 50.2 (55047) - http://www.bohemiancoding.com/sketch -->
    <title>Group 4</title>
    <desc>Created with Sketch.</desc>
    <defs></defs>
    <g id="Page-1" stroke="none" stroke-width="1" fill="none" fill-rule="evenodd">
        <g id="Artboard" transform="translate(-43.000000, -113.000000)">
            <g id="Group-4" transform="translate(44.000000, 113.000000)">
                <g id="Group-3" transform="translate(630.000000, 224.500000) scale(-1, 1) translate(-630.000000, -224.500000) translate(568.000000, 0.000000)">
                    <g id="Group" transform="translate(62.000000, 224.500000) rotate(1.000000) translate(-62.000000, -224.500000) translate(4.000000, 1.000000)">
                        <g id="Group-2" transform="translate(57.874936, 223.408542) rotate(-91.000000) translate(-57.874936, -223.408542) translate(-164.625064, 169.408542)" stroke-linecap="round">
                            <path d="M191.038249,103.600835 L253.836837,1" id="VerticalDiv" stroke="#979797" stroke-width="2" stroke-dasharray="4"></path>
                            <g id="Platform" transform="translate(0.000000, 1.000000)" stroke="#000000">
                                <polyline id="Path-2" stroke-width="4" points="1.40824458 106.278713 377.512411 106.278713 444.009984 1"></polyline>
                                <polyline id="Path-2" stroke-width="2" points="442.686229 0 66.5820633 0 0.0844897693 105.278713"></polyline>
                            </g>
                        </g>
                        <path d="M20.859274,26.0296229 C21.1844103,26.2255693 21.5095417,26.4415125 21.8346779,26.6774591 C22.1598142,26.9134057 22.4605607,27.2026523 22.7369265,27.5452076 C22.9482651,27.8005734 23.1067666,28.0640942 23.2124359,28.3357778 C23.3181052,28.6074614 23.370939,28.8553 23.370939,29.0793012 L23.370939,37.7433012 C23.370939,38.5273051 23.5050557,39.3641242 23.7732931,40.2537836 C24.0415306,41.143443 24.4357523,42.0410178 24.9559704,42.946535 C25.4436747,43.7844573 26.0207829,44.5602526 26.6873122,45.2739443 C27.3538416,45.9876359 28.0610023,46.5698114 28.8088157,47.0204881 C29.6379131,47.5201513 30.4263567,47.8433157 31.1741701,47.9899909 C31.9219835,48.136666 32.5885028,48.1063544 33.1737481,47.8990551 C33.7427365,47.6819585 34.185728,47.3049379 34.5027359,46.7679819 C34.8197437,46.231026 34.9782453,45.5545562 34.9782453,44.7385521 L34.9782453,35.4025521 C34.9782453,35.2425513 35.0107584,35.1141471 35.0757856,35.0173357 C35.1408129,34.9205243 35.2464806,34.8922068 35.3927919,34.9323825 C35.6041305,34.9797472 35.9170694,35.1243432 36.3316181,35.3661748 C36.7461669,35.6080064 37.1322604,35.8366893 37.4899103,36.0522303 L37.4899103,35.3322303 C35.1001588,33.9720248 32.7023149,32.5269419 30.2963066,30.9969383 L30.2963066,31.7169383 C30.6539565,31.9324793 31.04005,32.1691621 31.4545987,32.4269938 C31.8691474,32.6848255 32.1820864,32.9174206 32.393425,33.1247861 C32.5397363,33.2609622 32.645404,33.4166429 32.7104312,33.5918329 C32.7754585,33.7670229 32.8079716,33.9346157 32.8079716,34.0946165 L32.8079716,43.4306165 C32.8079716,44.13462 32.7429453,44.7714246 32.6128908,45.3410493 C32.4828363,45.910674 32.2146029,46.3370147 31.8081826,46.6200844 C31.4505328,46.8685457 31.0116054,46.9680184 30.4913874,46.9185055 C29.9711694,46.8689926 29.4103178,46.6629889 28.8088157,46.3004881 C28.1748,45.9183926 27.5692428,45.4174493 26.992126,44.7976431 C26.4150091,44.1778369 25.9151196,43.5085775 25.4924425,42.7898449 C25.0209949,41.9937201 24.6755428,41.205536 24.4560759,40.425269 C24.2366089,39.6450019 24.1268771,38.9028778 24.1268771,38.1988742 L24.1268771,29.5348742 C24.1268771,29.3108731 24.1797109,29.1267161 24.2853802,28.9823976 C24.3910495,28.8380792 24.5414227,28.7607047 24.7365045,28.7502719 C25.0128703,28.7408254 25.3136168,28.8140742 25.6387531,28.9700204 C25.9638893,29.1259665 26.2890207,29.3019102 26.614157,29.4978566 L26.614157,28.7778566 C24.7121099,27.7115706 22.7938348,26.5555043 20.859274,25.3096229 L20.859274,26.0296229 Z M7.32554517,28.3853955 C7.32554517,29.1053991 7.463726,29.8806681 7.74009182,30.7112259 C8.01645763,31.5417836 8.41474357,32.3698085 8.93496158,33.1953252 C9.43892277,34.0110447 10.0241592,34.755739 10.6906886,35.4294304 C11.3572179,36.1031219 12.0562503,36.6603989 12.7878069,37.1012783 C13.4055658,37.4735764 13.9623533,37.6771309 14.4581861,37.7119478 C14.9540188,37.7467647 15.3807538,37.6399441 15.7384037,37.3914828 L15.7384037,41.6874828 C15.7384037,41.8314835 15.7180829,41.9592357 15.6774409,42.070743 C15.6367989,42.1822504 15.5514519,42.2308143 15.4213974,42.216436 C15.2588293,42.1984632 15.023109,42.1004038 14.7142296,41.9222548 C14.4053501,41.7441058 14.1127319,41.5717566 13.8363661,41.4052022 L13.8363661,42.1252022 C15.6733859,43.1682989 17.5022499,44.2704808 19.3230129,45.4317809 L19.3230129,44.7117809 C19.0466471,44.5452265 18.7540289,44.3648774 18.4451494,44.1707283 C18.13627,43.9765792 17.9005497,43.7905206 17.7379816,43.612547 C17.6079271,43.4701682 17.5225801,43.318734 17.4819381,43.15824 C17.4412961,42.9977461 17.4209754,42.845501 17.4209754,42.7015003 L17.4209754,31.1095003 C17.4209754,30.9334994 17.4372319,30.7712983 17.4697456,30.6228921 C17.5022592,30.4744859 17.5916703,30.4043716 17.7379816,30.412547 C17.9005497,30.4145198 18.13627,30.5005793 18.4451494,30.6707283 C18.7540289,30.8408773 19.0466471,31.0092265 19.3230129,31.1757809 L19.3230129,30.4317809 L15.811559,28.0515705 L15.811559,29.6355705 C15.4051386,28.9106351 14.9133774,28.2302745 14.3362606,27.5944683 C13.7591437,26.958662 13.1292017,26.435023 12.4464156,26.0235356 C11.7473726,25.6022509 11.0849174,25.3430147 10.4590301,25.2458193 C9.83314286,25.1486239 9.28448366,25.2139654 8.81303609,25.4418457 C8.32533171,25.6599287 7.95549477,26.0250371 7.70351417,26.537182 C7.45153358,27.0493269 7.32554517,27.6653919 7.32554517,28.3853955 Z M9.34950823,29.6051556 C9.34950823,28.9811525 9.42672693,28.4236951 9.58116665,27.9327667 C9.73560637,27.4418383 9.98351904,27.0432507 10.3249121,26.7369918 C10.6012779,26.5035443 10.9304734,26.3699403 11.3125085,26.336176 C11.6945436,26.3024117 12.1131503,26.4226902 12.568341,26.6970151 C13.267384,27.1182998 13.897326,27.6779385 14.4581861,28.3759478 C15.0190461,29.0739571 15.445781,29.7991282 15.7384037,30.5514828 L15.7384037,36.2874828 C15.4620378,36.7289314 15.0759443,36.9922436 14.5801115,37.0774273 C14.0842788,37.162611 13.5112347,37.0092587 12.8609622,36.617366 C12.3732578,36.3234464 11.9180739,35.9171269 11.4953968,35.3983953 C11.0727196,34.8796637 10.7069468,34.3192307 10.3980674,33.7170795 C10.0241607,32.9797386 9.75592732,32.2660908 9.5933592,31.5761147 C9.43079107,30.8861385 9.34950823,30.2291587 9.34950823,29.6051556 Z" id="Up" fill="#000000"></path>
                        <path d="M91.6849367,413.984873 C91.6849367,415.040878 91.8541825,416.159609 92.1926791,417.341099 C92.5311757,418.522588 93.046606,419.715472 93.7389854,420.919786 C94.3852061,422.048079 95.1352726,423.079402 95.9892072,424.013786 C96.8431418,424.94817 97.747068,425.704898 98.701013,426.283991 L107.171079,431.425756 L107.171079,430.681756 C106.832582,430.476271 106.471012,430.252779 106.086356,430.011274 C105.701701,429.769768 105.409368,429.548307 105.209347,429.346884 C105.070871,429.214822 104.967016,429.059777 104.897778,428.881746 C104.82854,428.703714 104.793921,428.5347 104.793921,428.374699 L104.793921,415.174699 C104.793921,415.014699 104.82854,414.887715 104.897778,414.793746 C104.967016,414.699776 105.070871,414.670822 105.209347,414.706884 C105.409368,414.748306 105.701701,414.881768 106.086356,415.107274 C106.471012,415.332779 106.832582,415.548271 107.171079,415.753756 L107.171079,415.033756 L98.701013,409.891991 C97.7316818,409.303558 96.8239091,408.968491 95.9776676,408.886781 C95.1314261,408.805071 94.3852061,408.952071 93.7389854,409.327786 C93.046606,409.72348 92.5311757,410.326579 92.1926791,411.137099 C91.8541825,411.947619 91.6849367,412.896868 91.6849367,413.984873 Z M93.9928566,415.385899 C93.9928566,414.425894 94.0659399,413.514269 94.2121089,412.650996 C94.3582779,411.787724 94.7006159,411.127549 95.2391332,410.670453 C95.7161057,410.271996 96.3084659,410.099594 97.0162315,410.153243 C97.7239971,410.206891 98.485603,410.481227 99.3010721,410.976258 L101.632071,412.391294 C101.801319,412.494037 101.982105,412.607782 102.174432,412.732535 C102.36676,412.857288 102.516773,412.992353 102.624477,413.137735 C102.716794,413.273777 102.770645,413.414466 102.786031,413.559807 C102.801417,413.705148 102.80911,413.841817 102.80911,413.969817 L102.80911,427.169817 C102.80911,427.313818 102.801417,427.445147 102.786031,427.563807 C102.770645,427.682467 102.716794,427.753776 102.624477,427.777735 C102.516773,427.792354 102.36676,427.745288 102.174432,427.636535 C101.982105,427.527782 101.801319,427.422037 101.632071,427.319294 L99.3010721,425.904258 C98.5009892,425.418567 97.7470763,424.788905 97.0393107,424.015253 C96.3315451,423.241601 95.7314919,422.369343 95.2391332,421.398453 C94.7006159,420.319541 94.3582779,419.279733 94.2121089,418.278996 C94.0659399,417.27826 93.9928566,416.313904 93.9928566,415.385899 Z M79.4991202,409.515457 C79.4991202,410.235461 79.6260545,411.00051 79.8799269,411.810626 C80.1337994,412.620743 80.5069094,413.431234 80.999268,414.242124 C81.4762405,415.027673 82.0224428,415.743242 82.6378911,416.388852 C83.2533395,417.034462 83.9072435,417.567414 84.5996229,417.987724 C85.2920023,418.408034 85.9459064,418.668989 86.5613548,418.770596 C87.1768031,418.872203 87.7230054,418.81978 88.1999778,418.613324 C88.6923365,418.400209 89.0654465,418.042711 89.3193189,417.540822 C89.5731914,417.038932 89.7001257,416.427995 89.7001257,415.707991 C89.7001257,414.971987 89.5731914,414.186939 89.3193189,413.352822 C89.0654465,412.518705 88.6923365,411.680214 88.1999778,410.837324 C87.7230054,410.035775 87.1768031,409.300206 86.5613548,408.630596 C85.9459064,407.960986 85.2920023,407.416034 84.5996229,406.995724 C83.9072435,406.575414 83.2533395,406.326459 82.6378911,406.248852 C82.0224428,406.171245 81.4762405,406.243668 80.999268,406.466124 C80.5069094,406.71124 80.1337994,407.096737 79.8799269,407.622626 C79.6260545,408.148516 79.4991202,408.779453 79.4991202,409.515457 Z M81.4146936,410.414309 C81.4146936,409.806306 81.4531586,409.225662 81.5300896,408.67236 C81.6070206,408.119058 81.8070384,407.692484 82.1301488,407.392627 C82.4224867,407.138089 82.7840572,407.021584 83.2148711,407.043109 C83.6456849,407.064634 84.1072643,407.224837 84.5996229,407.523724 C85.0919816,407.822611 85.553561,408.222812 85.9843748,408.72434 C86.4151887,409.225867 86.7767592,409.781355 87.0690971,410.390822 C87.3922075,411.082969 87.5922252,411.752384 87.6691563,412.399088 C87.7460873,413.045792 87.7845523,413.673137 87.7845523,414.28114 C87.7845523,414.921143 87.7499338,415.536121 87.6806959,416.126093 C87.6114579,416.716066 87.4075937,417.172304 87.0690971,417.494822 C86.8075316,417.76804 86.4536541,417.893215 86.007454,417.87035 C85.561254,417.847485 85.0919816,417.686611 84.5996229,417.387724 C84.1072643,417.088837 83.6379919,416.679966 83.1917919,416.161098 C82.7455918,415.642231 82.3917143,415.087412 82.1301488,414.496627 C81.7916522,413.763139 81.5877879,413.059389 81.51855,412.385355 C81.4493121,411.711321 81.4146936,411.054312 81.4146936,410.414309 Z M62.6051472,394.771949 C63.0667335,395.052155 63.4667689,395.422996 63.8052655,395.884482 C63.9745138,396.131225 64.1206806,396.391954 64.2437703,396.666677 C64.3668599,396.9414 64.4668688,397.214108 64.5437998,397.48481 L67.3133036,407.230041 C67.3594622,407.434063 67.4825501,407.596783 67.6825708,407.718205 L67.7287292,407.746226 C67.9287499,407.867649 68.0518377,407.85437 68.0979963,407.70639 L70.4982329,402.203457 L72.8984695,410.620524 C72.9446282,410.824545 73.060023,410.982595 73.2446575,411.094677 L73.3138951,411.136708 C73.5139158,411.258131 73.6370036,411.244853 73.6831623,411.096872 L76.683458,404.182206 C76.7296166,404.066226 76.7873141,403.965252 76.856552,403.879283 C76.9257899,403.793313 77.0296453,403.75236 77.1681212,403.756421 C77.3065971,403.760483 77.4912288,403.828564 77.7220219,403.960667 C77.9528151,404.092771 78.1682188,404.219532 78.3682395,404.340955 L78.3682395,403.596955 C77.5835428,403.184604 76.8103974,402.743265 76.0487801,402.272924 C75.2871627,401.802583 74.5140173,401.305244 73.7293207,400.780893 L73.7293207,401.524893 C73.9293414,401.646316 74.1255126,401.773402 74.3178402,401.906154 C74.5101678,402.038907 74.6909531,402.212652 74.8602014,402.427395 C75.0909945,402.727499 75.1525384,402.980858 75.044835,403.187477 L72.7830735,408.438472 L70.7982625,401.47359 L71.0982921,400.791723 C71.1444507,400.675743 71.2059946,400.577105 71.2829257,400.495806 C71.3598567,400.414506 71.4598656,400.371218 71.5829552,400.365939 C71.7214311,400.37 71.9060629,400.438082 72.136856,400.570185 C72.3676491,400.702288 72.5907458,400.833719 72.8061527,400.964483 L72.8061527,400.220483 C72.0676147,399.836152 71.3252413,399.413493 70.5790101,398.952493 C69.832779,398.491492 69.0904055,398.012834 68.3518675,397.516503 L68.3518675,398.260503 C68.5518882,398.381926 68.7480595,398.509012 68.9403871,398.641764 C69.1327147,398.774517 69.3134999,398.948262 69.4827482,399.163005 C69.7135414,399.463109 69.7750853,399.716468 69.6673818,399.923087 L67.2902244,405.392031 L65.143859,397.849077 C65.0823142,397.635715 65.0669282,397.438377 65.0977006,397.257057 C65.128473,397.075736 65.2054029,396.950438 65.3284926,396.881159 C65.4669685,396.80522 65.6323677,396.789627 65.8246953,396.83438 C66.0170229,396.879132 66.2131942,396.962218 66.4132149,397.083641 L66.4132149,396.339641 C65.7208355,395.967332 65.0207735,395.566358 64.3130079,395.136708 C63.7591043,394.80046 63.1898231,394.430877 62.6051472,394.027949 L62.6051472,394.771949 Z M49.8423507,396.624276 C50.7193646,397.108669 51.5886724,397.612383 52.4503001,398.135435 C53.327314,398.667828 54.1889288,399.214872 55.0351702,399.776584 L55.0351702,399.032584 C54.7736047,398.873801 54.4966571,398.701679 54.2043191,398.516215 C53.9119811,398.330751 53.6888845,398.15132 53.5350224,397.977918 C53.4119327,397.839195 53.3350028,397.692496 53.3042304,397.537815 C53.273458,397.383134 53.258072,397.233795 53.258072,397.089794 L53.258072,391.377794 C53.258072,390.977792 53.2773045,390.609471 53.31577,390.27282 C53.3542355,389.936169 53.4657839,389.671888 53.6504184,389.479969 C53.773508,389.346689 53.9466003,389.299767 54.1697003,389.3392 C54.3928003,389.378632 54.6274365,389.473069 54.8736159,389.622512 C55.3198159,389.893379 55.7352373,390.24556 56.1198926,390.679066 C56.5045478,391.112573 56.8353463,391.581382 57.1122981,392.085507 C57.3892498,392.589633 57.6085,393.114725 57.7700552,393.6608 C57.9316104,394.206874 58.0123868,394.727905 58.0123868,395.223907 L58.0123868,399.975907 C58.0123868,400.119908 57.9931543,400.248232 57.9546888,400.360882 C57.9162233,400.473532 57.8354469,400.524496 57.7123572,400.513774 C57.5584951,400.500372 57.3353984,400.408941 57.0430605,400.239477 C56.7507225,400.070013 56.4737749,399.905891 56.2122093,399.747107 L56.2122093,400.491107 C56.5199335,400.661912 56.8353461,400.841383 57.1584565,401.029528 C57.4815669,401.217672 57.7969794,401.397144 58.1047036,401.567948 L58.8201587,402.002266 C59.6971726,402.534659 60.5587874,403.081703 61.4050289,403.643415 L61.4050289,402.899415 C61.1434634,402.740632 60.8665157,402.56851 60.5741778,402.383046 C60.2818398,402.197582 60.0587431,402.018151 59.904881,401.844749 C59.7817914,401.706026 59.701015,401.556992 59.6625495,401.397641 C59.6240839,401.23829 59.6048515,401.086616 59.6048515,400.942615 L59.6048515,394.294615 C59.6048515,394.070614 59.6163909,393.865621 59.6394703,393.679631 C59.6625496,393.49364 59.7510189,393.383347 59.904881,393.348749 C60.0587431,393.33015 60.2818398,393.401582 60.5741778,393.563046 C60.8665157,393.72451 61.1434634,393.884632 61.4050289,394.043415 L61.4050289,393.299415 L59.5586931,392.034595 L58.1277828,391.045959 L58.1277828,393.541959 C57.850831,392.653831 57.4277166,391.800985 56.8584269,390.983395 C56.2891372,390.165804 55.6121541,389.518843 54.8274575,389.042492 C54.4120298,388.790306 53.9889154,388.585453 53.5581016,388.427928 C53.1272877,388.270402 52.7503313,388.261568 52.4272209,388.401425 C52.1041105,388.541282 51.8925533,388.800852 51.7925429,389.180143 C51.6925326,389.559434 51.6425281,389.965074 51.6425281,390.397076 L51.6425281,396.109076 C51.6425281,396.253077 51.6232957,396.381401 51.5848301,396.494051 C51.5463646,396.606701 51.4655882,396.657664 51.3424986,396.646943 C51.1886365,396.633541 50.9655398,396.54211 50.6732018,396.372646 C50.3808638,396.203181 50.1039162,396.03906 49.8423507,395.880276 L49.8423507,396.624276 Z" id="Down" fill="#000000"></path>
                    </g>
                    <path d="M60.5,224.5 L60.5,113.5" id="Arrow" stroke="#000000" stroke-width="5" stroke-linecap="round"></path>
                    <path id="Arrow-decoration-1" d="M60.5,113.5 L57.5,124.3 L63.5,124.3 L60.5,113.5 Z" stroke="#000000" stroke-width="5" stroke-linecap="round"></path>
                </g>
                <text id="to" font-family="Euclid" font-size="24" font-weight="normal" fill="#000000">
                    <tspan x="494.332" y="230">to</tspan>
                </text>
                <g id="Group" transform="translate(0.000000, 113.000000)">
                    <g id="Group-2" transform="translate(0.000000, 58.000000)">
                        <path d="M188,104.739152 L287.836837,5.68434189e-14" id="VerticalDiv" stroke="#979797" stroke-width="2" stroke-linecap="round" stroke-dasharray="4"></path>
                        <g id="Platform">
                            <polyline id="Path-2" stroke="#000000" stroke-width="4" stroke-linecap="round" points="1 106.278713 377.104166 106.278713 477.686229 1"></polyline>
                            <polyline id="Path-2" stroke="#000000" stroke-width="2" stroke-linecap="round" transform="translate(238.343115, 52.639356) scale(-1, -1) translate(-238.343115, -52.639356) " points="0 105.278713 376.104166 105.278713 476.686229 0"></polyline>
                            <path d="M41.191775,88.776 L34.5727091,94.944 L22.0687091,94.944 L22.7889544,94.2 C23.1409562,94.2 23.5248246,94.196 23.9405713,94.188 C24.3563179,94.18 24.7069096,94.1360004 24.9923567,94.056 C25.1828251,94.0079998 25.3758858,93.9160007 25.5715445,93.78 C25.7672032,93.6439993 25.9424761,93.4960008 26.0973683,93.336 L38.875914,80.136 C39.0308062,79.9759992 39.1420797,79.8280007 39.2097378,79.692 C39.2773959,79.5559993 39.2624586,79.4640002 39.1649256,79.416 C39.0343706,79.3359996 38.7689684,79.292 38.368711,79.284 C37.9684536,79.276 37.5923296,79.272 37.2403279,79.272 L37.9373395,78.552 C39.1868783,78.6000002 40.4515042,78.62 41.7312552,78.612 C43.0110061,78.604 44.3063546,78.5840002 45.6173395,78.552 L44.9203279,79.272 L44.2243279,79.272 C43.9843267,79.272 43.7444568,79.276 43.504711,79.284 C43.2649652,79.292 43.0294785,79.3079999 42.7982436,79.332 C42.5670087,79.3560001 42.3719047,79.3839998 42.2129256,79.416 C42.0064571,79.4640002 41.7933966,79.5559993 41.5737378,79.692 C41.3540789,79.8280007 41.1668062,79.9759992 41.011914,80.136 L28.2333683,93.336 C28.0939653,93.4800007 27.9703088,93.6159994 27.8623951,93.744 C27.7544814,93.8720006 27.7178023,93.9759996 27.7523567,94.056 C27.7709111,94.1360004 27.8763149,94.18 28.0685713,94.188 C28.2608277,94.196 28.4449535,94.2 28.6209544,94.2 L30.5409544,94.2 C31.1809576,94.2 31.8822686,94.1160008 32.6449085,93.948 C33.4075483,93.7799992 34.2297062,93.4720022 35.1114067,93.024 C36.1500428,92.4799973 37.1172159,91.8280038 38.0129548,91.068 C38.9086937,90.3079962 39.7682919,89.5440038 40.591775,88.776 L41.191775,88.776 Z M49.0015217,92.088 C48.4728447,92.5680024 47.9026434,92.9999981 47.2909009,93.384 C46.6791583,93.7680019 46.057637,94.0959986 45.4263184,94.368 C44.7949997,94.6400014 44.1856469,94.8479993 43.5982417,94.992 C43.0108364,95.1360007 42.4771406,95.208 41.9971382,95.208 C41.2771346,95.208 40.7286701,95.0680014 40.3517283,94.788 C39.9747865,94.5079986 39.7861447,94.1120026 39.7857974,93.6 C39.7849392,93.0719974 39.9817802,92.4720034 40.3763264,91.8 C40.7708725,91.1279966 41.3243894,90.4240037 42.0368937,89.688 C42.7339087,88.9679964 43.5238064,88.2760033 44.4066104,87.612 C45.2894144,86.9479967 46.2263757,86.3520026 47.2175225,85.824 C48.17718,85.3119974 49.0965271,84.9160014 49.9755916,84.636 C50.854656,84.3559986 51.6301783,84.216 52.3021817,84.216 C52.8941846,84.216 53.3695004,84.319999 53.7281433,84.528 C54.0867862,84.736001 54.2495125,85.0719977 54.2163271,85.536 C54.1526741,86.0480026 53.898812,86.6159969 53.454733,87.24 C53.0106541,87.8640031 52.4788382,88.4959968 51.8592692,89.136 C51.6888877,89.3120009 51.5156992,89.4 51.3396983,89.4 L44.3076983,89.4 C43.6101724,90.1040035 42.9958898,90.7839967 42.4648321,91.44 C41.9337745,92.0960033 41.5966795,92.6879974 41.4535369,93.216 C41.3548186,93.6320021 41.405546,93.9679987 41.6057207,94.224 C41.8058954,94.4800013 42.1619786,94.608 42.6739812,94.608 C43.0579831,94.608 43.4879354,94.5440006 43.9638509,94.416 C44.4397665,94.2879994 44.9380144,94.1080012 45.4586096,93.876 C45.9792049,93.6439988 46.4945152,93.3720016 47.0045561,93.06 C47.514597,92.7479984 48.003481,92.4000019 48.4712229,92.016 C48.6271368,91.8879994 48.7770919,91.824 48.9210926,91.824 L49.0410926,91.824 C49.1541149,91.8560002 49.1409247,91.9439993 49.0015217,92.088 Z M50.4836064,88.896 C51.0097292,88.3359972 51.4726109,87.8000026 51.8722656,87.288 C52.2719203,86.7759974 52.5445919,86.2960022 52.6902888,85.848 C52.7915613,85.5119983 52.7670048,85.244001 52.6166184,85.044 C52.4662319,84.843999 52.1910419,84.744 51.7910399,84.744 C51.3270375,84.744 50.7791298,84.8719987 50.1473003,85.128 C49.5154708,85.3840013 48.8702052,85.7199979 48.2114841,86.136 C47.552763,86.5520021 46.9508175,86.9919977 46.4056296,87.456 C45.8604416,87.9200023 45.3317725,88.3999975 44.8196064,88.896 L50.4836064,88.896 Z M70.2068872,79.728 C69.8661243,80.0800018 69.4985571,80.3439991 69.1041745,80.52 C68.7097919,80.6960009 68.3766049,80.784 68.1046036,80.784 C67.8486023,80.784 67.6977941,80.6960009 67.6521745,80.52 C67.6065549,80.3439991 67.7541243,80.0800018 68.0948872,79.728 C68.3736932,79.4399986 68.6704106,79.2120008 68.9850482,79.044 C69.2996858,78.8759992 69.5762348,78.7680002 69.8147034,78.72 C69.6991269,78.6079994 69.4813411,78.552 69.1613395,78.552 C68.8573379,78.552 68.4998958,78.6319992 68.0890023,78.792 C67.6781087,78.9520008 67.2450096,79.1679986 66.7896918,79.44 C66.2559062,79.7600016 65.7472778,80.115998 65.2637913,80.508 C64.7803048,80.900002 64.3372083,81.3039979 63.9344885,81.72 L61.1464422,84.6 L63.9304422,84.6 L63.2101969,85.344 L60.4981969,85.344 L52.7613683,93.336 C52.6064761,93.4960008 52.4912026,93.6439993 52.4155445,93.78 C52.3398864,93.9160007 52.3508237,94.0079998 52.4483567,94.056 C52.5629116,94.1360004 52.8123139,94.18 53.1965713,94.188 C53.5808286,94.196 53.9329528,94.2 54.2529544,94.2 L53.5327091,94.944 C52.5876827,94.9119998 51.6390536,94.892 50.6867934,94.884 C49.7345332,94.876 48.7471817,94.8959998 47.7247091,94.944 L48.4449544,94.2 C48.7169558,94.2 49.0088251,94.196 49.3205713,94.188 C49.6323174,94.18 49.9069098,94.1360004 50.1443567,94.056 C50.3343143,93.9919997 50.5151196,93.8920007 50.6867782,93.756 C50.8584368,93.6199993 51.0139653,93.4800007 51.1533683,93.336 L58.8901969,85.344 L56.9701969,85.344 L57.6904422,84.6 L59.6104422,84.6 L62.3984885,81.72 C62.8786544,81.2239975 63.435451,80.7480023 64.0688948,80.292 C64.7023386,79.8359977 65.3576885,79.4400017 66.0349639,79.104 C66.7277286,78.7519982 67.3950374,78.480001 68.0369104,78.288 C68.6787833,78.095999 69.2477125,78 69.743715,78 C69.9997163,78 70.2169912,78.0399996 70.3955464,78.12 C70.5741016,78.2000004 70.6976763,78.3119993 70.7662743,78.456 C70.8348724,78.6000007 70.8246196,78.7799989 70.7355157,78.996 C70.6464117,79.2120011 70.470204,79.4559986 70.2068872,79.728 Z M65.0079892,92.04 C64.6362478,92.4240019 64.2203847,92.8039981 63.7603875,93.18 C63.3003903,93.5560019 62.8312506,93.8959985 62.3529544,94.2 C61.8746582,94.5040015 61.4024535,94.7479991 60.936326,94.932 C60.4701985,95.1160009 60.0451401,95.208 59.6611382,95.208 C59.2451361,95.208 58.891224,95.1480006 58.5993911,95.028 C58.3075582,94.9079994 58.1565355,94.6880016 58.1463184,94.368 C58.1361013,94.0479984 58.268478,93.684002 58.5434526,93.276 C58.8184272,92.867998 59.1572693,92.4560021 59.5599892,92.04 L66.0421969,85.344 L64.0021969,85.344 L64.5133387,84.816 C65.0253413,84.816 65.6051209,84.6840013 66.2526951,84.42 C66.9002692,84.1559987 67.5651515,83.8080022 68.2473619,83.376 C68.9295722,82.9439978 69.605729,82.4480028 70.2758525,81.888 C70.9459759,81.3279972 71.5598345,80.7600029 72.1174465,80.184 L72.7174465,80.184 L68.4424422,84.6 L71.8264422,84.6 L71.1061969,85.344 L67.7221969,85.344 L61.2399892,92.04 C60.883737,92.4080018 60.5748512,92.7559984 60.3133224,93.084 C60.0517936,93.4120016 59.8773738,93.7119986 59.7900579,93.984 C59.6753395,94.4000021 59.8579788,94.608 60.3379812,94.608 C60.5939825,94.608 60.8878084,94.5400007 61.2194678,94.404 C61.5511272,94.2679993 61.8971212,94.0800012 62.2574602,93.84 C62.6177992,93.5999988 62.9849833,93.3240016 63.3590235,93.012 C63.7330637,92.6999984 64.0827155,92.3760017 64.4079892,92.04 L65.8020123,90.6 L66.4020123,90.6 L65.0079892,92.04 Z" id="Left" fill="#000000"></path>
                            <path d="M401.214861,22.4 C400.840901,22.7360017 400.418947,23.0719983 399.948987,23.408 C399.479027,23.7440017 399.00514,24.0439987 398.527314,24.308 C398.049487,24.5720013 397.589542,24.7839992 397.147465,24.944 C396.705387,25.1040008 396.308353,25.184 395.956352,25.184 C395.364349,25.184 394.896487,25.1120007 394.552753,24.968 C394.209019,24.8239993 394.013423,24.6080014 393.965958,24.32 C393.918493,24.0319986 394.02671,23.6760021 394.29061,23.252 C394.554511,22.8279979 395.006992,22.3280029 395.648066,21.752 L397.998659,19.64 C398.443849,19.239998 398.790774,18.8600018 399.039445,18.5 C399.288115,18.1399982 399.423361,17.8280013 399.445185,17.564 C399.467009,17.2999987 399.382508,17.0920008 399.191678,16.94 C399.000849,16.7879992 398.705438,16.712 398.305436,16.712 L395.377436,16.712 L388.325656,23.048 C388.14758,23.2080008 388.014862,23.3559993 387.927497,23.492 C387.840133,23.6280007 387.84174,23.7199998 387.932318,23.768 C388.051281,23.8480004 388.310307,23.892 388.709405,23.9 C389.108504,23.908 389.476048,23.912 389.81205,23.912 L388.984,24.656 C386.754834,24.5599995 384.426857,24.5599995 382,24.656 L382.82805,23.912 C383.180052,23.912 383.5605,23.908 383.969405,23.9 C384.378311,23.892 384.731278,23.8480004 385.028318,23.768 C385.225741,23.7199998 385.436132,23.6280007 385.659497,23.492 C385.882862,23.3559993 386.08358,23.2080008 386.261656,23.048 L400.952863,9.848 C401.130939,9.6879992 401.259658,9.54000068 401.339022,9.404 C401.418386,9.26799932 401.41278,9.17600024 401.322202,9.128 C401.203239,9.0479996 400.948212,9.00400004 400.557114,8.996 C400.166016,8.98799996 399.794471,8.984 399.44247,8.984 L400.243808,8.264 L407.707808,8.264 C408.507812,8.264 409.18096,8.35999904 409.727273,8.552 C410.273585,8.74400096 410.616527,9.07199768 410.75611,9.536 C410.874538,9.90400184 410.820379,10.3479974 410.593634,10.868 C410.366888,11.3880026 409.906274,11.9599969 409.211777,12.584 C408.535087,13.192003 407.736284,13.7479975 406.815342,14.252 C405.894401,14.7560025 404.990962,15.1759983 404.105,15.512 C403.469884,15.7520012 402.863296,15.9519992 402.285218,16.112 C401.70714,16.2720008 401.156685,16.3999995 400.633837,16.496 C401.134727,16.7360012 401.380699,17.1079975 401.371762,17.612 C401.362825,18.1160025 400.968269,18.7759959 400.188081,19.592 L398.173488,21.704 C397.320263,22.6000045 396.695382,23.3159973 396.298828,23.852 C395.902274,24.3880027 395.983997,24.656 396.544,24.656 C397.008002,24.656 397.633301,24.4320022 398.419916,23.984 C399.206531,23.5359978 399.938172,23.008003 400.614861,22.4 C400.810745,22.2239991 400.996684,22.136 401.172685,22.136 C401.420686,22.136 401.410745,22.2239991 401.214861,22.4 Z M406.739777,12.584 C407.274005,12.1039976 407.743774,11.6280024 408.149098,11.156 C408.554422,10.6839976 408.751156,10.2880016 408.739307,9.968 C408.734687,9.58399808 408.524062,9.32400068 408.107424,9.188 C407.690785,9.05199932 407.186472,8.984 406.59447,8.984 L405.20247,8.984 C405.026469,8.984 404.834019,8.98799996 404.625114,8.996 C404.416209,9.00400004 404.21124,9.0479996 404.010202,9.128 C403.825163,9.2080004 403.648964,9.31599932 403.481599,9.452 C403.314235,9.58800068 403.159324,9.71999936 403.016863,9.848 L395.965084,16.184 L398.581084,16.184 C399.173087,16.184 399.828762,16.1160007 400.54813,15.98 C401.267497,15.8439993 402.056862,15.5840019 402.916247,15.2 C403.640401,14.8799984 404.320678,14.4880023 404.9571,14.024 C405.593521,13.5599977 406.187741,13.0800025 406.739777,12.584 Z M419.648863,9.848 C419.257096,10.2000018 418.799209,10.4999988 418.27519,10.748 C417.751171,10.9960012 417.313167,11.12 416.961165,11.12 C416.609163,11.12 416.447173,10.9960012 416.47519,10.748 C416.503207,10.4999988 416.713096,10.2000018 417.104863,9.848 C417.496631,9.49599824 417.954517,9.19600124 418.478536,8.948 C419.002556,8.69999876 419.44056,8.576 419.792561,8.576 C420.144563,8.576 420.306553,8.69999876 420.278536,8.948 C420.25052,9.19600124 420.040631,9.49599824 419.648863,9.848 Z M404.752,24.656 C403.130837,24.5599995 401.410854,24.5599995 399.592,24.656 L400.42005,23.912 C400.692051,23.912 400.9845,23.908 401.297405,23.9 C401.610311,23.892 401.891279,23.8480004 402.140318,23.768 C402.339549,23.7039997 402.534844,23.6040007 402.726209,23.468 C402.917574,23.3319993 403.093388,23.1920007 403.253656,23.048 L410.652682,16.4 C410.901989,16.1759989 411.125936,15.964001 411.324531,15.764 C411.523126,15.563999 411.621653,15.4000006 411.620113,15.272 C411.584765,15.1599994 411.435997,15.0960001 411.173803,15.08 C410.911609,15.0639999 410.644516,15.056 410.372514,15.056 L411.200564,14.312 L414.878388,14.048 L404.861656,23.048 C404.701388,23.1920007 404.557573,23.3319993 404.430209,23.468 C404.302844,23.6040007 404.267547,23.7039997 404.324318,23.768 C404.37928,23.8480004 404.542308,23.892 404.813405,23.9 C405.084503,23.908 405.340049,23.912 405.58005,23.912 L404.752,24.656 Z M427.876648,14.984 C427.609534,15.2240012 427.341654,15.3999994 427.073,15.512 C426.804346,15.6240006 426.582022,15.68 426.406021,15.68 C426.23002,15.68 426.132347,15.6240006 426.113,15.512 C426.093652,15.3999994 426.217534,15.2240012 426.484648,14.984 C426.680532,14.8079991 426.867894,14.6720005 427.04674,14.576 C427.225586,14.4799995 427.406622,14.4000003 427.589853,14.336 C426.631656,14.3199999 425.493324,14.6239969 424.174824,15.248 C424.122673,15.5680016 423.966457,15.923998 423.706172,16.316 C423.445886,16.708002 423.066442,17.1279978 422.567829,17.576 C422.033601,18.0560024 421.422093,18.5119978 420.733286,18.944 C420.044479,19.3760022 419.34601,19.7519984 418.637856,20.072 C417.895894,20.4080017 417.195432,20.6599992 416.53645,20.828 C415.877468,20.9960008 415.291984,21.08 414.779982,21.08 C414.363979,21.08 414.018761,21.0200006 413.744316,20.9 C413.469871,20.7799994 413.299111,20.5920013 413.232031,20.336 C412.687493,20.6240014 412.220703,20.9319984 411.831647,21.26 C411.442591,21.5880016 411.157154,21.8839987 410.975329,22.148 C410.793504,22.4120013 410.720652,22.6319991 410.756769,22.808 C410.792886,22.9840009 410.970943,23.072 411.290945,23.072 L413.234945,23.072 C413.906948,23.072 414.537971,23.1159996 415.128033,23.204 C415.718094,23.2920004 416.10343,23.5279981 416.28405,23.912 C416.411515,24.2000014 416.316135,24.5839976 415.997908,25.064 C415.679681,25.5440024 415.226748,26.0479974 414.639097,26.576 C414.069254,27.0880026 413.415553,27.5279982 412.677976,27.896 C411.9404,28.2640018 411.238968,28.5599989 410.573659,28.784 C409.657504,29.1040016 408.812207,29.3279994 408.037743,29.456 C407.263279,29.5840006 406.556056,29.648 405.916053,29.648 C405.276049,29.648 404.711285,29.5840006 404.221743,29.456 C403.732201,29.3279994 403.385509,29.1040016 403.181659,28.784 C403.014963,28.5599989 402.972403,28.2640018 403.053976,27.896 C403.13555,27.5279982 403.461254,27.0880026 404.031097,26.576 C404.45848,26.1919981 404.941789,25.8440016 405.481038,25.532 C406.020287,25.2199984 406.558558,24.9520011 407.095866,24.728 C407.73279,24.4719987 408.338474,24.2800006 408.912937,24.152 C408.838627,23.959999 408.891547,23.7040016 409.071698,23.384 C409.25185,23.0639984 409.53116,22.7160019 409.909639,22.34 C410.288118,21.9639981 410.755946,21.576002 411.313136,21.176 C411.870327,20.775998 412.488798,20.4000018 413.168567,20.048 C413.172717,19.7279984 413.319193,19.3520022 413.607997,18.92 C413.896802,18.4879978 414.299408,18.0400023 414.815829,17.576 C415.350058,17.0959976 415.957566,16.6400022 416.638373,16.208 C417.319179,15.7759978 418.013649,15.4000016 418.721803,15.08 C419.479765,14.7439983 420.192678,14.4880009 420.860564,14.312 C421.52845,14.1359991 422.110386,14.048 422.606388,14.048 C423.550393,14.048 424.077852,14.3359971 424.188782,14.912 C424.934359,14.5439982 425.641983,14.264001 426.311677,14.072 C426.981371,13.879999 427.56421,13.784 428.060212,13.784 C428.380214,13.784 428.518656,13.9039988 428.475543,14.144 C428.43243,14.3840012 428.2328,14.6639984 427.876648,14.984 Z M420.767829,17.576 C421.230827,17.1599979 421.634656,16.7720018 421.979327,16.412 C422.323998,16.0519982 422.552598,15.7280014 422.665134,15.44 C422.758055,15.1839987 422.744649,14.9840007 422.624916,14.84 C422.505183,14.6959993 422.285319,14.624 421.965317,14.624 C421.645316,14.624 421.265186,14.6959993 420.824916,14.84 C420.384646,14.9840007 419.934056,15.1839987 419.473134,15.44 C418.928596,15.7280014 418.431998,16.0519982 417.983327,16.412 C417.534655,16.7720018 417.078827,17.1599979 416.615829,17.576 C416.170639,17.976002 415.775714,18.3559982 415.431043,18.716 C415.086372,19.0760018 414.857772,19.3999986 414.745236,19.688 C414.539779,20.2320027 414.765049,20.504 415.421052,20.504 C416.093056,20.504 416.931775,20.2320027 417.937236,19.688 C418.465774,19.3999986 418.958372,19.0760018 419.415043,18.716 C419.871715,18.3559982 420.322639,17.976002 420.767829,17.576 Z M413.391097,26.576 C413.747249,26.2559984 413.997138,25.9560014 414.14077,25.676 C414.284403,25.3959986 414.309256,25.1760008 414.215331,25.016 C414.03625,24.7599987 413.705425,24.6080002 413.222845,24.56 C412.740265,24.5119998 412.218982,24.488 411.658979,24.488 L409.714979,24.488 C409.122976,24.488 408.404389,24.687998 407.559197,25.088 C406.680197,25.5040021 405.920171,25.9999971 405.279097,26.576 C404.88733,26.9280018 404.63873,27.2519985 404.53329,27.548 C404.42785,27.8440015 404.419382,28.095999 404.507885,28.304 C404.621157,28.5760014 404.863013,28.7719994 405.233458,28.892 C405.603904,29.0120006 406.045121,29.072 406.557123,29.072 C407.069126,29.072 407.639899,29.0120006 408.269458,28.892 C408.899018,28.7719994 409.581153,28.5760014 410.315885,28.304 C410.867385,28.095999 411.419848,27.8440015 411.97329,27.548 C412.526732,27.2519985 412.99933,26.9280018 413.391097,26.576 Z M430.288,24.656 C429.429418,24.6079998 428.552138,24.584 427.656134,24.584 C426.744129,24.584 425.821427,24.6079998 424.888,24.656 L425.71605,23.912 C425.988051,23.912 426.2805,23.908 426.593405,23.9 C426.906311,23.892 427.187279,23.8480004 427.436318,23.768 C427.635549,23.7039997 427.826844,23.6040007 428.010209,23.468 C428.193574,23.3319993 428.365388,23.1920007 428.525656,23.048 L434.882942,17.336 C435.328132,16.935998 435.731057,16.5560018 436.091728,16.196 C436.452399,15.8359982 436.705903,15.5040015 436.852247,15.2 C436.955745,14.991999 436.944916,14.8400005 436.819761,14.744 C436.694605,14.6479995 436.50403,14.6 436.248029,14.6 C435.784026,14.6 435.240735,14.699999 434.618138,14.9 C433.99554,15.100001 433.353271,15.3679983 432.69131,15.704 C432.029348,16.0400017 431.365071,16.4319978 430.698457,16.88 C430.031843,17.3280022 429.422527,17.7999975 428.870491,18.296 L423.581656,23.048 C423.421388,23.1920007 423.285573,23.3319993 423.174209,23.468 C423.062844,23.6040007 423.035547,23.7039997 423.092318,23.768 C423.16328,23.8480004 423.346308,23.892 423.641405,23.9 C423.936503,23.908 424.220048,23.912 424.49205,23.912 L423.664,24.656 C423.361806,24.6399999 423.047165,24.628 422.720067,24.62 C422.392969,24.612 422.078328,24.6000001 421.776134,24.584 L421.032134,24.584 C420.120129,24.584 419.197427,24.6079998 418.264,24.656 L419.09205,23.912 C419.364051,23.912 419.6565,23.908 419.969405,23.9 C420.282311,23.892 420.563279,23.8480004 420.812318,23.768 C421.011549,23.7039997 421.206844,23.6040007 421.398209,23.468 C421.589574,23.3319993 421.765388,23.1920007 421.925656,23.048 L436.082638,10.328 C436.314137,10.119999 436.533632,9.91200104 436.741131,9.704 C436.94863,9.49599896 437.043608,9.32800064 437.026068,9.2 C436.99072,9.08799944 436.829952,9.02400008 436.543758,9.008 C436.257564,8.99199992 435.978471,8.984 435.70647,8.984 L436.507808,8.264 L438.588076,8.12 L440.257632,8 L430.908682,16.4 C431.978411,15.7119966 433.054116,15.1480022 434.135828,14.708 C435.21754,14.2679978 436.142384,14.048 436.910388,14.048 C437.34239,14.048 437.724512,14.0999995 438.056765,14.204 C438.389018,14.3080005 438.536163,14.5279983 438.498205,14.864 C438.460246,15.2000017 438.248416,15.5879978 437.862707,16.028 C437.476998,16.4680022 437.043748,16.9039978 436.562942,17.336 L430.205656,23.048 C430.045388,23.1920007 429.909573,23.3319993 429.798209,23.468 C429.686844,23.6040007 429.659547,23.7039997 429.716318,23.768 C429.78728,23.8480004 429.970308,23.892 430.265405,23.9 C430.560503,23.908 430.844048,23.912 431.11605,23.912 L430.288,24.656 Z M441.344066,21.752 C440.916683,22.1360019 440.445759,22.5159981 439.931279,22.892 C439.4168,23.2680019 438.898395,23.6079985 438.37605,23.912 C437.853704,24.2160015 437.346145,24.4599991 436.853356,24.644 C436.360567,24.8280009 435.922178,24.92 435.538176,24.92 C435.122174,24.92 434.776955,24.8600006 434.502511,24.74 C434.228066,24.6199994 434.10892,24.4000016 434.145071,24.08 C434.181222,23.7599984 434.366341,23.396002 434.700434,22.988 C435.034528,22.579998 435.433068,22.1680021 435.896066,21.752 L443.348514,15.056 L441.308514,15.056 L441.896163,14.528 C442.408165,14.528 443.007071,14.3960013 443.692899,14.132 C444.378726,13.8679987 445.094033,13.5200022 445.83884,13.088 C446.583647,12.6559978 447.331672,12.1600028 448.082939,11.6 C448.834206,11.0399972 449.530367,10.4720029 450.171441,9.896 L450.771441,9.896 L445.856564,14.312 L449.240564,14.312 L448.412514,15.056 L445.028514,15.056 L437.576066,21.752 C437.16649,22.1200018 436.80718,22.4679984 436.498125,22.796 C436.189069,23.1240016 435.97118,23.4239986 435.844451,23.696 C435.669455,24.1120021 435.821956,24.32 436.301958,24.32 C436.557959,24.32 436.861638,24.2520007 437.213004,24.116 C437.56437,23.9799993 437.937604,23.7920012 438.332719,23.552 C438.727834,23.3119988 439.13501,23.0360016 439.554258,22.724 C439.973507,22.4119984 440.370106,22.0880017 440.744066,21.752 L442.346743,20.312 L442.946743,20.312 L441.344066,21.752 Z" id="Right" fill="#000000"></path>
                        </g>
                    </g>
                    <path d="M237.5,111.5 L237.5,0.5" id="Arrow" stroke="#000000" stroke-width="5" stroke-linecap="round"></path>
                    <path id="Arrow-decoration-1" d="M237.5,0.5 L234.5,11.3 L240.5,11.3 L237.5,0.5 Z" stroke="#000000" stroke-width="5" stroke-linecap="round"></path>
                </g>
            </g>
        </g>
    </g>
</svg>