<?xml version="1.0" encoding="UTF-8"?>
<svg width="481px" height="447px" viewBox="0 0 481 447" version="1.1" xmlns="http://www.w3.org/2000/svg" xmlns:xlink="http://www.w3.org/1999/xlink">
    <!-- Generator: Sketch 50.2 (55047) - http://www.bohemiancoding.com/sketch -->
    <title>Group</title>
    <desc>Created with Sketch.</desc>
    <defs></defs>
    <g id="Page-1" stroke="none" stroke-width="1" fill="none" fill-rule="evenodd">
        <g id="Artboard-4" transform="translate(-43.000000, -114.000000)">
            <g id="Group" transform="translate(44.000000, 116.000000)">
                <polyline id="Path-2" stroke="#000000" stroke-width="2" stroke-linecap="round" transform="translate(238.500000, 220.500000) scale(-1, -1) translate(-238.500000, -220.500000) " points="0 273 183.996531 273 289.772147 273 376.35173 273 477 168"></polyline>
                <rect id="Rectangle" fill="#FFFFFF" x="187" y="137" width="105" height="50"></rect>
                <path d="M190,270 L291,169" id="VerticalDiv" stroke="#979797" stroke-width="2" stroke-linecap="round" stroke-dasharray="4"></path>
                <polyline id="Path-2" stroke="#000000" stroke-width="4" stroke-linecap="round" transform="translate(238.500000, 221.500000) scale(-1, 1) rotate(-90.000000) translate(-238.500000, -221.500000) " points="17 274 393.442591 274 460 169"></polyline>
                <polyline id="Path-2" stroke="#000000" stroke-width="2" stroke-linecap="round" transform="translate(239.500000, 222.500000) scale(-1, 1) rotate(-90.000000) translate(-239.500000, -222.500000) " points="461 170 84.5574092 170 18 275"></polyline>
                <polyline id="Path-2" stroke="#000000" stroke-width="4" stroke-linecap="round" transform="translate(238.500000, 221.500000) scale(-1, 1) rotate(-90.000000) translate(-238.500000, -221.500000) " points="17 274 393.442591 274 460 169"></polyline>
                <polyline id="Path-2" stroke="#000000" stroke-width="2" stroke-linecap="round" transform="translate(239.500000, 222.500000) scale(-1, 1) rotate(-90.000000) translate(-239.500000, -222.500000) " points="461 170 84.5574092 170 18 275"></polyline>
                <rect id="Rectangle-2" fill="#FFFFFF" transform="translate(296.000000, 221.000000) scale(-1, 1) translate(-296.000000, -221.000000) " x="291" y="169" width="10" height="104"></rect>
                <polyline id="Path-2" stroke="#000000" stroke-width="4" stroke-linecap="round" points="1 274 377.35173 274 478 169"></polyline>
                <path d="M239.5,218.5 L239.5,107.5" id="Arrow" stroke="#000000" stroke-width="5" stroke-linecap="round"></path>
                <path id="Arrow-decoration-1" d="M239.5,107.5 L236.5,118.3 L242.5,118.3 L239.5,107.5 Z" stroke="#000000" stroke-width="5" stroke-linecap="round"></path>
                <path d="M256.462891,52.8061424 C256.462891,53.4975521 256.544921,54.2002678 256.708984,54.9143106 C256.84961,55.6083789 257.078123,56.2279273 257.394531,56.7729743 C257.757814,57.2290634 258.22656,57.4996414 258.800781,57.5847165 C259.375003,57.6932292 260.095699,57.4666224 260.962891,56.9048893 C261.888677,56.3052012 262.667966,55.5015829 263.300781,54.4940103 C263.89844,53.5560859 264.378904,52.5476014 264.742187,51.4685265 C265.363284,49.2615076 265.662109,47.3863165 265.638672,45.8428969 C265.662109,44.2222382 265.339847,42.8138159 264.671875,41.6175878 C264.308592,41.0794671 263.828128,40.7637461 263.230469,40.6704154 C262.621091,40.5846756 261.85352,40.8416459 260.927734,41.441334 C260.013667,42.0334311 259.269534,42.8201361 258.695312,43.8014726 C258.085934,44.7938632 257.617189,45.8416314 257.289063,46.9448085 C256.972655,48.0286758 256.767579,49.0814288 256.673828,50.103099 C256.533202,51.1551332 256.462891,52.0561386 256.462891,52.8061424 Z M270.753906,34.373197 C270.203122,37.823739 269.494145,41.2419417 268.626953,44.6279077 C268.533203,44.9816058 268.398438,45.479053 268.222656,46.1202642 C267.98828,46.822868 267.871094,47.2796323 267.871094,47.4905709 C267.871094,47.666353 267.941406,47.8727583 268.082031,48.1097931 C268.222657,48.3585467 268.404296,48.6041658 268.626953,48.8466577 C268.837892,49.0967406 269.089842,49.2557992 269.382812,49.3238382 C269.664064,49.4580624 269.95117,49.4302875 270.244141,49.2405128 C270.724612,48.9292822 271.08203,48.5161218 271.316406,48.0010189 C271.539064,47.5169447 271.650391,47.0874131 271.650391,46.7124112 L272.371094,46.2455678 C272.371094,46.6791637 272.359375,47.1437812 272.335937,47.6394344 C272.289062,48.1737071 272.189454,48.7128341 272.037109,49.2568317 C271.896484,49.7815195 271.685548,50.2814329 271.404297,50.7565868 C271.111327,51.2276129 270.724612,51.630454 270.244141,51.9651221 C269.693357,52.298461 269.23633,52.4187256 268.873047,52.3259196 C268.486326,52.2600144 268.187501,52.0551482 267.976562,51.7113148 C267.589842,50.9305623 267.314454,50.0894268 267.150391,49.1878831 L267.080078,49.2334288 C266.66992,50.6475566 265.890631,52.2070267 264.742187,53.9118859 C263.582025,55.6946489 262.128915,57.1749745 260.382813,58.352907 C258.027332,59.8318204 256.216803,60.1081351 254.951172,59.1818594 C253.650384,58.313513 253,56.7543576 253,54.5043464 C253,52.1723035 253.697259,49.6581671 255.091797,46.9618617 C256.462897,44.2455819 258.343738,42.0897559 260.734375,40.4943191 C262.562509,39.3570001 263.910152,39.1695896 264.777344,39.9320818 C265.632817,40.6904462 266.160155,41.7902487 266.359375,43.2315222 L266.429688,43.1859765 L267.607422,36.4113672 L270.753906,34.373197 Z M280.158203,26.8752093 L280.158203,22.0236468 L275.306641,25.1663003 L275.306641,23.4260659 L280.158203,20.2834124 L280.158203,15.4318499 L281.898437,14.3045938 L281.898437,19.1561563 L286.75,16.0135028 L286.75,17.7537372 L281.898437,20.8963906 L281.898437,25.7479531 L280.158203,26.8752093 Z" id="α⁺" fill="#000000"></path>
                <path d="M394,210.703125 L418.515433,185.232422 C421.44805,182.185532 424.417614,179.812508 427.424213,178.113281 C430.430812,176.414054 433.158686,175.564453 435.607917,175.564453 C437.623552,175.564453 438.744881,176.091792 438.971938,177.146484 C439.198995,178.201177 438.483505,179.589835 436.825449,181.3125 C435.494491,182.695319 433.869453,183.969721 431.950283,185.135742 C430.031114,186.301764 427.823732,187.35937 425.328069,188.308594 C426.782816,188.976566 427.430971,190.010735 427.272554,191.411133 C427.114137,192.81153 426.166436,194.414053 424.429424,196.21875 C422.184844,198.550793 419.53787,200.46386 416.488423,201.958008 C413.438977,203.452156 410.654523,204.199219 408.134979,204.199219 C406.623253,204.199219 405.389426,203.953127 404.433462,203.460938 L397.462891,210.703125 L394,210.703125 Z M420.893545,187.710938 L421.526357,187.710938 C423.038084,187.710938 424.948694,187.098639 427.258246,185.874023 C429.567797,184.649408 431.506456,183.222664 433.074278,181.59375 C434.16837,180.457026 434.698781,179.601565 434.665526,179.027344 C434.632271,178.453122 434.035572,178.166016 432.875409,178.166016 C431.504309,178.166016 429.954449,178.710932 428.225783,179.800781 C426.497118,180.89063 424.589478,182.51952 422.502808,184.6875 L407.326588,200.455078 C408.269223,201.216801 409.385058,201.597656 410.674127,201.597656 C412.092103,201.597656 413.789655,201.084966 415.766833,200.05957 C417.744011,199.034175 419.426251,197.800788 420.813605,196.359375 C422.573175,194.531241 423.297527,193.066412 422.98668,191.964844 C422.675833,190.863276 421.371986,190.3125 419.0751,190.3125 L418.389553,190.3125 L420.893545,187.710938 Z M443.255766,185.443359 L447.925372,180.591797 L443.073809,180.591797 L444.748777,178.851563 L449.600339,178.851563 L454.269946,174 L456.01018,174 L451.340574,178.851563 L456.192136,178.851563 L454.517169,180.591797 L449.665606,180.591797 L444.996,185.443359 L443.255766,185.443359 Z" id="β⁺" fill="#000000"></path>
                <path d="M15,266.13867 L39.5679879,240.667968 C42.5068923,237.621078 45.4813524,235.248055 48.4914574,233.548828 C51.5015624,231.849601 54.2311894,231 56.6804204,231 C58.6960555,231 59.8162966,231.527338 60.0411772,232.582031 C60.2660578,233.636724 59.5477033,235.025382 57.8860919,236.748046 C56.5522814,238.130866 54.9246131,239.405267 53.003038,240.571288 C51.0814629,241.73731 48.871898,242.794916 46.3742771,243.74414 C47.8276455,244.412112 48.4736668,245.446281 48.3123601,246.846679 C48.1510535,248.247076 47.2000466,249.849599 45.4593109,251.654296 C43.2099187,253.986338 40.5589975,255.899405 37.5064678,257.393553 C34.4539381,258.887701 31.6679431,259.634764 29.1483992,259.634764 C27.6366729,259.634764 26.403354,259.388672 25.4484055,258.896483 L18.4628906,266.13867 L15,266.13867 Z M41.940986,243.146484 L42.5737985,243.146484 C44.0855248,243.146484 45.9973985,242.534185 48.3094771,241.30957 C50.6215556,240.084954 52.5631575,238.658211 54.134341,237.029296 C55.2307785,235.892572 55.7629542,235.037112 55.7308842,234.46289 C55.6988142,233.888669 55.1027072,233.601562 53.9425451,233.601562 C52.5714445,233.601562 51.0204603,234.146479 49.2895459,235.236328 C47.5586315,236.326177 45.6476311,237.955067 43.5564876,240.123046 L28.3477332,255.890623 C29.2887967,256.652346 30.4038462,257.033201 31.6929152,257.033201 C33.110891,257.033201 34.8095003,256.520511 36.788794,255.495116 C38.7680877,254.46972 40.4528732,253.236334 41.8432011,251.79492 C43.6065438,249.966786 44.3339174,248.501957 44.0253438,247.40039 C43.7167701,246.298822 42.4140596,245.748046 40.1171731,245.748046 L39.4316263,245.748046 L41.940986,243.146484 Z M81.887893,236.027343 L70.4445336,236.027343 L72.1230918,234.287109 L83.5664512,234.287109 L81.887893,236.027343 Z" id="β-⁻" fill="#000000"></path>
                <path d="M198.462891,418.810694 C198.462891,419.502104 198.544921,420.207133 198.708984,420.925803 C198.84961,421.623837 199.078123,422.249831 199.394531,422.803801 C199.757814,423.270136 200.22656,423.553934 200.800781,423.655204 C201.375003,423.779911 202.095699,423.57363 202.962891,423.036354 C203.888677,422.462776 204.667966,421.681136 205.300781,420.69141 C205.89844,419.770342 206.378904,418.775408 206.742188,417.706579 C207.363284,415.517076 207.662109,413.650313 207.638672,412.106232 C207.662109,410.486235 207.339847,409.068724 206.671875,407.853657 C206.308592,407.30529 205.828128,406.976019 205.230469,406.865833 C204.621091,406.762907 203.85352,406.998229 202.927734,407.571807 C202.013667,408.138125 201.269534,408.903843 200.695312,409.868985 C200.085934,410.84419 199.617189,411.878738 199.289062,412.972661 C198.972655,414.047605 198.767579,415.094574 198.673828,416.1136 C198.533202,417.161668 198.462891,418.060691 198.462891,418.810694 Z M212.753906,400.780797 C212.203122,404.215805 211.494145,407.614013 210.626953,410.975521 C210.533203,411.326575 210.398438,411.820222 210.222656,412.456476 C209.98828,413.152469 209.871094,413.605929 209.871094,413.816867 C209.871094,413.992649 209.941406,414.201038 210.082031,414.442038 C210.222657,414.694758 210.404296,414.9455 210.626953,415.194271 C210.837892,415.450303 211.089842,415.616468 211.382812,415.692769 C211.664064,415.834926 211.95117,415.815248 212.244141,415.633736 C212.724612,415.336056 213.08203,414.932976 213.316406,414.424483 C213.539064,413.946688 213.650391,413.520296 213.650391,413.145295 L214.371094,412.698777 C214.371094,413.132373 214.359375,413.59666 214.335938,414.091652 C214.289062,414.624603 214.189454,415.160921 214.037109,415.700622 C213.896484,416.221343 213.685548,416.715308 213.404297,417.18253 C213.111327,417.645293 212.724612,418.037228 212.244141,418.358345 C211.693357,418.67615 211.23633,418.783525 210.873047,418.680474 C210.486326,418.603662 210.187501,418.390368 209.976562,418.040586 C209.589842,417.248926 209.314454,416.400024 209.150391,415.493853 L209.080078,415.537416 C208.66992,416.939976 207.890631,418.477468 206.742188,420.149938 C205.582025,421.899981 204.128915,423.339325 202.382812,424.468012 C200.027332,425.880494 198.216803,426.105747 196.951172,425.143776 C195.650384,424.238744 195,422.661246 195,420.411235 C195,418.079192 195.697259,415.58472 197.091797,412.927745 C198.462897,410.250134 200.343738,408.147353 202.734375,406.619339 C204.562509,405.533579 205.910152,405.384176 206.777344,406.171125 C207.632817,406.953617 208.160155,408.068291 208.359375,409.515184 L208.429688,409.471621 L209.607422,402.730227 L212.753906,400.780797 Z M234.759766,380.889074 L223.316406,387.978901 L223.316406,386.238666 L234.759766,379.148839 L234.759766,380.889074 Z" id="α-⁻" fill="#000000"></path>
            </g>
        </g>
    </g>
</svg>