<?xml version="1.0" encoding="UTF-8"?>
<svg width="1623px" height="1650px" viewBox="0 0 1623 1650" version="1.1" xmlns="http://www.w3.org/2000/svg" xmlns:xlink="http://www.w3.org/1999/xlink">
    <!-- Generator: Sketch 49.3 (51167) - http://www.bohemiancoding.com/sketch -->
    <title>Group 2</title>
    <desc>Created with Sketch.</desc>
    <defs></defs>
    <g id="Page-1" stroke="none" stroke-width="1" fill="none" fill-rule="evenodd">
        <g id="Artboard" transform="translate(-318.000000, -300.000000)">
            <g id="Group-2" transform="translate(318.000000, 301.000000)">
                <g id="Group" transform="translate(478.000000, 0.000000)" stroke="#979797" stroke-linecap="round" stroke-width="4">
                    <path d="M2.57961783,280.5 L205.509554,1.5" id="Line"></path>
                    <path d="M2.57961783,280.5 L66.2101911,280.5" id="Line-2"></path>
                    <path d="M2.57961783,673.5 L66.2101911,673.5" id="Line-2"></path>
                    <path d="M66.2101911,280.5 L269.140127,1.5" id="Line" transform="translate(167.675159, 141.000000) rotate(180.000000) translate(-167.675159, -141.000000) "></path>
                    <path d="M205.509554,1.5 L269.140127,1.5" id="Line-2" transform="translate(237.324841, 1.500000) rotate(180.000000) translate(-237.324841, -1.500000) "></path>
                    <path d="M2.57961783,280.5 L2.57961783,673.5" id="Line-3"></path>
                    <path d="M66.2101911,280.5 L66.2101911,673.5" id="Line-3"></path>
                </g>
                <g id="Group" transform="translate(542.000000, 0.000000)" stroke="#979797" stroke-linecap="round" stroke-width="4">
                    <path d="M2.57961783,280.5 L205.509554,1.5" id="Line"></path>
                    <path d="M2.57961783,280.5 L66.2101911,280.5" id="Line-2"></path>
                    <path d="M2.57961783,673.5 L66.2101911,673.5" id="Line-2"></path>
                    <path d="M66.2101911,280.5 L269.140127,1.5" id="Line" transform="translate(167.675159, 141.000000) rotate(180.000000) translate(-167.675159, -141.000000) "></path>
                    <path d="M205.509554,1.5 L269.140127,1.5" id="Line-2" transform="translate(237.324841, 1.500000) rotate(180.000000) translate(-237.324841, -1.500000) "></path>
                    <path d="M2.57961783,280.5 L2.57961783,673.5" id="Line-3"></path>
                    <path d="M66.2101911,280.5 L66.2101911,673.5" id="Line-3"></path>
                </g>
                <g id="Group" transform="translate(605.000000, 0.000000)" stroke="#979797" stroke-linecap="round" stroke-width="4">
                    <path d="M2.57961783,280.5 L205.509554,1.5" id="Line"></path>
                    <path d="M2.57961783,280.5 L66.2101911,280.5" id="Line-2"></path>
                    <path d="M2.57961783,673.5 L66.2101911,673.5" id="Line-2"></path>
                    <path d="M66.2101911,280.5 L269.140127,1.5" id="Line" transform="translate(167.675159, 141.000000) rotate(180.000000) translate(-167.675159, -141.000000) "></path>
                    <path d="M205.509554,1.5 L269.140127,1.5" id="Line-2" transform="translate(237.324841, 1.500000) rotate(180.000000) translate(-237.324841, -1.500000) "></path>
                    <path d="M2.57961783,280.5 L2.57961783,673.5" id="Line-3"></path>
                    <path d="M66.2101911,280.5 L66.2101911,673.5" id="Line-3"></path>
                </g>
                <g id="Group" transform="translate(669.000000, 0.000000)" stroke="#979797" stroke-linecap="round" stroke-width="4">
                    <path d="M2.57961783,280.5 L205.509554,1.5" id="Line"></path>
                    <path d="M2.57961783,280.5 L66.2101911,280.5" id="Line-2"></path>
                    <path d="M2.57961783,673.5 L66.2101911,673.5" id="Line-2"></path>
                    <path d="M66.2101911,280.5 L269.140127,1.5" id="Line" transform="translate(167.675159, 141.000000) rotate(180.000000) translate(-167.675159, -141.000000) "></path>
                    <path d="M205.509554,1.5 L269.140127,1.5" id="Line-2" transform="translate(237.324841, 1.500000) rotate(180.000000) translate(-237.324841, -1.500000) "></path>
                    <path d="M2.57961783,280.5 L2.57961783,673.5" id="Line-3"></path>
                    <path d="M66.2101911,280.5 L66.2101911,673.5" id="Line-3"></path>
                </g>
                <g id="Group" transform="translate(732.000000, 0.000000)" stroke="#979797" stroke-linecap="round" stroke-width="4">
                    <path d="M2.57961783,280.5 L205.509554,1.5" id="Line"></path>
                    <path d="M2.57961783,280.5 L66.2101911,280.5" id="Line-2"></path>
                    <path d="M2.57961783,673.5 L66.2101911,673.5" id="Line-2"></path>
                    <path d="M66.2101911,280.5 L269.140127,1.5" id="Line" transform="translate(167.675159, 141.000000) rotate(180.000000) translate(-167.675159, -141.000000) "></path>
                    <path d="M205.509554,1.5 L269.140127,1.5" id="Line-2" transform="translate(237.324841, 1.500000) rotate(180.000000) translate(-237.324841, -1.500000) "></path>
                    <path d="M2.57961783,280.5 L2.57961783,673.5" id="Line-3"></path>
                    <path d="M66.2101911,280.5 L66.2101911,673.5" id="Line-3"></path>
                </g>
                <g id="Group" transform="translate(311.000000, 1031.000000)" stroke="#979797" stroke-linecap="round" stroke-width="4">
                    <path d="M2.55095541,256.397778 L203.226115,1.37111111" id="Line"></path>
                    <path d="M2.55095541,256.397778 L65.4745223,256.397778" id="Line-2"></path>
                    <path d="M2.55095541,615.628889 L65.4745223,615.628889" id="Line-2"></path>
                    <path d="M65.4745223,256.397778 L266.149682,1.37111111" id="Line" transform="translate(165.812102, 128.884444) rotate(180.000000) translate(-165.812102, -128.884444) "></path>
                    <path d="M203.226115,1.37111111 L266.149682,1.37111111" id="Line-2" transform="translate(234.687898, 1.371111) rotate(180.000000) translate(-234.687898, -1.371111) "></path>
                    <path d="M2.55095541,256.397778 L2.55095541,615.628889" id="Line-3"></path>
                    <path d="M65.4745223,256.397778 L65.4745223,615.628889" id="Line-3"></path>
                </g>
                <g id="Group" transform="translate(374.000000, 1031.000000)" stroke="#979797" stroke-linecap="round" stroke-width="4">
                    <path d="M2.55095541,256.397778 L203.226115,1.37111111" id="Line"></path>
                    <path d="M2.55095541,256.397778 L65.4745223,256.397778" id="Line-2"></path>
                    <path d="M2.55095541,615.628889 L65.4745223,615.628889" id="Line-2"></path>
                    <path d="M65.4745223,256.397778 L266.149682,1.37111111" id="Line" transform="translate(165.812102, 128.884444) rotate(180.000000) translate(-165.812102, -128.884444) "></path>
                    <path d="M203.226115,1.37111111 L266.149682,1.37111111" id="Line-2" transform="translate(234.687898, 1.371111) rotate(180.000000) translate(-234.687898, -1.371111) "></path>
                    <path d="M2.55095541,256.397778 L2.55095541,615.628889" id="Line-3"></path>
                    <path d="M65.4745223,256.397778 L65.4745223,615.628889" id="Line-3"></path>
                </g>
                <g id="Group" transform="translate(437.000000, 1031.233533)" stroke="#979797" stroke-linecap="round" stroke-width="4">
                    <path d="M2.55393505,256.182454 L203.463492,1.36995965" id="Line"></path>
                    <path d="M2.55393505,256.182454 L65.5509997,256.182454" id="Line-2"></path>
                    <path d="M2.55393505,615.111881 L65.5509997,615.111881" id="Line-2"></path>
                    <path d="M65.5509997,256.182454 L266.460557,1.36995965" id="Line" transform="translate(166.005778, 128.776207) rotate(180.000000) translate(-166.005778, -128.776207) "></path>
                    <path d="M203.463492,1.36995965 L266.460557,1.36995965" id="Line-2" transform="translate(234.962025, 1.369960) rotate(180.000000) translate(-234.962025, -1.369960) "></path>
                    <path d="M2.55393505,256.182454 L2.55393505,615.111881" id="Line-3"></path>
                    <path d="M65.5509997,256.182454 L65.5509997,615.111881" id="Line-3"></path>
                </g>
                <g id="Group" transform="translate(501.000000, 1031.233533)" stroke="#979797" stroke-linecap="round" stroke-width="4">
                    <path d="M2.55393505,256.182454 L203.463492,1.36995965" id="Line"></path>
                    <path d="M2.55393505,256.182454 L65.5509997,256.182454" id="Line-2"></path>
                    <path d="M2.55393505,615.111881 L65.5509997,615.111881" id="Line-2"></path>
                    <path d="M65.5509997,256.182454 L266.460557,1.36995965" id="Line" transform="translate(166.005778, 128.776207) rotate(180.000000) translate(-166.005778, -128.776207) "></path>
                    <path d="M203.463492,1.36995965 L266.460557,1.36995965" id="Line-2" transform="translate(234.962025, 1.369960) rotate(180.000000) translate(-234.962025, -1.369960) "></path>
                    <path d="M2.55393505,256.182454 L2.55393505,615.111881" id="Line-3"></path>
                    <path d="M65.5509997,256.182454 L65.5509997,615.111881" id="Line-3"></path>
                </g>
                <g id="Group" transform="translate(563.000000, 1031.233533)" stroke="#979797" stroke-linecap="round" stroke-width="4">
                    <path d="M2.55393505,256.182454 L203.463492,1.36995965" id="Line"></path>
                    <path d="M2.55393505,256.182454 L65.5509997,256.182454" id="Line-2"></path>
                    <path d="M2.55393505,615.111881 L65.5509997,615.111881" id="Line-2"></path>
                    <path d="M65.5509997,256.182454 L266.460557,1.36995965" id="Line" transform="translate(166.005778, 128.776207) rotate(180.000000) translate(-166.005778, -128.776207) "></path>
                    <path d="M203.463492,1.36995965 L266.460557,1.36995965" id="Line-2" transform="translate(234.962025, 1.369960) rotate(180.000000) translate(-234.962025, -1.369960) "></path>
                    <path d="M2.55393505,256.182454 L2.55393505,615.111881" id="Line-3"></path>
                    <path d="M65.5509997,256.182454 L65.5509997,615.111881" id="Line-3"></path>
                </g>
                <g id="Group" transform="translate(627.000000, 1031.233533)" stroke="#979797" stroke-linecap="round" stroke-width="4">
                    <path d="M2.55084579,256.182454 L203.217381,1.36995965" id="Line"></path>
                    <path d="M2.55084579,256.182454 L65.4717087,256.182454" id="Line-2"></path>
                    <path d="M2.55084579,615.111881 L65.4717087,615.111881" id="Line-2"></path>
                    <path d="M65.4717087,256.182454 L266.138244,1.36995965" id="Line" transform="translate(165.804976, 128.776207) rotate(180.000000) translate(-165.804976, -128.776207) "></path>
                    <path d="M203.217381,1.36995965 L266.138244,1.36995965" id="Line-2" transform="translate(234.677813, 1.369960) rotate(180.000000) translate(-234.677813, -1.369960) "></path>
                    <path d="M2.55084579,256.182454 L2.55084579,615.111881" id="Line-3"></path>
                    <path d="M65.4717087,256.182454 L65.4717087,615.111881" id="Line-3"></path>
                </g>
                <g id="Group" transform="translate(688.000000, 1031.233533)" stroke="#979797" stroke-linecap="round" stroke-width="4">
                    <path d="M2.55393505,256.182454 L203.463492,1.36995965" id="Line"></path>
                    <path d="M2.55393505,256.182454 L65.5509997,256.182454" id="Line-2"></path>
                    <path d="M2.55393505,615.111881 L65.5509997,615.111881" id="Line-2"></path>
                    <path d="M65.5509997,256.182454 L266.460557,1.36995965" id="Line" transform="translate(166.005778, 128.776207) rotate(180.000000) translate(-166.005778, -128.776207) "></path>
                    <path d="M203.463492,1.36995965 L266.460557,1.36995965" id="Line-2" transform="translate(234.962025, 1.369960) rotate(180.000000) translate(-234.962025, -1.369960) "></path>
                    <path d="M2.55393505,256.182454 L2.55393505,615.111881" id="Line-3"></path>
                    <path d="M65.5509997,256.182454 L65.5509997,615.111881" id="Line-3"></path>
                </g>
                <g id="Group" transform="translate(752.000000, 1031.233533)" stroke="#979797" stroke-linecap="round" stroke-width="4">
                    <path d="M2.55393505,256.182454 L203.463492,1.36995965" id="Line"></path>
                    <path d="M2.55393505,256.182454 L65.5509997,256.182454" id="Line-2"></path>
                    <path d="M2.55393505,615.111881 L65.5509997,615.111881" id="Line-2"></path>
                    <path d="M65.5509997,256.182454 L266.460557,1.36995965" id="Line" transform="translate(166.005778, 128.776207) rotate(180.000000) translate(-166.005778, -128.776207) "></path>
                    <path d="M203.463492,1.36995965 L266.460557,1.36995965" id="Line-2" transform="translate(234.962025, 1.369960) rotate(180.000000) translate(-234.962025, -1.369960) "></path>
                    <path d="M2.55393505,256.182454 L2.55393505,615.111881" id="Line-3"></path>
                    <path d="M65.5509997,256.182454 L65.5509997,615.111881" id="Line-3"></path>
                </g>
                <g id="Group" transform="translate(814.000000, 1031.233533)" stroke="#979797" stroke-linecap="round" stroke-width="4">
                    <path d="M2.55393505,256.182454 L203.463492,1.36995965" id="Line"></path>
                    <path d="M2.55393505,256.182454 L65.5509997,256.182454" id="Line-2"></path>
                    <path d="M2.55393505,615.111881 L65.5509997,615.111881" id="Line-2"></path>
                    <path d="M65.5509997,256.182454 L266.460557,1.36995965" id="Line" transform="translate(166.005778, 128.776207) rotate(180.000000) translate(-166.005778, -128.776207) "></path>
                    <path d="M203.463492,1.36995965 L266.460557,1.36995965" id="Line-2" transform="translate(234.962025, 1.369960) rotate(180.000000) translate(-234.962025, -1.369960) "></path>
                    <path d="M2.55393505,256.182454 L2.55393505,615.111881" id="Line-3"></path>
                    <path d="M65.5509997,256.182454 L65.5509997,615.111881" id="Line-3"></path>
                </g>
                <g id="Group" transform="translate(948.811869, 1339.215374) scale(-1, -1) translate(-948.811869, -1339.215374) translate(815.311869, 1030.715374)" stroke="#979797" stroke-linecap="round" stroke-width="4">
                    <path d="M1.55393505,256.182454 L202.463492,1.36995965" id="Line"></path>
                    <path d="M1.55393505,615.111881 L64.5509997,615.111881" id="Line-2"></path>
                    <path d="M202.463492,1.36995965 L265.460557,1.36995965" id="Line-2" transform="translate(233.962025, 1.369960) rotate(180.000000) translate(-233.962025, -1.369960) "></path>
                    <path d="M1.55393505,256.182454 L1.55393505,614.834472" id="Line-3"></path>
                </g>
                <g id="Group" transform="translate(900.500000, 337.500000) scale(-1, -1) translate(-900.500000, -337.500000) translate(797.000000, 1.000000)" stroke="#979797" stroke-linecap="round" stroke-width="4">
                    <path d="M3.21019108,279.5 L206.140127,0.5" id="Line" transform="translate(104.675159, 140.000000) rotate(180.000000) translate(-104.675159, -140.000000) "></path>
                    <path d="M3.21019108,279.5 L3.21019108,672.5" id="Line-3"></path>
                </g>
                <path d="M313.199163,1287.29952 L480.28799,674.21193 L795.988846,673.548202 L376.5,1287.29952 L313.199163,1287.29952 Z" id="Line-10" stroke="#000000" stroke-width="5" fill="#FFFFFF" stroke-linecap="round" stroke-dasharray="1,1"></path>
                <path d="M544,674 L324.5,1285.5" id="Line-6" stroke="#000000" stroke-width="5" stroke-linecap="square" stroke-dasharray="1,1"></path>
                <path d="M608,675 L335.5,1285.5" id="Line-7" stroke="#000000" stroke-width="5" stroke-linecap="square" stroke-dasharray="1,1"></path>
                <path d="M670,675 L347.5,1285.5" id="Line-8" stroke="#000000" stroke-width="5" stroke-linecap="square" stroke-dasharray="1,1"></path>
                <path d="M734,677 L362.447558,1284.27844" id="Line-9" stroke="#000000" stroke-width="5" stroke-linecap="square" stroke-dasharray="1,1"></path>
                <polygon id="Line-15" stroke="#000000" stroke-width="4" fill="#FFFFFF" stroke-linecap="round" stroke-linejoin="bevel" points="576.5 1031.5 1000.20099 395.166731 798.655144 672.026399 377.316467 1286.4944"></polygon>
                <path d="M480,676 L313.5,1287.5" id="Line-4" stroke="#000000" stroke-width="5" stroke-linecap="square" stroke-dasharray="1,1"></path>
                <path d="M22.88,353 C15.5359633,352.711999 8.21603648,352.711999 0.92,353 L0.92,350.768 C2.02400552,350.768 3.21199364,350.756 4.484,350.732 C5.75600636,350.708 6.72799664,350.576001 7.4,350.336 C7.83200216,350.191999 8.15599892,349.916002 8.372,349.508 C8.58800108,349.099998 8.696,348.656002 8.696,348.176 L8.696,308.576 C8.696,308.095998 8.58800108,307.652002 8.372,307.244 C8.15599892,306.835998 7.83200216,306.560001 7.4,306.416 C6.72799664,306.175999 5.75600636,306.044 4.484,306.02 C3.21199364,305.996 2.02400552,305.984 0.92,305.984 L0.92,303.824 C8.21603648,304.016001 15.5359633,304.016001 22.88,303.824 L22.88,305.984 C21.7759945,305.984 20.5880064,305.996 19.316,306.02 C18.0439936,306.044 17.0720034,306.175999 16.4,306.416 C15.9679978,306.560001 15.6440011,306.835998 15.428,307.244 C15.2119989,307.652002 15.104,308.095998 15.104,308.576 L15.104,348.176 C15.104,348.656002 15.2119989,349.099998 15.428,349.508 C15.6440011,349.916002 15.9679978,350.191999 16.4,350.336 C17.0720034,350.576001 18.0439936,350.708 19.316,350.732 C20.5880064,350.756 21.7759945,350.768 22.88,350.768 L22.88,353 Z M63.344,353 C60.6079863,352.855999 57.8960134,352.784 55.208,352.784 C52.4719863,352.784 49.7840132,352.855999 47.144,353 L47.144,350.768 C47.9600041,350.768 48.8239954,350.756 49.736,350.732 C50.6480046,350.708 51.3439976,350.576001 51.824,350.336 C52.2080019,350.143999 52.4479995,349.844002 52.544,349.436 C52.6400005,349.027998 52.688,348.608002 52.688,348.176 L52.688,331.04 C52.688,329.839994 52.6280006,328.700005 52.508,327.62 C52.3879994,326.539995 52.0400029,325.544005 51.464,324.632 C51.0799981,324.007997 50.5400035,323.552001 49.844,323.264 C49.1479965,322.975999 48.4160038,322.832 47.648,322.832 C46.255993,322.832 44.960006,323.131997 43.76,323.732 C42.559994,324.332003 41.5280043,325.135995 40.664,326.144 C39.7999957,327.152005 39.1160025,328.327993 38.612,329.672 C38.1079975,331.016007 37.856,332.431993 37.856,333.92 L37.856,348.176 C37.856,348.608002 37.9159994,349.027998 38.036,349.436 C38.1560006,349.844002 38.4079981,350.143999 38.792,350.336 C39.2720024,350.576001 39.9679954,350.708 40.88,350.732 C41.7920046,350.756 42.6559959,350.768 43.472,350.768 L43.472,353 C42.5119952,352.952 41.528005,352.916 40.52,352.892 C39.511995,352.868 38.5280048,352.832 37.568,352.784 L35.336,352.784 C32.5999863,352.784 29.9120132,352.855999 27.272,353 L27.272,350.768 C28.0880041,350.768 28.9519954,350.756 29.864,350.732 C30.7760046,350.708 31.4719976,350.576001 31.952,350.336 C32.3360019,350.143999 32.5879994,349.844002 32.708,349.436 C32.8280006,349.027998 32.888,348.608002 32.888,348.176 L32.888,328.232 C32.888,327.559997 32.8520004,326.924003 32.78,326.324 C32.7079996,325.723997 32.4320024,325.232002 31.952,324.848 C31.4719976,324.511998 30.7760046,324.32 29.864,324.272 C28.9519954,324.224 28.0880041,324.2 27.272,324.2 L27.272,321.968 L33.032,321.536 L37.496,321.176 L37.496,328.664 C38.3600043,326.503989 39.6799911,324.716007 41.456,323.3 C43.2320089,321.883993 45.3439878,321.176 47.792,321.176 C49.0880065,321.176 50.4079933,321.331998 51.752,321.644 C53.0960067,321.956002 54.271995,322.615995 55.28,323.624 C56.288005,324.632005 56.9479984,325.795993 57.26,327.116 C57.5720016,328.436007 57.728,329.743994 57.728,331.04 L57.728,348.176 C57.728,348.608002 57.7879994,349.027998 57.908,349.436 C58.0280006,349.844002 58.2799981,350.143999 58.664,350.336 C59.1440024,350.576001 59.8399954,350.708 60.752,350.732 C61.6640046,350.756 62.5279959,350.768 63.344,350.768 L63.344,353 Z M102.368,337.52 C102.368,339.680011 101.960004,341.75599 101.144,343.748 C100.327996,345.74001 99.1520077,347.503992 97.616,349.04 C96.1279926,350.576008 94.4000098,351.751996 92.432,352.568 C90.4639902,353.384004 88.4000108,353.792 86.24,353.792 C84.4159909,353.792 82.7720073,353.396004 81.308,352.604 C79.8439927,351.811996 78.5840053,350.720007 77.528,349.328 L77.528,362.216 C77.528,362.648002 77.5879994,363.067998 77.708,363.476 C77.8280006,363.884002 78.0799981,364.183999 78.464,364.376 C78.9440024,364.616001 79.6399954,364.748 80.552,364.772 C81.4640046,364.796 82.3279959,364.808 83.144,364.808 L83.144,366.968 C77.7199729,366.775999 72.3200269,366.775999 66.944,366.968 L66.944,364.808 C67.7600041,364.808 68.6239954,364.796 69.536,364.772 C70.4480046,364.748 71.1439976,364.616001 71.624,364.376 C72.0080019,364.183999 72.2599994,363.884002 72.38,363.476 C72.5000006,363.067998 72.56,362.648002 72.56,362.216 L72.56,327.44 C72.56,326.911997 72.5120005,326.396003 72.416,325.892 C72.3199995,325.387997 72.0560022,325.016001 71.624,324.776 C71.1439976,324.487999 70.4480046,324.32 69.536,324.272 C68.6239954,324.224 67.7600041,324.2 66.944,324.2 L66.944,321.968 L77.312,321.176 L77.312,325.928 C78.512006,324.487993 79.9639915,323.336004 81.668,322.472 C83.3720085,321.607996 85.2319899,321.176 87.248,321.176 C89.3120103,321.176 91.2679908,321.595996 93.116,322.436 C94.9640092,323.276004 96.583993,324.463992 97.976,326 C99.4160072,327.536008 100.507996,329.29999 101.252,331.292 C101.996004,333.28401 102.368,335.359989 102.368,337.52 Z M96.392,337.52 C96.392,335.647991 96.1640023,333.836009 95.708,332.084 C95.2519977,330.331991 94.520005,328.688008 93.512,327.152 C92.6959959,325.951994 91.7240056,324.956004 90.596,324.164 C89.4679944,323.371996 88.2320067,322.976 86.888,322.976 C84.8239897,322.976 82.9640083,323.515995 81.308,324.596 C79.6519917,325.676005 78.3920043,327.079991 77.528,328.808 L77.528,346.016 C78.3440041,347.840009 79.4839927,349.327994 80.948,350.48 C82.4120073,351.632006 84.1039904,352.208 86.024,352.208 C87.4640072,352.208 88.8079938,351.812004 90.056,351.02 C91.3040062,350.227996 92.3839954,349.208006 93.296,347.96 C94.4000055,346.423992 95.1919976,344.768009 95.672,342.992 C96.1520024,341.215991 96.392,339.392009 96.392,337.52 Z M143.264,353 L132.824,353.792 L132.824,347.384 C132.007996,349.208009 130.856007,350.731994 129.368,351.956 C127.879993,353.180006 126.10401,353.792 124.04,353.792 C122.599993,353.792 121.136007,353.660001 119.648,353.396 C118.159993,353.131999 116.816006,352.496005 115.616,351.488 C114.511994,350.575995 113.768002,349.472006 113.384,348.176 C112.999998,346.879994 112.808,345.584006 112.808,344.288 L112.808,328.232 C112.808,327.559997 112.772,326.924003 112.7,326.324 C112.628,325.723997 112.352002,325.232002 111.872,324.848 C111.391998,324.511998 110.696005,324.32 109.784,324.272 C108.871995,324.224 108.008004,324.2 107.192,324.2 L107.192,321.968 L117.776,321.176 L117.776,344.288 C117.776,345.536006 117.824,346.711994 117.92,347.816 C118.016,348.920006 118.327997,349.783997 118.856,350.408 C119.432003,351.128004 120.199995,351.607999 121.16,351.848 C122.120005,352.088001 123.127995,352.208 124.184,352.208 C125.432006,352.208 126.571995,351.908003 127.604,351.308 C128.636005,350.707997 129.523996,349.916005 130.268,348.932 C131.012004,347.947995 131.587998,346.808006 131.996,345.512 C132.404002,344.215994 132.608,342.848007 132.608,341.408 L132.608,328.232 C132.608,327.559997 132.572,326.924003 132.5,326.324 C132.428,325.723997 132.176002,325.232002 131.744,324.848 C131.263998,324.511998 130.568005,324.32 129.656,324.272 C128.743995,324.224 127.880004,324.2 127.064,324.2 L127.064,321.968 L137.648,321.176 L137.648,346.808 C137.648,347.432003 137.684,348.055997 137.756,348.68 C137.828,349.304003 138.103998,349.783998 138.584,350.12 C139.064002,350.456002 139.759995,350.648 140.672,350.696 C141.584005,350.744 142.447996,350.768 143.264,350.768 L143.264,353 Z M168.68,344.288 C168.68,345.440006 168.536001,346.579994 168.248,347.708 C167.959999,348.836006 167.540003,349.855995 166.988,350.768 C166.435997,351.680005 165.728004,352.411997 164.864,352.964 C163.999996,353.516003 162.992006,353.792 161.84,353.792 C160.591994,353.792 159.356006,353.612002 158.132,353.252 C156.907994,352.891998 155.816005,352.232005 154.856,351.272 C153.895995,350.311995 153.236002,349.220006 152.876,347.996 C152.515998,346.771994 152.336,345.536006 152.336,344.288 L152.336,324.2 L146.216,324.2 L146.216,322.616 C147.752008,322.616 149.107994,322.220004 150.284,321.428 C151.460006,320.635996 152.443996,319.592006 153.236,318.296 C154.028004,316.999994 154.615998,315.512008 155,313.832 C155.384002,312.151992 155.576,310.448009 155.576,308.72 L157.376,308.72 L157.376,321.968 L167.528,321.968 L167.528,324.2 L157.376,324.2 L157.376,344.288 C157.376,345.392006 157.459999,346.435995 157.628,347.42 C157.796001,348.404005 158.143997,349.303996 158.672,350.12 C159.536004,351.368006 160.687993,351.992 162.128,351.992 C162.896004,351.992 163.579997,351.788002 164.18,351.38 C164.780003,350.971998 165.271998,350.408004 165.656,349.688 C166.040002,348.967996 166.339999,348.140005 166.556,347.204 C166.772001,346.267995 166.88,345.296005 166.88,344.288 L166.88,339.968 L168.68,339.968 L168.68,344.288 Z M240.68,320.168 L238.88,320.168 C238.735999,319.159995 238.592001,318.104006 238.448,317 C238.303999,315.895994 238.088001,314.840005 237.8,313.832 C237.511999,312.823995 237.152002,311.888004 236.72,311.024 C236.287998,310.159996 235.712004,309.416003 234.992,308.792 C234.271996,308.167997 233.456005,307.676002 232.544,307.316 C231.631995,306.955998 230.672005,306.692001 229.664,306.524 C228.655995,306.355999 227.624005,306.26 226.568,306.236 C225.511995,306.212 224.480005,306.2 223.472,306.2 L216.704,306.2 C216.175997,306.2 215.612003,306.212 215.012,306.236 C214.411997,306.26 213.968001,306.391999 213.68,306.632 C213.343998,306.872001 213.152,307.195998 213.104,307.604 C213.056,308.012002 213.032,308.407998 213.032,308.792 L213.032,327.368 L218.288,327.368 C219.536006,327.368 220.807994,327.308001 222.104,327.188 C223.400006,327.067999 224.431996,326.624004 225.2,325.856 C226.016004,325.087996 226.483999,324.068006 226.604,322.796 C226.724001,321.523994 226.784,320.264006 226.784,319.016 L228.584,319.016 L228.584,338.024 L226.784,338.024 C226.784,336.775994 226.724001,335.516006 226.604,334.244 C226.483999,332.971994 226.016004,331.928004 225.2,331.112 C224.431996,330.343996 223.400006,329.900001 222.104,329.78 C220.807994,329.659999 219.536006,329.6 218.288,329.6 L213.032,329.6 L213.032,348.176 C213.032,348.704003 213.163999,349.171998 213.428,349.58 C213.692001,349.988002 214.063998,350.24 214.544,350.336 C214.928002,350.432 215.431997,350.516 216.056,350.588 C216.680003,350.66 217.339997,350.708 218.036,350.732 C218.732003,350.756 219.439996,350.768 220.16,350.768 L222.248,350.768 L222.248,353 C218.407981,352.904 214.580019,352.844 210.764,352.82 C206.947981,352.796 203.096019,352.855999 199.208,353 L199.208,350.768 C200.264005,350.768 201.403994,350.756 202.628,350.732 C203.852006,350.708 204.775997,350.576001 205.4,350.336 C205.832002,350.191999 206.143999,349.916002 206.336,349.508 C206.528001,349.099998 206.624,348.656002 206.624,348.176 L206.624,308.792 C206.624,308.311998 206.528001,307.868002 206.336,307.46 C206.143999,307.051998 205.832002,306.776001 205.4,306.632 C204.775997,306.391999 203.852006,306.26 202.628,306.236 C201.403994,306.212 200.264005,306.2 199.208,306.2 L199.208,303.968 L238.664,303.968 L240.68,320.168 Z M267.752,344.432 C267.559999,345.872007 267.104004,347.167994 266.384,348.32 C265.663996,349.472006 264.752006,350.455996 263.648,351.272 C262.543994,352.088004 261.320007,352.711998 259.976,353.144 C258.631993,353.576002 257.240007,353.792 255.8,353.792 C253.639989,353.792 251.58801,353.372004 249.644,352.532 C247.69999,351.691996 245.984007,350.504008 244.496,348.968 C242.959992,347.383992 241.808004,345.58401 241.04,343.568 C240.271996,341.55199 239.888,339.440011 239.888,337.232 C239.888,335.071989 240.247996,332.99601 240.968,331.004 C241.688004,329.01199 242.767993,327.224008 244.208,325.64 C245.600007,324.103992 247.207991,322.916004 249.032,322.076 C250.856009,321.235996 252.77599,320.816 254.792,320.816 C256.568009,320.816 258.295992,321.127997 259.976,321.752 C261.656008,322.376003 263.119994,323.383993 264.368,324.776 C265.664006,326.312008 266.551998,328.015991 267.032,329.888 C267.512002,331.760009 267.752,333.65599 267.752,335.576 C267.752,336.104003 267.488003,336.368 266.96,336.368 L245.864,336.368 C245.816,338.480011 245.947998,340.51999 246.26,342.488 C246.572002,344.45601 247.279994,346.231992 248.384,347.816 C249.296005,349.064006 250.423993,350.071996 251.768,350.84 C253.112007,351.608004 254.551992,351.992 256.088,351.992 C257.240006,351.992 258.343995,351.800002 259.4,351.416 C260.456005,351.031998 261.427996,350.492003 262.316,349.796 C263.204004,349.099997 263.959997,348.284005 264.584,347.348 C265.208003,346.411995 265.663999,345.368006 265.952,344.216 C266.048,343.831998 266.311998,343.64 266.744,343.64 L267.104,343.64 C267.536002,343.736 267.752,343.999998 267.752,344.432 Z M262.928,334.856 C262.88,333.175992 262.712001,331.568008 262.424,330.032 C262.135999,328.495992 261.560004,327.056007 260.696,325.712 C260.023997,324.703995 259.172005,323.900003 258.14,323.3 C257.107995,322.699997 255.992006,322.4 254.792,322.4 C253.399993,322.4 252.128006,322.783996 250.976,323.552 C249.823994,324.320004 248.864004,325.327994 248.096,326.576 C247.327996,327.824006 246.800001,329.143993 246.512,330.536 C246.223999,331.928007 246.032,333.367993 245.936,334.856 L262.928,334.856 Z M305.264,347.168 C305.264,348.032004 305.108002,348.835996 304.796,349.58 C304.483998,350.324004 304.064003,350.983997 303.536,351.56 C303.007997,352.136003 302.384004,352.591998 301.664,352.928 C300.943996,353.264002 300.152004,353.432 299.288,353.432 C297.751992,353.432 296.480005,352.844006 295.472,351.668 C294.463995,350.491994 293.912,349.088008 293.816,347.456 C293.047996,349.280009 291.848008,350.791994 290.216,351.992 C288.583992,353.192006 286.712011,353.792 284.6,353.792 C283.207993,353.792 281.816007,353.648001 280.424,353.36 C279.031993,353.071999 277.772006,352.628003 276.644,352.028 C275.515994,351.427997 274.604003,350.648005 273.908,349.688 C273.211997,348.727995 272.864,347.552007 272.864,346.16 C272.864,344.14399 273.463994,342.380008 274.664,340.868 C275.864006,339.355992 277.327991,338.144005 279.056,337.232 C281.264011,336.127994 283.555988,335.372002 285.932,334.964 C288.308012,334.555998 290.719988,334.304 293.168,334.208 L293.168,331.04 C293.168,329.935994 292.988002,328.844005 292.628,327.764 C292.267998,326.683995 291.728004,325.736004 291.008,324.92 C289.567993,323.239992 287.81601,322.4 285.752,322.4 C284.119992,322.4 282.608007,322.675997 281.216,323.228 C279.823993,323.780003 278.720004,324.559995 277.904,325.568 C278.768004,325.472 279.595996,325.687997 280.388,326.216 C281.180004,326.744003 281.576,327.607994 281.576,328.808 C281.576,329.912006 281.228003,330.739997 280.532,331.292 C279.835997,331.844003 279.080004,332.12 278.264,332.12 C277.447996,332.12 276.692003,331.844003 275.996,331.292 C275.299997,330.739997 274.952,329.912006 274.952,328.808 C274.952,327.511994 275.263997,326.360005 275.888,325.352 C276.512003,324.343995 277.339995,323.504003 278.372,322.832 C279.404005,322.159997 280.567994,321.656002 281.864,321.32 C283.160006,320.983998 284.455994,320.816 285.752,320.816 C287.336008,320.816 288.883992,321.055998 290.396,321.536 C291.908008,322.016002 293.287994,322.759995 294.536,323.768 C295.640006,324.680005 296.527997,325.759994 297.2,327.008 C297.872003,328.256006 298.208,329.599993 298.208,331.04 L298.208,347.168 C298.208,348.176005 298.423998,349.087996 298.856,349.904 C299.288002,350.720004 299.959995,351.128 300.872,351.128 C301.736004,351.128 302.383998,350.720004 302.816,349.904 C303.248002,349.087996 303.464,348.176005 303.464,347.168 L303.464,342.56 L305.264,342.56 L305.264,347.168 Z M293.168,343.424 L293.168,335.72 C291.343991,335.816 289.544009,336.055998 287.768,336.44 C285.991991,336.824002 284.336008,337.495995 282.8,338.456 C281.455993,339.272004 280.388004,340.375993 279.596,341.768 C278.803996,343.160007 278.408,344.623992 278.408,346.16 C278.408,347.024004 278.575998,347.815996 278.912,348.536 C279.248002,349.256004 279.703997,349.891997 280.28,350.444 C280.856003,350.996003 281.527996,351.427998 282.296,351.74 C283.064004,352.052002 283.879996,352.208 284.744,352.208 C285.944006,352.208 287.047995,351.980002 288.056,351.524 C289.064005,351.067998 289.951996,350.444004 290.72,349.652 C291.488004,348.859996 292.087998,347.924005 292.52,346.844 C292.952002,345.763995 293.168,344.624006 293.168,343.424 Z M329.672,344.288 C329.672,345.440006 329.528001,346.579994 329.24,347.708 C328.951999,348.836006 328.532003,349.855995 327.98,350.768 C327.427997,351.680005 326.720004,352.411997 325.856,352.964 C324.991996,353.516003 323.984006,353.792 322.832,353.792 C321.583994,353.792 320.348006,353.612002 319.124,353.252 C317.899994,352.891998 316.808005,352.232005 315.848,351.272 C314.887995,350.311995 314.228002,349.220006 313.868,347.996 C313.507998,346.771994 313.328,345.536006 313.328,344.288 L313.328,324.2 L307.208,324.2 L307.208,322.616 C308.744008,322.616 310.099994,322.220004 311.276,321.428 C312.452006,320.635996 313.435996,319.592006 314.228,318.296 C315.020004,316.999994 315.607998,315.512008 315.992,313.832 C316.376002,312.151992 316.568,310.448009 316.568,308.72 L318.368,308.72 L318.368,321.968 L328.52,321.968 L328.52,324.2 L318.368,324.2 L318.368,344.288 C318.368,345.392006 318.451999,346.435995 318.62,347.42 C318.788001,348.404005 319.135997,349.303996 319.664,350.12 C320.528004,351.368006 321.679993,351.992 323.12,351.992 C323.888004,351.992 324.571997,351.788002 325.172,351.38 C325.772003,350.971998 326.263998,350.408004 326.648,349.688 C327.032002,348.967996 327.331999,348.140005 327.548,347.204 C327.764001,346.267995 327.872,345.296005 327.872,344.288 L327.872,339.968 L329.672,339.968 L329.672,344.288 Z M372.224,353 L361.784,353.792 L361.784,347.384 C360.967996,349.208009 359.816007,350.731994 358.328,351.956 C356.839993,353.180006 355.06401,353.792 353,353.792 C351.559993,353.792 350.096007,353.660001 348.608,353.396 C347.119993,353.131999 345.776006,352.496005 344.576,351.488 C343.471994,350.575995 342.728002,349.472006 342.344,348.176 C341.959998,346.879994 341.768,345.584006 341.768,344.288 L341.768,328.232 C341.768,327.559997 341.732,326.924003 341.66,326.324 C341.588,325.723997 341.312002,325.232002 340.832,324.848 C340.351998,324.511998 339.656005,324.32 338.744,324.272 C337.831995,324.224 336.968004,324.2 336.152,324.2 L336.152,321.968 L346.736,321.176 L346.736,344.288 C346.736,345.536006 346.784,346.711994 346.88,347.816 C346.976,348.920006 347.287997,349.783997 347.816,350.408 C348.392003,351.128004 349.159995,351.607999 350.12,351.848 C351.080005,352.088001 352.087995,352.208 353.144,352.208 C354.392006,352.208 355.531995,351.908003 356.564,351.308 C357.596005,350.707997 358.483996,349.916005 359.228,348.932 C359.972004,347.947995 360.547998,346.808006 360.956,345.512 C361.364002,344.215994 361.568,342.848007 361.568,341.408 L361.568,328.232 C361.568,327.559997 361.532,326.924003 361.46,326.324 C361.388,325.723997 361.136002,325.232002 360.704,324.848 C360.223998,324.511998 359.528005,324.32 358.616,324.272 C357.703995,324.224 356.840004,324.2 356.024,324.2 L356.024,321.968 L366.608,321.176 L366.608,346.808 C366.608,347.432003 366.644,348.055997 366.716,348.68 C366.788,349.304003 367.063998,349.783998 367.544,350.12 C368.024002,350.456002 368.719995,350.648 369.632,350.696 C370.544005,350.744 371.407996,350.768 372.224,350.768 L372.224,353 Z M399.944,325.64 C399.944,326.696005 399.620003,327.487997 398.972,328.016 C398.323997,328.544003 397.616004,328.808 396.848,328.808 C396.079996,328.808 395.372003,328.544003 394.724,328.016 C394.075997,327.487997 393.752,326.696005 393.752,325.64 C393.752,324.967997 393.907998,324.404002 394.22,323.948 C394.532002,323.491998 394.927998,323.144001 395.408,322.904 C395.263999,322.856 395.024002,322.832 394.688,322.832 C393.295993,322.832 392.072005,323.203996 391.016,323.948 C389.959995,324.692004 389.072004,325.687994 388.352,326.936 C387.631996,328.184006 387.092002,329.623992 386.732,331.256 C386.371998,332.888008 386.192,334.567991 386.192,336.296 L386.192,348.176 C386.192,348.656002 386.287999,349.099998 386.48,349.508 C386.672001,349.916002 386.959998,350.191999 387.344,350.336 C387.968003,350.576001 388.855994,350.708 390.008,350.732 C391.160006,350.756 392.215995,350.768 393.176,350.768 L393.176,353 C390.295986,352.904 387.404015,352.844 384.5,352.82 C381.595985,352.796 378.704014,352.855999 375.824,353 L375.824,350.768 C376.640004,350.768 377.503995,350.756 378.416,350.732 C379.328005,350.708 380.023998,350.576001 380.504,350.336 C380.888002,350.143999 381.139999,349.844002 381.26,349.436 C381.380001,349.027998 381.44,348.608002 381.44,348.176 L381.44,328.232 C381.44,327.559997 381.404,326.924003 381.332,326.324 C381.26,325.723997 380.984002,325.232002 380.504,324.848 C380.023998,324.511998 379.328005,324.32 378.416,324.272 C377.503995,324.224 376.640004,324.2 375.824,324.2 L375.824,321.968 L385.832,321.176 L385.832,329.24 C386.504003,326.935988 387.559993,325.016008 389,323.48 C390.440007,321.943992 392.335988,321.176 394.688,321.176 C395.984006,321.176 397.183994,321.571996 398.288,322.364 C399.392006,323.156004 399.944,324.247993 399.944,325.64 Z M431.912,344.432 C431.719999,345.872007 431.264004,347.167994 430.544,348.32 C429.823996,349.472006 428.912006,350.455996 427.808,351.272 C426.703994,352.088004 425.480007,352.711998 424.136,353.144 C422.791993,353.576002 421.400007,353.792 419.96,353.792 C417.799989,353.792 415.74801,353.372004 413.804,352.532 C411.85999,351.691996 410.144007,350.504008 408.656,348.968 C407.119992,347.383992 405.968004,345.58401 405.2,343.568 C404.431996,341.55199 404.048,339.440011 404.048,337.232 C404.048,335.071989 404.407996,332.99601 405.128,331.004 C405.848004,329.01199 406.927993,327.224008 408.368,325.64 C409.760007,324.103992 411.367991,322.916004 413.192,322.076 C415.016009,321.235996 416.93599,320.816 418.952,320.816 C420.728009,320.816 422.455992,321.127997 424.136,321.752 C425.816008,322.376003 427.279994,323.383993 428.528,324.776 C429.824006,326.312008 430.711998,328.015991 431.192,329.888 C431.672002,331.760009 431.912,333.65599 431.912,335.576 C431.912,336.104003 431.648003,336.368 431.12,336.368 L410.024,336.368 C409.976,338.480011 410.107998,340.51999 410.42,342.488 C410.732002,344.45601 411.439994,346.231992 412.544,347.816 C413.456005,349.064006 414.583993,350.071996 415.928,350.84 C417.272007,351.608004 418.711992,351.992 420.248,351.992 C421.400006,351.992 422.503995,351.800002 423.56,351.416 C424.616005,351.031998 425.587996,350.492003 426.476,349.796 C427.364004,349.099997 428.119997,348.284005 428.744,347.348 C429.368003,346.411995 429.823999,345.368006 430.112,344.216 C430.208,343.831998 430.471998,343.64 430.904,343.64 L431.264,343.64 C431.696002,343.736 431.912,343.999998 431.912,344.432 Z M427.088,334.856 C427.04,333.175992 426.872001,331.568008 426.584,330.032 C426.295999,328.495992 425.720004,327.056007 424.856,325.712 C424.183997,324.703995 423.332005,323.900003 422.3,323.3 C421.267995,322.699997 420.152006,322.4 418.952,322.4 C417.559993,322.4 416.288006,322.783996 415.136,323.552 C413.983994,324.320004 413.024004,325.327994 412.256,326.576 C411.487996,327.824006 410.960001,329.143993 410.672,330.536 C410.383999,331.928007 410.192,333.367993 410.096,334.856 L427.088,334.856 Z M326.864,439 C323.407983,438.855999 319.976017,438.784 316.568,438.784 C313.159983,438.784 309.728017,438.855999 306.272,439 L306.272,436.768 C307.328005,436.768 308.467994,436.756 309.692,436.732 C310.916006,436.708 311.839997,436.576001 312.464,436.336 C312.896002,436.191999 313.207999,435.916002 313.4,435.508 C313.592001,435.099998 313.688,434.656002 313.688,434.176 L313.688,391.84 L295.76,438.208 C295.471999,438.736003 295.112002,439 294.68,439 C294.151997,439 293.768001,438.736003 293.528,438.208 L275.816,392.416 L275.816,432.232 C275.816,432.904003 275.971998,433.539997 276.284,434.14 C276.596002,434.740003 277.063997,435.231998 277.688,435.616 C278.504004,436.144003 279.391995,436.467999 280.352,436.588 C281.312005,436.708001 282.271995,436.768 283.232,436.768 L283.232,439 C280.399986,438.855999 277.592014,438.784 274.808,438.784 C271.975986,438.784 269.192014,438.855999 266.456,439 L266.456,436.768 C267.416005,436.768 268.375995,436.708001 269.336,436.588 C270.296005,436.467999 271.183996,436.144003 272,435.616 C273.200006,434.847996 273.8,433.720007 273.8,432.232 L273.8,394.576 C273.8,394.095998 273.704001,393.652002 273.512,393.244 C273.319999,392.835998 273.008002,392.560001 272.576,392.416 C271.951997,392.175999 271.028006,392.044 269.804,392.02 C268.579994,391.996 267.464005,391.984 266.456,391.984 L266.456,389.824 L279.56,389.824 C280.184003,389.824 280.567999,390.087997 280.712,390.616 L296.624,431.728 L312.536,390.616 C312.776001,390.087997 313.183997,389.824 313.76,389.824 L326.864,389.824 L326.864,391.984 C325.807995,391.984 324.680006,391.996 323.48,392.02 C322.279994,392.044 321.368003,392.175999 320.744,392.416 C320.311998,392.560001 319.988001,392.835998 319.772,393.244 C319.555999,393.652002 319.448,394.095998 319.448,394.576 L319.448,434.176 C319.448,434.656002 319.555999,435.099998 319.772,435.508 C319.988001,435.916002 320.311998,436.191999 320.744,436.336 C321.368003,436.576001 322.279994,436.708 323.48,436.732 C324.680006,436.756 325.807995,436.768 326.864,436.768 L326.864,439 Z M365.096,433.168 C365.096,434.032004 364.940002,434.835996 364.628,435.58 C364.315998,436.324004 363.896003,436.983997 363.368,437.56 C362.839997,438.136003 362.216004,438.591998 361.496,438.928 C360.775996,439.264002 359.984004,439.432 359.12,439.432 C357.583992,439.432 356.312005,438.844006 355.304,437.668 C354.295995,436.491994 353.744,435.088008 353.648,433.456 C352.879996,435.280009 351.680008,436.791994 350.048,437.992 C348.415992,439.192006 346.544011,439.792 344.432,439.792 C343.039993,439.792 341.648007,439.648001 340.256,439.36 C338.863993,439.071999 337.604006,438.628003 336.476,438.028 C335.347994,437.427997 334.436003,436.648005 333.74,435.688 C333.043997,434.727995 332.696,433.552007 332.696,432.16 C332.696,430.14399 333.295994,428.380008 334.496,426.868 C335.696006,425.355992 337.159991,424.144005 338.888,423.232 C341.096011,422.127994 343.387988,421.372002 345.764,420.964 C348.140012,420.555998 350.551988,420.304 353,420.208 L353,417.04 C353,415.935994 352.820002,414.844005 352.46,413.764 C352.099998,412.683995 351.560004,411.736004 350.84,410.92 C349.399993,409.239992 347.64801,408.4 345.584,408.4 C343.951992,408.4 342.440007,408.675997 341.048,409.228 C339.655993,409.780003 338.552004,410.559995 337.736,411.568 C338.600004,411.472 339.427996,411.687997 340.22,412.216 C341.012004,412.744003 341.408,413.607994 341.408,414.808 C341.408,415.912006 341.060003,416.739997 340.364,417.292 C339.667997,417.844003 338.912004,418.12 338.096,418.12 C337.279996,418.12 336.524003,417.844003 335.828,417.292 C335.131997,416.739997 334.784,415.912006 334.784,414.808 C334.784,413.511994 335.095997,412.360005 335.72,411.352 C336.344003,410.343995 337.171995,409.504003 338.204,408.832 C339.236005,408.159997 340.399994,407.656002 341.696,407.32 C342.992006,406.983998 344.287994,406.816 345.584,406.816 C347.168008,406.816 348.715992,407.055998 350.228,407.536 C351.740008,408.016002 353.119994,408.759995 354.368,409.768 C355.472006,410.680005 356.359997,411.759994 357.032,413.008 C357.704003,414.256006 358.04,415.599993 358.04,417.04 L358.04,433.168 C358.04,434.176005 358.255998,435.087996 358.688,435.904 C359.120002,436.720004 359.791995,437.128 360.704,437.128 C361.568004,437.128 362.215998,436.720004 362.648,435.904 C363.080002,435.087996 363.296,434.176005 363.296,433.168 L363.296,428.56 L365.096,428.56 L365.096,433.168 Z M353,429.424 L353,421.72 C351.175991,421.816 349.376009,422.055998 347.6,422.44 C345.823991,422.824002 344.168008,423.495995 342.632,424.456 C341.287993,425.272004 340.220004,426.375993 339.428,427.768 C338.635996,429.160007 338.24,430.623992 338.24,432.16 C338.24,433.024004 338.407998,433.815996 338.744,434.536 C339.080002,435.256004 339.535997,435.891997 340.112,436.444 C340.688003,436.996003 341.359996,437.427998 342.128,437.74 C342.896004,438.052002 343.711996,438.208 344.576,438.208 C345.776006,438.208 346.879995,437.980002 347.888,437.524 C348.896005,437.067998 349.783996,436.444004 350.552,435.652 C351.320004,434.859996 351.919998,433.924005 352.352,432.844 C352.784002,431.763995 353,430.624006 353,429.424 Z M403.112,423.52 C403.112,425.680011 402.704004,427.75599 401.888,429.748 C401.071996,431.74001 399.896008,433.503992 398.36,435.04 C396.871993,436.576008 395.14401,437.751996 393.176,438.568 C391.20799,439.384004 389.144011,439.792 386.984,439.792 C385.159991,439.792 383.516007,439.396004 382.052,438.604 C380.587993,437.811996 379.328005,436.720007 378.272,435.328 L378.272,448.216 C378.272,448.648002 378.331999,449.067998 378.452,449.476 C378.572001,449.884002 378.823998,450.183999 379.208,450.376 C379.688002,450.616001 380.383995,450.748 381.296,450.772 C382.208005,450.796 383.071996,450.808 383.888,450.808 L383.888,452.968 C378.463973,452.775999 373.064027,452.775999 367.688,452.968 L367.688,450.808 C368.504004,450.808 369.367995,450.796 370.28,450.772 C371.192005,450.748 371.887998,450.616001 372.368,450.376 C372.752002,450.183999 373.003999,449.884002 373.124,449.476 C373.244001,449.067998 373.304,448.648002 373.304,448.216 L373.304,413.44 C373.304,412.911997 373.256,412.396003 373.16,411.892 C373.064,411.387997 372.800002,411.016001 372.368,410.776 C371.887998,410.487999 371.192005,410.32 370.28,410.272 C369.367995,410.224 368.504004,410.2 367.688,410.2 L367.688,407.968 L378.056,407.176 L378.056,411.928 C379.256006,410.487993 380.707991,409.336004 382.412,408.472 C384.116009,407.607996 385.97599,407.176 387.992,407.176 C390.05601,407.176 392.011991,407.595996 393.86,408.436 C395.708009,409.276004 397.327993,410.463992 398.72,412 C400.160007,413.536008 401.251996,415.29999 401.996,417.292 C402.740004,419.28401 403.112,421.359989 403.112,423.52 Z M397.136,423.52 C397.136,421.647991 396.908002,419.836009 396.452,418.084 C395.995998,416.331991 395.264005,414.688008 394.256,413.152 C393.439996,411.951994 392.468006,410.956004 391.34,410.164 C390.211994,409.371996 388.976007,408.976 387.632,408.976 C385.56799,408.976 383.708008,409.515995 382.052,410.596 C380.395992,411.676005 379.136004,413.079991 378.272,414.808 L378.272,432.016 C379.088004,433.840009 380.227993,435.327994 381.692,436.48 C383.156007,437.632006 384.84799,438.208 386.768,438.208 C388.208007,438.208 389.551994,437.812004 390.8,437.02 C392.048006,436.227996 393.127995,435.208006 394.04,433.96 C395.144006,432.423992 395.935998,430.768009 396.416,428.992 C396.896002,427.215991 397.136,425.392009 397.136,423.52 Z M431.48,429.712 C431.48,431.104007 431.240002,432.459993 430.76,433.78 C430.279998,435.100007 429.488006,436.239995 428.384,437.2 C427.135994,438.208005 425.768007,438.891998 424.28,439.252 C422.791993,439.612002 421.280008,439.792 419.744,439.792 C418.063992,439.792 416.600006,439.516003 415.352,438.964 C414.103994,438.411997 413.000005,437.632005 412.04,436.624 L409.52,439.576 C409.375999,439.720001 409.184001,439.792 408.944,439.792 L408.728,439.792 C408.247998,439.792 408.008,439.552002 408.008,439.072 L408.008,427.48 C408.008,427.143998 408.199998,426.928 408.584,426.832 C408.824001,426.736 409.075999,426.736 409.34,426.832 C409.604001,426.928 409.76,427.095999 409.808,427.336 C410.432003,430.600016 411.511992,433.22799 413.048,435.22 C414.584008,437.21201 416.815985,438.208 419.744,438.208 C420.896006,438.208 422.011995,438.088001 423.092,437.848 C424.172005,437.607999 425.119996,437.152003 425.936,436.48 C426.608003,435.903997 427.111998,435.196004 427.448,434.356 C427.784002,433.515996 427.952,432.616005 427.952,431.656 C427.952,430.071992 427.352006,428.716006 426.152,427.588 C424.951994,426.459994 423.464009,425.704002 421.688,425.32 L416.864,424.312 C415.711994,424.071999 414.608005,423.712002 413.552,423.232 C412.495995,422.751998 411.560004,422.152004 410.744,421.432 C409.927996,420.711996 409.268003,419.872005 408.764,418.912 C408.259997,417.951995 408.008,416.896006 408.008,415.744 C408.008,414.447994 408.271997,413.212006 408.8,412.036 C409.328003,410.859994 410.119995,409.888004 411.176,409.12 C412.424006,408.159995 413.803992,407.536001 415.316,407.248 C416.828008,406.959999 418.303993,406.816 419.744,406.816 C422.336013,406.816 424.495991,407.487993 426.224,408.832 L428.24,406.96 C428.432001,406.864 428.599999,406.816 428.744,406.816 L428.96,406.816 C429.440002,406.816 429.68,407.031998 429.68,407.464 L429.68,416.824 C429.68,417.304002 429.440002,417.544 428.96,417.544 L428.6,417.544 C428.119998,417.544 427.88,417.304002 427.88,416.824 C427.88,414.183987 427.172007,412.084008 425.756,410.524 C424.339993,408.963992 422.336013,408.184 419.744,408.184 C418.639994,408.184 417.548005,408.279999 416.468,408.472 C415.387995,408.664001 414.416004,409.071997 413.552,409.696 C412.207993,410.608005 411.536,411.951991 411.536,413.728 C411.536,415.072007 412.111994,416.199995 413.264,417.112 C414.416006,418.024005 415.831992,418.647998 417.512,418.984 L422.336,419.92 C423.584006,420.160001 424.759994,420.567997 425.864,421.144 C426.968006,421.720003 427.939996,422.427996 428.78,423.268 C429.620004,424.108004 430.279998,425.079994 430.76,426.184 C431.240002,427.288006 431.48,428.463994 431.48,429.712 Z" id="Input-Feature-Maps" fill="#000000"></path>
                <path d="M1183.84,1074.592 C1183.84,1078.00002 1183.25201,1081.28798 1182.076,1084.456 C1180.89999,1087.62402 1179.16001,1090.45599 1176.856,1092.952 C1174.64799,1095.35201 1172.09201,1097.22399 1169.188,1098.568 C1166.28399,1099.91201 1163.20002,1100.584 1159.936,1100.584 C1156.67198,1100.584 1153.58801,1099.91201 1150.684,1098.568 C1147.77999,1097.22399 1145.22401,1095.35201 1143.016,1092.952 C1140.71199,1090.45599 1138.97201,1087.62402 1137.796,1084.456 C1136.61999,1081.28798 1136.032,1078.00002 1136.032,1074.592 C1136.032,1071.13598 1136.61999,1067.81202 1137.796,1064.62 C1138.97201,1061.42798 1140.71199,1058.53601 1143.016,1055.944 C1145.17601,1053.49599 1147.71999,1051.58801 1150.648,1050.22 C1153.57601,1048.85199 1156.67198,1048.168 1159.936,1048.168 C1163.20002,1048.168 1166.28399,1048.85199 1169.188,1050.22 C1172.09201,1051.58801 1174.64799,1053.49599 1176.856,1055.944 C1179.16001,1058.53601 1180.89999,1061.42798 1182.076,1064.62 C1183.25201,1067.81202 1183.84,1071.13598 1183.84,1074.592 Z M1176.424,1073.44 C1176.424,1070.46399 1176.112,1067.54801 1175.488,1064.692 C1174.864,1061.83599 1173.71201,1059.20801 1172.032,1056.808 C1170.63999,1054.79199 1168.88801,1053.14801 1166.776,1051.876 C1164.66399,1050.60399 1162.38401,1049.968 1159.936,1049.968 C1157.48799,1049.968 1155.22001,1050.60399 1153.132,1051.876 C1151.04399,1053.14801 1149.28001,1054.79199 1147.84,1056.808 C1146.15999,1059.20801 1144.996,1061.83599 1144.348,1064.692 C1143.7,1067.54801 1143.376,1070.46399 1143.376,1073.44 C1143.376,1076.60802 1143.676,1079.72798 1144.276,1082.8 C1144.876,1085.87202 1146.06399,1088.75199 1147.84,1091.44 C1149.23201,1093.55201 1150.95999,1095.29199 1153.024,1096.66 C1155.08801,1098.02801 1157.39199,1098.712 1159.936,1098.712 C1162.43201,1098.712 1164.72399,1098.02801 1166.812,1096.66 C1168.90001,1095.29199 1170.63999,1093.55201 1172.032,1091.44 C1173.76001,1088.75199 1174.924,1085.87202 1175.524,1082.8 C1176.124,1079.72798 1176.424,1076.60802 1176.424,1073.44 Z M1226.392,1099 L1215.952,1099.792 L1215.952,1093.384 C1215.136,1095.20801 1213.98401,1096.73199 1212.496,1097.956 C1211.00799,1099.18001 1209.23201,1099.792 1207.168,1099.792 C1205.72799,1099.792 1204.26401,1099.66 1202.776,1099.396 C1201.28799,1099.132 1199.94401,1098.49601 1198.744,1097.488 C1197.63999,1096.576 1196.896,1095.47201 1196.512,1094.176 C1196.128,1092.87999 1195.936,1091.58401 1195.936,1090.288 L1195.936,1074.232 C1195.936,1073.56 1195.9,1072.924 1195.828,1072.324 C1195.756,1071.724 1195.48,1071.232 1195,1070.848 C1194.52,1070.512 1193.824,1070.32 1192.912,1070.272 C1192,1070.224 1191.136,1070.2 1190.32,1070.2 L1190.32,1067.968 L1200.904,1067.176 L1200.904,1090.288 C1200.904,1091.53601 1200.952,1092.71199 1201.048,1093.816 C1201.144,1094.92001 1201.456,1095.784 1201.984,1096.408 C1202.56,1097.128 1203.328,1097.608 1204.288,1097.848 C1205.248,1098.088 1206.25599,1098.208 1207.312,1098.208 C1208.56001,1098.208 1209.69999,1097.908 1210.732,1097.308 C1211.76401,1096.708 1212.652,1095.916 1213.396,1094.932 C1214.14,1093.948 1214.716,1092.80801 1215.124,1091.512 C1215.532,1090.21599 1215.736,1088.84801 1215.736,1087.408 L1215.736,1074.232 C1215.736,1073.56 1215.7,1072.924 1215.628,1072.324 C1215.556,1071.724 1215.304,1071.232 1214.872,1070.848 C1214.392,1070.512 1213.696,1070.32 1212.784,1070.272 C1211.872,1070.224 1211.008,1070.2 1210.192,1070.2 L1210.192,1067.968 L1220.776,1067.176 L1220.776,1092.808 C1220.776,1093.432 1220.812,1094.056 1220.884,1094.68 C1220.956,1095.304 1221.232,1095.784 1221.712,1096.12 C1222.192,1096.456 1222.888,1096.648 1223.8,1096.696 C1224.712,1096.744 1225.576,1096.768 1226.392,1096.768 L1226.392,1099 Z M1251.808,1090.288 C1251.808,1091.44001 1251.664,1092.57999 1251.376,1093.708 C1251.088,1094.83601 1250.668,1095.856 1250.116,1096.768 C1249.564,1097.68 1248.856,1098.412 1247.992,1098.964 C1247.128,1099.516 1246.12001,1099.792 1244.968,1099.792 C1243.71999,1099.792 1242.48401,1099.612 1241.26,1099.252 C1240.03599,1098.892 1238.944,1098.232 1237.984,1097.272 C1237.024,1096.312 1236.364,1095.22001 1236.004,1093.996 C1235.644,1092.77199 1235.464,1091.53601 1235.464,1090.288 L1235.464,1070.2 L1229.344,1070.2 L1229.344,1068.616 C1230.88001,1068.616 1232.23599,1068.22 1233.412,1067.428 C1234.58801,1066.636 1235.572,1065.59201 1236.364,1064.296 C1237.156,1062.99999 1237.744,1061.51201 1238.128,1059.832 C1238.512,1058.15199 1238.704,1056.44801 1238.704,1054.72 L1240.504,1054.72 L1240.504,1067.968 L1250.656,1067.968 L1250.656,1070.2 L1240.504,1070.2 L1240.504,1090.288 C1240.504,1091.39201 1240.588,1092.436 1240.756,1093.42 C1240.924,1094.404 1241.272,1095.304 1241.8,1096.12 C1242.664,1097.36801 1243.81599,1097.992 1245.256,1097.992 C1246.024,1097.992 1246.708,1097.788 1247.308,1097.38 C1247.908,1096.972 1248.4,1096.408 1248.784,1095.688 C1249.168,1094.968 1249.468,1094.14 1249.684,1093.204 C1249.9,1092.268 1250.008,1091.29601 1250.008,1090.288 L1250.008,1085.968 L1251.808,1085.968 L1251.808,1090.288 Z M1293.424,1083.52 C1293.424,1085.68001 1293.016,1087.75599 1292.2,1089.748 C1291.384,1091.74001 1290.20801,1093.50399 1288.672,1095.04 C1287.18399,1096.57601 1285.45601,1097.752 1283.488,1098.568 C1281.51999,1099.384 1279.45601,1099.792 1277.296,1099.792 C1275.47199,1099.792 1273.82801,1099.396 1272.364,1098.604 C1270.89999,1097.812 1269.64001,1096.72001 1268.584,1095.328 L1268.584,1108.216 C1268.584,1108.648 1268.644,1109.068 1268.764,1109.476 C1268.884,1109.884 1269.136,1110.184 1269.52,1110.376 C1270,1110.616 1270.696,1110.748 1271.608,1110.772 C1272.52,1110.796 1273.384,1110.808 1274.2,1110.808 L1274.2,1112.968 C1268.77597,1112.776 1263.37603,1112.776 1258,1112.968 L1258,1110.808 C1258.816,1110.808 1259.68,1110.796 1260.592,1110.772 C1261.504,1110.748 1262.2,1110.616 1262.68,1110.376 C1263.064,1110.184 1263.316,1109.884 1263.436,1109.476 C1263.556,1109.068 1263.616,1108.648 1263.616,1108.216 L1263.616,1073.44 C1263.616,1072.912 1263.568,1072.396 1263.472,1071.892 C1263.376,1071.388 1263.112,1071.016 1262.68,1070.776 C1262.2,1070.488 1261.504,1070.32 1260.592,1070.272 C1259.68,1070.224 1258.816,1070.2 1258,1070.2 L1258,1067.968 L1268.368,1067.176 L1268.368,1071.928 C1269.56801,1070.48799 1271.01999,1069.336 1272.724,1068.472 C1274.42801,1067.608 1276.28799,1067.176 1278.304,1067.176 C1280.36801,1067.176 1282.32399,1067.596 1284.172,1068.436 C1286.02001,1069.276 1287.63999,1070.46399 1289.032,1072 C1290.47201,1073.53601 1291.564,1075.29999 1292.308,1077.292 C1293.052,1079.28401 1293.424,1081.35999 1293.424,1083.52 Z M1287.448,1083.52 C1287.448,1081.64799 1287.22,1079.83601 1286.764,1078.084 C1286.308,1076.33199 1285.57601,1074.68801 1284.568,1073.152 C1283.752,1071.95199 1282.78001,1070.956 1281.652,1070.164 C1280.52399,1069.372 1279.28801,1068.976 1277.944,1068.976 C1275.87999,1068.976 1274.02001,1069.51599 1272.364,1070.596 C1270.70799,1071.67601 1269.448,1073.07999 1268.584,1074.808 L1268.584,1092.016 C1269.4,1093.84001 1270.53999,1095.32799 1272.004,1096.48 C1273.46801,1097.63201 1275.15999,1098.208 1277.08,1098.208 C1278.52001,1098.208 1279.86399,1097.812 1281.112,1097.02 C1282.36001,1096.228 1283.44,1095.20801 1284.352,1093.96 C1285.45601,1092.42399 1286.248,1090.76801 1286.728,1088.992 C1287.208,1087.21599 1287.448,1085.39201 1287.448,1083.52 Z M1334.32,1099 L1323.88,1099.792 L1323.88,1093.384 C1323.064,1095.20801 1321.91201,1096.73199 1320.424,1097.956 C1318.93599,1099.18001 1317.16001,1099.792 1315.096,1099.792 C1313.65599,1099.792 1312.19201,1099.66 1310.704,1099.396 C1309.21599,1099.132 1307.87201,1098.49601 1306.672,1097.488 C1305.56799,1096.576 1304.824,1095.47201 1304.44,1094.176 C1304.056,1092.87999 1303.864,1091.58401 1303.864,1090.288 L1303.864,1074.232 C1303.864,1073.56 1303.828,1072.924 1303.756,1072.324 C1303.684,1071.724 1303.408,1071.232 1302.928,1070.848 C1302.448,1070.512 1301.752,1070.32 1300.84,1070.272 C1299.928,1070.224 1299.064,1070.2 1298.248,1070.2 L1298.248,1067.968 L1308.832,1067.176 L1308.832,1090.288 C1308.832,1091.53601 1308.88,1092.71199 1308.976,1093.816 C1309.072,1094.92001 1309.384,1095.784 1309.912,1096.408 C1310.488,1097.128 1311.256,1097.608 1312.216,1097.848 C1313.176,1098.088 1314.18399,1098.208 1315.24,1098.208 C1316.48801,1098.208 1317.62799,1097.908 1318.66,1097.308 C1319.69201,1096.708 1320.58,1095.916 1321.324,1094.932 C1322.068,1093.948 1322.644,1092.80801 1323.052,1091.512 C1323.46,1090.21599 1323.664,1088.84801 1323.664,1087.408 L1323.664,1074.232 C1323.664,1073.56 1323.628,1072.924 1323.556,1072.324 C1323.484,1071.724 1323.232,1071.232 1322.8,1070.848 C1322.32,1070.512 1321.624,1070.32 1320.712,1070.272 C1319.8,1070.224 1318.936,1070.2 1318.12,1070.2 L1318.12,1067.968 L1328.704,1067.176 L1328.704,1092.808 C1328.704,1093.432 1328.74,1094.056 1328.812,1094.68 C1328.884,1095.304 1329.16,1095.784 1329.64,1096.12 C1330.12,1096.456 1330.816,1096.648 1331.728,1096.696 C1332.64,1096.744 1333.504,1096.768 1334.32,1096.768 L1334.32,1099 Z M1359.736,1090.288 C1359.736,1091.44001 1359.592,1092.57999 1359.304,1093.708 C1359.016,1094.83601 1358.596,1095.856 1358.044,1096.768 C1357.492,1097.68 1356.784,1098.412 1355.92,1098.964 C1355.056,1099.516 1354.04801,1099.792 1352.896,1099.792 C1351.64799,1099.792 1350.41201,1099.612 1349.188,1099.252 C1347.96399,1098.892 1346.872,1098.232 1345.912,1097.272 C1344.952,1096.312 1344.292,1095.22001 1343.932,1093.996 C1343.572,1092.77199 1343.392,1091.53601 1343.392,1090.288 L1343.392,1070.2 L1337.272,1070.2 L1337.272,1068.616 C1338.80801,1068.616 1340.16399,1068.22 1341.34,1067.428 C1342.51601,1066.636 1343.5,1065.59201 1344.292,1064.296 C1345.084,1062.99999 1345.672,1061.51201 1346.056,1059.832 C1346.44,1058.15199 1346.632,1056.44801 1346.632,1054.72 L1348.432,1054.72 L1348.432,1067.968 L1358.584,1067.968 L1358.584,1070.2 L1348.432,1070.2 L1348.432,1090.288 C1348.432,1091.39201 1348.516,1092.436 1348.684,1093.42 C1348.852,1094.404 1349.2,1095.304 1349.728,1096.12 C1350.592,1097.36801 1351.74399,1097.992 1353.184,1097.992 C1353.952,1097.992 1354.636,1097.788 1355.236,1097.38 C1355.836,1096.972 1356.328,1096.408 1356.712,1095.688 C1357.096,1094.968 1357.396,1094.14 1357.612,1093.204 C1357.828,1092.268 1357.936,1091.29601 1357.936,1090.288 L1357.936,1085.968 L1359.736,1085.968 L1359.736,1090.288 Z M1431.736,1066.168 L1429.936,1066.168 C1429.792,1065.15999 1429.648,1064.10401 1429.504,1063 C1429.36,1061.89599 1429.144,1060.84001 1428.856,1059.832 C1428.568,1058.82399 1428.208,1057.888 1427.776,1057.024 C1427.344,1056.16 1426.768,1055.416 1426.048,1054.792 C1425.328,1054.168 1424.512,1053.676 1423.6,1053.316 C1422.688,1052.956 1421.72801,1052.692 1420.72,1052.524 C1419.71199,1052.356 1418.68001,1052.26 1417.624,1052.236 C1416.56799,1052.212 1415.53601,1052.2 1414.528,1052.2 L1407.76,1052.2 C1407.232,1052.2 1406.668,1052.212 1406.068,1052.236 C1405.468,1052.26 1405.024,1052.392 1404.736,1052.632 C1404.4,1052.872 1404.208,1053.196 1404.16,1053.604 C1404.112,1054.012 1404.088,1054.408 1404.088,1054.792 L1404.088,1073.368 L1409.344,1073.368 C1410.59201,1073.368 1411.86399,1073.308 1413.16,1073.188 C1414.45601,1073.068 1415.488,1072.624 1416.256,1071.856 C1417.072,1071.088 1417.54,1070.06801 1417.66,1068.796 C1417.78,1067.52399 1417.84,1066.26401 1417.84,1065.016 L1419.64,1065.016 L1419.64,1084.024 L1417.84,1084.024 C1417.84,1082.77599 1417.78,1081.51601 1417.66,1080.244 C1417.54,1078.97199 1417.072,1077.928 1416.256,1077.112 C1415.488,1076.344 1414.45601,1075.9 1413.16,1075.78 C1411.86399,1075.66 1410.59201,1075.6 1409.344,1075.6 L1404.088,1075.6 L1404.088,1094.176 C1404.088,1094.704 1404.22,1095.172 1404.484,1095.58 C1404.748,1095.988 1405.12,1096.24 1405.6,1096.336 C1405.984,1096.432 1406.488,1096.516 1407.112,1096.588 C1407.736,1096.66 1408.396,1096.708 1409.092,1096.732 C1409.788,1096.756 1410.496,1096.768 1411.216,1096.768 L1413.304,1096.768 L1413.304,1099 C1409.46398,1098.904 1405.63602,1098.844 1401.82,1098.82 C1398.00398,1098.796 1394.15202,1098.856 1390.264,1099 L1390.264,1096.768 C1391.32001,1096.768 1392.45999,1096.756 1393.684,1096.732 C1394.90801,1096.708 1395.832,1096.576 1396.456,1096.336 C1396.888,1096.192 1397.2,1095.916 1397.392,1095.508 C1397.584,1095.1 1397.68,1094.656 1397.68,1094.176 L1397.68,1054.792 C1397.68,1054.312 1397.584,1053.868 1397.392,1053.46 C1397.2,1053.052 1396.888,1052.776 1396.456,1052.632 C1395.832,1052.392 1394.90801,1052.26 1393.684,1052.236 C1392.45999,1052.212 1391.32001,1052.2 1390.264,1052.2 L1390.264,1049.968 L1429.72,1049.968 L1431.736,1066.168 Z M1458.808,1090.432 C1458.616,1091.87201 1458.16,1093.16799 1457.44,1094.32 C1456.72,1095.47201 1455.80801,1096.456 1454.704,1097.272 C1453.59999,1098.088 1452.37601,1098.712 1451.032,1099.144 C1449.68799,1099.576 1448.29601,1099.792 1446.856,1099.792 C1444.69599,1099.792 1442.64401,1099.372 1440.7,1098.532 C1438.75599,1097.692 1437.04001,1096.50401 1435.552,1094.968 C1434.01599,1093.38399 1432.864,1091.58401 1432.096,1089.568 C1431.328,1087.55199 1430.944,1085.44001 1430.944,1083.232 C1430.944,1081.07199 1431.304,1078.99601 1432.024,1077.004 C1432.744,1075.01199 1433.82399,1073.22401 1435.264,1071.64 C1436.65601,1070.10399 1438.26399,1068.916 1440.088,1068.076 C1441.91201,1067.236 1443.83199,1066.816 1445.848,1066.816 C1447.62401,1066.816 1449.35199,1067.128 1451.032,1067.752 C1452.71201,1068.376 1454.17599,1069.38399 1455.424,1070.776 C1456.72001,1072.31201 1457.608,1074.01599 1458.088,1075.888 C1458.568,1077.76001 1458.808,1079.65599 1458.808,1081.576 C1458.808,1082.104 1458.544,1082.368 1458.016,1082.368 L1436.92,1082.368 C1436.872,1084.48001 1437.004,1086.51999 1437.316,1088.488 C1437.628,1090.45601 1438.33599,1092.23199 1439.44,1093.816 C1440.352,1095.06401 1441.47999,1096.072 1442.824,1096.84 C1444.16801,1097.608 1445.60799,1097.992 1447.144,1097.992 C1448.29601,1097.992 1449.39999,1097.8 1450.456,1097.416 C1451.51201,1097.032 1452.484,1096.492 1453.372,1095.796 C1454.26,1095.1 1455.016,1094.284 1455.64,1093.348 C1456.264,1092.412 1456.72,1091.36801 1457.008,1090.216 C1457.104,1089.832 1457.368,1089.64 1457.8,1089.64 L1458.16,1089.64 C1458.592,1089.736 1458.808,1090 1458.808,1090.432 Z M1453.984,1080.856 C1453.936,1079.17599 1453.768,1077.56801 1453.48,1076.032 C1453.192,1074.49599 1452.616,1073.05601 1451.752,1071.712 C1451.08,1070.70399 1450.22801,1069.9 1449.196,1069.3 C1448.16399,1068.7 1447.04801,1068.4 1445.848,1068.4 C1444.45599,1068.4 1443.18401,1068.784 1442.032,1069.552 C1440.87999,1070.32 1439.92,1071.32799 1439.152,1072.576 C1438.384,1073.82401 1437.856,1075.14399 1437.568,1076.536 C1437.28,1077.92801 1437.088,1079.36799 1436.992,1080.856 L1453.984,1080.856 Z M1496.32,1093.168 C1496.32,1094.032 1496.164,1094.836 1495.852,1095.58 C1495.54,1096.324 1495.12,1096.984 1494.592,1097.56 C1494.064,1098.136 1493.44,1098.592 1492.72,1098.928 C1492,1099.264 1491.208,1099.432 1490.344,1099.432 C1488.80799,1099.432 1487.53601,1098.84401 1486.528,1097.668 C1485.51999,1096.49199 1484.968,1095.08801 1484.872,1093.456 C1484.104,1095.28001 1482.90401,1096.79199 1481.272,1097.992 C1479.63999,1099.19201 1477.76801,1099.792 1475.656,1099.792 C1474.26399,1099.792 1472.87201,1099.648 1471.48,1099.36 C1470.08799,1099.072 1468.82801,1098.628 1467.7,1098.028 C1466.57199,1097.428 1465.66,1096.648 1464.964,1095.688 C1464.268,1094.728 1463.92,1093.55201 1463.92,1092.16 C1463.92,1090.14399 1464.51999,1088.38001 1465.72,1086.868 C1466.92001,1085.35599 1468.38399,1084.144 1470.112,1083.232 C1472.32001,1082.12799 1474.61199,1081.372 1476.988,1080.964 C1479.36401,1080.556 1481.77599,1080.304 1484.224,1080.208 L1484.224,1077.04 C1484.224,1075.93599 1484.044,1074.84401 1483.684,1073.764 C1483.324,1072.68399 1482.784,1071.736 1482.064,1070.92 C1480.62399,1069.23999 1478.87201,1068.4 1476.808,1068.4 C1475.17599,1068.4 1473.66401,1068.676 1472.272,1069.228 C1470.87999,1069.78 1469.776,1070.55999 1468.96,1071.568 C1469.824,1071.472 1470.652,1071.688 1471.444,1072.216 C1472.236,1072.744 1472.632,1073.60799 1472.632,1074.808 C1472.632,1075.91201 1472.284,1076.74 1471.588,1077.292 C1470.892,1077.844 1470.136,1078.12 1469.32,1078.12 C1468.504,1078.12 1467.748,1077.844 1467.052,1077.292 C1466.356,1076.74 1466.008,1075.91201 1466.008,1074.808 C1466.008,1073.51199 1466.32,1072.36001 1466.944,1071.352 C1467.568,1070.34399 1468.39599,1069.504 1469.428,1068.832 C1470.46001,1068.16 1471.62399,1067.656 1472.92,1067.32 C1474.21601,1066.984 1475.51199,1066.816 1476.808,1066.816 C1478.39201,1066.816 1479.93999,1067.056 1481.452,1067.536 C1482.96401,1068.016 1484.34399,1068.75999 1485.592,1069.768 C1486.69601,1070.68 1487.584,1071.75999 1488.256,1073.008 C1488.928,1074.25601 1489.264,1075.59999 1489.264,1077.04 L1489.264,1093.168 C1489.264,1094.17601 1489.48,1095.088 1489.912,1095.904 C1490.344,1096.72 1491.016,1097.128 1491.928,1097.128 C1492.792,1097.128 1493.44,1096.72 1493.872,1095.904 C1494.304,1095.088 1494.52,1094.17601 1494.52,1093.168 L1494.52,1088.56 L1496.32,1088.56 L1496.32,1093.168 Z M1484.224,1089.424 L1484.224,1081.72 C1482.39999,1081.816 1480.60001,1082.056 1478.824,1082.44 C1477.04799,1082.824 1475.39201,1083.496 1473.856,1084.456 C1472.51199,1085.272 1471.444,1086.37599 1470.652,1087.768 C1469.86,1089.16001 1469.464,1090.62399 1469.464,1092.16 C1469.464,1093.024 1469.632,1093.816 1469.968,1094.536 C1470.304,1095.256 1470.76,1095.892 1471.336,1096.444 C1471.912,1096.996 1472.584,1097.428 1473.352,1097.74 C1474.12,1098.052 1474.936,1098.208 1475.8,1098.208 C1477.00001,1098.208 1478.10399,1097.98 1479.112,1097.524 C1480.12001,1097.068 1481.008,1096.444 1481.776,1095.652 C1482.544,1094.86 1483.144,1093.92401 1483.576,1092.844 C1484.008,1091.76399 1484.224,1090.62401 1484.224,1089.424 Z M1520.728,1090.288 C1520.728,1091.44001 1520.584,1092.57999 1520.296,1093.708 C1520.008,1094.83601 1519.588,1095.856 1519.036,1096.768 C1518.484,1097.68 1517.776,1098.412 1516.912,1098.964 C1516.048,1099.516 1515.04001,1099.792 1513.888,1099.792 C1512.63999,1099.792 1511.40401,1099.612 1510.18,1099.252 C1508.95599,1098.892 1507.864,1098.232 1506.904,1097.272 C1505.944,1096.312 1505.284,1095.22001 1504.924,1093.996 C1504.564,1092.77199 1504.384,1091.53601 1504.384,1090.288 L1504.384,1070.2 L1498.264,1070.2 L1498.264,1068.616 C1499.80001,1068.616 1501.15599,1068.22 1502.332,1067.428 C1503.50801,1066.636 1504.492,1065.59201 1505.284,1064.296 C1506.076,1062.99999 1506.664,1061.51201 1507.048,1059.832 C1507.432,1058.15199 1507.624,1056.44801 1507.624,1054.72 L1509.424,1054.72 L1509.424,1067.968 L1519.576,1067.968 L1519.576,1070.2 L1509.424,1070.2 L1509.424,1090.288 C1509.424,1091.39201 1509.508,1092.436 1509.676,1093.42 C1509.844,1094.404 1510.192,1095.304 1510.72,1096.12 C1511.584,1097.36801 1512.73599,1097.992 1514.176,1097.992 C1514.944,1097.992 1515.628,1097.788 1516.228,1097.38 C1516.828,1096.972 1517.32,1096.408 1517.704,1095.688 C1518.088,1094.968 1518.388,1094.14 1518.604,1093.204 C1518.82,1092.268 1518.928,1091.29601 1518.928,1090.288 L1518.928,1085.968 L1520.728,1085.968 L1520.728,1090.288 Z M1563.28,1099 L1552.84,1099.792 L1552.84,1093.384 C1552.024,1095.20801 1550.87201,1096.73199 1549.384,1097.956 C1547.89599,1099.18001 1546.12001,1099.792 1544.056,1099.792 C1542.61599,1099.792 1541.15201,1099.66 1539.664,1099.396 C1538.17599,1099.132 1536.83201,1098.49601 1535.632,1097.488 C1534.52799,1096.576 1533.784,1095.47201 1533.4,1094.176 C1533.016,1092.87999 1532.824,1091.58401 1532.824,1090.288 L1532.824,1074.232 C1532.824,1073.56 1532.788,1072.924 1532.716,1072.324 C1532.644,1071.724 1532.368,1071.232 1531.888,1070.848 C1531.408,1070.512 1530.712,1070.32 1529.8,1070.272 C1528.888,1070.224 1528.024,1070.2 1527.208,1070.2 L1527.208,1067.968 L1537.792,1067.176 L1537.792,1090.288 C1537.792,1091.53601 1537.84,1092.71199 1537.936,1093.816 C1538.032,1094.92001 1538.344,1095.784 1538.872,1096.408 C1539.448,1097.128 1540.216,1097.608 1541.176,1097.848 C1542.136,1098.088 1543.14399,1098.208 1544.2,1098.208 C1545.44801,1098.208 1546.58799,1097.908 1547.62,1097.308 C1548.65201,1096.708 1549.54,1095.916 1550.284,1094.932 C1551.028,1093.948 1551.604,1092.80801 1552.012,1091.512 C1552.42,1090.21599 1552.624,1088.84801 1552.624,1087.408 L1552.624,1074.232 C1552.624,1073.56 1552.588,1072.924 1552.516,1072.324 C1552.444,1071.724 1552.192,1071.232 1551.76,1070.848 C1551.28,1070.512 1550.584,1070.32 1549.672,1070.272 C1548.76,1070.224 1547.896,1070.2 1547.08,1070.2 L1547.08,1067.968 L1557.664,1067.176 L1557.664,1092.808 C1557.664,1093.432 1557.7,1094.056 1557.772,1094.68 C1557.844,1095.304 1558.12,1095.784 1558.6,1096.12 C1559.08,1096.456 1559.776,1096.648 1560.688,1096.696 C1561.6,1096.744 1562.464,1096.768 1563.28,1096.768 L1563.28,1099 Z M1591,1071.64 C1591,1072.69601 1590.676,1073.488 1590.028,1074.016 C1589.38,1074.544 1588.672,1074.808 1587.904,1074.808 C1587.136,1074.808 1586.428,1074.544 1585.78,1074.016 C1585.132,1073.488 1584.808,1072.69601 1584.808,1071.64 C1584.808,1070.968 1584.964,1070.404 1585.276,1069.948 C1585.588,1069.492 1585.984,1069.144 1586.464,1068.904 C1586.32,1068.856 1586.08,1068.832 1585.744,1068.832 C1584.35199,1068.832 1583.12801,1069.204 1582.072,1069.948 C1581.01599,1070.692 1580.128,1071.68799 1579.408,1072.936 C1578.688,1074.18401 1578.148,1075.62399 1577.788,1077.256 C1577.428,1078.88801 1577.248,1080.56799 1577.248,1082.296 L1577.248,1094.176 C1577.248,1094.656 1577.344,1095.1 1577.536,1095.508 C1577.728,1095.916 1578.016,1096.192 1578.4,1096.336 C1579.024,1096.576 1579.91199,1096.708 1581.064,1096.732 C1582.21601,1096.756 1583.272,1096.768 1584.232,1096.768 L1584.232,1099 C1581.35199,1098.904 1578.46001,1098.844 1575.556,1098.82 C1572.65199,1098.796 1569.76001,1098.856 1566.88,1099 L1566.88,1096.768 C1567.696,1096.768 1568.56,1096.756 1569.472,1096.732 C1570.384,1096.708 1571.08,1096.576 1571.56,1096.336 C1571.944,1096.144 1572.196,1095.844 1572.316,1095.436 C1572.436,1095.028 1572.496,1094.608 1572.496,1094.176 L1572.496,1074.232 C1572.496,1073.56 1572.46,1072.924 1572.388,1072.324 C1572.316,1071.724 1572.04,1071.232 1571.56,1070.848 C1571.08,1070.512 1570.384,1070.32 1569.472,1070.272 C1568.56,1070.224 1567.696,1070.2 1566.88,1070.2 L1566.88,1067.968 L1576.888,1067.176 L1576.888,1075.24 C1577.56,1072.93599 1578.61599,1071.01601 1580.056,1069.48 C1581.49601,1067.94399 1583.39199,1067.176 1585.744,1067.176 C1587.04001,1067.176 1588.23999,1067.572 1589.344,1068.364 C1590.44801,1069.156 1591,1070.24799 1591,1071.64 Z M1622.968,1090.432 C1622.776,1091.87201 1622.32,1093.16799 1621.6,1094.32 C1620.88,1095.47201 1619.96801,1096.456 1618.864,1097.272 C1617.75999,1098.088 1616.53601,1098.712 1615.192,1099.144 C1613.84799,1099.576 1612.45601,1099.792 1611.016,1099.792 C1608.85599,1099.792 1606.80401,1099.372 1604.86,1098.532 C1602.91599,1097.692 1601.20001,1096.50401 1599.712,1094.968 C1598.17599,1093.38399 1597.024,1091.58401 1596.256,1089.568 C1595.488,1087.55199 1595.104,1085.44001 1595.104,1083.232 C1595.104,1081.07199 1595.464,1078.99601 1596.184,1077.004 C1596.904,1075.01199 1597.98399,1073.22401 1599.424,1071.64 C1600.81601,1070.10399 1602.42399,1068.916 1604.248,1068.076 C1606.07201,1067.236 1607.99199,1066.816 1610.008,1066.816 C1611.78401,1066.816 1613.51199,1067.128 1615.192,1067.752 C1616.87201,1068.376 1618.33599,1069.38399 1619.584,1070.776 C1620.88001,1072.31201 1621.768,1074.01599 1622.248,1075.888 C1622.728,1077.76001 1622.968,1079.65599 1622.968,1081.576 C1622.968,1082.104 1622.704,1082.368 1622.176,1082.368 L1601.08,1082.368 C1601.032,1084.48001 1601.164,1086.51999 1601.476,1088.488 C1601.788,1090.45601 1602.49599,1092.23199 1603.6,1093.816 C1604.512,1095.06401 1605.63999,1096.072 1606.984,1096.84 C1608.32801,1097.608 1609.76799,1097.992 1611.304,1097.992 C1612.45601,1097.992 1613.55999,1097.8 1614.616,1097.416 C1615.67201,1097.032 1616.644,1096.492 1617.532,1095.796 C1618.42,1095.1 1619.176,1094.284 1619.8,1093.348 C1620.424,1092.412 1620.88,1091.36801 1621.168,1090.216 C1621.264,1089.832 1621.528,1089.64 1621.96,1089.64 L1622.32,1089.64 C1622.752,1089.736 1622.968,1090 1622.968,1090.432 Z M1618.144,1080.856 C1618.096,1079.17599 1617.928,1077.56801 1617.64,1076.032 C1617.352,1074.49599 1616.776,1073.05601 1615.912,1071.712 C1615.24,1070.70399 1614.38801,1069.9 1613.356,1069.3 C1612.32399,1068.7 1611.20801,1068.4 1610.008,1068.4 C1608.61599,1068.4 1607.34401,1068.784 1606.192,1069.552 C1605.03999,1070.32 1604.08,1071.32799 1603.312,1072.576 C1602.544,1073.82401 1602.016,1075.14399 1601.728,1076.536 C1601.44,1077.92801 1601.248,1079.36799 1601.152,1080.856 L1618.144,1080.856 Z M1195.144,1185 C1191.68798,1184.856 1188.25602,1184.784 1184.848,1184.784 C1181.43998,1184.784 1178.00802,1184.856 1174.552,1185 L1174.552,1182.768 C1175.60801,1182.768 1176.74799,1182.756 1177.972,1182.732 C1179.19601,1182.708 1180.12,1182.576 1180.744,1182.336 C1181.176,1182.192 1181.488,1181.916 1181.68,1181.508 C1181.872,1181.1 1181.968,1180.656 1181.968,1180.176 L1181.968,1137.84 L1164.04,1184.208 C1163.752,1184.736 1163.392,1185 1162.96,1185 C1162.432,1185 1162.048,1184.736 1161.808,1184.208 L1144.096,1138.416 L1144.096,1178.232 C1144.096,1178.904 1144.252,1179.54 1144.564,1180.14 C1144.876,1180.74 1145.344,1181.232 1145.968,1181.616 C1146.784,1182.144 1147.672,1182.468 1148.632,1182.588 C1149.592,1182.708 1150.552,1182.768 1151.512,1182.768 L1151.512,1185 C1148.67999,1184.856 1145.87201,1184.784 1143.088,1184.784 C1140.25599,1184.784 1137.47201,1184.856 1134.736,1185 L1134.736,1182.768 C1135.696,1182.768 1136.656,1182.708 1137.616,1182.588 C1138.576,1182.468 1139.464,1182.144 1140.28,1181.616 C1141.48001,1180.848 1142.08,1179.72001 1142.08,1178.232 L1142.08,1140.576 C1142.08,1140.096 1141.984,1139.652 1141.792,1139.244 C1141.6,1138.836 1141.288,1138.56 1140.856,1138.416 C1140.232,1138.176 1139.30801,1138.044 1138.084,1138.02 C1136.85999,1137.996 1135.74401,1137.984 1134.736,1137.984 L1134.736,1135.824 L1147.84,1135.824 C1148.464,1135.824 1148.848,1136.088 1148.992,1136.616 L1164.904,1177.728 L1180.816,1136.616 C1181.056,1136.088 1181.464,1135.824 1182.04,1135.824 L1195.144,1135.824 L1195.144,1137.984 C1194.08799,1137.984 1192.96001,1137.996 1191.76,1138.02 C1190.55999,1138.044 1189.648,1138.176 1189.024,1138.416 C1188.592,1138.56 1188.268,1138.836 1188.052,1139.244 C1187.836,1139.652 1187.728,1140.096 1187.728,1140.576 L1187.728,1180.176 C1187.728,1180.656 1187.836,1181.1 1188.052,1181.508 C1188.268,1181.916 1188.592,1182.192 1189.024,1182.336 C1189.648,1182.576 1190.55999,1182.708 1191.76,1182.732 C1192.96001,1182.756 1194.08799,1182.768 1195.144,1182.768 L1195.144,1185 Z M1233.376,1179.168 C1233.376,1180.032 1233.22,1180.836 1232.908,1181.58 C1232.596,1182.324 1232.176,1182.984 1231.648,1183.56 C1231.12,1184.136 1230.496,1184.592 1229.776,1184.928 C1229.056,1185.264 1228.264,1185.432 1227.4,1185.432 C1225.86399,1185.432 1224.59201,1184.84401 1223.584,1183.668 C1222.57599,1182.49199 1222.024,1181.08801 1221.928,1179.456 C1221.16,1181.28001 1219.96001,1182.79199 1218.328,1183.992 C1216.69599,1185.19201 1214.82401,1185.792 1212.712,1185.792 C1211.31999,1185.792 1209.92801,1185.648 1208.536,1185.36 C1207.14399,1185.072 1205.88401,1184.628 1204.756,1184.028 C1203.62799,1183.428 1202.716,1182.648 1202.02,1181.688 C1201.324,1180.728 1200.976,1179.55201 1200.976,1178.16 C1200.976,1176.14399 1201.57599,1174.38001 1202.776,1172.868 C1203.97601,1171.35599 1205.43999,1170.144 1207.168,1169.232 C1209.37601,1168.12799 1211.66799,1167.372 1214.044,1166.964 C1216.42001,1166.556 1218.83199,1166.304 1221.28,1166.208 L1221.28,1163.04 C1221.28,1161.93599 1221.1,1160.84401 1220.74,1159.764 C1220.38,1158.68399 1219.84,1157.736 1219.12,1156.92 C1217.67999,1155.23999 1215.92801,1154.4 1213.864,1154.4 C1212.23199,1154.4 1210.72001,1154.676 1209.328,1155.228 C1207.93599,1155.78 1206.832,1156.55999 1206.016,1157.568 C1206.88,1157.472 1207.708,1157.688 1208.5,1158.216 C1209.292,1158.744 1209.688,1159.60799 1209.688,1160.808 C1209.688,1161.91201 1209.34,1162.74 1208.644,1163.292 C1207.948,1163.844 1207.192,1164.12 1206.376,1164.12 C1205.56,1164.12 1204.804,1163.844 1204.108,1163.292 C1203.412,1162.74 1203.064,1161.91201 1203.064,1160.808 C1203.064,1159.51199 1203.376,1158.36001 1204,1157.352 C1204.624,1156.34399 1205.45199,1155.504 1206.484,1154.832 C1207.51601,1154.16 1208.67999,1153.656 1209.976,1153.32 C1211.27201,1152.984 1212.56799,1152.816 1213.864,1152.816 C1215.44801,1152.816 1216.99599,1153.056 1218.508,1153.536 C1220.02001,1154.016 1221.39999,1154.75999 1222.648,1155.768 C1223.75201,1156.68 1224.64,1157.75999 1225.312,1159.008 C1225.984,1160.25601 1226.32,1161.59999 1226.32,1163.04 L1226.32,1179.168 C1226.32,1180.17601 1226.536,1181.088 1226.968,1181.904 C1227.4,1182.72 1228.072,1183.128 1228.984,1183.128 C1229.848,1183.128 1230.496,1182.72 1230.928,1181.904 C1231.36,1181.088 1231.576,1180.17601 1231.576,1179.168 L1231.576,1174.56 L1233.376,1174.56 L1233.376,1179.168 Z M1221.28,1175.424 L1221.28,1167.72 C1219.45599,1167.816 1217.65601,1168.056 1215.88,1168.44 C1214.10399,1168.824 1212.44801,1169.496 1210.912,1170.456 C1209.56799,1171.272 1208.5,1172.37599 1207.708,1173.768 C1206.916,1175.16001 1206.52,1176.62399 1206.52,1178.16 C1206.52,1179.024 1206.688,1179.816 1207.024,1180.536 C1207.36,1181.256 1207.816,1181.892 1208.392,1182.444 C1208.968,1182.996 1209.64,1183.428 1210.408,1183.74 C1211.176,1184.052 1211.992,1184.208 1212.856,1184.208 C1214.05601,1184.208 1215.15999,1183.98 1216.168,1183.524 C1217.17601,1183.068 1218.064,1182.444 1218.832,1181.652 C1219.6,1180.86 1220.2,1179.92401 1220.632,1178.844 C1221.064,1177.76399 1221.28,1176.62401 1221.28,1175.424 Z M1271.392,1169.52 C1271.392,1171.68001 1270.984,1173.75599 1270.168,1175.748 C1269.352,1177.74001 1268.17601,1179.50399 1266.64,1181.04 C1265.15199,1182.57601 1263.42401,1183.752 1261.456,1184.568 C1259.48799,1185.384 1257.42401,1185.792 1255.264,1185.792 C1253.43999,1185.792 1251.79601,1185.396 1250.332,1184.604 C1248.86799,1183.812 1247.60801,1182.72001 1246.552,1181.328 L1246.552,1194.216 C1246.552,1194.648 1246.612,1195.068 1246.732,1195.476 C1246.852,1195.884 1247.104,1196.184 1247.488,1196.376 C1247.968,1196.616 1248.664,1196.748 1249.576,1196.772 C1250.488,1196.796 1251.352,1196.808 1252.168,1196.808 L1252.168,1198.968 C1246.74397,1198.776 1241.34403,1198.776 1235.968,1198.968 L1235.968,1196.808 C1236.784,1196.808 1237.648,1196.796 1238.56,1196.772 C1239.472,1196.748 1240.168,1196.616 1240.648,1196.376 C1241.032,1196.184 1241.284,1195.884 1241.404,1195.476 C1241.524,1195.068 1241.584,1194.648 1241.584,1194.216 L1241.584,1159.44 C1241.584,1158.912 1241.536,1158.396 1241.44,1157.892 C1241.344,1157.388 1241.08,1157.016 1240.648,1156.776 C1240.168,1156.488 1239.472,1156.32 1238.56,1156.272 C1237.648,1156.224 1236.784,1156.2 1235.968,1156.2 L1235.968,1153.968 L1246.336,1153.176 L1246.336,1157.928 C1247.53601,1156.48799 1248.98799,1155.336 1250.692,1154.472 C1252.39601,1153.608 1254.25599,1153.176 1256.272,1153.176 C1258.33601,1153.176 1260.29199,1153.596 1262.14,1154.436 C1263.98801,1155.276 1265.60799,1156.46399 1267,1158 C1268.44001,1159.53601 1269.532,1161.29999 1270.276,1163.292 C1271.02,1165.28401 1271.392,1167.35999 1271.392,1169.52 Z M1265.416,1169.52 C1265.416,1167.64799 1265.188,1165.83601 1264.732,1164.084 C1264.276,1162.33199 1263.54401,1160.68801 1262.536,1159.152 C1261.72,1157.95199 1260.74801,1156.956 1259.62,1156.164 C1258.49199,1155.372 1257.25601,1154.976 1255.912,1154.976 C1253.84799,1154.976 1251.98801,1155.51599 1250.332,1156.596 C1248.67599,1157.67601 1247.416,1159.07999 1246.552,1160.808 L1246.552,1178.016 C1247.368,1179.84001 1248.50799,1181.32799 1249.972,1182.48 C1251.43601,1183.63201 1253.12799,1184.208 1255.048,1184.208 C1256.48801,1184.208 1257.83199,1183.812 1259.08,1183.02 C1260.32801,1182.228 1261.408,1181.20801 1262.32,1179.96 C1263.42401,1178.42399 1264.216,1176.76801 1264.696,1174.992 C1265.176,1173.21599 1265.416,1171.39201 1265.416,1169.52 Z M1299.76,1175.712 C1299.76,1177.10401 1299.52,1178.45999 1299.04,1179.78 C1298.56,1181.10001 1297.76801,1182.24 1296.664,1183.2 C1295.41599,1184.20801 1294.04801,1184.892 1292.56,1185.252 C1291.07199,1185.612 1289.56001,1185.792 1288.024,1185.792 C1286.34399,1185.792 1284.88001,1185.516 1283.632,1184.964 C1282.38399,1184.412 1281.28,1183.63201 1280.32,1182.624 L1277.8,1185.576 C1277.656,1185.72 1277.464,1185.792 1277.224,1185.792 L1277.008,1185.792 C1276.528,1185.792 1276.288,1185.552 1276.288,1185.072 L1276.288,1173.48 C1276.288,1173.144 1276.48,1172.928 1276.864,1172.832 C1277.104,1172.736 1277.356,1172.736 1277.62,1172.832 C1277.884,1172.928 1278.04,1173.096 1278.088,1173.336 C1278.712,1176.60002 1279.79199,1179.22799 1281.328,1181.22 C1282.86401,1183.21201 1285.09599,1184.208 1288.024,1184.208 C1289.17601,1184.208 1290.29199,1184.088 1291.372,1183.848 C1292.45201,1183.608 1293.4,1183.152 1294.216,1182.48 C1294.888,1181.904 1295.392,1181.196 1295.728,1180.356 C1296.064,1179.516 1296.232,1178.616 1296.232,1177.656 C1296.232,1176.07199 1295.63201,1174.71601 1294.432,1173.588 C1293.23199,1172.45999 1291.74401,1171.704 1289.968,1171.32 L1285.144,1170.312 C1283.99199,1170.072 1282.88801,1169.712 1281.832,1169.232 C1280.77599,1168.752 1279.84,1168.152 1279.024,1167.432 C1278.208,1166.712 1277.548,1165.872 1277.044,1164.912 C1276.54,1163.952 1276.288,1162.89601 1276.288,1161.744 C1276.288,1160.44799 1276.552,1159.21201 1277.08,1158.036 C1277.608,1156.85999 1278.39999,1155.888 1279.456,1155.12 C1280.70401,1154.16 1282.08399,1153.536 1283.596,1153.248 C1285.10801,1152.96 1286.58399,1152.816 1288.024,1152.816 C1290.61601,1152.816 1292.77599,1153.48799 1294.504,1154.832 L1296.52,1152.96 C1296.712,1152.864 1296.88,1152.816 1297.024,1152.816 L1297.24,1152.816 C1297.72,1152.816 1297.96,1153.032 1297.96,1153.464 L1297.96,1162.824 C1297.96,1163.304 1297.72,1163.544 1297.24,1163.544 L1296.88,1163.544 C1296.4,1163.544 1296.16,1163.304 1296.16,1162.824 C1296.16,1160.18399 1295.45201,1158.08401 1294.036,1156.524 C1292.61999,1154.96399 1290.61601,1154.184 1288.024,1154.184 C1286.91999,1154.184 1285.82801,1154.28 1284.748,1154.472 C1283.66799,1154.664 1282.696,1155.072 1281.832,1155.696 C1280.48799,1156.608 1279.816,1157.95199 1279.816,1159.728 C1279.816,1161.07201 1280.39199,1162.2 1281.544,1163.112 C1282.69601,1164.024 1284.11199,1164.648 1285.792,1164.984 L1290.616,1165.92 C1291.86401,1166.16 1293.03999,1166.568 1294.144,1167.144 C1295.24801,1167.72 1296.22,1168.428 1297.06,1169.268 C1297.9,1170.108 1298.56,1171.07999 1299.04,1172.184 C1299.52,1173.28801 1299.76,1174.46399 1299.76,1175.712 Z" id="Output-Feature-Maps" fill="#000000"></path>
            </g>
        </g>
    </g>
</svg>