<?xml version="1.0" encoding="UTF-8"?>
<svg width="524px" height="445px" viewBox="0 0 524 445" version="1.1" xmlns="http://www.w3.org/2000/svg" xmlns:xlink="http://www.w3.org/1999/xlink">
    <!-- Generator: Sketch 49.2 (51160) - http://www.bohemiancoding.com/sketch -->
    <title>Artboard</title>
    <desc>Created with Sketch.</desc>
    <defs></defs>
    <g id="Artboard" stroke="none" stroke-width="1" fill="none" fill-rule="evenodd">
        <path d="M355.5,46.5 L252.5,132.5" id="Line" stroke="#000000" stroke-width="3" stroke-linecap="square" transform="translate(304.000000, 89.500000) scale(1, -1) translate(-304.000000, -89.500000) "></path>
        <path d="M250.5,46.5 L141.5,132.5" id="Line" stroke="#000000" stroke-width="3" stroke-linecap="square"></path>
        <path d="M140.5,133.5 L85.5,219.5" id="Line" stroke="#000000" stroke-width="3" stroke-linecap="square"></path>
        <path d="M355.5,133.5 L300.5,219.5" id="Line" stroke="#000000" stroke-width="3" stroke-linecap="square"></path>
        <path d="M197.5,133.5 L142.5,219.5" id="Line" stroke="#000000" stroke-width="3" stroke-linecap="square" transform="translate(170.000000, 176.500000) scale(1, -1) translate(-170.000000, -176.500000) "></path>
        <path d="M252.5,219.5 L197.5,305.5" id="Line" stroke="#000000" stroke-width="3" stroke-linecap="square" transform="translate(225.000000, 262.500000) scale(1, -1) translate(-225.000000, -262.500000) "></path>
        <path d="M411.5,133.5 L356.5,219.5" id="Line" stroke="#000000" stroke-width="3" stroke-linecap="square" transform="translate(384.000000, 176.500000) scale(1, -1) translate(-384.000000, -176.500000) "></path>
        <path d="M197.5,219.5 L142.5,305.5" id="Line" stroke="#000000" stroke-width="3" stroke-linecap="square"></path>
        <path d="M197.5,306.5 L142.5,392.5" id="Line" stroke="#000000" stroke-width="3" stroke-linecap="square" transform="translate(170.000000, 349.500000) scale(1, -1) translate(-170.000000, -349.500000) "></path>
        <path d="M142.5,306.5 L87.5,392.5" id="Line" stroke="#000000" stroke-width="3" stroke-linecap="square"></path>
        <ellipse id="Oval" stroke="#000000" stroke-width="3" fill="#FFFFFF" cx="251.5" cy="46" rx="27.5" ry="28"></ellipse>
        <ellipse id="Oval" stroke="#000000" stroke-width="3" fill="#FFFFFF" cx="251.5" cy="46" rx="27.5" ry="28"></ellipse>
        <ellipse id="Oval" stroke="#000000" stroke-width="3" fill="#FFFFFF" cx="356.5" cy="133" rx="27.5" ry="28"></ellipse>
        <ellipse id="Oval" stroke="#000000" stroke-width="3" fill="#FFFFFF" transform="translate(142.500000, 133.000000) scale(1, -1) translate(-142.500000, -133.000000) " cx="142.5" cy="133" rx="27.5" ry="28"></ellipse>
        <ellipse id="Oval" stroke="#000000" stroke-width="3" fill="#FFFFFF" cx="198.5" cy="220" rx="27.5" ry="28"></ellipse>
        <ellipse id="Oval" stroke="#000000" stroke-width="3" fill="#FFFFFF" transform="translate(143.500000, 306.000000) scale(1, -1) translate(-143.500000, -306.000000) " cx="143.5" cy="306" rx="27.5" ry="28"></ellipse>
        <text id="A" font-family="Euclid-Bold, Euclid" font-size="36" font-weight="bold" fill="#7ED321">
            <tspan x="273.41" y="255">A</tspan>
        </text>
        <text id="B" font-family="Euclid-Bold, Euclid" font-size="36" font-weight="bold" fill="#D0021B">
            <tspan x="411.202" y="254">B</tspan>
        </text>
        <text id="C" font-family="Euclid-Bold, Euclid" font-size="24" font-weight="bold" fill="#D0021B">
            <tspan x="67.336" y="243">C</tspan>
        </text>
        <text id="D" font-family="Euclid-Bold, Euclid" font-size="24" font-weight="bold" fill="#D0021B">
            <tspan x="253.308" y="329">D</tspan>
        </text>
        <text id="F" font-family="Euclid-Bold, Euclid" font-size="18" font-weight="bold" fill="#D0021B">
            <tspan x="198.348" y="410">F</tspan>
        </text>
        <text id="E" font-family="Euclid-Bold, Euclid" font-size="18" font-weight="bold" fill="#7ED321">
            <tspan x="75.105" y="410">E</tspan>
        </text>
        <text id="0.5" font-family="Euclid" font-size="18" font-weight="normal" fill="#000000">
            <tspan x="172.498" y="83">0.5</tspan>
        </text>
        <text id="0.95" font-family="Euclid" font-size="18" font-weight="normal" fill="#000000">
            <tspan x="290.498" y="177">0.95</tspan>
        </text>
        <text id="0.5" font-family="Euclid" font-size="18" font-weight="normal" fill="#000000">
            <tspan x="304.498" y="83">0.5</tspan>
        </text>
        <text id="0.05" font-family="Euclid" font-size="18" font-weight="normal" fill="#000000">
            <tspan x="389.498" y="177">0.05</tspan>
        </text>
        <text id="0.05" font-family="Euclid" font-size="18" font-weight="normal" fill="#000000">
            <tspan x="75.498" y="177">0.05</tspan>
        </text>
        <text id="0.95" font-family="Euclid" font-size="18" font-weight="normal" fill="#000000">
            <tspan x="175.498" y="177">0.95</tspan>
        </text>
        <text id="0.95" font-family="Euclid" font-size="18" font-weight="normal" fill="#000000">
            <tspan x="132.498" y="262">0.95</tspan>
        </text>
        <text id="0.05" font-family="Euclid" font-size="18" font-weight="normal" fill="#000000">
            <tspan x="229.498" y="262">0.05</tspan>
        </text>
        <text id="0.95" font-family="Euclid" font-size="18" font-weight="normal" fill="#000000">
            <tspan x="78.498" y="349">0.95</tspan>
        </text>
        <text id="0.05" font-family="Euclid" font-size="18" font-weight="normal" fill="#000000">
            <tspan x="175.498" y="350">0.05</tspan>
        </text>
        <path d="M258.214,373.054 C258.214,373.510002 258.100001,373.938998 257.872,374.341 C257.643999,374.743002 257.344002,375.081999 256.972,375.358 C256.551998,375.694002 256.084003,375.939999 255.568,376.096 C255.051997,376.252001 254.524003,376.33 253.984,376.33 L251.068,376.33 L251.068,380.794 C251.068,380.914001 251.095,381.024999 251.149,381.127 C251.203,381.229001 251.283999,381.298 251.392,381.334 C251.548001,381.394 251.775999,381.427 252.076,381.433 C252.376002,381.439 252.657999,381.442 252.922,381.442 L252.922,382 C251.157991,381.928 249.394009,381.928 247.63,382 L247.63,381.442 C247.894001,381.442 248.175998,381.439 248.476,381.433 C248.776002,381.427 249.003999,381.394 249.16,381.334 C249.268001,381.298 249.349,381.229001 249.403,381.127 C249.457,381.024999 249.484,380.914001 249.484,380.794 L249.484,370.894 C249.484,370.773999 249.457,370.663001 249.403,370.561 C249.349,370.458999 249.268001,370.39 249.16,370.354 C249.003999,370.294 248.776002,370.261 248.476,370.255 C248.175998,370.249 247.894001,370.246 247.63,370.246 L247.63,369.706 L253.984,369.706 C254.524003,369.706 255.051997,369.783999 255.568,369.94 C256.084003,370.096001 256.551998,370.341998 256.972,370.678 C257.344002,370.978002 257.643999,371.331998 257.872,371.74 C258.100001,372.148002 258.214,372.585998 258.214,373.054 Z M256.36,373.054 C256.36,372.681998 256.33,372.313002 256.27,371.947 C256.21,371.580998 256.042001,371.266001 255.766,371.002 C255.477999,370.713999 255.136002,370.516001 254.74,370.408 C254.343998,370.299999 253.936002,370.246 253.516,370.246 L251.95,370.246 C251.817999,370.246 251.677001,370.249 251.527,370.255 C251.376999,370.261 251.26,370.294 251.176,370.354 C251.104,370.414 251.062,370.494999 251.05,370.597 C251.038,370.699001 251.032,370.798 251.032,370.894 L251.032,375.844 L253.516,375.844 C253.936002,375.844 254.343998,375.790001 254.74,375.682 C255.136002,375.573999 255.477999,375.376001 255.766,375.088 C256.030001,374.823999 256.195,374.512002 256.261,374.152 C256.327,373.791998 256.36,373.426002 256.36,373.054 Z M265.198,386.32 C265.198,386.356 265.186,386.398 265.162,386.446 C265.126,386.482 265.084,386.5 265.036,386.5 C264.952,386.5 264.898,386.488 264.874,386.464 C264.189997,385.935997 263.605002,385.333003 263.119,384.655 C262.632998,383.976997 262.234002,383.251004 261.922,382.477 C261.609998,381.702996 261.379001,380.893004 261.229,380.047 C261.078999,379.200996 261.004,378.352004 261.004,377.5 C261.004,376.647996 261.078999,375.799004 261.229,374.953 C261.379001,374.106996 261.609998,373.297004 261.922,372.523 C262.234002,371.748996 262.632998,371.023003 263.119,370.345 C263.605002,369.666997 264.189997,369.064003 264.874,368.536 C264.898,368.512 264.952,368.5 265.036,368.5 C265.084,368.5 265.126,368.518 265.162,368.554 C265.186,368.602 265.198,368.644 265.198,368.68 C265.198,368.728 265.18,368.77 265.144,368.806 C264.567997,369.346003 264.082002,369.951997 263.686,370.624 C263.289998,371.296003 262.969001,372.006996 262.723,372.757 C262.476999,373.507004 262.303001,374.283996 262.201,375.088 C262.098999,375.892004 262.048,376.695996 262.048,377.5 C262.048,378.316004 262.098999,379.122996 262.201,379.921 C262.303001,380.719004 262.476999,381.492996 262.723,382.243 C262.969001,382.993004 263.289998,383.703997 263.686,384.376 C264.082002,385.048003 264.567997,385.653997 265.144,386.194 C265.18,386.23 265.198,386.272 265.198,386.32 Z M279.13,382 C278.301996,381.964 277.477004,381.949 276.655,381.955 C275.832996,381.961 275.008004,381.976 274.18,382 L274.18,381.442 C274.384001,381.442 274.593999,381.433 274.81,381.415 C275.026001,381.397 275.223999,381.352 275.404,381.28 C275.5,381.232 275.578,381.163 275.638,381.073 C275.698,380.983 275.71,380.89 275.674,380.794 L274.666,377.896 L270.22,377.896 L269.392,380.308 C269.332,380.452001 269.326,380.595999 269.374,380.74 C269.422,380.884001 269.505999,381.004 269.626,381.1 C269.782001,381.232001 269.952999,381.322 270.139,381.37 C270.325001,381.418 270.513999,381.442 270.706,381.442 L270.706,382 C270.057997,381.976 269.410003,381.961 268.762,381.955 C268.113997,381.949 267.466003,381.964 266.818,382 L266.818,381.442 C267.046001,381.442 267.267999,381.424 267.484,381.388 C267.700001,381.352 267.909999,381.274001 268.114,381.154 C268.450002,380.961999 268.683999,380.680002 268.816,380.308 L272.614,369.292 C272.662,369.159999 272.757999,369.094 272.902,369.094 L273.046,369.094 C273.190001,369.094 273.286,369.159999 273.334,369.292 L277.312,380.794 C277.348,380.914001 277.402,381.024999 277.474,381.127 C277.546,381.229001 277.641999,381.298 277.762,381.334 C277.918001,381.394 278.124999,381.427 278.383,381.433 C278.641001,381.439 278.889999,381.442 279.13,381.442 L279.13,382 Z M274.468,377.338 L272.452,371.47 L270.418,377.338 L274.468,377.338 Z M284.944,377.5 C284.944,378.352004 284.869001,379.200996 284.719,380.047 C284.568999,380.893004 284.338002,381.702996 284.026,382.477 C283.713998,383.251004 283.315002,383.976997 282.829,384.655 C282.342998,385.333003 281.758003,385.935997 281.074,386.464 C281.026,386.488 280.99,386.5 280.966,386.5 L280.912,386.5 C280.864,386.5 280.822,386.482 280.786,386.446 C280.762,386.398 280.75,386.356 280.75,386.32 C280.75,386.272 280.768,386.23 280.804,386.194 C281.380003,385.653997 281.865998,385.048003 282.262,384.376 C282.658002,383.703997 282.978999,382.993004 283.225,382.243 C283.471001,381.492996 283.644999,380.719004 283.747,379.921 C283.849001,379.122996 283.9,378.316004 283.9,377.5 C283.9,376.695996 283.849001,375.892004 283.747,375.088 C283.644999,374.283996 283.471001,373.507004 283.225,372.757 C282.978999,372.006996 282.658002,371.296003 282.262,370.624 C281.865998,369.951997 281.380003,369.346003 280.804,368.806 C280.768,368.77 280.75,368.728 280.75,368.68 C280.75,368.62 280.762,368.578 280.786,368.554 C280.822,368.518 280.864,368.5 280.912,368.5 L280.966,368.5 C280.99,368.5 281.026,368.512 281.074,368.536 C281.758003,369.064003 282.342998,369.666997 282.829,370.345 C283.315002,371.023003 283.713998,371.748996 284.026,372.523 C284.338002,373.297004 284.568999,374.106996 284.719,374.953 C284.869001,375.799004 284.944,376.647996 284.944,377.5 Z M305.698,375.754 C305.698,375.85 305.662,375.934 305.59,376.006 C305.518,376.078 305.434,376.114 305.338,376.114 L294.106,376.114 C294.01,376.114 293.926,376.078 293.854,376.006 C293.782,375.934 293.746,375.85 293.746,375.754 C293.746,375.658 293.782,375.574 293.854,375.502 C293.926,375.43 294.01,375.394 294.106,375.394 L305.338,375.394 C305.434,375.394 305.518,375.43 305.59,375.502 C305.662,375.574 305.698,375.658 305.698,375.754 Z M305.698,379.246 C305.698,379.342 305.662,379.426 305.59,379.498 C305.518,379.57 305.434,379.606 305.338,379.606 L294.106,379.606 C294.01,379.606 293.926,379.57 293.854,379.498 C293.782,379.426 293.746,379.342 293.746,379.246 C293.746,379.15 293.782,379.066 293.854,378.994 C293.926,378.922 294.01,378.886 294.106,378.886 L305.338,378.886 C305.434,378.886 305.518,378.922 305.59,378.994 C305.662,379.066 305.698,379.15 305.698,379.246 Z M318.694,386.32 C318.694,386.356 318.682,386.398 318.658,386.446 C318.622,386.482 318.58,386.5 318.532,386.5 C318.448,386.5 318.394,386.488 318.37,386.464 C317.685997,385.935997 317.101002,385.333003 316.615,384.655 C316.128998,383.976997 315.730002,383.251004 315.418,382.477 C315.105998,381.702996 314.875001,380.893004 314.725,380.047 C314.574999,379.200996 314.5,378.352004 314.5,377.5 C314.5,376.647996 314.574999,375.799004 314.725,374.953 C314.875001,374.106996 315.105998,373.297004 315.418,372.523 C315.730002,371.748996 316.128998,371.023003 316.615,370.345 C317.101002,369.666997 317.685997,369.064003 318.37,368.536 C318.394,368.512 318.448,368.5 318.532,368.5 C318.58,368.5 318.622,368.518 318.658,368.554 C318.682,368.602 318.694,368.644 318.694,368.68 C318.694,368.728 318.676,368.77 318.64,368.806 C318.063997,369.346003 317.578002,369.951997 317.182,370.624 C316.785998,371.296003 316.465001,372.006996 316.219,372.757 C315.972999,373.507004 315.799001,374.283996 315.697,375.088 C315.594999,375.892004 315.544,376.695996 315.544,377.5 C315.544,378.316004 315.594999,379.122996 315.697,379.921 C315.799001,380.719004 315.972999,381.492996 316.219,382.243 C316.465001,382.993004 316.785998,383.703997 317.182,384.376 C317.578002,385.048003 318.063997,385.653997 318.64,386.194 C318.676,386.23 318.694,386.272 318.694,386.32 Z M328,376.258 C328,377.050004 327.946001,377.841996 327.838,378.634 C327.729999,379.426004 327.466002,380.163997 327.046,380.848 C326.745999,381.340002 326.344003,381.720999 325.84,381.991 C325.335997,382.261001 324.796003,382.396 324.22,382.396 C323.643997,382.396 323.104003,382.261001 322.6,381.991 C322.095997,381.720999 321.694002,381.340002 321.394,380.848 C320.973998,380.163997 320.710001,379.426004 320.602,378.634 C320.493999,377.841996 320.44,377.050004 320.44,376.258 C320.44,375.441996 320.493999,374.632004 320.602,373.828 C320.710001,373.023996 320.973998,372.274003 321.394,371.578 C321.694002,371.073997 322.095997,370.684001 322.6,370.408 C323.104003,370.131999 323.643997,369.994 324.22,369.994 C324.796003,369.994 325.335997,370.131999 325.84,370.408 C326.344003,370.684001 326.745999,371.073997 327.046,371.578 C327.466002,372.274003 327.729999,373.023996 327.838,373.828 C327.946001,374.632004 328,375.441996 328,376.258 Z M326.506,375.97 C326.506,375.609998 326.503,375.235002 326.497,374.845 C326.491,374.454998 326.476,374.071002 326.452,373.693 C326.428,373.314998 326.389,372.958002 326.335,372.622 C326.281,372.285998 326.206,371.998001 326.11,371.758 C325.941999,371.373998 325.690002,371.053001 325.354,370.795 C325.017998,370.536999 324.640002,370.408 324.22,370.408 C323.799998,370.408 323.422002,370.536999 323.086,370.795 C322.749998,371.053001 322.498001,371.373998 322.33,371.758 C322.234,371.998001 322.159,372.285998 322.105,372.622 C322.051,372.958002 322.012,373.314998 321.988,373.693 C321.964,374.071002 321.949,374.454998 321.943,374.845 C321.937,375.235002 321.934,375.609998 321.934,375.97 C321.934,376.354002 321.937,376.761998 321.943,377.194 C321.949,377.626002 321.964,378.045998 321.988,378.454 C322.012,378.862002 322.051,379.248998 322.105,379.615 C322.159,379.981002 322.234,380.289999 322.33,380.542 C322.486001,380.962002 322.731998,381.309999 323.068,381.586 C323.404002,381.862001 323.787998,382 324.22,382 C324.652002,382 325.035998,381.862001 325.372,381.586 C325.708002,381.309999 325.953999,380.962002 326.11,380.542 C326.206,380.289999 326.281,379.981002 326.335,379.615 C326.389,379.248998 326.428,378.862002 326.452,378.454 C326.476,378.045998 326.491,377.626002 326.497,377.194 C326.503,376.761998 326.506,376.354002 326.506,375.97 Z M332.176,381.046 C332.176,381.310001 332.083001,381.534999 331.897,381.721 C331.710999,381.907001 331.486001,382 331.222,382 C330.957999,382 330.733001,381.907001 330.547,381.721 C330.360999,381.534999 330.268,381.310001 330.268,381.046 C330.268,380.781999 330.360999,380.557001 330.547,380.371 C330.733001,380.184999 330.957999,380.092 331.222,380.092 C331.486001,380.092 331.710999,380.184999 331.897,380.371 C332.083001,380.557001 332.176,380.781999 332.176,381.046 Z M341.806,378.382 C341.806,378.922003 341.707001,379.434998 341.509,379.921 C341.310999,380.407002 341.026002,380.841998 340.654,381.226 C340.281998,381.598002 339.859002,381.885999 339.385,382.09 C338.910998,382.294001 338.410003,382.396 337.882,382.396 C337.425998,382.396 337.000002,382.306001 336.604,382.126 C336.207998,381.945999 335.866001,381.703002 335.578,381.397 C335.289999,381.090998 335.062001,380.734002 334.894,380.326 C334.725999,379.917998 334.642,379.486002 334.642,379.03 C334.642,378.729999 334.734999,378.508001 334.921,378.364 C335.107001,378.219999 335.307999,378.148 335.524,378.148 C335.740001,378.148 335.940999,378.219999 336.127,378.364 C336.313001,378.508001 336.406,378.729999 336.406,379.03 C336.406,379.210001 336.367,379.362999 336.289,379.489 C336.211,379.615001 336.115001,379.714 336.001,379.786 C335.886999,379.858 335.758001,379.9 335.614,379.912 C335.469999,379.924 335.338001,379.906 335.218,379.858 C335.386001,380.446003 335.712998,380.931998 336.199,381.316 C336.685002,381.700002 337.245997,381.892 337.882,381.892 C338.230002,381.892 338.559998,381.805001 338.872,381.631 C339.184002,381.456999 339.441999,381.220002 339.646,380.92 C339.886001,380.559998 340.039,380.161002 340.105,379.723 C340.171,379.284998 340.204,378.838002 340.204,378.382 C340.204,377.925998 340.189,377.482002 340.159,377.05 C340.129,376.617998 340.012001,376.210002 339.808,375.826 C339.651999,375.537999 339.454001,375.301001 339.214,375.115 C338.973999,374.928999 338.710001,374.836 338.422,374.836 C337.869997,374.836 337.393002,374.949999 336.991,375.178 C336.588998,375.406001 336.262001,375.729998 336.01,376.15 C335.974,376.222 335.92,376.258 335.848,376.258 L335.776,376.258 C335.631999,376.258 335.56,376.192001 335.56,376.06 L335.56,370.192 C335.56,370.083999 335.619999,370.018 335.74,369.994 C335.752,369.994 335.764,369.997 335.776,370.003 C335.788,370.009 335.8,370.012 335.812,370.012 C336.616004,370.396002 337.455996,370.588 338.332,370.588 C339.208004,370.588 340.047996,370.396002 340.852,370.012 C340.864,370.012 340.876,370.009 340.888,370.003 C340.9,369.997 340.912,369.994 340.924,369.994 C341.044001,369.994 341.104,370.053999 341.104,370.174 C341.104,370.246 341.092,370.294 341.068,370.318 C340.683998,370.870003 340.192003,371.298998 339.592,371.605 C338.991997,371.911002 338.356003,372.064 337.684,372.064 C337.119997,372.064 336.598002,371.986001 336.118,371.83 L336.118,375.358 C336.406001,375.057998 336.741998,374.827001 337.126,374.665 C337.510002,374.502999 337.941998,374.422 338.422,374.422 C338.890002,374.422 339.330998,374.529999 339.745,374.746 C340.159002,374.962001 340.521998,375.249998 340.834,375.61 C341.158002,375.994002 341.400999,376.425998 341.563,376.906 C341.725001,377.386002 341.806,377.877997 341.806,378.382 Z M347.944,377.5 C347.944,378.352004 347.869001,379.200996 347.719,380.047 C347.568999,380.893004 347.338002,381.702996 347.026,382.477 C346.713998,383.251004 346.315002,383.976997 345.829,384.655 C345.342998,385.333003 344.758003,385.935997 344.074,386.464 C344.026,386.488 343.99,386.5 343.966,386.5 L343.912,386.5 C343.864,386.5 343.822,386.482 343.786,386.446 C343.762,386.398 343.75,386.356 343.75,386.32 C343.75,386.272 343.768,386.23 343.804,386.194 C344.380003,385.653997 344.865998,385.048003 345.262,384.376 C345.658002,383.703997 345.978999,382.993004 346.225,382.243 C346.471001,381.492996 346.644999,380.719004 346.747,379.921 C346.849001,379.122996 346.9,378.316004 346.9,377.5 C346.9,376.695996 346.849001,375.892004 346.747,375.088 C346.644999,374.283996 346.471001,373.507004 346.225,372.757 C345.978999,372.006996 345.658002,371.296003 345.262,370.624 C344.865998,369.951997 344.380003,369.346003 343.804,368.806 C343.768,368.77 343.75,368.728 343.75,368.68 C343.75,368.62 343.762,368.578 343.786,368.554 C343.822,368.518 343.864,368.5 343.912,368.5 L343.966,368.5 C343.99,368.5 344.026,368.512 344.074,368.536 C344.758003,369.064003 345.342998,369.666997 345.829,370.345 C346.315002,371.023003 346.713998,371.748996 347.026,372.523 C347.338002,373.297004 347.568999,374.106996 347.719,374.953 C347.869001,375.799004 347.944,376.647996 347.944,377.5 Z M355.702,386.32 C355.702,386.356 355.69,386.398 355.666,386.446 C355.63,386.482 355.588,386.5 355.54,386.5 C355.456,386.5 355.402,386.488 355.378,386.464 C354.693997,385.935997 354.109002,385.333003 353.623,384.655 C353.136998,383.976997 352.738002,383.251004 352.426,382.477 C352.113998,381.702996 351.883001,380.893004 351.733,380.047 C351.582999,379.200996 351.508,378.352004 351.508,377.5 C351.508,376.647996 351.582999,375.799004 351.733,374.953 C351.883001,374.106996 352.113998,373.297004 352.426,372.523 C352.738002,371.748996 353.136998,371.023003 353.623,370.345 C354.109002,369.666997 354.693997,369.064003 355.378,368.536 C355.402,368.512 355.456,368.5 355.54,368.5 C355.588,368.5 355.63,368.518 355.666,368.554 C355.69,368.602 355.702,368.644 355.702,368.68 C355.702,368.728 355.684,368.77 355.648,368.806 C355.071997,369.346003 354.586002,369.951997 354.19,370.624 C353.793998,371.296003 353.473001,372.006996 353.227,372.757 C352.980999,373.507004 352.807001,374.283996 352.705,375.088 C352.602999,375.892004 352.552,376.695996 352.552,377.5 C352.552,378.316004 352.602999,379.122996 352.705,379.921 C352.807001,380.719004 352.980999,381.492996 353.227,382.243 C353.473001,382.993004 353.793998,383.703997 354.19,384.376 C354.586002,385.048003 355.071997,385.653997 355.648,386.194 C355.684,386.23 355.702,386.272 355.702,386.32 Z M365.008,376.258 C365.008,377.050004 364.954001,377.841996 364.846,378.634 C364.737999,379.426004 364.474002,380.163997 364.054,380.848 C363.753999,381.340002 363.352003,381.720999 362.848,381.991 C362.343997,382.261001 361.804003,382.396 361.228,382.396 C360.651997,382.396 360.112003,382.261001 359.608,381.991 C359.103997,381.720999 358.702001,381.340002 358.402,380.848 C357.981998,380.163997 357.718001,379.426004 357.61,378.634 C357.501999,377.841996 357.448,377.050004 357.448,376.258 C357.448,375.441996 357.501999,374.632004 357.61,373.828 C357.718001,373.023996 357.981998,372.274003 358.402,371.578 C358.702001,371.073997 359.103997,370.684001 359.608,370.408 C360.112003,370.131999 360.651997,369.994 361.228,369.994 C361.804003,369.994 362.343997,370.131999 362.848,370.408 C363.352003,370.684001 363.753999,371.073997 364.054,371.578 C364.474002,372.274003 364.737999,373.023996 364.846,373.828 C364.954001,374.632004 365.008,375.441996 365.008,376.258 Z M363.514,375.97 C363.514,375.609998 363.511,375.235002 363.505,374.845 C363.499,374.454998 363.484,374.071002 363.46,373.693 C363.436,373.314998 363.397,372.958002 363.343,372.622 C363.289,372.285998 363.214,371.998001 363.118,371.758 C362.949999,371.373998 362.698002,371.053001 362.362,370.795 C362.025998,370.536999 361.648002,370.408 361.228,370.408 C360.807998,370.408 360.430002,370.536999 360.094,370.795 C359.757998,371.053001 359.506001,371.373998 359.338,371.758 C359.242,371.998001 359.167,372.285998 359.113,372.622 C359.059,372.958002 359.02,373.314998 358.996,373.693 C358.972,374.071002 358.957,374.454998 358.951,374.845 C358.945,375.235002 358.942,375.609998 358.942,375.97 C358.942,376.354002 358.945,376.761998 358.951,377.194 C358.957,377.626002 358.972,378.045998 358.996,378.454 C359.02,378.862002 359.059,379.248998 359.113,379.615 C359.167,379.981002 359.242,380.289999 359.338,380.542 C359.494001,380.962002 359.739998,381.309999 360.076,381.586 C360.412002,381.862001 360.795998,382 361.228,382 C361.660002,382 362.043998,381.862001 362.38,381.586 C362.716002,381.309999 362.961999,380.962002 363.118,380.542 C363.214,380.289999 363.289,379.981002 363.343,379.615 C363.397,379.248998 363.436,378.862002 363.46,378.454 C363.484,378.045998 363.499,377.626002 363.505,377.194 C363.511,376.761998 363.514,376.354002 363.514,375.97 Z M369.184,381.046 C369.184,381.310001 369.091001,381.534999 368.905,381.721 C368.718999,381.907001 368.494001,382 368.23,382 C367.965999,382 367.741001,381.907001 367.555,381.721 C367.368999,381.534999 367.276,381.310001 367.276,381.046 C367.276,380.781999 367.368999,380.557001 367.555,380.371 C367.741001,380.184999 367.965999,380.092 368.23,380.092 C368.494001,380.092 368.718999,380.184999 368.905,380.371 C369.091001,380.557001 369.184,380.781999 369.184,381.046 Z M378.958,376.186 C378.958,376.966004 378.856001,377.727996 378.652,378.472 C378.447999,379.216004 378.118002,379.911997 377.662,380.56 C377.289998,381.088003 376.831003,381.525998 376.285,381.874 C375.738997,382.222002 375.136003,382.396 374.476,382.396 C374.127998,382.396 373.801002,382.357 373.495,382.279 C373.188998,382.201 372.922001,382.081001 372.694,381.919 C372.465999,381.756999 372.286001,381.553001 372.154,381.307 C372.021999,381.060999 371.956,380.764002 371.956,380.416 C371.956,380.139999 372.039999,379.933001 372.208,379.795 C372.376001,379.656999 372.561999,379.588 372.766,379.588 C372.982001,379.588 373.173999,379.656999 373.342,379.795 C373.510001,379.933001 373.594,380.139999 373.594,380.416 C373.594,380.728002 373.492001,380.949999 373.288,381.082 C373.083999,381.214001 372.868001,381.262 372.64,381.226 C372.808001,381.466001 373.050998,381.636999 373.369,381.739 C373.687002,381.841001 374.055998,381.892 374.476,381.892 C374.956002,381.892 375.387998,381.739002 375.772,381.433 C376.156002,381.126998 376.467999,380.746002 376.708,380.29 C377.020002,379.677997 377.203,379.036003 377.257,378.364 C377.311,377.691997 377.344,376.996004 377.356,376.276 C377.151999,376.804003 376.867002,377.235998 376.501,377.572 C376.134998,377.908002 375.670003,378.076 375.106,378.076 C374.553997,378.076 374.080002,377.980001 373.684,377.788 C373.287998,377.595999 372.910002,377.296002 372.55,376.888 C372.165998,376.455998 371.896001,376.018002 371.74,375.574 C371.583999,375.129998 371.506,374.620003 371.506,374.044 C371.506,373.455997 371.589999,372.940002 371.758,372.496 C371.926001,372.051998 372.213998,371.614002 372.622,371.182 C373.006002,370.773998 373.410998,370.474001 373.837,370.282 C374.263002,370.089999 374.763997,369.994 375.34,369.994 C375.916003,369.994 376.437998,370.146998 376.906,370.453 C377.374002,370.759002 377.751999,371.163997 378.04,371.668 C378.436002,372.352003 378.687999,373.083996 378.796,373.864 C378.904001,374.644004 378.958,375.417996 378.958,376.186 Z M377.32,373.99 C377.296,373.557998 377.263,373.156002 377.221,372.784 C377.179,372.411998 377.11,372.106001 377.014,371.866 C376.869999,371.469998 376.651001,371.134001 376.357,370.858 C376.062999,370.581999 375.724002,370.444 375.34,370.444 C374.931998,370.444 374.587001,370.524999 374.305,370.687 C374.022999,370.849001 373.774001,371.103998 373.558,371.452 C373.329999,371.800002 373.198,372.186998 373.162,372.613 C373.126,373.039002 373.108,373.515997 373.108,374.044 C373.108,374.584003 373.126,375.069998 373.162,375.502 C373.198,375.934002 373.311999,376.317998 373.504,376.654 C373.708001,377.002002 373.935999,377.259999 374.188,377.428 C374.440001,377.596001 374.751998,377.68 375.124,377.68 C375.496002,377.68 375.825999,377.578001 376.114,377.374 C376.402001,377.169999 376.638999,376.903002 376.825,376.573 C377.011001,376.242998 377.146,375.859002 377.23,375.421 C377.314,374.982998 377.338,374.530002 377.302,374.062 C377.302,374.026 377.308,374.002 377.32,373.99 Z M387.814,378.382 C387.814,378.922003 387.715001,379.434998 387.517,379.921 C387.318999,380.407002 387.034002,380.841998 386.662,381.226 C386.289998,381.598002 385.867002,381.885999 385.393,382.09 C384.918998,382.294001 384.418003,382.396 383.89,382.396 C383.433998,382.396 383.008002,382.306001 382.612,382.126 C382.215998,381.945999 381.874001,381.703002 381.586,381.397 C381.297999,381.090998 381.070001,380.734002 380.902,380.326 C380.733999,379.917998 380.65,379.486002 380.65,379.03 C380.65,378.729999 380.742999,378.508001 380.929,378.364 C381.115001,378.219999 381.315999,378.148 381.532,378.148 C381.748001,378.148 381.948999,378.219999 382.135,378.364 C382.321001,378.508001 382.414,378.729999 382.414,379.03 C382.414,379.210001 382.375,379.362999 382.297,379.489 C382.219,379.615001 382.123001,379.714 382.009,379.786 C381.894999,379.858 381.766001,379.9 381.622,379.912 C381.477999,379.924 381.346001,379.906 381.226,379.858 C381.394001,380.446003 381.720998,380.931998 382.207,381.316 C382.693002,381.700002 383.253997,381.892 383.89,381.892 C384.238002,381.892 384.567998,381.805001 384.88,381.631 C385.192002,381.456999 385.449999,381.220002 385.654,380.92 C385.894001,380.559998 386.047,380.161002 386.113,379.723 C386.179,379.284998 386.212,378.838002 386.212,378.382 C386.212,377.925998 386.197,377.482002 386.167,377.05 C386.137,376.617998 386.020001,376.210002 385.816,375.826 C385.659999,375.537999 385.462001,375.301001 385.222,375.115 C384.981999,374.928999 384.718001,374.836 384.43,374.836 C383.877997,374.836 383.401002,374.949999 382.999,375.178 C382.596998,375.406001 382.270001,375.729998 382.018,376.15 C381.982,376.222 381.928,376.258 381.856,376.258 L381.784,376.258 C381.639999,376.258 381.568,376.192001 381.568,376.06 L381.568,370.192 C381.568,370.083999 381.627999,370.018 381.748,369.994 C381.76,369.994 381.772,369.997 381.784,370.003 C381.796,370.009 381.808,370.012 381.82,370.012 C382.624004,370.396002 383.463996,370.588 384.34,370.588 C385.216004,370.588 386.055996,370.396002 386.86,370.012 C386.872,370.012 386.884,370.009 386.896,370.003 C386.908,369.997 386.92,369.994 386.932,369.994 C387.052001,369.994 387.112,370.053999 387.112,370.174 C387.112,370.246 387.1,370.294 387.076,370.318 C386.691998,370.870003 386.200003,371.298998 385.6,371.605 C384.999997,371.911002 384.364003,372.064 383.692,372.064 C383.127997,372.064 382.606002,371.986001 382.126,371.83 L382.126,375.358 C382.414001,375.057998 382.749998,374.827001 383.134,374.665 C383.518002,374.502999 383.949998,374.422 384.43,374.422 C384.898002,374.422 385.338998,374.529999 385.753,374.746 C386.167002,374.962001 386.529998,375.249998 386.842,375.61 C387.166002,375.994002 387.408999,376.425998 387.571,376.906 C387.733001,377.386002 387.814,377.877997 387.814,378.382 Z M393.952,377.5 C393.952,378.352004 393.877001,379.200996 393.727,380.047 C393.576999,380.893004 393.346002,381.702996 393.034,382.477 C392.721998,383.251004 392.323002,383.976997 391.837,384.655 C391.350998,385.333003 390.766003,385.935997 390.082,386.464 C390.034,386.488 389.998,386.5 389.974,386.5 L389.92,386.5 C389.872,386.5 389.83,386.482 389.794,386.446 C389.77,386.398 389.758,386.356 389.758,386.32 C389.758,386.272 389.776,386.23 389.812,386.194 C390.388003,385.653997 390.873998,385.048003 391.27,384.376 C391.666002,383.703997 391.986999,382.993004 392.233,382.243 C392.479001,381.492996 392.652999,380.719004 392.755,379.921 C392.857001,379.122996 392.908,378.316004 392.908,377.5 C392.908,376.695996 392.857001,375.892004 392.755,375.088 C392.652999,374.283996 392.479001,373.507004 392.233,372.757 C391.986999,372.006996 391.666002,371.296003 391.27,370.624 C390.873998,369.951997 390.388003,369.346003 389.812,368.806 C389.776,368.77 389.758,368.728 389.758,368.68 C389.758,368.62 389.77,368.578 389.794,368.554 C389.83,368.518 389.872,368.5 389.92,368.5 L389.974,368.5 C389.998,368.5 390.034,368.512 390.082,368.536 C390.766003,369.064003 391.350998,369.666997 391.837,370.345 C392.323002,371.023003 392.721998,371.748996 393.034,372.523 C393.346002,373.297004 393.576999,374.106996 393.727,374.953 C393.877001,375.799004 393.952,376.647996 393.952,377.5 Z M419.206,375.754 C419.206,375.85 419.17,375.934 419.098,376.006 C419.026,376.078 418.942,376.114 418.846,376.114 L407.614,376.114 C407.518,376.114 407.434,376.078 407.362,376.006 C407.29,375.934 407.254,375.85 407.254,375.754 C407.254,375.658 407.29,375.574 407.362,375.502 C407.434,375.43 407.518,375.394 407.614,375.394 L418.846,375.394 C418.942,375.394 419.026,375.43 419.098,375.502 C419.17,375.574 419.206,375.658 419.206,375.754 Z M419.206,379.246 C419.206,379.342 419.17,379.426 419.098,379.498 C419.026,379.57 418.942,379.606 418.846,379.606 L407.614,379.606 C407.518,379.606 407.434,379.57 407.362,379.498 C407.29,379.426 407.254,379.342 407.254,379.246 C407.254,379.15 407.29,379.066 407.362,378.994 C407.434,378.922 407.518,378.886 407.614,378.886 L418.846,378.886 C418.942,378.886 419.026,378.922 419.098,378.994 C419.17,379.066 419.206,379.15 419.206,379.246 Z M434.506,376.258 C434.506,377.050004 434.452001,377.841996 434.344,378.634 C434.235999,379.426004 433.972002,380.163997 433.552,380.848 C433.251999,381.340002 432.850003,381.720999 432.346,381.991 C431.841997,382.261001 431.302003,382.396 430.726,382.396 C430.149997,382.396 429.610003,382.261001 429.106,381.991 C428.601997,381.720999 428.200001,381.340002 427.9,380.848 C427.479998,380.163997 427.216001,379.426004 427.108,378.634 C426.999999,377.841996 426.946,377.050004 426.946,376.258 C426.946,375.441996 426.999999,374.632004 427.108,373.828 C427.216001,373.023996 427.479998,372.274003 427.9,371.578 C428.200001,371.073997 428.601997,370.684001 429.106,370.408 C429.610003,370.131999 430.149997,369.994 430.726,369.994 C431.302003,369.994 431.841997,370.131999 432.346,370.408 C432.850003,370.684001 433.251999,371.073997 433.552,371.578 C433.972002,372.274003 434.235999,373.023996 434.344,373.828 C434.452001,374.632004 434.506,375.441996 434.506,376.258 Z M433.012,375.97 C433.012,375.609998 433.009,375.235002 433.003,374.845 C432.997,374.454998 432.982,374.071002 432.958,373.693 C432.934,373.314998 432.895,372.958002 432.841,372.622 C432.787,372.285998 432.712,371.998001 432.616,371.758 C432.447999,371.373998 432.196002,371.053001 431.86,370.795 C431.523998,370.536999 431.146002,370.408 430.726,370.408 C430.305998,370.408 429.928002,370.536999 429.592,370.795 C429.255998,371.053001 429.004001,371.373998 428.836,371.758 C428.74,371.998001 428.665,372.285998 428.611,372.622 C428.557,372.958002 428.518,373.314998 428.494,373.693 C428.47,374.071002 428.455,374.454998 428.449,374.845 C428.443,375.235002 428.44,375.609998 428.44,375.97 C428.44,376.354002 428.443,376.761998 428.449,377.194 C428.455,377.626002 428.47,378.045998 428.494,378.454 C428.518,378.862002 428.557,379.248998 428.611,379.615 C428.665,379.981002 428.74,380.289999 428.836,380.542 C428.992001,380.962002 429.237998,381.309999 429.574,381.586 C429.910002,381.862001 430.293998,382 430.726,382 C431.158002,382 431.541998,381.862001 431.878,381.586 C432.214002,381.309999 432.459999,380.962002 432.616,380.542 C432.712,380.289999 432.787,379.981002 432.841,379.615 C432.895,379.248998 432.934,378.862002 432.958,378.454 C432.982,378.045998 432.997,377.626002 433.003,377.194 C433.009,376.761998 433.012,376.354002 433.012,375.97 Z M438.682,381.046 C438.682,381.310001 438.589001,381.534999 438.403,381.721 C438.216999,381.907001 437.992001,382 437.728,382 C437.463999,382 437.239001,381.907001 437.053,381.721 C436.866999,381.534999 436.774,381.310001 436.774,381.046 C436.774,380.781999 436.866999,380.557001 437.053,380.371 C437.239001,380.184999 437.463999,380.092 437.728,380.092 C437.992001,380.092 438.216999,380.184999 438.403,380.371 C438.589001,380.557001 438.682,380.781999 438.682,381.046 Z M448.708,379.012 L446.908,379.012 L446.908,380.794 C446.908,380.914001 446.932,381.024999 446.98,381.127 C447.028,381.229001 447.1,381.298 447.196,381.334 C447.340001,381.394 447.558999,381.427 447.853,381.433 C448.147001,381.439 448.413999,381.442 448.654,381.442 L448.654,382 C447.033992,381.928 445.402008,381.928 443.758,382 L443.758,381.442 C444.010001,381.442 444.279999,381.439 444.568,381.433 C444.856001,381.427 445.077999,381.394 445.234,381.334 C445.33,381.298 445.402,381.229001 445.45,381.127 C445.498,381.024999 445.522,380.914001 445.522,380.794 L445.522,379.012 L440.752,379.012 L440.752,378.454 L446.332,369.904 C446.38,369.832 446.446,369.796 446.53,369.796 L446.71,369.796 C446.842001,369.796 446.908,369.861999 446.908,369.994 L446.908,378.454 L448.708,378.454 L448.708,379.012 Z M445.612,378.454 L445.612,371.776 L441.256,378.454 L445.612,378.454 Z M457.96,370.75 C457.96,370.774 457.948,370.81 457.924,370.858 L455.422,374.386 C455.085998,374.854002 454.828001,375.372997 454.648,375.943 C454.467999,376.513003 454.336,377.106997 454.252,377.725 C454.168,378.343003 454.117,378.975997 454.099,379.624 C454.081,380.272003 454.072,380.919997 454.072,381.568 C454.072,381.844001 453.985001,382.053999 453.811,382.198 C453.636999,382.342001 453.448001,382.414 453.244,382.414 C453.039999,382.414 452.851001,382.342001 452.677,382.198 C452.502999,382.053999 452.416,381.844001 452.416,381.568 C452.416,380.223993 452.643998,378.925006 453.1,377.671 C453.556002,376.416994 454.173996,375.244005 454.954,374.152 L456.628,371.794 L453.46,371.794 C453.087998,371.794 452.737002,371.797 452.407,371.803 C452.076998,371.809 451.792001,371.818 451.552,371.83 C451.311999,371.842 451.18,371.86 451.156,371.884 C451.096,371.944 451.042,372.036999 450.994,372.163 C450.946,372.289001 450.904,372.429999 450.868,372.586 C450.832,372.742001 450.802,372.903999 450.778,373.072 C450.754,373.240001 450.73,373.395999 450.706,373.54 L450.256,373.54 L450.832,369.814 L451.282,369.814 C451.258,369.946001 451.305999,370.054 451.426,370.138 C451.546001,370.222 451.683999,370.276 451.84,370.3 C451.984001,370.324 452.163999,370.345 452.38,370.363 C452.596001,370.381 452.829999,370.393 453.082,370.399 C453.334001,370.405 453.585999,370.408 453.838,370.408 L457.96,370.408 L457.96,370.75 Z M466.312,378.382 C466.312,378.922003 466.213001,379.434998 466.015,379.921 C465.816999,380.407002 465.532002,380.841998 465.16,381.226 C464.787998,381.598002 464.365002,381.885999 463.891,382.09 C463.416998,382.294001 462.916003,382.396 462.388,382.396 C461.931998,382.396 461.506002,382.306001 461.11,382.126 C460.713998,381.945999 460.372001,381.703002 460.084,381.397 C459.795999,381.090998 459.568001,380.734002 459.4,380.326 C459.231999,379.917998 459.148,379.486002 459.148,379.03 C459.148,378.729999 459.240999,378.508001 459.427,378.364 C459.613001,378.219999 459.813999,378.148 460.03,378.148 C460.246001,378.148 460.446999,378.219999 460.633,378.364 C460.819001,378.508001 460.912,378.729999 460.912,379.03 C460.912,379.210001 460.873,379.362999 460.795,379.489 C460.717,379.615001 460.621001,379.714 460.507,379.786 C460.392999,379.858 460.264001,379.9 460.12,379.912 C459.975999,379.924 459.844001,379.906 459.724,379.858 C459.892001,380.446003 460.218998,380.931998 460.705,381.316 C461.191002,381.700002 461.751997,381.892 462.388,381.892 C462.736002,381.892 463.065998,381.805001 463.378,381.631 C463.690002,381.456999 463.947999,381.220002 464.152,380.92 C464.392001,380.559998 464.545,380.161002 464.611,379.723 C464.677,379.284998 464.71,378.838002 464.71,378.382 C464.71,377.925998 464.695,377.482002 464.665,377.05 C464.635,376.617998 464.518001,376.210002 464.314,375.826 C464.157999,375.537999 463.960001,375.301001 463.72,375.115 C463.479999,374.928999 463.216001,374.836 462.928,374.836 C462.375997,374.836 461.899002,374.949999 461.497,375.178 C461.094998,375.406001 460.768001,375.729998 460.516,376.15 C460.48,376.222 460.426,376.258 460.354,376.258 L460.282,376.258 C460.137999,376.258 460.066,376.192001 460.066,376.06 L460.066,370.192 C460.066,370.083999 460.125999,370.018 460.246,369.994 C460.258,369.994 460.27,369.997 460.282,370.003 C460.294,370.009 460.306,370.012 460.318,370.012 C461.122004,370.396002 461.961996,370.588 462.838,370.588 C463.714004,370.588 464.553996,370.396002 465.358,370.012 C465.37,370.012 465.382,370.009 465.394,370.003 C465.406,369.997 465.418,369.994 465.43,369.994 C465.550001,369.994 465.61,370.053999 465.61,370.174 C465.61,370.246 465.598,370.294 465.574,370.318 C465.189998,370.870003 464.698003,371.298998 464.098,371.605 C463.497997,371.911002 462.862003,372.064 462.19,372.064 C461.625997,372.064 461.104002,371.986001 460.624,371.83 L460.624,375.358 C460.912001,375.057998 461.247998,374.827001 461.632,374.665 C462.016002,374.502999 462.447998,374.422 462.928,374.422 C463.396002,374.422 463.836998,374.529999 464.251,374.746 C464.665002,374.962001 465.027998,375.249998 465.34,375.61 C465.664002,375.994002 465.906999,376.425998 466.069,376.906 C466.231001,377.386002 466.312,377.877997 466.312,378.382 Z M258.214,396.054 C258.214,396.510002 258.100001,396.938998 257.872,397.341 C257.643999,397.743002 257.344002,398.081999 256.972,398.358 C256.551998,398.694002 256.084003,398.939999 255.568,399.096 C255.051997,399.252001 254.524003,399.33 253.984,399.33 L251.068,399.33 L251.068,403.794 C251.068,403.914001 251.095,404.024999 251.149,404.127 C251.203,404.229001 251.283999,404.298 251.392,404.334 C251.548001,404.394 251.775999,404.427 252.076,404.433 C252.376002,404.439 252.657999,404.442 252.922,404.442 L252.922,405 C251.157991,404.928 249.394009,404.928 247.63,405 L247.63,404.442 C247.894001,404.442 248.175998,404.439 248.476,404.433 C248.776002,404.427 249.003999,404.394 249.16,404.334 C249.268001,404.298 249.349,404.229001 249.403,404.127 C249.457,404.024999 249.484,403.914001 249.484,403.794 L249.484,393.894 C249.484,393.773999 249.457,393.663001 249.403,393.561 C249.349,393.458999 249.268001,393.39 249.16,393.354 C249.003999,393.294 248.776002,393.261 248.476,393.255 C248.175998,393.249 247.894001,393.246 247.63,393.246 L247.63,392.706 L253.984,392.706 C254.524003,392.706 255.051997,392.783999 255.568,392.94 C256.084003,393.096001 256.551998,393.341998 256.972,393.678 C257.344002,393.978002 257.643999,394.331998 257.872,394.74 C258.100001,395.148002 258.214,395.585998 258.214,396.054 Z M256.36,396.054 C256.36,395.681998 256.33,395.313002 256.27,394.947 C256.21,394.580998 256.042001,394.266001 255.766,394.002 C255.477999,393.713999 255.136002,393.516001 254.74,393.408 C254.343998,393.299999 253.936002,393.246 253.516,393.246 L251.95,393.246 C251.817999,393.246 251.677001,393.249 251.527,393.255 C251.376999,393.261 251.26,393.294 251.176,393.354 C251.104,393.414 251.062,393.494999 251.05,393.597 C251.038,393.699001 251.032,393.798 251.032,393.894 L251.032,398.844 L253.516,398.844 C253.936002,398.844 254.343998,398.790001 254.74,398.682 C255.136002,398.573999 255.477999,398.376001 255.766,398.088 C256.030001,397.823999 256.195,397.512002 256.261,397.152 C256.327,396.791998 256.36,396.426002 256.36,396.054 Z M265.198,409.32 C265.198,409.356 265.186,409.398 265.162,409.446 C265.126,409.482 265.084,409.5 265.036,409.5 C264.952,409.5 264.898,409.488 264.874,409.464 C264.189997,408.935997 263.605002,408.333003 263.119,407.655 C262.632998,406.976997 262.234002,406.251004 261.922,405.477 C261.609998,404.702996 261.379001,403.893004 261.229,403.047 C261.078999,402.200996 261.004,401.352004 261.004,400.5 C261.004,399.647996 261.078999,398.799004 261.229,397.953 C261.379001,397.106996 261.609998,396.297004 261.922,395.523 C262.234002,394.748996 262.632998,394.023003 263.119,393.345 C263.605002,392.666997 264.189997,392.064003 264.874,391.536 C264.898,391.512 264.952,391.5 265.036,391.5 C265.084,391.5 265.126,391.518 265.162,391.554 C265.186,391.602 265.198,391.644 265.198,391.68 C265.198,391.728 265.18,391.77 265.144,391.806 C264.567997,392.346003 264.082002,392.951997 263.686,393.624 C263.289998,394.296003 262.969001,395.006996 262.723,395.757 C262.476999,396.507004 262.303001,397.283996 262.201,398.088 C262.098999,398.892004 262.048,399.695996 262.048,400.5 C262.048,401.316004 262.098999,402.122996 262.201,402.921 C262.303001,403.719004 262.476999,404.492996 262.723,405.243 C262.969001,405.993004 263.289998,406.703997 263.686,407.376 C264.082002,408.048003 264.567997,408.653997 265.144,409.194 C265.18,409.23 265.198,409.272 265.198,409.32 Z M277.96,400.374 L277.204,405 L266.836,405 L266.836,404.442 C267.100001,404.442 267.384998,404.439 267.691,404.433 C267.997002,404.427 268.227999,404.394 268.384,404.334 C268.492001,404.298 268.57,404.229001 268.618,404.127 C268.666,404.024999 268.69,403.914001 268.69,403.794 L268.69,393.948 C268.69,393.827999 268.666,393.717001 268.618,393.615 C268.57,393.512999 268.492001,393.444 268.384,393.408 C268.227999,393.348 267.997002,393.315 267.691,393.309 C267.384998,393.303 267.100001,393.3 266.836,393.3 L266.836,392.742 L276.952,392.742 L277.456,396.792 L277.006,396.792 C276.97,396.539999 276.934,396.279001 276.898,396.009 C276.862,395.738999 276.808,395.478001 276.736,395.226 C276.664,394.973999 276.568001,394.740001 276.448,394.524 C276.327999,394.307999 276.178001,394.116001 275.998,393.948 C275.817999,393.791999 275.611001,393.669 275.377,393.579 C275.142999,393.489 274.897001,393.423 274.639,393.381 C274.380999,393.339 274.114001,393.315 273.838,393.309 C273.561999,393.303 273.292001,393.3 273.028,393.3 L271.21,393.3 C271.077999,393.3 270.937001,393.303 270.787,393.309 C270.636999,393.315 270.526,393.348 270.454,393.408 C270.37,393.468 270.322,393.548999 270.31,393.651 C270.298,393.753001 270.292,393.852 270.292,393.948 L270.292,398.358 L271.66,398.358 C271.972002,398.358 272.295998,398.343 272.632,398.313 C272.968002,398.283 273.237999,398.172001 273.442,397.98 C273.646001,397.775999 273.763,397.518002 273.793,397.206 C273.823,396.893998 273.838,396.582002 273.838,396.27 L274.288,396.27 L274.288,401.004 L273.838,401.004 C273.838,400.691998 273.823,400.380002 273.793,400.068 C273.763,399.755998 273.646001,399.498001 273.442,399.294 C273.237999,399.101999 272.968002,398.991 272.632,398.961 C272.295998,398.931 271.972002,398.916 271.66,398.916 L270.292,398.916 L270.292,403.794 C270.292,403.902001 270.298,404.004 270.31,404.1 C270.322,404.196 270.37,404.274 270.454,404.334 C270.526,404.394 270.636999,404.427 270.787,404.433 C270.937001,404.439 271.077999,404.442 271.21,404.442 L273.172,404.442 C273.448001,404.442 273.726999,404.439 274.009,404.433 C274.291001,404.427 274.566999,404.4 274.837,404.352 C275.107001,404.304 275.364999,404.229001 275.611,404.127 C275.857001,404.024999 276.081999,403.884001 276.286,403.704 C276.478001,403.535999 276.642999,403.323001 276.781,403.065 C276.919001,402.806999 277.033,402.531001 277.123,402.237 C277.213,401.942999 277.288,401.634002 277.348,401.31 C277.408,400.985998 277.462,400.674002 277.51,400.374 L277.96,400.374 Z M283.684,400.5 C283.684,401.352004 283.609001,402.200996 283.459,403.047 C283.308999,403.893004 283.078002,404.702996 282.766,405.477 C282.453998,406.251004 282.055002,406.976997 281.569,407.655 C281.082998,408.333003 280.498003,408.935997 279.814,409.464 C279.766,409.488 279.73,409.5 279.706,409.5 L279.652,409.5 C279.604,409.5 279.562,409.482 279.526,409.446 C279.502,409.398 279.49,409.356 279.49,409.32 C279.49,409.272 279.508,409.23 279.544,409.194 C280.120003,408.653997 280.605998,408.048003 281.002,407.376 C281.398002,406.703997 281.718999,405.993004 281.965,405.243 C282.211001,404.492996 282.384999,403.719004 282.487,402.921 C282.589001,402.122996 282.64,401.316004 282.64,400.5 C282.64,399.695996 282.589001,398.892004 282.487,398.088 C282.384999,397.283996 282.211001,396.507004 281.965,395.757 C281.718999,395.006996 281.398002,394.296003 281.002,393.624 C280.605998,392.951997 280.120003,392.346003 279.544,391.806 C279.508,391.77 279.49,391.728 279.49,391.68 C279.49,391.62 279.502,391.578 279.526,391.554 C279.562,391.518 279.604,391.5 279.652,391.5 L279.706,391.5 C279.73,391.5 279.766,391.512 279.814,391.536 C280.498003,392.064003 281.082998,392.666997 281.569,393.345 C282.055002,394.023003 282.453998,394.748996 282.766,395.523 C283.078002,396.297004 283.308999,397.106996 283.459,397.953 C283.609001,398.799004 283.684,399.647996 283.684,400.5 Z M304.438,398.754 C304.438,398.85 304.402,398.934 304.33,399.006 C304.258,399.078 304.174,399.114 304.078,399.114 L292.846,399.114 C292.75,399.114 292.666,399.078 292.594,399.006 C292.522,398.934 292.486,398.85 292.486,398.754 C292.486,398.658 292.522,398.574 292.594,398.502 C292.666,398.43 292.75,398.394 292.846,398.394 L304.078,398.394 C304.174,398.394 304.258,398.43 304.33,398.502 C304.402,398.574 304.438,398.658 304.438,398.754 Z M304.438,402.246 C304.438,402.342 304.402,402.426 304.33,402.498 C304.258,402.57 304.174,402.606 304.078,402.606 L292.846,402.606 C292.75,402.606 292.666,402.57 292.594,402.498 C292.522,402.426 292.486,402.342 292.486,402.246 C292.486,402.15 292.522,402.066 292.594,401.994 C292.666,401.922 292.75,401.886 292.846,401.886 L304.078,401.886 C304.174,401.886 304.258,401.922 304.33,401.994 C304.402,402.066 304.438,402.15 304.438,402.246 Z M317.434,409.32 C317.434,409.356 317.422,409.398 317.398,409.446 C317.362,409.482 317.32,409.5 317.272,409.5 C317.188,409.5 317.134,409.488 317.11,409.464 C316.425997,408.935997 315.841002,408.333003 315.355,407.655 C314.868998,406.976997 314.470002,406.251004 314.158,405.477 C313.845998,404.702996 313.615001,403.893004 313.465,403.047 C313.314999,402.200996 313.24,401.352004 313.24,400.5 C313.24,399.647996 313.314999,398.799004 313.465,397.953 C313.615001,397.106996 313.845998,396.297004 314.158,395.523 C314.470002,394.748996 314.868998,394.023003 315.355,393.345 C315.841002,392.666997 316.425997,392.064003 317.11,391.536 C317.134,391.512 317.188,391.5 317.272,391.5 C317.32,391.5 317.362,391.518 317.398,391.554 C317.422,391.602 317.434,391.644 317.434,391.68 C317.434,391.728 317.416,391.77 317.38,391.806 C316.803997,392.346003 316.318002,392.951997 315.922,393.624 C315.525998,394.296003 315.205001,395.006996 314.959,395.757 C314.712999,396.507004 314.539001,397.283996 314.437,398.088 C314.334999,398.892004 314.284,399.695996 314.284,400.5 C314.284,401.316004 314.334999,402.122996 314.437,402.921 C314.539001,403.719004 314.712999,404.492996 314.959,405.243 C315.205001,405.993004 315.525998,406.703997 315.922,407.376 C316.318002,408.048003 316.803997,408.653997 317.38,409.194 C317.416,409.23 317.434,409.272 317.434,409.32 Z M326.74,399.258 C326.74,400.050004 326.686001,400.841996 326.578,401.634 C326.469999,402.426004 326.206002,403.163997 325.786,403.848 C325.485999,404.340002 325.084003,404.720999 324.58,404.991 C324.075997,405.261001 323.536003,405.396 322.96,405.396 C322.383997,405.396 321.844003,405.261001 321.34,404.991 C320.835997,404.720999 320.434002,404.340002 320.134,403.848 C319.713998,403.163997 319.450001,402.426004 319.342,401.634 C319.233999,400.841996 319.18,400.050004 319.18,399.258 C319.18,398.441996 319.233999,397.632004 319.342,396.828 C319.450001,396.023996 319.713998,395.274003 320.134,394.578 C320.434002,394.073997 320.835997,393.684001 321.34,393.408 C321.844003,393.131999 322.383997,392.994 322.96,392.994 C323.536003,392.994 324.075997,393.131999 324.58,393.408 C325.084003,393.684001 325.485999,394.073997 325.786,394.578 C326.206002,395.274003 326.469999,396.023996 326.578,396.828 C326.686001,397.632004 326.74,398.441996 326.74,399.258 Z M325.246,398.97 C325.246,398.609998 325.243,398.235002 325.237,397.845 C325.231,397.454998 325.216,397.071002 325.192,396.693 C325.168,396.314998 325.129,395.958002 325.075,395.622 C325.021,395.285998 324.946,394.998001 324.85,394.758 C324.681999,394.373998 324.430002,394.053001 324.094,393.795 C323.757998,393.536999 323.380002,393.408 322.96,393.408 C322.539998,393.408 322.162002,393.536999 321.826,393.795 C321.489998,394.053001 321.238001,394.373998 321.07,394.758 C320.974,394.998001 320.899,395.285998 320.845,395.622 C320.791,395.958002 320.752,396.314998 320.728,396.693 C320.704,397.071002 320.689,397.454998 320.683,397.845 C320.677,398.235002 320.674,398.609998 320.674,398.97 C320.674,399.354002 320.677,399.761998 320.683,400.194 C320.689,400.626002 320.704,401.045998 320.728,401.454 C320.752,401.862002 320.791,402.248998 320.845,402.615 C320.899,402.981002 320.974,403.289999 321.07,403.542 C321.226001,403.962002 321.471998,404.309999 321.808,404.586 C322.144002,404.862001 322.527998,405 322.96,405 C323.392002,405 323.775998,404.862001 324.112,404.586 C324.448002,404.309999 324.693999,403.962002 324.85,403.542 C324.946,403.289999 325.021,402.981002 325.075,402.615 C325.129,402.248998 325.168,401.862002 325.192,401.454 C325.216,401.045998 325.231,400.626002 325.237,400.194 C325.243,399.761998 325.246,399.354002 325.246,398.97 Z M330.916,404.046 C330.916,404.310001 330.823001,404.534999 330.637,404.721 C330.450999,404.907001 330.226001,405 329.962,405 C329.697999,405 329.473001,404.907001 329.287,404.721 C329.100999,404.534999 329.008,404.310001 329.008,404.046 C329.008,403.781999 329.100999,403.557001 329.287,403.371 C329.473001,403.184999 329.697999,403.092 329.962,403.092 C330.226001,403.092 330.450999,403.184999 330.637,403.371 C330.823001,403.557001 330.916,403.781999 330.916,404.046 Z M340.546,401.382 C340.546,401.922003 340.447001,402.434998 340.249,402.921 C340.050999,403.407002 339.766002,403.841998 339.394,404.226 C339.021998,404.598002 338.599002,404.885999 338.125,405.09 C337.650998,405.294001 337.150003,405.396 336.622,405.396 C336.165998,405.396 335.740002,405.306001 335.344,405.126 C334.947998,404.945999 334.606001,404.703002 334.318,404.397 C334.029999,404.090998 333.802001,403.734002 333.634,403.326 C333.465999,402.917998 333.382,402.486002 333.382,402.03 C333.382,401.729999 333.474999,401.508001 333.661,401.364 C333.847001,401.219999 334.047999,401.148 334.264,401.148 C334.480001,401.148 334.680999,401.219999 334.867,401.364 C335.053001,401.508001 335.146,401.729999 335.146,402.03 C335.146,402.210001 335.107,402.362999 335.029,402.489 C334.951,402.615001 334.855001,402.714 334.741,402.786 C334.626999,402.858 334.498001,402.9 334.354,402.912 C334.209999,402.924 334.078001,402.906 333.958,402.858 C334.126001,403.446003 334.452998,403.931998 334.939,404.316 C335.425002,404.700002 335.985997,404.892 336.622,404.892 C336.970002,404.892 337.299998,404.805001 337.612,404.631 C337.924002,404.456999 338.181999,404.220002 338.386,403.92 C338.626001,403.559998 338.779,403.161002 338.845,402.723 C338.911,402.284998 338.944,401.838002 338.944,401.382 C338.944,400.925998 338.929,400.482002 338.899,400.05 C338.869,399.617998 338.752001,399.210002 338.548,398.826 C338.391999,398.537999 338.194001,398.301001 337.954,398.115 C337.713999,397.928999 337.450001,397.836 337.162,397.836 C336.609997,397.836 336.133002,397.949999 335.731,398.178 C335.328998,398.406001 335.002001,398.729998 334.75,399.15 C334.714,399.222 334.66,399.258 334.588,399.258 L334.516,399.258 C334.371999,399.258 334.3,399.192001 334.3,399.06 L334.3,393.192 C334.3,393.083999 334.359999,393.018 334.48,392.994 C334.492,392.994 334.504,392.997 334.516,393.003 C334.528,393.009 334.54,393.012 334.552,393.012 C335.356004,393.396002 336.195996,393.588 337.072,393.588 C337.948004,393.588 338.787996,393.396002 339.592,393.012 C339.604,393.012 339.616,393.009 339.628,393.003 C339.64,392.997 339.652,392.994 339.664,392.994 C339.784001,392.994 339.844,393.053999 339.844,393.174 C339.844,393.246 339.832,393.294 339.808,393.318 C339.423998,393.870003 338.932003,394.298998 338.332,394.605 C337.731997,394.911002 337.096003,395.064 336.424,395.064 C335.859997,395.064 335.338002,394.986001 334.858,394.83 L334.858,398.358 C335.146001,398.057998 335.481998,397.827001 335.866,397.665 C336.250002,397.502999 336.681998,397.422 337.162,397.422 C337.630002,397.422 338.070998,397.529999 338.485,397.746 C338.899002,397.962001 339.261998,398.249998 339.574,398.61 C339.898002,398.994002 340.140999,399.425998 340.303,399.906 C340.465001,400.386002 340.546,400.877997 340.546,401.382 Z M346.684,400.5 C346.684,401.352004 346.609001,402.200996 346.459,403.047 C346.308999,403.893004 346.078002,404.702996 345.766,405.477 C345.453998,406.251004 345.055002,406.976997 344.569,407.655 C344.082998,408.333003 343.498003,408.935997 342.814,409.464 C342.766,409.488 342.73,409.5 342.706,409.5 L342.652,409.5 C342.604,409.5 342.562,409.482 342.526,409.446 C342.502,409.398 342.49,409.356 342.49,409.32 C342.49,409.272 342.508,409.23 342.544,409.194 C343.120003,408.653997 343.605998,408.048003 344.002,407.376 C344.398002,406.703997 344.718999,405.993004 344.965,405.243 C345.211001,404.492996 345.384999,403.719004 345.487,402.921 C345.589001,402.122996 345.64,401.316004 345.64,400.5 C345.64,399.695996 345.589001,398.892004 345.487,398.088 C345.384999,397.283996 345.211001,396.507004 344.965,395.757 C344.718999,395.006996 344.398002,394.296003 344.002,393.624 C343.605998,392.951997 343.120003,392.346003 342.544,391.806 C342.508,391.77 342.49,391.728 342.49,391.68 C342.49,391.62 342.502,391.578 342.526,391.554 C342.562,391.518 342.604,391.5 342.652,391.5 L342.706,391.5 C342.73,391.5 342.766,391.512 342.814,391.536 C343.498003,392.064003 344.082998,392.666997 344.569,393.345 C345.055002,394.023003 345.453998,394.748996 345.766,395.523 C346.078002,396.297004 346.308999,397.106996 346.459,397.953 C346.609001,398.799004 346.684,399.647996 346.684,400.5 Z M354.442,409.32 C354.442,409.356 354.43,409.398 354.406,409.446 C354.37,409.482 354.328,409.5 354.28,409.5 C354.196,409.5 354.142,409.488 354.118,409.464 C353.433997,408.935997 352.849002,408.333003 352.363,407.655 C351.876998,406.976997 351.478002,406.251004 351.166,405.477 C350.853998,404.702996 350.623001,403.893004 350.473,403.047 C350.322999,402.200996 350.248,401.352004 350.248,400.5 C350.248,399.647996 350.322999,398.799004 350.473,397.953 C350.623001,397.106996 350.853998,396.297004 351.166,395.523 C351.478002,394.748996 351.876998,394.023003 352.363,393.345 C352.849002,392.666997 353.433997,392.064003 354.118,391.536 C354.142,391.512 354.196,391.5 354.28,391.5 C354.328,391.5 354.37,391.518 354.406,391.554 C354.43,391.602 354.442,391.644 354.442,391.68 C354.442,391.728 354.424,391.77 354.388,391.806 C353.811997,392.346003 353.326002,392.951997 352.93,393.624 C352.533998,394.296003 352.213001,395.006996 351.967,395.757 C351.720999,396.507004 351.547001,397.283996 351.445,398.088 C351.342999,398.892004 351.292,399.695996 351.292,400.5 C351.292,401.316004 351.342999,402.122996 351.445,402.921 C351.547001,403.719004 351.720999,404.492996 351.967,405.243 C352.213001,405.993004 352.533998,406.703997 352.93,407.376 C353.326002,408.048003 353.811997,408.653997 354.388,409.194 C354.424,409.23 354.442,409.272 354.442,409.32 Z M363.748,399.258 C363.748,400.050004 363.694001,400.841996 363.586,401.634 C363.477999,402.426004 363.214002,403.163997 362.794,403.848 C362.493999,404.340002 362.092003,404.720999 361.588,404.991 C361.083997,405.261001 360.544003,405.396 359.968,405.396 C359.391997,405.396 358.852003,405.261001 358.348,404.991 C357.843997,404.720999 357.442002,404.340002 357.142,403.848 C356.721998,403.163997 356.458001,402.426004 356.35,401.634 C356.241999,400.841996 356.188,400.050004 356.188,399.258 C356.188,398.441996 356.241999,397.632004 356.35,396.828 C356.458001,396.023996 356.721998,395.274003 357.142,394.578 C357.442002,394.073997 357.843997,393.684001 358.348,393.408 C358.852003,393.131999 359.391997,392.994 359.968,392.994 C360.544003,392.994 361.083997,393.131999 361.588,393.408 C362.092003,393.684001 362.493999,394.073997 362.794,394.578 C363.214002,395.274003 363.477999,396.023996 363.586,396.828 C363.694001,397.632004 363.748,398.441996 363.748,399.258 Z M362.254,398.97 C362.254,398.609998 362.251,398.235002 362.245,397.845 C362.239,397.454998 362.224,397.071002 362.2,396.693 C362.176,396.314998 362.137,395.958002 362.083,395.622 C362.029,395.285998 361.954,394.998001 361.858,394.758 C361.689999,394.373998 361.438002,394.053001 361.102,393.795 C360.765998,393.536999 360.388002,393.408 359.968,393.408 C359.547998,393.408 359.170002,393.536999 358.834,393.795 C358.497998,394.053001 358.246001,394.373998 358.078,394.758 C357.982,394.998001 357.907,395.285998 357.853,395.622 C357.799,395.958002 357.76,396.314998 357.736,396.693 C357.712,397.071002 357.697,397.454998 357.691,397.845 C357.685,398.235002 357.682,398.609998 357.682,398.97 C357.682,399.354002 357.685,399.761998 357.691,400.194 C357.697,400.626002 357.712,401.045998 357.736,401.454 C357.76,401.862002 357.799,402.248998 357.853,402.615 C357.907,402.981002 357.982,403.289999 358.078,403.542 C358.234001,403.962002 358.479998,404.309999 358.816,404.586 C359.152002,404.862001 359.535998,405 359.968,405 C360.400002,405 360.783998,404.862001 361.12,404.586 C361.456002,404.309999 361.701999,403.962002 361.858,403.542 C361.954,403.289999 362.029,402.981002 362.083,402.615 C362.137,402.248998 362.176,401.862002 362.2,401.454 C362.224,401.045998 362.239,400.626002 362.245,400.194 C362.251,399.761998 362.254,399.354002 362.254,398.97 Z M367.924,404.046 C367.924,404.310001 367.831001,404.534999 367.645,404.721 C367.458999,404.907001 367.234001,405 366.97,405 C366.705999,405 366.481001,404.907001 366.295,404.721 C366.108999,404.534999 366.016,404.310001 366.016,404.046 C366.016,403.781999 366.108999,403.557001 366.295,403.371 C366.481001,403.184999 366.705999,403.092 366.97,403.092 C367.234001,403.092 367.458999,403.184999 367.645,403.371 C367.831001,403.557001 367.924,403.781999 367.924,404.046 Z M377.698,399.186 C377.698,399.966004 377.596001,400.727996 377.392,401.472 C377.187999,402.216004 376.858002,402.911997 376.402,403.56 C376.029998,404.088003 375.571003,404.525998 375.025,404.874 C374.478997,405.222002 373.876003,405.396 373.216,405.396 C372.867998,405.396 372.541002,405.357 372.235,405.279 C371.928998,405.201 371.662001,405.081001 371.434,404.919 C371.205999,404.756999 371.026001,404.553001 370.894,404.307 C370.761999,404.060999 370.696,403.764002 370.696,403.416 C370.696,403.139999 370.779999,402.933001 370.948,402.795 C371.116001,402.656999 371.301999,402.588 371.506,402.588 C371.722001,402.588 371.913999,402.656999 372.082,402.795 C372.250001,402.933001 372.334,403.139999 372.334,403.416 C372.334,403.728002 372.232001,403.949999 372.028,404.082 C371.823999,404.214001 371.608001,404.262 371.38,404.226 C371.548001,404.466001 371.790998,404.636999 372.109,404.739 C372.427002,404.841001 372.795998,404.892 373.216,404.892 C373.696002,404.892 374.127998,404.739002 374.512,404.433 C374.896002,404.126998 375.207999,403.746002 375.448,403.29 C375.760002,402.677997 375.943,402.036003 375.997,401.364 C376.051,400.691997 376.084,399.996004 376.096,399.276 C375.891999,399.804003 375.607002,400.235998 375.241,400.572 C374.874998,400.908002 374.410003,401.076 373.846,401.076 C373.293997,401.076 372.820002,400.980001 372.424,400.788 C372.027998,400.595999 371.650002,400.296002 371.29,399.888 C370.905998,399.455998 370.636001,399.018002 370.48,398.574 C370.323999,398.129998 370.246,397.620003 370.246,397.044 C370.246,396.455997 370.329999,395.940002 370.498,395.496 C370.666001,395.051998 370.953998,394.614002 371.362,394.182 C371.746002,393.773998 372.150998,393.474001 372.577,393.282 C373.003002,393.089999 373.503997,392.994 374.08,392.994 C374.656003,392.994 375.177998,393.146998 375.646,393.453 C376.114002,393.759002 376.491999,394.163997 376.78,394.668 C377.176002,395.352003 377.427999,396.083996 377.536,396.864 C377.644001,397.644004 377.698,398.417996 377.698,399.186 Z M376.06,396.99 C376.036,396.557998 376.003,396.156002 375.961,395.784 C375.919,395.411998 375.85,395.106001 375.754,394.866 C375.609999,394.469998 375.391001,394.134001 375.097,393.858 C374.802999,393.581999 374.464002,393.444 374.08,393.444 C373.671998,393.444 373.327001,393.524999 373.045,393.687 C372.762999,393.849001 372.514001,394.103998 372.298,394.452 C372.069999,394.800002 371.938,395.186998 371.902,395.613 C371.866,396.039002 371.848,396.515997 371.848,397.044 C371.848,397.584003 371.866,398.069998 371.902,398.502 C371.938,398.934002 372.051999,399.317998 372.244,399.654 C372.448001,400.002002 372.675999,400.259999 372.928,400.428 C373.180001,400.596001 373.491998,400.68 373.864,400.68 C374.236002,400.68 374.565999,400.578001 374.854,400.374 C375.142001,400.169999 375.378999,399.903002 375.565,399.573 C375.751001,399.242998 375.886,398.859002 375.97,398.421 C376.054,397.982998 376.078,397.530002 376.042,397.062 C376.042,397.026 376.048,397.002 376.06,396.99 Z M386.554,401.382 C386.554,401.922003 386.455001,402.434998 386.257,402.921 C386.058999,403.407002 385.774002,403.841998 385.402,404.226 C385.029998,404.598002 384.607002,404.885999 384.133,405.09 C383.658998,405.294001 383.158003,405.396 382.63,405.396 C382.173998,405.396 381.748002,405.306001 381.352,405.126 C380.955998,404.945999 380.614001,404.703002 380.326,404.397 C380.037999,404.090998 379.810001,403.734002 379.642,403.326 C379.473999,402.917998 379.39,402.486002 379.39,402.03 C379.39,401.729999 379.482999,401.508001 379.669,401.364 C379.855001,401.219999 380.055999,401.148 380.272,401.148 C380.488001,401.148 380.688999,401.219999 380.875,401.364 C381.061001,401.508001 381.154,401.729999 381.154,402.03 C381.154,402.210001 381.115,402.362999 381.037,402.489 C380.959,402.615001 380.863001,402.714 380.749,402.786 C380.634999,402.858 380.506001,402.9 380.362,402.912 C380.217999,402.924 380.086001,402.906 379.966,402.858 C380.134001,403.446003 380.460998,403.931998 380.947,404.316 C381.433002,404.700002 381.993997,404.892 382.63,404.892 C382.978002,404.892 383.307998,404.805001 383.62,404.631 C383.932002,404.456999 384.189999,404.220002 384.394,403.92 C384.634001,403.559998 384.787,403.161002 384.853,402.723 C384.919,402.284998 384.952,401.838002 384.952,401.382 C384.952,400.925998 384.937,400.482002 384.907,400.05 C384.877,399.617998 384.760001,399.210002 384.556,398.826 C384.399999,398.537999 384.202001,398.301001 383.962,398.115 C383.721999,397.928999 383.458001,397.836 383.17,397.836 C382.617997,397.836 382.141002,397.949999 381.739,398.178 C381.336998,398.406001 381.010001,398.729998 380.758,399.15 C380.722,399.222 380.668,399.258 380.596,399.258 L380.524,399.258 C380.379999,399.258 380.308,399.192001 380.308,399.06 L380.308,393.192 C380.308,393.083999 380.367999,393.018 380.488,392.994 C380.5,392.994 380.512,392.997 380.524,393.003 C380.536,393.009 380.548,393.012 380.56,393.012 C381.364004,393.396002 382.203996,393.588 383.08,393.588 C383.956004,393.588 384.795996,393.396002 385.6,393.012 C385.612,393.012 385.624,393.009 385.636,393.003 C385.648,392.997 385.66,392.994 385.672,392.994 C385.792001,392.994 385.852,393.053999 385.852,393.174 C385.852,393.246 385.84,393.294 385.816,393.318 C385.431998,393.870003 384.940003,394.298998 384.34,394.605 C383.739997,394.911002 383.104003,395.064 382.432,395.064 C381.867997,395.064 381.346002,394.986001 380.866,394.83 L380.866,398.358 C381.154001,398.057998 381.489998,397.827001 381.874,397.665 C382.258002,397.502999 382.689998,397.422 383.17,397.422 C383.638002,397.422 384.078998,397.529999 384.493,397.746 C384.907002,397.962001 385.269998,398.249998 385.582,398.61 C385.906002,398.994002 386.148999,399.425998 386.311,399.906 C386.473001,400.386002 386.554,400.877997 386.554,401.382 Z M392.692,400.5 C392.692,401.352004 392.617001,402.200996 392.467,403.047 C392.316999,403.893004 392.086002,404.702996 391.774,405.477 C391.461998,406.251004 391.063002,406.976997 390.577,407.655 C390.090998,408.333003 389.506003,408.935997 388.822,409.464 C388.774,409.488 388.738,409.5 388.714,409.5 L388.66,409.5 C388.612,409.5 388.57,409.482 388.534,409.446 C388.51,409.398 388.498,409.356 388.498,409.32 C388.498,409.272 388.516,409.23 388.552,409.194 C389.128003,408.653997 389.613998,408.048003 390.01,407.376 C390.406002,406.703997 390.726999,405.993004 390.973,405.243 C391.219001,404.492996 391.392999,403.719004 391.495,402.921 C391.597001,402.122996 391.648,401.316004 391.648,400.5 C391.648,399.695996 391.597001,398.892004 391.495,398.088 C391.392999,397.283996 391.219001,396.507004 390.973,395.757 C390.726999,395.006996 390.406002,394.296003 390.01,393.624 C389.613998,392.951997 389.128003,392.346003 388.552,391.806 C388.516,391.77 388.498,391.728 388.498,391.68 C388.498,391.62 388.51,391.578 388.534,391.554 C388.57,391.518 388.612,391.5 388.66,391.5 L388.714,391.5 C388.738,391.5 388.774,391.512 388.822,391.536 C389.506003,392.064003 390.090998,392.666997 390.577,393.345 C391.063002,394.023003 391.461998,394.748996 391.774,395.523 C392.086002,396.297004 392.316999,397.106996 392.467,397.953 C392.617001,398.799004 392.692,399.647996 392.692,400.5 Z M395.107234,399.410156 C395.265438,399.410156 395.540826,399.50244 395.933406,399.687012 C396.325986,399.871583 396.648249,399.963867 396.900203,399.963867 C397.392393,399.963867 397.762995,399.788088 398.01202,399.436523 C398.261044,399.084959 398.385555,398.73633 398.385555,398.390625 C398.385555,397.669918 398.069152,397.174806 397.436336,396.905273 C397.108209,396.764648 396.700987,396.694336 396.214656,396.694336 L395.968563,396.694336 L395.968563,396.483398 C396.724426,396.336913 397.263483,396.055666 397.58575,395.639648 C397.790829,395.381835 397.893367,395.100587 397.893367,394.795898 C397.893367,394.29199 397.691221,393.94336 397.286922,393.75 C397.081843,393.65039 396.84454,393.600586 396.575008,393.600586 C396.141412,393.600586 395.766416,393.749999 395.450008,394.048828 C395.280085,394.207032 395.113095,394.441405 394.949031,394.751953 L394.720516,394.716797 C394.808407,394.28906 395.048639,393.883303 395.441219,393.499512 C395.833799,393.115721 396.355278,392.923828 397.005672,392.923828 C397.620909,392.923828 398.077936,393.0791 398.376766,393.389648 C398.675595,393.700197 398.825008,394.037108 398.825008,394.400391 C398.825008,394.664064 398.742977,394.929198 398.578914,395.195801 C398.414851,395.462404 398.148252,395.7041 397.779109,395.920898 C398.230284,396.079102 398.583307,396.325194 398.838191,396.65918 C399.093075,396.993166 399.220516,397.406248 399.220516,397.898438 C399.220516,398.601566 398.946593,399.203611 398.398738,399.70459 C397.850884,400.205569 397.052552,400.456055 396.003719,400.456055 C395.616998,400.456055 395.300595,400.391602 395.0545,400.262695 C394.808405,400.133788 394.685359,399.981446 394.685359,399.805664 C394.685359,399.688476 394.72491,399.593262 394.804012,399.52002 C394.883114,399.446777 394.984187,399.410156 395.107234,399.410156 Z M418.842484,398.754 C418.842484,398.85 418.806485,398.934 418.734484,399.006 C418.662484,399.078 418.578485,399.114 418.482484,399.114 L407.250484,399.114 C407.154484,399.114 407.070485,399.078 406.998484,399.006 C406.926484,398.934 406.890484,398.85 406.890484,398.754 C406.890484,398.658 406.926484,398.574 406.998484,398.502 C407.070485,398.43 407.154484,398.394 407.250484,398.394 L418.482484,398.394 C418.578485,398.394 418.662484,398.43 418.734484,398.502 C418.806485,398.574 418.842484,398.658 418.842484,398.754 Z M418.842484,402.246 C418.842484,402.342 418.806485,402.426 418.734484,402.498 C418.662484,402.57 418.578485,402.606 418.482484,402.606 L407.250484,402.606 C407.154484,402.606 407.070485,402.57 406.998484,402.498 C406.926484,402.426 406.890484,402.342 406.890484,402.246 C406.890484,402.15 406.926484,402.066 406.998484,401.994 C407.070485,401.922 407.154484,401.886 407.250484,401.886 L418.482484,401.886 C418.578485,401.886 418.662484,401.922 418.734484,401.994 C418.806485,402.066 418.842484,402.15 418.842484,402.246 Z M434.142484,399.258 C434.142484,400.050004 434.088485,400.841996 433.980484,401.634 C433.872484,402.426004 433.608486,403.163997 433.188484,403.848 C432.888483,404.340002 432.486487,404.720999 431.982484,404.991 C431.478482,405.261001 430.938487,405.396 430.362484,405.396 C429.786481,405.396 429.246487,405.261001 428.742484,404.991 C428.238482,404.720999 427.836486,404.340002 427.536484,403.848 C427.116482,403.163997 426.852485,402.426004 426.744484,401.634 C426.636484,400.841996 426.582484,400.050004 426.582484,399.258 C426.582484,398.441996 426.636484,397.632004 426.744484,396.828 C426.852485,396.023996 427.116482,395.274003 427.536484,394.578 C427.836486,394.073997 428.238482,393.684001 428.742484,393.408 C429.246487,393.131999 429.786481,392.994 430.362484,392.994 C430.938487,392.994 431.478482,393.131999 431.982484,393.408 C432.486487,393.684001 432.888483,394.073997 433.188484,394.578 C433.608486,395.274003 433.872484,396.023996 433.980484,396.828 C434.088485,397.632004 434.142484,398.441996 434.142484,399.258 Z M432.648484,398.97 C432.648484,398.609998 432.645484,398.235002 432.639484,397.845 C432.633484,397.454998 432.618484,397.071002 432.594484,396.693 C432.570484,396.314998 432.531485,395.958002 432.477484,395.622 C432.423484,395.285998 432.348485,394.998001 432.252484,394.758 C432.084484,394.373998 431.832486,394.053001 431.496484,393.795 C431.160483,393.536999 430.782486,393.408 430.362484,393.408 C429.942482,393.408 429.564486,393.536999 429.228484,393.795 C428.892483,394.053001 428.640485,394.373998 428.472484,394.758 C428.376484,394.998001 428.301485,395.285998 428.247484,395.622 C428.193484,395.958002 428.154484,396.314998 428.130484,396.693 C428.106484,397.071002 428.091484,397.454998 428.085484,397.845 C428.079484,398.235002 428.076484,398.609998 428.076484,398.97 C428.076484,399.354002 428.079484,399.761998 428.085484,400.194 C428.091484,400.626002 428.106484,401.045998 428.130484,401.454 C428.154484,401.862002 428.193484,402.248998 428.247484,402.615 C428.301485,402.981002 428.376484,403.289999 428.472484,403.542 C428.628485,403.962002 428.874483,404.309999 429.210484,404.586 C429.546486,404.862001 429.930482,405 430.362484,405 C430.794487,405 431.178483,404.862001 431.514484,404.586 C431.850486,404.309999 432.096484,403.962002 432.252484,403.542 C432.348485,403.289999 432.423484,402.981002 432.477484,402.615 C432.531485,402.248998 432.570484,401.862002 432.594484,401.454 C432.618484,401.045998 432.633484,400.626002 432.639484,400.194 C432.645484,399.761998 432.648484,399.354002 432.648484,398.97 Z M438.318484,404.046 C438.318484,404.310001 438.225485,404.534999 438.039484,404.721 C437.853483,404.907001 437.628486,405 437.364484,405 C437.100483,405 436.875485,404.907001 436.689484,404.721 C436.503483,404.534999 436.410484,404.310001 436.410484,404.046 C436.410484,403.781999 436.503483,403.557001 436.689484,403.371 C436.875485,403.184999 437.100483,403.092 437.364484,403.092 C437.628486,403.092 437.853483,403.184999 438.039484,403.371 C438.225485,403.557001 438.318484,403.781999 438.318484,404.046 Z M448.344484,402.012 L446.544484,402.012 L446.544484,403.794 C446.544484,403.914001 446.568484,404.024999 446.616484,404.127 C446.664485,404.229001 446.736484,404.298 446.832484,404.334 C446.976485,404.394 447.195483,404.427 447.489484,404.433 C447.783486,404.439 448.050483,404.442 448.290484,404.442 L448.290484,405 C446.670476,404.928 445.038493,404.928 443.394484,405 L443.394484,404.442 C443.646486,404.442 443.916483,404.439 444.204484,404.433 C444.492486,404.427 444.714484,404.394 444.870484,404.334 C444.966485,404.298 445.038484,404.229001 445.086484,404.127 C445.134485,404.024999 445.158484,403.914001 445.158484,403.794 L445.158484,402.012 L440.388484,402.012 L440.388484,401.454 L445.968484,392.904 C446.016485,392.832 446.082484,392.796 446.166484,392.796 L446.346484,392.796 C446.478485,392.796 446.544484,392.861999 446.544484,392.994 L446.544484,401.454 L448.344484,401.454 L448.344484,402.012 Z M445.248484,401.454 L445.248484,394.776 L440.892484,401.454 L445.248484,401.454 Z M456.948484,401.868 L456.444484,405 L449.784484,405 L449.784484,404.622 C449.784484,404.598 449.796484,404.562 449.820484,404.514 L452.538484,401.472 C452.874486,401.099998 453.207483,400.719002 453.537484,400.329 C453.867486,399.938998 454.164483,399.543002 454.428484,399.141 C454.692486,398.738998 454.905484,398.319002 455.067484,397.881 C455.229485,397.442998 455.310484,396.984002 455.310484,396.504 C455.310484,396.107998 455.259485,395.733002 455.157484,395.379 C455.055484,395.024998 454.905485,394.713001 454.707484,394.443 C454.509483,394.172999 454.263486,393.957001 453.969484,393.795 C453.675483,393.632999 453.330486,393.552 452.934484,393.552 C452.358481,393.552 451.848487,393.728998 451.404484,394.083 C450.960482,394.437002 450.648485,394.883997 450.468484,395.424 C450.600485,395.388 450.738484,395.379 450.882484,395.397 C451.026485,395.415 451.155484,395.463 451.269484,395.541 C451.383485,395.619 451.479484,395.723999 451.557484,395.856 C451.635485,395.988001 451.674484,396.143999 451.674484,396.324 C451.674484,396.636002 451.575485,396.872999 451.377484,397.035 C451.179483,397.197001 450.960486,397.278 450.720484,397.278 C450.492483,397.278 450.279485,397.197001 450.081484,397.035 C449.883483,396.872999 449.784484,396.636002 449.784484,396.324 C449.784484,395.867998 449.871484,395.436002 450.045484,395.028 C450.219485,394.619998 450.456483,394.266002 450.756484,393.966 C451.056486,393.665999 451.410482,393.429001 451.818484,393.255 C452.226486,393.080999 452.658482,392.994 453.114484,392.994 C453.678487,392.994 454.197482,393.080999 454.671484,393.255 C455.145487,393.429001 455.550483,393.674998 455.886484,393.993 C456.222486,394.311002 456.483483,394.682998 456.669484,395.109 C456.855485,395.535002 456.948484,395.999997 456.948484,396.504 C456.948484,397.080003 456.822486,397.604998 456.570484,398.079 C456.318483,398.553002 456.003486,398.993998 455.625484,399.402 C455.247482,399.810002 454.845487,400.193998 454.419484,400.554 C453.993482,400.914002 453.606486,401.261998 453.258484,401.598 L451.188484,403.614 L453.924484,403.614 C454.272486,403.614 454.599483,403.611 454.905484,403.605 C455.211486,403.599 455.475483,403.587 455.697484,403.569 C455.919485,403.551 456.042484,403.53 456.066484,403.506 C456.114485,403.458 456.159484,403.371001 456.201484,403.245 C456.243485,403.118999 456.282484,402.978001 456.318484,402.822 C456.354485,402.665999 456.387484,402.504001 456.417484,402.336 C456.447485,402.167999 456.474484,402.012001 456.498484,401.868 L456.948484,401.868 Z M466.092484,399.186 C466.092484,399.966004 465.990485,400.727996 465.786484,401.472 C465.582483,402.216004 465.252487,402.911997 464.796484,403.56 C464.424483,404.088003 463.965487,404.525998 463.419484,404.874 C462.873482,405.222002 462.270488,405.396 461.610484,405.396 C461.262483,405.396 460.935486,405.357 460.629484,405.279 C460.323483,405.201 460.056486,405.081001 459.828484,404.919 C459.600483,404.756999 459.420485,404.553001 459.288484,404.307 C459.156484,404.060999 459.090484,403.764002 459.090484,403.416 C459.090484,403.139999 459.174484,402.933001 459.342484,402.795 C459.510485,402.656999 459.696483,402.588 459.900484,402.588 C460.116485,402.588 460.308484,402.656999 460.476484,402.795 C460.644485,402.933001 460.728484,403.139999 460.728484,403.416 C460.728484,403.728002 460.626485,403.949999 460.422484,404.082 C460.218483,404.214001 460.002486,404.262 459.774484,404.226 C459.942485,404.466001 460.185483,404.636999 460.503484,404.739 C460.821486,404.841001 461.190482,404.892 461.610484,404.892 C462.090487,404.892 462.522482,404.739002 462.906484,404.433 C463.290486,404.126998 463.602483,403.746002 463.842484,403.29 C464.154486,402.677997 464.337484,402.036003 464.391484,401.364 C464.445485,400.691997 464.478484,399.996004 464.490484,399.276 C464.286483,399.804003 464.001486,400.235998 463.635484,400.572 C463.269483,400.908002 462.804487,401.076 462.240484,401.076 C461.688482,401.076 461.214486,400.980001 460.818484,400.788 C460.422482,400.595999 460.044486,400.296002 459.684484,399.888 C459.300482,399.455998 459.030485,399.018002 458.874484,398.574 C458.718484,398.129998 458.640484,397.620003 458.640484,397.044 C458.640484,396.455997 458.724484,395.940002 458.892484,395.496 C459.060485,395.051998 459.348482,394.614002 459.756484,394.182 C460.140486,393.773998 460.545482,393.474001 460.971484,393.282 C461.397487,393.089999 461.898481,392.994 462.474484,392.994 C463.050487,392.994 463.572482,393.146998 464.040484,393.453 C464.508487,393.759002 464.886483,394.163997 465.174484,394.668 C465.570486,395.352003 465.822484,396.083996 465.930484,396.864 C466.038485,397.644004 466.092484,398.417996 466.092484,399.186 Z M464.454484,396.99 C464.430484,396.557998 464.397485,396.156002 464.355484,395.784 C464.313484,395.411998 464.244485,395.106001 464.148484,394.866 C464.004484,394.469998 463.785486,394.134001 463.491484,393.858 C463.197483,393.581999 462.858486,393.444 462.474484,393.444 C462.066482,393.444 461.721486,393.524999 461.439484,393.687 C461.157483,393.849001 460.908485,394.103998 460.692484,394.452 C460.464483,394.800002 460.332485,395.186998 460.296484,395.613 C460.260484,396.039002 460.242484,396.515997 460.242484,397.044 C460.242484,397.584003 460.260484,398.069998 460.296484,398.502 C460.332485,398.934002 460.446483,399.317998 460.638484,399.654 C460.842485,400.002002 461.070483,400.259999 461.322484,400.428 C461.574486,400.596001 461.886483,400.68 462.258484,400.68 C462.630486,400.68 462.960483,400.578001 463.248484,400.374 C463.536486,400.169999 463.773483,399.903002 463.959484,399.573 C464.145485,399.242998 464.280484,398.859002 464.364484,398.421 C464.448485,397.982998 464.472485,397.530002 464.436484,397.062 C464.436484,397.026 464.442484,397.002 464.454484,396.99 Z" id="P(A)-=-(0.5)(0.95)-=" fill="#000000"></path>
    </g>
</svg>