<?xml version="1.0" encoding="UTF-8"?>
<svg width="508px" height="456px" viewBox="0 0 508 456" version="1.1" xmlns="http://www.w3.org/2000/svg" xmlns:xlink="http://www.w3.org/1999/xlink">
    <!-- Generator: Sketch 49.2 (51160) - http://www.bohemiancoding.com/sketch -->
    <title>Huffman Tree</title>
    <desc>Created with Sketch.</desc>
    <defs></defs>
    <g id="Huffman-Tree" stroke="none" stroke-width="1" fill="none" fill-rule="evenodd">
        <path d="M355.5,46.5 L252.5,132.5" id="Line" stroke="#000000" stroke-width="3" stroke-linecap="square" transform="translate(304.000000, 89.500000) scale(1, -1) translate(-304.000000, -89.500000) "></path>
        <path d="M250.5,46.5 L141.5,132.5" id="Line" stroke="#000000" stroke-width="3" stroke-linecap="square"></path>
        <path d="M140.5,133.5 L85.5,219.5" id="Line" stroke="#000000" stroke-width="3" stroke-linecap="square"></path>
        <path d="M355.5,133.5 L300.5,219.5" id="Line" stroke="#000000" stroke-width="3" stroke-linecap="square"></path>
        <path d="M197.5,133.5 L142.5,219.5" id="Line" stroke="#000000" stroke-width="3" stroke-linecap="square" transform="translate(170.000000, 176.500000) scale(1, -1) translate(-170.000000, -176.500000) "></path>
        <path d="M252.5,219.5 L197.5,305.5" id="Line" stroke="#000000" stroke-width="3" stroke-linecap="square" transform="translate(225.000000, 262.500000) scale(1, -1) translate(-225.000000, -262.500000) "></path>
        <path d="M411.5,133.5 L356.5,219.5" id="Line" stroke="#000000" stroke-width="3" stroke-linecap="square" transform="translate(384.000000, 176.500000) scale(1, -1) translate(-384.000000, -176.500000) "></path>
        <path d="M197.5,219.5 L142.5,305.5" id="Line" stroke="#000000" stroke-width="3" stroke-linecap="square"></path>
        <path d="M197.5,306.5 L142.5,392.5" id="Line" stroke="#000000" stroke-width="3" stroke-linecap="square" transform="translate(170.000000, 349.500000) scale(1, -1) translate(-170.000000, -349.500000) "></path>
        <path d="M142.5,306.5 L87.5,392.5" id="Line" stroke="#000000" stroke-width="3" stroke-linecap="square"></path>
        <ellipse id="Oval" stroke="#000000" stroke-width="3" fill="#FFFFFF" cx="251.5" cy="46" rx="27.5" ry="28"></ellipse>
        <ellipse id="Oval" stroke="#000000" stroke-width="3" fill="#FFFFFF" cx="251.5" cy="46" rx="27.5" ry="28"></ellipse>
        <ellipse id="Oval" stroke="#000000" stroke-width="3" fill="#FFFFFF" cx="356.5" cy="133" rx="27.5" ry="28"></ellipse>
        <ellipse id="Oval" stroke="#000000" stroke-width="3" fill="#FFFFFF" transform="translate(142.500000, 133.000000) scale(1, -1) translate(-142.500000, -133.000000) " cx="142.5" cy="133" rx="27.5" ry="28"></ellipse>
        <ellipse id="Oval" stroke="#000000" stroke-width="3" fill="#FFFFFF" cx="198.5" cy="220" rx="27.5" ry="28"></ellipse>
        <ellipse id="Oval" stroke="#000000" stroke-width="3" fill="#FFFFFF" transform="translate(143.500000, 306.000000) scale(1, -1) translate(-143.500000, -306.000000) " cx="143.5" cy="306" rx="27.5" ry="28"></ellipse>
        <text id="A" font-family="Euclid-Bold, Euclid" font-size="36" font-weight="bold" fill="#000000">
            <tspan x="273.41" y="255">A</tspan>
        </text>
        <text id="B" font-family="Euclid-Bold, Euclid" font-size="36" font-weight="bold" fill="#000000">
            <tspan x="411.202" y="254">B</tspan>
        </text>
        <text id="C" font-family="Euclid-Bold, Euclid" font-size="24" font-weight="bold" fill="#000000">
            <tspan x="67.336" y="243">C</tspan>
        </text>
        <path d="M270.324,320.912 C270.324,322.000005 270.172002,323.051995 269.868,324.068 C269.563998,325.084005 269.052004,325.991996 268.332,326.792 C267.659997,327.544004 266.860005,328.099998 265.932,328.46 C265.003995,328.820002 264.036005,329 263.028,329 L254.1,329 L254.1,327.872 L256.356,327.872 L256.356,313.664 L254.1,313.664 L254.1,312.536 L263.028,312.536 C264.036005,312.536 265.003995,312.723998 265.932,313.1 C266.860005,313.476002 267.659997,314.047996 268.332,314.816 C269.068004,315.664004 269.583999,316.615995 269.88,317.672 C270.176001,318.728005 270.324,319.807994 270.324,320.912 Z M266.796,320.912 C266.796,320.447998 266.792,319.976002 266.784,319.496 C266.776,319.015998 266.74,318.540002 266.676,318.068 C266.612,317.595998 266.520001,317.148002 266.4,316.724 C266.279999,316.299998 266.100001,315.904002 265.86,315.536 C265.459998,314.911997 264.924003,314.444002 264.252,314.132 C263.579997,313.819998 262.860004,313.664 262.092,313.664 L259.644,313.664 L259.644,327.872 L262.092,327.872 C262.844004,327.872 263.555997,327.724001 264.228,327.428 C264.900003,327.131999 265.443998,326.680003 265.86,326.072 C266.100001,325.735998 266.279999,325.360002 266.4,324.944 C266.520001,324.527998 266.612,324.096002 266.676,323.648 C266.74,323.199998 266.776,322.744002 266.784,322.28 C266.792,321.815998 266.796,321.360002 266.796,320.912 Z" id="D" fill="#000000"></path>
        <path d="M208.86,402.098 L208.014,402.098 C207.978,401.845999 207.942,401.588001 207.906,401.324 C207.87,401.059999 207.819,400.805001 207.753,400.559 C207.687,400.312999 207.600001,400.082001 207.492,399.866 C207.383999,399.649999 207.252001,399.464001 207.096,399.308 C206.783998,399.007998 206.421002,398.816 206.007,398.732 C205.592998,398.648 205.170002,398.606 204.738,398.606 L203.19,398.606 L203.19,403.448 L203.55,403.448 C203.790001,403.448 204.026999,403.421 204.261,403.367 C204.495001,403.313 204.695999,403.202001 204.864,403.034 C205.032001,402.853999 205.131,402.602002 205.161,402.278 C205.191,401.953998 205.206,401.642001 205.206,401.342 L206.052,401.342 L206.052,406.4 L205.206,406.4 C205.206,406.099999 205.191,405.791002 205.161,405.473 C205.131,405.154998 205.032001,404.906001 204.864,404.726 C204.695999,404.545999 204.495001,404.429 204.261,404.375 C204.026999,404.321 203.790001,404.294 203.55,404.294 L203.19,404.294 L203.19,409.154 L205.314,409.154 L205.314,410 C204.173994,409.964 203.040006,409.946 201.912,409.946 C200.915995,409.946 199.926005,409.964 198.942,410 L198.942,409.154 L200.634,409.154 L200.634,398.606 L198.942,398.606 L198.942,397.742 L208.32,397.742 L208.86,402.098 Z" id="F" fill="#000000"></path>
        <text id="E" font-family="Euclid-Bold, Euclid" font-size="18" font-weight="bold" fill="#000000">
            <tspan x="75.105" y="410">E</tspan>
        </text>
        <text id="1" font-family="Euclid" font-size="18" font-weight="normal" fill="#000000">
            <tspan x="182" y="87">1</tspan>
        </text>
        <text id="1" font-family="Euclid" font-size="18" font-weight="normal" fill="#000000">
            <tspan x="98" y="177">1</tspan>
        </text>
        <text id="0" font-family="Euclid" font-size="18" font-weight="normal" fill="#000000">
            <tspan x="309" y="86">0</tspan>
        </text>
        <text id="0" font-family="Euclid" font-size="18" font-weight="normal" fill="#000000">
            <tspan x="175" y="177">0</tspan>
        </text>
        <text id="1" font-family="Euclid" font-size="18" font-weight="normal" fill="#000000">
            <tspan x="313" y="178">1</tspan>
        </text>
        <text id="0" font-family="Euclid" font-size="18" font-weight="normal" fill="#000000">
            <tspan x="390" y="178">0</tspan>
        </text>
        <text id="1" font-family="Euclid" font-size="18" font-weight="normal" fill="#000000">
            <tspan x="155" y="265">1</tspan>
        </text>
        <text id="0" font-family="Euclid" font-size="18" font-weight="normal" fill="#000000">
            <tspan x="232" y="265">0</tspan>
        </text>
        <text id="1" font-family="Euclid" font-size="18" font-weight="normal" fill="#000000">
            <tspan x="99" y="352">1</tspan>
        </text>
        <text id="0" font-family="Euclid" font-size="18" font-weight="normal" fill="#000000">
            <tspan x="176" y="352">0</tspan>
        </text>
        <path d="M354.888,302 C354.059996,301.964 353.235004,301.949 352.413,301.955 C351.590996,301.961 350.766004,301.976 349.938,302 L349.938,301.442 C350.142001,301.442 350.351999,301.433 350.568,301.415 C350.784001,301.397 350.981999,301.352 351.162,301.28 C351.258,301.232 351.336,301.163 351.396,301.073 C351.456,300.983 351.468,300.89 351.432,300.794 L350.424,297.896 L345.978,297.896 L345.15,300.308 C345.09,300.452001 345.084,300.595999 345.132,300.74 C345.18,300.884001 345.263999,301.004 345.384,301.1 C345.540001,301.232001 345.710999,301.322 345.897,301.37 C346.083001,301.418 346.271999,301.442 346.464,301.442 L346.464,302 C345.815997,301.976 345.168003,301.961 344.52,301.955 C343.871997,301.949 343.224003,301.964 342.576,302 L342.576,301.442 C342.804001,301.442 343.025999,301.424 343.242,301.388 C343.458001,301.352 343.667999,301.274001 343.872,301.154 C344.208002,300.961999 344.441999,300.680002 344.574,300.308 L348.372,289.292 C348.42,289.159999 348.515999,289.094 348.66,289.094 L348.804,289.094 C348.948001,289.094 349.044,289.159999 349.092,289.292 L353.07,300.794 C353.106,300.914001 353.16,301.024999 353.232,301.127 C353.304,301.229001 353.399999,301.298 353.52,301.334 C353.676001,301.394 353.882999,301.427 354.141,301.433 C354.399001,301.439 354.647999,301.442 354.888,301.442 L354.888,302 Z M350.226,297.338 L348.21,291.47 L346.176,297.338 L350.226,297.338 Z M358.938,295.196 C358.938,295.460001 358.845001,295.684999 358.659,295.871 C358.472999,296.057001 358.248001,296.15 357.984,296.15 C357.719999,296.15 357.495001,296.057001 357.309,295.871 C357.122999,295.684999 357.03,295.460001 357.03,295.196 C357.03,294.931999 357.122999,294.707001 357.309,294.521 C357.495001,294.334999 357.719999,294.242 357.984,294.242 C358.248001,294.242 358.472999,294.334999 358.659,294.521 C358.845001,294.707001 358.938,294.931999 358.938,295.196 Z M358.938,301.046 C358.938,301.310001 358.845001,301.534999 358.659,301.721 C358.472999,301.907001 358.248001,302 357.984,302 C357.719999,302 357.495001,301.907001 357.309,301.721 C357.122999,301.534999 357.03,301.310001 357.03,301.046 C357.03,300.781999 357.122999,300.557001 357.309,300.371 C357.495001,300.184999 357.719999,300.092 357.984,300.092 C358.248001,300.092 358.472999,300.184999 358.659,300.371 C358.845001,300.557001 358.938,300.781999 358.938,301.046 Z M374.76,296.258 C374.76,297.050004 374.706001,297.841996 374.598,298.634 C374.489999,299.426004 374.226002,300.163997 373.806,300.848 C373.505999,301.340002 373.104003,301.720999 372.6,301.991 C372.095997,302.261001 371.556003,302.396 370.98,302.396 C370.403997,302.396 369.864003,302.261001 369.36,301.991 C368.855997,301.720999 368.454002,301.340002 368.154,300.848 C367.733998,300.163997 367.470001,299.426004 367.362,298.634 C367.253999,297.841996 367.2,297.050004 367.2,296.258 C367.2,295.441996 367.253999,294.632004 367.362,293.828 C367.470001,293.023996 367.733998,292.274003 368.154,291.578 C368.454002,291.073997 368.855997,290.684001 369.36,290.408 C369.864003,290.131999 370.403997,289.994 370.98,289.994 C371.556003,289.994 372.095997,290.131999 372.6,290.408 C373.104003,290.684001 373.505999,291.073997 373.806,291.578 C374.226002,292.274003 374.489999,293.023996 374.598,293.828 C374.706001,294.632004 374.76,295.441996 374.76,296.258 Z M373.266,295.97 C373.266,295.609998 373.263,295.235002 373.257,294.845 C373.251,294.454998 373.236,294.071002 373.212,293.693 C373.188,293.314998 373.149,292.958002 373.095,292.622 C373.041,292.285998 372.966,291.998001 372.87,291.758 C372.701999,291.373998 372.450002,291.053001 372.114,290.795 C371.777998,290.536999 371.400002,290.408 370.98,290.408 C370.559998,290.408 370.182002,290.536999 369.846,290.795 C369.509998,291.053001 369.258001,291.373998 369.09,291.758 C368.994,291.998001 368.919,292.285998 368.865,292.622 C368.811,292.958002 368.772,293.314998 368.748,293.693 C368.724,294.071002 368.709,294.454998 368.703,294.845 C368.697,295.235002 368.694,295.609998 368.694,295.97 C368.694,296.354002 368.697,296.761998 368.703,297.194 C368.709,297.626002 368.724,298.045998 368.748,298.454 C368.772,298.862002 368.811,299.248998 368.865,299.615 C368.919,299.981002 368.994,300.289999 369.09,300.542 C369.246001,300.962002 369.491998,301.309999 369.828,301.586 C370.164002,301.862001 370.547998,302 370.98,302 C371.412002,302 371.795998,301.862001 372.132,301.586 C372.468002,301.309999 372.713999,300.962002 372.87,300.542 C372.966,300.289999 373.041,299.981002 373.095,299.615 C373.149,299.248998 373.188,298.862002 373.212,298.454 C373.236,298.045998 373.251,297.626002 373.257,297.194 C373.263,296.761998 373.266,296.354002 373.266,295.97 Z M383.04,302 C381.09599,301.928 379.15201,301.928 377.208,302 L377.208,301.442 L377.712,301.442 C377.892001,301.442 378.065999,301.439 378.234,301.433 C378.402001,301.427 378.560999,301.415 378.711,301.397 C378.861001,301.379 378.984,301.358 379.08,301.334 C379.200001,301.31 379.293,301.247001 379.359,301.145 C379.425,301.042999 379.458,300.926001 379.458,300.794 L379.458,291.236 C379.109998,291.404001 378.735002,291.524 378.333,291.596 C377.930998,291.668 377.520002,291.704 377.1,291.704 L377.1,291.164 C377.712003,291.164 378.305997,291.080001 378.882,290.912 C379.458003,290.743999 379.955998,290.438002 380.376,289.994 L380.592,289.994 C380.724001,289.994 380.79,290.059999 380.79,290.192 L380.79,300.794 C380.79,300.926001 380.823,301.042999 380.889,301.145 C380.955,301.247001 381.047999,301.31 381.168,301.334 C381.264,301.358 381.383999,301.379 381.528,301.397 C381.672001,301.415 381.830999,301.427 382.005,301.433 C382.179001,301.439 382.355999,301.442 382.536,301.442 L383.04,301.442 L383.04,302 Z M353.718,320.706 C353.718,321.162002 353.610001,321.590998 353.394,321.993 C353.177999,322.395002 352.896002,322.739999 352.548,323.028 C352.151998,323.364002 351.711002,323.609999 351.225,323.766 C350.738998,323.922001 350.244003,324 349.74,324 L342.648,324 L342.648,323.442 C342.912001,323.442 343.196998,323.439 343.503,323.433 C343.809002,323.427 344.039999,323.394 344.196,323.334 C344.304001,323.298 344.382,323.229001 344.43,323.127 C344.478,323.024999 344.502,322.914001 344.502,322.794 L344.502,312.894 C344.502,312.773999 344.478,312.663001 344.43,312.561 C344.382,312.458999 344.304001,312.39 344.196,312.354 C344.039999,312.294 343.809002,312.261 343.503,312.255 C343.196998,312.249 342.912001,312.246 342.648,312.246 L342.648,311.706 L349.236,311.706 C349.740003,311.706 350.234998,311.774999 350.721,311.913 C351.207002,312.051001 351.647998,312.275998 352.044,312.588 C352.392002,312.864001 352.673999,313.184998 352.89,313.551 C353.106001,313.917002 353.214,314.315998 353.214,314.748 C353.214,315.168002 353.106001,315.554998 352.89,315.909 C352.673999,316.263002 352.392002,316.565999 352.044,316.818 C351.503997,317.190002 350.904003,317.441999 350.244,317.574 C350.664002,317.61 351.068998,317.702999 351.459,317.853 C351.849002,318.003001 352.211998,318.209999 352.548,318.474 C352.896002,318.750001 353.177999,319.079998 353.394,319.464 C353.610001,319.848002 353.718,320.261998 353.718,320.706 Z M351.468,314.748 C351.468,314.075997 351.246002,313.488003 350.802,312.984 C350.597999,312.755999 350.361001,312.576001 350.091,312.444 C349.820999,312.311999 349.536001,312.246 349.236,312.246 L346.932,312.246 C346.799999,312.246 346.656001,312.249 346.5,312.255 C346.343999,312.261 346.23,312.294 346.158,312.354 C346.074,312.414 346.026,312.494999 346.014,312.597 C346.002,312.699001 345.996,312.798 345.996,312.894 L345.996,317.412 L348.732,317.412 C349.092002,317.412 349.439998,317.340001 349.776,317.196 C350.112002,317.051999 350.405999,316.860001 350.658,316.62 C351.198003,316.103997 351.468,315.480004 351.468,314.748 Z M351.918,320.706 C351.918,320.321998 351.858001,319.956002 351.738,319.608 C351.617999,319.259998 351.438001,318.942001 351.198,318.654 C350.981999,318.389999 350.727001,318.183001 350.433,318.033 C350.138999,317.882999 349.824002,317.808 349.488,317.808 L345.996,317.808 L345.996,322.794 C345.996,322.902001 346.002,323.004 346.014,323.1 C346.026,323.196 346.074,323.274 346.158,323.334 C346.23,323.394 346.343999,323.427 346.5,323.433 C346.656001,323.439 346.799999,323.442 346.932,323.442 L349.236,323.442 C349.584002,323.442 349.922998,323.373001 350.253,323.235 C350.583002,323.096999 350.873999,322.902001 351.126,322.65 C351.378001,322.385999 351.572999,322.086002 351.711,321.75 C351.849001,321.413998 351.918,321.066002 351.918,320.706 Z M358.182,317.196 C358.182,317.460001 358.089001,317.684999 357.903,317.871 C357.716999,318.057001 357.492001,318.15 357.228,318.15 C356.963999,318.15 356.739001,318.057001 356.553,317.871 C356.366999,317.684999 356.274,317.460001 356.274,317.196 C356.274,316.931999 356.366999,316.707001 356.553,316.521 C356.739001,316.334999 356.963999,316.242 357.228,316.242 C357.492001,316.242 357.716999,316.334999 357.903,316.521 C358.089001,316.707001 358.182,316.931999 358.182,317.196 Z M358.182,323.046 C358.182,323.310001 358.089001,323.534999 357.903,323.721 C357.716999,323.907001 357.492001,324 357.228,324 C356.963999,324 356.739001,323.907001 356.553,323.721 C356.366999,323.534999 356.274,323.310001 356.274,323.046 C356.274,322.781999 356.366999,322.557001 356.553,322.371 C356.739001,322.184999 356.963999,322.092 357.228,322.092 C357.492001,322.092 357.716999,322.184999 357.903,322.371 C358.089001,322.557001 358.182,322.781999 358.182,323.046 Z M374.004,318.258 C374.004,319.050004 373.950001,319.841996 373.842,320.634 C373.733999,321.426004 373.470002,322.163997 373.05,322.848 C372.749999,323.340002 372.348003,323.720999 371.844,323.991 C371.339997,324.261001 370.800003,324.396 370.224,324.396 C369.647997,324.396 369.108003,324.261001 368.604,323.991 C368.099997,323.720999 367.698002,323.340002 367.398,322.848 C366.977998,322.163997 366.714001,321.426004 366.606,320.634 C366.497999,319.841996 366.444,319.050004 366.444,318.258 C366.444,317.441996 366.497999,316.632004 366.606,315.828 C366.714001,315.023996 366.977998,314.274003 367.398,313.578 C367.698002,313.073997 368.099997,312.684001 368.604,312.408 C369.108003,312.131999 369.647997,311.994 370.224,311.994 C370.800003,311.994 371.339997,312.131999 371.844,312.408 C372.348003,312.684001 372.749999,313.073997 373.05,313.578 C373.470002,314.274003 373.733999,315.023996 373.842,315.828 C373.950001,316.632004 374.004,317.441996 374.004,318.258 Z M372.51,317.97 C372.51,317.609998 372.507,317.235002 372.501,316.845 C372.495,316.454998 372.48,316.071002 372.456,315.693 C372.432,315.314998 372.393,314.958002 372.339,314.622 C372.285,314.285998 372.21,313.998001 372.114,313.758 C371.945999,313.373998 371.694002,313.053001 371.358,312.795 C371.021998,312.536999 370.644002,312.408 370.224,312.408 C369.803998,312.408 369.426002,312.536999 369.09,312.795 C368.753998,313.053001 368.502001,313.373998 368.334,313.758 C368.238,313.998001 368.163,314.285998 368.109,314.622 C368.055,314.958002 368.016,315.314998 367.992,315.693 C367.968,316.071002 367.953,316.454998 367.947,316.845 C367.941,317.235002 367.938,317.609998 367.938,317.97 C367.938,318.354002 367.941,318.761998 367.947,319.194 C367.953,319.626002 367.968,320.045998 367.992,320.454 C368.016,320.862002 368.055,321.248998 368.109,321.615 C368.163,321.981002 368.238,322.289999 368.334,322.542 C368.490001,322.962002 368.735998,323.309999 369.072,323.586 C369.408002,323.862001 369.791998,324 370.224,324 C370.656002,324 371.039998,323.862001 371.376,323.586 C371.712002,323.309999 371.957999,322.962002 372.114,322.542 C372.21,322.289999 372.285,321.981002 372.339,321.615 C372.393,321.248998 372.432,320.862002 372.456,320.454 C372.48,320.045998 372.495,319.626002 372.501,319.194 C372.507,318.761998 372.51,318.354002 372.51,317.97 Z M383.004,318.258 C383.004,319.050004 382.950001,319.841996 382.842,320.634 C382.733999,321.426004 382.470002,322.163997 382.05,322.848 C381.749999,323.340002 381.348003,323.720999 380.844,323.991 C380.339997,324.261001 379.800003,324.396 379.224,324.396 C378.647997,324.396 378.108003,324.261001 377.604,323.991 C377.099997,323.720999 376.698002,323.340002 376.398,322.848 C375.977998,322.163997 375.714001,321.426004 375.606,320.634 C375.497999,319.841996 375.444,319.050004 375.444,318.258 C375.444,317.441996 375.497999,316.632004 375.606,315.828 C375.714001,315.023996 375.977998,314.274003 376.398,313.578 C376.698002,313.073997 377.099997,312.684001 377.604,312.408 C378.108003,312.131999 378.647997,311.994 379.224,311.994 C379.800003,311.994 380.339997,312.131999 380.844,312.408 C381.348003,312.684001 381.749999,313.073997 382.05,313.578 C382.470002,314.274003 382.733999,315.023996 382.842,315.828 C382.950001,316.632004 383.004,317.441996 383.004,318.258 Z M381.51,317.97 C381.51,317.609998 381.507,317.235002 381.501,316.845 C381.495,316.454998 381.48,316.071002 381.456,315.693 C381.432,315.314998 381.393,314.958002 381.339,314.622 C381.285,314.285998 381.21,313.998001 381.114,313.758 C380.945999,313.373998 380.694002,313.053001 380.358,312.795 C380.021998,312.536999 379.644002,312.408 379.224,312.408 C378.803998,312.408 378.426002,312.536999 378.09,312.795 C377.753998,313.053001 377.502001,313.373998 377.334,313.758 C377.238,313.998001 377.163,314.285998 377.109,314.622 C377.055,314.958002 377.016,315.314998 376.992,315.693 C376.968,316.071002 376.953,316.454998 376.947,316.845 C376.941,317.235002 376.938,317.609998 376.938,317.97 C376.938,318.354002 376.941,318.761998 376.947,319.194 C376.953,319.626002 376.968,320.045998 376.992,320.454 C377.016,320.862002 377.055,321.248998 377.109,321.615 C377.163,321.981002 377.238,322.289999 377.334,322.542 C377.490001,322.962002 377.735998,323.309999 378.072,323.586 C378.408002,323.862001 378.791998,324 379.224,324 C379.656002,324 380.039998,323.862001 380.376,323.586 C380.712002,323.309999 380.957999,322.962002 381.114,322.542 C381.21,322.289999 381.285,321.981002 381.339,321.615 C381.393,321.248998 381.432,320.862002 381.456,320.454 C381.48,320.045998 381.495,319.626002 381.501,319.194 C381.507,318.761998 381.51,318.354002 381.51,317.97 Z M353.97,341.662 C353.97,342.310003 353.847001,342.921997 353.601,343.498 C353.354999,344.074003 353.022002,344.574998 352.602,345.001 C352.181998,345.427002 351.687003,345.765999 351.117,346.018 C350.546997,346.270001 349.938003,346.396 349.29,346.396 C348.449996,346.396 347.646004,346.231002 346.878,345.901 C346.109996,345.570998 345.432003,345.100003 344.844,344.488 C344.243997,343.851997 343.788002,343.135004 343.476,342.337 C343.163998,341.538996 343.008,340.708004 343.008,339.844 C343.008,338.979996 343.163998,338.149004 343.476,337.351 C343.788002,336.552996 344.243997,335.842003 344.844,335.218 C345.432003,334.605997 346.109996,334.132002 346.878,333.796 C347.646004,333.459998 348.449996,333.292 349.29,333.292 C349.962003,333.292 350.573997,333.432999 351.126,333.715 C351.678003,333.997001 352.157998,334.377998 352.566,334.858 L353.592,333.382 C353.616,333.322 353.664,333.292 353.736,333.292 L353.79,333.292 C353.910001,333.292 353.97,333.351999 353.97,333.472 L353.97,338.278 C353.97,338.398001 353.910001,338.458 353.79,338.458 L353.592,338.458 C353.496,338.458 353.436,338.404001 353.412,338.296 C353.388,337.695997 353.271001,337.126003 353.061,336.586 C352.850999,336.045997 352.569002,335.575002 352.215,335.173 C351.860998,334.770998 351.450002,334.450001 350.982,334.21 C350.513998,333.969999 350.010003,333.85 349.47,333.85 C348.785997,333.85 348.147003,333.999999 347.553,334.3 C346.958997,334.600001 346.452002,335.019997 346.032,335.56 C345.575998,336.160003 345.264001,336.828996 345.096,337.567 C344.927999,338.305004 344.844,339.063996 344.844,339.844 C344.844,340.624004 344.927999,341.382996 345.096,342.121 C345.264001,342.859004 345.575998,343.527997 346.032,344.128 C346.452002,344.668003 346.961997,345.090998 347.562,345.397 C348.162003,345.703002 348.803997,345.856 349.488,345.856 C350.052003,345.856 350.579998,345.745001 351.072,345.523 C351.564002,345.300999 351.989998,344.998002 352.35,344.614 C352.710002,344.229998 352.994999,343.786003 353.205,343.282 C353.415001,342.777997 353.52,342.238003 353.52,341.662 C353.52,341.541999 353.573999,341.482 353.682,341.482 L353.79,341.482 C353.910001,341.482 353.97,341.541999 353.97,341.662 Z M358.434,339.196 C358.434,339.460001 358.341001,339.684999 358.155,339.871 C357.968999,340.057001 357.744001,340.15 357.48,340.15 C357.215999,340.15 356.991001,340.057001 356.805,339.871 C356.618999,339.684999 356.526,339.460001 356.526,339.196 C356.526,338.931999 356.618999,338.707001 356.805,338.521 C356.991001,338.334999 357.215999,338.242 357.48,338.242 C357.744001,338.242 357.968999,338.334999 358.155,338.521 C358.341001,338.707001 358.434,338.931999 358.434,339.196 Z M358.434,345.046 C358.434,345.310001 358.341001,345.534999 358.155,345.721 C357.968999,345.907001 357.744001,346 357.48,346 C357.215999,346 356.991001,345.907001 356.805,345.721 C356.618999,345.534999 356.526,345.310001 356.526,345.046 C356.526,344.781999 356.618999,344.557001 356.805,344.371 C356.991001,344.184999 357.215999,344.092 357.48,344.092 C357.744001,344.092 357.968999,344.184999 358.155,344.371 C358.341001,344.557001 358.434,344.781999 358.434,345.046 Z M373.536,346 C371.59199,345.928 369.64801,345.928 367.704,346 L367.704,345.442 L368.208,345.442 C368.388001,345.442 368.561999,345.439 368.73,345.433 C368.898001,345.427 369.056999,345.415 369.207,345.397 C369.357001,345.379 369.48,345.358 369.576,345.334 C369.696001,345.31 369.789,345.247001 369.855,345.145 C369.921,345.042999 369.954,344.926001 369.954,344.794 L369.954,335.236 C369.605998,335.404001 369.231002,335.524 368.829,335.596 C368.426998,335.668 368.016002,335.704 367.596,335.704 L367.596,335.164 C368.208003,335.164 368.801997,335.080001 369.378,334.912 C369.954003,334.743999 370.451998,334.438002 370.872,333.994 L371.088,333.994 C371.220001,333.994 371.286,334.059999 371.286,334.192 L371.286,344.794 C371.286,344.926001 371.319,345.042999 371.385,345.145 C371.451,345.247001 371.543999,345.31 371.664,345.334 C371.76,345.358 371.879999,345.379 372.024,345.397 C372.168001,345.415 372.326999,345.427 372.501,345.433 C372.675001,345.439 372.851999,345.442 373.032,345.442 L373.536,345.442 L373.536,346 Z M382.536,346 C380.59199,345.928 378.64801,345.928 376.704,346 L376.704,345.442 L377.208,345.442 C377.388001,345.442 377.561999,345.439 377.73,345.433 C377.898001,345.427 378.056999,345.415 378.207,345.397 C378.357001,345.379 378.48,345.358 378.576,345.334 C378.696001,345.31 378.789,345.247001 378.855,345.145 C378.921,345.042999 378.954,344.926001 378.954,344.794 L378.954,335.236 C378.605998,335.404001 378.231002,335.524 377.829,335.596 C377.426998,335.668 377.016002,335.704 376.596,335.704 L376.596,335.164 C377.208003,335.164 377.801997,335.080001 378.378,334.912 C378.954003,334.743999 379.451998,334.438002 379.872,333.994 L380.088,333.994 C380.220001,333.994 380.286,334.059999 380.286,334.192 L380.286,344.794 C380.286,344.926001 380.319,345.042999 380.385,345.145 C380.451,345.247001 380.543999,345.31 380.664,345.334 C380.76,345.358 380.879999,345.379 381.024,345.397 C381.168001,345.415 381.326999,345.427 381.501,345.433 C381.675001,345.439 381.851999,345.442 382.032,345.442 L382.536,345.442 L382.536,346 Z M354.708,361.97 C354.708,362.762004 354.576001,363.523996 354.312,364.256 C354.047999,364.988004 353.646003,365.647997 353.106,366.236 C352.601997,366.788003 352.017003,367.219998 351.351,367.532 C350.684997,367.844002 349.980004,368 349.236,368 L342.63,368 L342.63,367.442 C342.894001,367.442 343.175998,367.439 343.476,367.433 C343.776002,367.427 344.003999,367.394 344.16,367.334 C344.268001,367.298 344.349,367.229001 344.403,367.127 C344.457,367.024999 344.484,366.914001 344.484,366.794 L344.484,356.894 C344.484,356.773999 344.457,356.663001 344.403,356.561 C344.349,356.458999 344.268001,356.39 344.16,356.354 C344.003999,356.294 343.776002,356.261 343.476,356.255 C343.175998,356.249 342.894001,356.246 342.63,356.246 L342.63,355.706 L349.236,355.706 C349.992004,355.706 350.699997,355.867998 351.36,356.192 C352.020003,356.516002 352.601997,356.965997 353.106,357.542 C353.646003,358.154003 354.047999,358.840996 354.312,359.603 C354.576001,360.365004 354.708,361.153996 354.708,361.97 Z M352.908,361.97 C352.908,361.249996 352.851001,360.533004 352.737,359.819 C352.622999,359.104996 352.356002,358.454003 351.936,357.866 C351.563998,357.349997 351.102003,356.951001 350.55,356.669 C349.997997,356.386999 349.404003,356.246 348.768,356.246 L346.95,356.246 C346.817999,356.246 346.677001,356.249 346.527,356.255 C346.376999,356.261 346.26,356.294 346.176,356.354 C346.104,356.414 346.062,356.494999 346.05,356.597 C346.038,356.699001 346.032,356.798 346.032,356.894 L346.032,366.794 C346.032,366.902001 346.038,367.004 346.05,367.1 C346.062,367.196 346.104,367.274 346.176,367.334 C346.26,367.394 346.376999,367.427 346.527,367.433 C346.677001,367.439 346.817999,367.442 346.95,367.442 L348.768,367.442 C349.392003,367.442 349.979997,367.313001 350.532,367.055 C351.084003,366.796999 351.551998,366.416003 351.936,365.912 C352.356002,365.347997 352.622999,364.724003 352.737,364.04 C352.851001,363.355997 352.908,362.666003 352.908,361.97 Z M359.19,361.196 C359.19,361.460001 359.097001,361.684999 358.911,361.871 C358.724999,362.057001 358.500001,362.15 358.236,362.15 C357.971999,362.15 357.747001,362.057001 357.561,361.871 C357.374999,361.684999 357.282,361.460001 357.282,361.196 C357.282,360.931999 357.374999,360.707001 357.561,360.521 C357.747001,360.334999 357.971999,360.242 358.236,360.242 C358.500001,360.242 358.724999,360.334999 358.911,360.521 C359.097001,360.707001 359.19,360.931999 359.19,361.196 Z M359.19,367.046 C359.19,367.310001 359.097001,367.534999 358.911,367.721 C358.724999,367.907001 358.500001,368 358.236,368 C357.971999,368 357.747001,367.907001 357.561,367.721 C357.374999,367.534999 357.282,367.310001 357.282,367.046 C357.282,366.781999 357.374999,366.557001 357.561,366.371 C357.747001,366.184999 357.971999,366.092 358.236,366.092 C358.500001,366.092 358.724999,366.184999 358.911,366.371 C359.097001,366.557001 359.19,366.781999 359.19,367.046 Z M374.292,368 C372.34799,367.928 370.40401,367.928 368.46,368 L368.46,367.442 L368.964,367.442 C369.144001,367.442 369.317999,367.439 369.486,367.433 C369.654001,367.427 369.812999,367.415 369.963,367.397 C370.113001,367.379 370.236,367.358 370.332,367.334 C370.452001,367.31 370.545,367.247001 370.611,367.145 C370.677,367.042999 370.71,366.926001 370.71,366.794 L370.71,357.236 C370.361998,357.404001 369.987002,357.524 369.585,357.596 C369.182998,357.668 368.772002,357.704 368.352,357.704 L368.352,357.164 C368.964003,357.164 369.557997,357.080001 370.134,356.912 C370.710003,356.743999 371.207998,356.438002 371.628,355.994 L371.844,355.994 C371.976001,355.994 372.042,356.059999 372.042,356.192 L372.042,366.794 C372.042,366.926001 372.075,367.042999 372.141,367.145 C372.207,367.247001 372.299999,367.31 372.42,367.334 C372.516,367.358 372.635999,367.379 372.78,367.397 C372.924001,367.415 373.082999,367.427 373.257,367.433 C373.431001,367.439 373.607999,367.442 373.788,367.442 L374.292,367.442 L374.292,368 Z M384.012,362.258 C384.012,363.050004 383.958001,363.841996 383.85,364.634 C383.741999,365.426004 383.478002,366.163997 383.058,366.848 C382.757998,367.340002 382.356003,367.720999 381.852,367.991 C381.347997,368.261001 380.808003,368.396 380.232,368.396 C379.655997,368.396 379.116003,368.261001 378.612,367.991 C378.107997,367.720999 377.706002,367.340002 377.406,366.848 C376.985998,366.163997 376.722001,365.426004 376.614,364.634 C376.505999,363.841996 376.452,363.050004 376.452,362.258 C376.452,361.441996 376.505999,360.632004 376.614,359.828 C376.722001,359.023996 376.985998,358.274003 377.406,357.578 C377.706002,357.073997 378.107997,356.684001 378.612,356.408 C379.116003,356.131999 379.655997,355.994 380.232,355.994 C380.808003,355.994 381.347997,356.131999 381.852,356.408 C382.356003,356.684001 382.757998,357.073997 383.058,357.578 C383.478002,358.274003 383.741999,359.023996 383.85,359.828 C383.958001,360.632004 384.012,361.441996 384.012,362.258 Z M382.518,361.97 C382.518,361.609998 382.515,361.235002 382.509,360.845 C382.503,360.454998 382.488,360.071002 382.464,359.693 C382.44,359.314998 382.401,358.958002 382.347,358.622 C382.293,358.285998 382.218,357.998001 382.122,357.758 C381.953999,357.373998 381.702002,357.053001 381.366,356.795 C381.029998,356.536999 380.652002,356.408 380.232,356.408 C379.811998,356.408 379.434002,356.536999 379.098,356.795 C378.761998,357.053001 378.510001,357.373998 378.342,357.758 C378.246,357.998001 378.171,358.285998 378.117,358.622 C378.063,358.958002 378.024,359.314998 378,359.693 C377.976,360.071002 377.961,360.454998 377.955,360.845 C377.949,361.235002 377.946,361.609998 377.946,361.97 C377.946,362.354002 377.949,362.761998 377.955,363.194 C377.961,363.626002 377.976,364.045998 378,364.454 C378.024,364.862002 378.063,365.248998 378.117,365.615 C378.171,365.981002 378.246,366.289999 378.342,366.542 C378.498001,366.962002 378.743998,367.309999 379.08,367.586 C379.416002,367.862001 379.799998,368 380.232,368 C380.664002,368 381.047998,367.862001 381.384,367.586 C381.720002,367.309999 381.965999,366.962002 382.122,366.542 C382.218,366.289999 382.293,365.981002 382.347,365.615 C382.401,365.248998 382.44,364.862002 382.464,364.454 C382.488,364.045998 382.503,363.626002 382.509,363.194 C382.515,362.761998 382.518,362.354002 382.518,361.97 Z M393.012,362.258 C393.012,363.050004 392.958001,363.841996 392.85,364.634 C392.741999,365.426004 392.478002,366.163997 392.058,366.848 C391.757998,367.340002 391.356003,367.720999 390.852,367.991 C390.347997,368.261001 389.808003,368.396 389.232,368.396 C388.655997,368.396 388.116003,368.261001 387.612,367.991 C387.107997,367.720999 386.706002,367.340002 386.406,366.848 C385.985998,366.163997 385.722001,365.426004 385.614,364.634 C385.505999,363.841996 385.452,363.050004 385.452,362.258 C385.452,361.441996 385.505999,360.632004 385.614,359.828 C385.722001,359.023996 385.985998,358.274003 386.406,357.578 C386.706002,357.073997 387.107997,356.684001 387.612,356.408 C388.116003,356.131999 388.655997,355.994 389.232,355.994 C389.808003,355.994 390.347997,356.131999 390.852,356.408 C391.356003,356.684001 391.757998,357.073997 392.058,357.578 C392.478002,358.274003 392.741999,359.023996 392.85,359.828 C392.958001,360.632004 393.012,361.441996 393.012,362.258 Z M391.518,361.97 C391.518,361.609998 391.515,361.235002 391.509,360.845 C391.503,360.454998 391.488,360.071002 391.464,359.693 C391.44,359.314998 391.401,358.958002 391.347,358.622 C391.293,358.285998 391.218,357.998001 391.122,357.758 C390.953999,357.373998 390.702002,357.053001 390.366,356.795 C390.029998,356.536999 389.652002,356.408 389.232,356.408 C388.811998,356.408 388.434002,356.536999 388.098,356.795 C387.761998,357.053001 387.510001,357.373998 387.342,357.758 C387.246,357.998001 387.171,358.285998 387.117,358.622 C387.063,358.958002 387.024,359.314998 387,359.693 C386.976,360.071002 386.961,360.454998 386.955,360.845 C386.949,361.235002 386.946,361.609998 386.946,361.97 C386.946,362.354002 386.949,362.761998 386.955,363.194 C386.961,363.626002 386.976,364.045998 387,364.454 C387.024,364.862002 387.063,365.248998 387.117,365.615 C387.171,365.981002 387.246,366.289999 387.342,366.542 C387.498001,366.962002 387.743998,367.309999 388.08,367.586 C388.416002,367.862001 388.799998,368 389.232,368 C389.664002,368 390.047998,367.862001 390.384,367.586 C390.720002,367.309999 390.965999,366.962002 391.122,366.542 C391.218,366.289999 391.293,365.981002 391.347,365.615 C391.401,365.248998 391.44,364.862002 391.464,364.454 C391.488,364.045998 391.503,363.626002 391.509,363.194 C391.515,362.761998 391.518,362.354002 391.518,361.97 Z M353.718,385.374 L352.962,390 L342.594,390 L342.594,389.442 C342.858001,389.442 343.142998,389.439 343.449,389.433 C343.755002,389.427 343.985999,389.394 344.142,389.334 C344.250001,389.298 344.328,389.229001 344.376,389.127 C344.424,389.024999 344.448,388.914001 344.448,388.794 L344.448,378.948 C344.448,378.827999 344.424,378.717001 344.376,378.615 C344.328,378.512999 344.250001,378.444 344.142,378.408 C343.985999,378.348 343.755002,378.315 343.449,378.309 C343.142998,378.303 342.858001,378.3 342.594,378.3 L342.594,377.742 L352.71,377.742 L353.214,381.792 L352.764,381.792 C352.728,381.539999 352.692,381.279001 352.656,381.009 C352.62,380.738999 352.566,380.478001 352.494,380.226 C352.422,379.973999 352.326001,379.740001 352.206,379.524 C352.085999,379.307999 351.936001,379.116001 351.756,378.948 C351.575999,378.791999 351.369001,378.669 351.135,378.579 C350.900999,378.489 350.655001,378.423 350.397,378.381 C350.138999,378.339 349.872001,378.315 349.596,378.309 C349.319999,378.303 349.050001,378.3 348.786,378.3 L346.968,378.3 C346.835999,378.3 346.695001,378.303 346.545,378.309 C346.394999,378.315 346.284,378.348 346.212,378.408 C346.128,378.468 346.08,378.548999 346.068,378.651 C346.056,378.753001 346.05,378.852 346.05,378.948 L346.05,383.358 L347.418,383.358 C347.730002,383.358 348.053998,383.343 348.39,383.313 C348.726002,383.283 348.995999,383.172001 349.2,382.98 C349.404001,382.775999 349.521,382.518002 349.551,382.206 C349.581,381.893998 349.596,381.582002 349.596,381.27 L350.046,381.27 L350.046,386.004 L349.596,386.004 C349.596,385.691998 349.581,385.380002 349.551,385.068 C349.521,384.755998 349.404001,384.498001 349.2,384.294 C348.995999,384.101999 348.726002,383.991 348.39,383.961 C348.053998,383.931 347.730002,383.916 347.418,383.916 L346.05,383.916 L346.05,388.794 C346.05,388.902001 346.056,389.004 346.068,389.1 C346.08,389.196 346.128,389.274 346.212,389.334 C346.284,389.394 346.394999,389.427 346.545,389.433 C346.695001,389.439 346.835999,389.442 346.968,389.442 L348.93,389.442 C349.206001,389.442 349.484999,389.439 349.767,389.433 C350.049001,389.427 350.324999,389.4 350.595,389.352 C350.865001,389.304 351.122999,389.229001 351.369,389.127 C351.615001,389.024999 351.839999,388.884001 352.044,388.704 C352.236001,388.535999 352.400999,388.323001 352.539,388.065 C352.677001,387.806999 352.791,387.531001 352.881,387.237 C352.971,386.942999 353.046,386.634002 353.106,386.31 C353.166,385.985998 353.22,385.674002 353.268,385.374 L353.718,385.374 Z M357.678,383.196 C357.678,383.460001 357.585001,383.684999 357.399,383.871 C357.212999,384.057001 356.988001,384.15 356.724,384.15 C356.459999,384.15 356.235001,384.057001 356.049,383.871 C355.862999,383.684999 355.77,383.460001 355.77,383.196 C355.77,382.931999 355.862999,382.707001 356.049,382.521 C356.235001,382.334999 356.459999,382.242 356.724,382.242 C356.988001,382.242 357.212999,382.334999 357.399,382.521 C357.585001,382.707001 357.678,382.931999 357.678,383.196 Z M357.678,389.046 C357.678,389.310001 357.585001,389.534999 357.399,389.721 C357.212999,389.907001 356.988001,390 356.724,390 C356.459999,390 356.235001,389.907001 356.049,389.721 C355.862999,389.534999 355.77,389.310001 355.77,389.046 C355.77,388.781999 355.862999,388.557001 356.049,388.371 C356.235001,388.184999 356.459999,388.092 356.724,388.092 C356.988001,388.092 357.212999,388.184999 357.399,388.371 C357.585001,388.557001 357.678,388.781999 357.678,389.046 Z M372.78,390 C370.83599,389.928 368.89201,389.928 366.948,390 L366.948,389.442 L367.452,389.442 C367.632001,389.442 367.805999,389.439 367.974,389.433 C368.142001,389.427 368.300999,389.415 368.451,389.397 C368.601001,389.379 368.724,389.358 368.82,389.334 C368.940001,389.31 369.033,389.247001 369.099,389.145 C369.165,389.042999 369.198,388.926001 369.198,388.794 L369.198,379.236 C368.849998,379.404001 368.475002,379.524 368.073,379.596 C367.670998,379.668 367.260002,379.704 366.84,379.704 L366.84,379.164 C367.452003,379.164 368.045997,379.080001 368.622,378.912 C369.198003,378.743999 369.695998,378.438002 370.116,377.994 L370.332,377.994 C370.464001,377.994 370.53,378.059999 370.53,378.192 L370.53,388.794 C370.53,388.926001 370.563,389.042999 370.629,389.145 C370.695,389.247001 370.787999,389.31 370.908,389.334 C371.004,389.358 371.123999,389.379 371.268,389.397 C371.412001,389.415 371.570999,389.427 371.745,389.433 C371.919001,389.439 372.095999,389.442 372.276,389.442 L372.78,389.442 L372.78,390 Z M382.5,384.258 C382.5,385.050004 382.446001,385.841996 382.338,386.634 C382.229999,387.426004 381.966002,388.163997 381.546,388.848 C381.245998,389.340002 380.844003,389.720999 380.34,389.991 C379.835997,390.261001 379.296003,390.396 378.72,390.396 C378.143997,390.396 377.604003,390.261001 377.1,389.991 C376.595997,389.720999 376.194002,389.340002 375.894,388.848 C375.473998,388.163997 375.210001,387.426004 375.102,386.634 C374.993999,385.841996 374.94,385.050004 374.94,384.258 C374.94,383.441996 374.993999,382.632004 375.102,381.828 C375.210001,381.023996 375.473998,380.274003 375.894,379.578 C376.194002,379.073997 376.595997,378.684001 377.1,378.408 C377.604003,378.131999 378.143997,377.994 378.72,377.994 C379.296003,377.994 379.835997,378.131999 380.34,378.408 C380.844003,378.684001 381.245998,379.073997 381.546,379.578 C381.966002,380.274003 382.229999,381.023996 382.338,381.828 C382.446001,382.632004 382.5,383.441996 382.5,384.258 Z M381.006,383.97 C381.006,383.609998 381.003,383.235002 380.997,382.845 C380.991,382.454998 380.976,382.071002 380.952,381.693 C380.928,381.314998 380.889,380.958002 380.835,380.622 C380.781,380.285998 380.706,379.998001 380.61,379.758 C380.441999,379.373998 380.190002,379.053001 379.854,378.795 C379.517998,378.536999 379.140002,378.408 378.72,378.408 C378.299998,378.408 377.922002,378.536999 377.586,378.795 C377.249998,379.053001 376.998001,379.373998 376.83,379.758 C376.734,379.998001 376.659,380.285998 376.605,380.622 C376.551,380.958002 376.512,381.314998 376.488,381.693 C376.464,382.071002 376.449,382.454998 376.443,382.845 C376.437,383.235002 376.434,383.609998 376.434,383.97 C376.434,384.354002 376.437,384.761998 376.443,385.194 C376.449,385.626002 376.464,386.045998 376.488,386.454 C376.512,386.862002 376.551,387.248998 376.605,387.615 C376.659,387.981002 376.734,388.289999 376.83,388.542 C376.986001,388.962002 377.231998,389.309999 377.568,389.586 C377.904002,389.862001 378.287998,390 378.72,390 C379.152002,390 379.535998,389.862001 379.872,389.586 C380.208002,389.309999 380.453999,388.962002 380.61,388.542 C380.706,388.289999 380.781,387.981002 380.835,387.615 C380.889,387.248998 380.928,386.862002 380.952,386.454 C380.976,386.045998 380.991,385.626002 380.997,385.194 C381.003,384.761998 381.006,384.354002 381.006,383.97 Z M390.78,390 C388.83599,389.928 386.89201,389.928 384.948,390 L384.948,389.442 L385.452,389.442 C385.632001,389.442 385.805999,389.439 385.974,389.433 C386.142001,389.427 386.300999,389.415 386.451,389.397 C386.601001,389.379 386.724,389.358 386.82,389.334 C386.940001,389.31 387.033,389.247001 387.099,389.145 C387.165,389.042999 387.198,388.926001 387.198,388.794 L387.198,379.236 C386.849998,379.404001 386.475002,379.524 386.073,379.596 C385.670998,379.668 385.260002,379.704 384.84,379.704 L384.84,379.164 C385.452003,379.164 386.045997,379.080001 386.622,378.912 C387.198003,378.743999 387.695998,378.438002 388.116,377.994 L388.332,377.994 C388.464001,377.994 388.53,378.059999 388.53,378.192 L388.53,388.794 C388.53,388.926001 388.563,389.042999 388.629,389.145 C388.695,389.247001 388.787999,389.31 388.908,389.334 C389.004,389.358 389.123999,389.379 389.268,389.397 C389.412001,389.415 389.570999,389.427 389.745,389.433 C389.919001,389.439 390.095999,389.442 390.276,389.442 L390.78,389.442 L390.78,390 Z M399.78,390 C397.83599,389.928 395.89201,389.928 393.948,390 L393.948,389.442 L394.452,389.442 C394.632001,389.442 394.805999,389.439 394.974,389.433 C395.142001,389.427 395.300999,389.415 395.451,389.397 C395.601001,389.379 395.724,389.358 395.82,389.334 C395.940001,389.31 396.033,389.247001 396.099,389.145 C396.165,389.042999 396.198,388.926001 396.198,388.794 L396.198,379.236 C395.849998,379.404001 395.475002,379.524 395.073,379.596 C394.670998,379.668 394.260002,379.704 393.84,379.704 L393.84,379.164 C394.452003,379.164 395.045997,379.080001 395.622,378.912 C396.198003,378.743999 396.695998,378.438002 397.116,377.994 L397.332,377.994 C397.464001,377.994 397.53,378.059999 397.53,378.192 L397.53,388.794 C397.53,388.926001 397.563,389.042999 397.629,389.145 C397.695,389.247001 397.787999,389.31 397.908,389.334 C398.004,389.358 398.123999,389.379 398.268,389.397 C398.412001,389.415 398.570999,389.427 398.745,389.433 C398.919001,389.439 399.095999,389.442 399.276,389.442 L399.78,389.442 L399.78,390 Z M352.962,403.792 L352.512,403.792 C352.476,403.539999 352.44,403.276001 352.404,403 C352.368,402.723999 352.314,402.460001 352.242,402.208 C352.17,401.955999 352.080001,401.722001 351.972,401.506 C351.863999,401.289999 351.720001,401.104001 351.54,400.948 C351.359999,400.791999 351.156001,400.669 350.928,400.579 C350.699999,400.489 350.460001,400.423 350.208,400.381 C349.955999,400.339 349.698001,400.315 349.434,400.309 C349.169999,400.303 348.912001,400.3 348.66,400.3 L346.968,400.3 C346.835999,400.3 346.695001,400.303 346.545,400.309 C346.394999,400.315 346.284,400.348 346.212,400.408 C346.128,400.468 346.08,400.548999 346.068,400.651 C346.056,400.753001 346.05,400.852 346.05,400.948 L346.05,405.592 L347.364,405.592 C347.676002,405.592 347.993998,405.577 348.318,405.547 C348.642002,405.517 348.899999,405.406001 349.092,405.214 C349.296001,405.021999 349.413,404.767002 349.443,404.449 C349.473,404.130998 349.488,403.816002 349.488,403.504 L349.938,403.504 L349.938,408.256 L349.488,408.256 C349.488,407.943998 349.473,407.629002 349.443,407.311 C349.413,406.992998 349.296001,406.732001 349.092,406.528 C348.899999,406.335999 348.642002,406.225 348.318,406.195 C347.993998,406.165 347.676002,406.15 347.364,406.15 L346.05,406.15 L346.05,410.794 C346.05,410.926001 346.083,411.042999 346.149,411.145 C346.215,411.247001 346.307999,411.31 346.428,411.334 C346.524,411.358 346.649999,411.379 346.806,411.397 C346.962001,411.415 347.126999,411.427 347.301,411.433 C347.475001,411.439 347.651999,411.442 347.832,411.442 L348.354,411.442 L348.354,412 C347.393995,411.976 346.437005,411.961 345.483,411.955 C344.528995,411.949 343.566005,411.964 342.594,412 L342.594,411.442 C342.858001,411.442 343.142998,411.439 343.449,411.433 C343.755002,411.427 343.985999,411.394 344.142,411.334 C344.250001,411.298 344.328,411.229001 344.376,411.127 C344.424,411.024999 344.448,410.914001 344.448,410.794 L344.448,400.948 C344.448,400.827999 344.424,400.717001 344.376,400.615 C344.328,400.512999 344.250001,400.444 344.142,400.408 C343.985999,400.348 343.755002,400.315 343.449,400.309 C343.142998,400.303 342.858001,400.3 342.594,400.3 L342.594,399.742 L352.458,399.742 L352.962,403.792 Z M357.192,405.196 C357.192,405.460001 357.099001,405.684999 356.913,405.871 C356.726999,406.057001 356.502001,406.15 356.238,406.15 C355.973999,406.15 355.749001,406.057001 355.563,405.871 C355.376999,405.684999 355.284,405.460001 355.284,405.196 C355.284,404.931999 355.376999,404.707001 355.563,404.521 C355.749001,404.334999 355.973999,404.242 356.238,404.242 C356.502001,404.242 356.726999,404.334999 356.913,404.521 C357.099001,404.707001 357.192,404.931999 357.192,405.196 Z M357.192,411.046 C357.192,411.310001 357.099001,411.534999 356.913,411.721 C356.726999,411.907001 356.502001,412 356.238,412 C355.973999,412 355.749001,411.907001 355.563,411.721 C355.376999,411.534999 355.284,411.310001 355.284,411.046 C355.284,410.781999 355.376999,410.557001 355.563,410.371 C355.749001,410.184999 355.973999,410.092 356.238,410.092 C356.502001,410.092 356.726999,410.184999 356.913,410.371 C357.099001,410.557001 357.192,410.781999 357.192,411.046 Z M372.294,412 C370.34999,411.928 368.40601,411.928 366.462,412 L366.462,411.442 L366.966,411.442 C367.146001,411.442 367.319999,411.439 367.488,411.433 C367.656001,411.427 367.814999,411.415 367.965,411.397 C368.115001,411.379 368.238,411.358 368.334,411.334 C368.454001,411.31 368.547,411.247001 368.613,411.145 C368.679,411.042999 368.712,410.926001 368.712,410.794 L368.712,401.236 C368.363998,401.404001 367.989002,401.524 367.587,401.596 C367.184998,401.668 366.774002,401.704 366.354,401.704 L366.354,401.164 C366.966003,401.164 367.559997,401.080001 368.136,400.912 C368.712003,400.743999 369.209998,400.438002 369.63,399.994 L369.846,399.994 C369.978001,399.994 370.044,400.059999 370.044,400.192 L370.044,410.794 C370.044,410.926001 370.077,411.042999 370.143,411.145 C370.209,411.247001 370.301999,411.31 370.422,411.334 C370.518,411.358 370.637999,411.379 370.782,411.397 C370.926001,411.415 371.084999,411.427 371.259,411.433 C371.433001,411.439 371.609999,411.442 371.79,411.442 L372.294,411.442 L372.294,412 Z M382.014,406.258 C382.014,407.050004 381.960001,407.841996 381.852,408.634 C381.743999,409.426004 381.480002,410.163997 381.06,410.848 C380.759998,411.340002 380.358003,411.720999 379.854,411.991 C379.349997,412.261001 378.810003,412.396 378.234,412.396 C377.657997,412.396 377.118003,412.261001 376.614,411.991 C376.109997,411.720999 375.708002,411.340002 375.408,410.848 C374.987998,410.163997 374.724001,409.426004 374.616,408.634 C374.507999,407.841996 374.454,407.050004 374.454,406.258 C374.454,405.441996 374.507999,404.632004 374.616,403.828 C374.724001,403.023996 374.987998,402.274003 375.408,401.578 C375.708002,401.073997 376.109997,400.684001 376.614,400.408 C377.118003,400.131999 377.657997,399.994 378.234,399.994 C378.810003,399.994 379.349997,400.131999 379.854,400.408 C380.358003,400.684001 380.759998,401.073997 381.06,401.578 C381.480002,402.274003 381.743999,403.023996 381.852,403.828 C381.960001,404.632004 382.014,405.441996 382.014,406.258 Z M380.52,405.97 C380.52,405.609998 380.517,405.235002 380.511,404.845 C380.505,404.454998 380.49,404.071002 380.466,403.693 C380.442,403.314998 380.403,402.958002 380.349,402.622 C380.295,402.285998 380.22,401.998001 380.124,401.758 C379.955999,401.373998 379.704002,401.053001 379.368,400.795 C379.031998,400.536999 378.654002,400.408 378.234,400.408 C377.813998,400.408 377.436002,400.536999 377.1,400.795 C376.763998,401.053001 376.512001,401.373998 376.344,401.758 C376.248,401.998001 376.173,402.285998 376.119,402.622 C376.065,402.958002 376.026,403.314998 376.002,403.693 C375.978,404.071002 375.963,404.454998 375.957,404.845 C375.951,405.235002 375.948,405.609998 375.948,405.97 C375.948,406.354002 375.951,406.761998 375.957,407.194 C375.963,407.626002 375.978,408.045998 376.002,408.454 C376.026,408.862002 376.065,409.248998 376.119,409.615 C376.173,409.981002 376.248,410.289999 376.344,410.542 C376.500001,410.962002 376.745998,411.309999 377.082,411.586 C377.418002,411.862001 377.801998,412 378.234,412 C378.666002,412 379.049998,411.862001 379.386,411.586 C379.722002,411.309999 379.967999,410.962002 380.124,410.542 C380.22,410.289999 380.295,409.981002 380.349,409.615 C380.403,409.248998 380.442,408.862002 380.466,408.454 C380.49,408.045998 380.505,407.626002 380.511,407.194 C380.517,406.761998 380.52,406.354002 380.52,405.97 Z M390.294,412 C388.34999,411.928 386.40601,411.928 384.462,412 L384.462,411.442 L384.966,411.442 C385.146001,411.442 385.319999,411.439 385.488,411.433 C385.656001,411.427 385.814999,411.415 385.965,411.397 C386.115001,411.379 386.238,411.358 386.334,411.334 C386.454001,411.31 386.547,411.247001 386.613,411.145 C386.679,411.042999 386.712,410.926001 386.712,410.794 L386.712,401.236 C386.363998,401.404001 385.989002,401.524 385.587,401.596 C385.184998,401.668 384.774002,401.704 384.354,401.704 L384.354,401.164 C384.966003,401.164 385.559997,401.080001 386.136,400.912 C386.712003,400.743999 387.209998,400.438002 387.63,399.994 L387.846,399.994 C387.978001,399.994 388.044,400.059999 388.044,400.192 L388.044,410.794 C388.044,410.926001 388.077,411.042999 388.143,411.145 C388.209,411.247001 388.301999,411.31 388.422,411.334 C388.518,411.358 388.637999,411.379 388.782,411.397 C388.926001,411.415 389.084999,411.427 389.259,411.433 C389.433001,411.439 389.609999,411.442 389.79,411.442 L390.294,411.442 L390.294,412 Z M400.014,406.258 C400.014,407.050004 399.960001,407.841996 399.852,408.634 C399.743999,409.426004 399.480002,410.163997 399.06,410.848 C398.759998,411.340002 398.358003,411.720999 397.854,411.991 C397.349997,412.261001 396.810003,412.396 396.234,412.396 C395.657997,412.396 395.118003,412.261001 394.614,411.991 C394.109997,411.720999 393.708002,411.340002 393.408,410.848 C392.987998,410.163997 392.724001,409.426004 392.616,408.634 C392.507999,407.841996 392.454,407.050004 392.454,406.258 C392.454,405.441996 392.507999,404.632004 392.616,403.828 C392.724001,403.023996 392.987998,402.274003 393.408,401.578 C393.708002,401.073997 394.109997,400.684001 394.614,400.408 C395.118003,400.131999 395.657997,399.994 396.234,399.994 C396.810003,399.994 397.349997,400.131999 397.854,400.408 C398.358003,400.684001 398.759998,401.073997 399.06,401.578 C399.480002,402.274003 399.743999,403.023996 399.852,403.828 C399.960001,404.632004 400.014,405.441996 400.014,406.258 Z M398.52,405.97 C398.52,405.609998 398.517,405.235002 398.511,404.845 C398.505,404.454998 398.49,404.071002 398.466,403.693 C398.442,403.314998 398.403,402.958002 398.349,402.622 C398.295,402.285998 398.22,401.998001 398.124,401.758 C397.955999,401.373998 397.704002,401.053001 397.368,400.795 C397.031998,400.536999 396.654002,400.408 396.234,400.408 C395.813998,400.408 395.436002,400.536999 395.1,400.795 C394.763998,401.053001 394.512001,401.373998 394.344,401.758 C394.248,401.998001 394.173,402.285998 394.119,402.622 C394.065,402.958002 394.026,403.314998 394.002,403.693 C393.978,404.071002 393.963,404.454998 393.957,404.845 C393.951,405.235002 393.948,405.609998 393.948,405.97 C393.948,406.354002 393.951,406.761998 393.957,407.194 C393.963,407.626002 393.978,408.045998 394.002,408.454 C394.026,408.862002 394.065,409.248998 394.119,409.615 C394.173,409.981002 394.248,410.289999 394.344,410.542 C394.500001,410.962002 394.745998,411.309999 395.082,411.586 C395.418002,411.862001 395.801998,412 396.234,412 C396.666002,412 397.049998,411.862001 397.386,411.586 C397.722002,411.309999 397.967999,410.962002 398.124,410.542 C398.22,410.289999 398.295,409.981002 398.349,409.615 C398.403,409.248998 398.442,408.862002 398.466,408.454 C398.49,408.045998 398.505,407.626002 398.511,407.194 C398.517,406.761998 398.52,406.354002 398.52,405.97 Z" id="A:-01-B:-00-C:-11-D:" fill="#000000"></path>
    </g>
</svg>