<?xml version="1.0" encoding="UTF-8"?>
<svg width="249px" height="373px" viewBox="0 0 249 373" version="1.1" xmlns="http://www.w3.org/2000/svg" xmlns:xlink="http://www.w3.org/1999/xlink">
    <!-- Generator: Sketch 48.2 (47327) - http://www.bohemiancoding.com/sketch -->
    <title>Group 3</title>
    <desc>Created with Sketch.</desc>
    <defs></defs>
    <g id="Artboard-3" stroke="none" stroke-width="1" fill="none" fill-rule="evenodd" transform="translate(-22.000000, -13.000000)">
        <g id="Group-3" transform="translate(18.000000, 9.000000)">
            <path d="M125.5,174.5 L189.5,163.5" id="Line-4" stroke="#000000" stroke-width="3"></path>
            <text id="Bias:-b" font-family="Euclid" font-size="20" font-weight="normal" fill="#000000">
                <tspan x="193.04" y="167">Bias: b</tspan>
            </text>
            <path d="M63.0025,19 C60.9624898,18.9199996 58.9291768,18.9199996 56.9025,19 L56.9025,18.38 C57.2091682,18.38 57.5391649,18.3766667 57.8925,18.37 C58.2458351,18.3633333 58.5158324,18.326667 58.7025,18.26 C58.8225006,18.2199998 58.9124997,18.1433339 58.9725,18.03 C59.0325003,17.9166661 59.0625,17.793334 59.0625,17.66 L59.0625,6.66 C59.0625,6.526666 59.0325003,6.4033339 58.9725,6.29 C58.9124997,6.1766661 58.8225006,6.1000002 58.7025,6.06 C58.5158324,5.993333 58.2458351,5.9566667 57.8925,5.95 C57.5391649,5.9433333 57.2091682,5.94 56.9025,5.94 L56.9025,5.34 C58.9291768,5.3933336 60.9624898,5.3933336 63.0025,5.34 L63.0025,5.94 C62.6958318,5.94 62.3658351,5.9433333 62.0125,5.95 C61.6591649,5.9566667 61.3891676,5.993333 61.2025,6.06 C61.0824994,6.1000002 60.9925003,6.1766661 60.9325,6.29 C60.8724997,6.4033339 60.8425,6.526666 60.8425,6.66 L60.8425,17.66 C60.8425,17.793334 60.8724997,17.9166661 60.9325,18.03 C60.9925003,18.1433339 61.0824994,18.2199998 61.2025,18.26 C61.3891676,18.326667 61.6591649,18.3633333 62.0125,18.37 C62.3658351,18.3766667 62.6958318,18.38 63.0025,18.38 L63.0025,19 Z M74.2425,19 C73.4824962,18.9599998 72.7291704,18.94 71.9825,18.94 C71.2224962,18.94 70.475837,18.9599998 69.7425,19 L69.7425,18.38 C69.9691678,18.38 70.2091654,18.3766667 70.4625,18.37 C70.7158346,18.3633333 70.909166,18.326667 71.0425,18.26 C71.1491672,18.2066664 71.2158332,18.1233339 71.2425,18.01 C71.2691668,17.8966661 71.2825,17.7800006 71.2825,17.66 L71.2825,12.9 C71.2825,12.566665 71.2658335,12.2500015 71.2325,11.95 C71.1991665,11.6499985 71.1025008,11.3733346 70.9425,11.12 C70.8358328,10.9466658 70.6858343,10.8200004 70.4925,10.74 C70.2991657,10.6599996 70.0958344,10.62 69.8825,10.62 C69.4958314,10.62 69.135835,10.7033325 68.8025,10.87 C68.469165,11.0366675 68.1825012,11.2599986 67.9425,11.54 C67.7024988,11.8200014 67.5125007,12.1466648 67.3725,12.52 C67.2324993,12.8933352 67.1625,13.2866646 67.1625,13.7 L67.1625,17.66 C67.1625,17.7800006 67.1791665,17.8966661 67.2125,18.01 C67.2458335,18.1233339 67.3158328,18.2066664 67.4225,18.26 C67.555834,18.326667 67.7491654,18.3633333 68.0025,18.37 C68.2558346,18.3766667 68.4958322,18.38 68.7225,18.38 L68.7225,19 C68.455832,18.9866666 68.1825014,18.9766667 67.9025,18.97 C67.6224986,18.9633333 67.349168,18.9533334 67.0825,18.94 L66.4625,18.94 C65.7024962,18.94 64.955837,18.9599998 64.2225,19 L64.2225,18.38 C64.4491678,18.38 64.6891654,18.3766667 64.9425,18.37 C65.1958346,18.3633333 65.389166,18.326667 65.5225,18.26 C65.6291672,18.2066664 65.6991665,18.1233339 65.7325,18.01 C65.7658335,17.8966661 65.7825,17.7800006 65.7825,17.66 L65.7825,12.12 C65.7825,11.9333324 65.7725001,11.7566675 65.7525,11.59 C65.7324999,11.4233325 65.655834,11.2866672 65.5225,11.18 C65.389166,11.0866662 65.1958346,11.0333334 64.9425,11.02 C64.6891654,11.0066666 64.4491678,11 64.2225,11 L64.2225,10.38 L65.8225,10.26 L67.0625,10.16 L67.0625,12.24 C67.3025012,11.639997 67.6691642,11.1433353 68.1625,10.75 C68.6558358,10.3566647 69.2424966,10.16 69.9225,10.16 C70.2825018,10.16 70.6491648,10.2033329 71.0225,10.29 C71.3958352,10.3766671 71.7224986,10.5599986 72.0025,10.84 C72.2825014,11.1200014 72.4658329,11.4433315 72.5525,11.81 C72.6391671,12.1766685 72.6825,12.5399982 72.6825,12.9 L72.6825,17.66 C72.6825,17.7800006 72.6991665,17.8966661 72.7325,18.01 C72.7658335,18.1233339 72.8358328,18.2066664 72.9425,18.26 C73.075834,18.326667 73.2691654,18.3633333 73.5225,18.37 C73.7758346,18.3766667 74.0158322,18.38 74.2425,18.38 L74.2425,19 Z M85.0825,14.7 C85.0825,15.300003 84.9691678,15.8766639 84.7425,16.43 C84.5158322,16.9833361 84.1891688,17.4733312 83.7625,17.9 C83.3491646,18.3266688 82.8691694,18.6533322 82.3225,18.88 C81.7758306,19.1066678 81.202503,19.22 80.6025,19.22 C80.0958308,19.22 79.6391687,19.1100011 79.2325,18.89 C78.8258313,18.6699989 78.4758348,18.3666686 78.1825,17.98 L78.1825,21.56 C78.1825,21.6800006 78.1991665,21.7966661 78.2325,21.91 C78.2658335,22.0233339 78.3358328,22.1066664 78.4425,22.16 C78.575834,22.226667 78.7691654,22.2633333 79.0225,22.27 C79.2758346,22.2766667 79.5158322,22.28 79.7425,22.28 L79.7425,22.88 C78.2358258,22.8266664 76.7358408,22.8266664 75.2425,22.88 L75.2425,22.28 C75.4691678,22.28 75.7091654,22.2766667 75.9625,22.27 C76.2158346,22.2633333 76.409166,22.226667 76.5425,22.16 C76.6491672,22.1066664 76.7191665,22.0233339 76.7525,21.91 C76.7858335,21.7966661 76.8025,21.6800006 76.8025,21.56 L76.8025,11.9 C76.8025,11.7533326 76.7891668,11.6100007 76.7625,11.47 C76.7358332,11.3299993 76.6625006,11.226667 76.5425,11.16 C76.409166,11.0799996 76.2158346,11.0333334 75.9625,11.02 C75.7091654,11.0066666 75.4691678,11 75.2425,11 L75.2425,10.38 L78.1225,10.16 L78.1225,11.48 C78.455835,11.079998 78.8591643,10.7600012 79.3325,10.52 C79.8058357,10.2799988 80.3224972,10.16 80.8825,10.16 C81.4558362,10.16 81.9991641,10.2766655 82.5125,10.51 C83.0258359,10.7433345 83.4758314,11.0733312 83.8625,11.5 C84.262502,11.9266688 84.5658323,12.4166639 84.7725,12.97 C84.9791677,13.5233361 85.0825,14.099997 85.0825,14.7 Z M83.4225,14.7 C83.4225,14.1799974 83.3591673,13.6766691 83.2325,13.19 C83.1058327,12.7033309 82.9025014,12.2466688 82.6225,11.82 C82.3958322,11.486665 82.1258349,11.2100011 81.8125,10.99 C81.4991651,10.7699989 81.1558352,10.66 80.7825,10.66 C80.2091638,10.66 79.6925023,10.8099985 79.2325,11.11 C78.7724977,11.4100015 78.4225012,11.7999976 78.1825,12.28 L78.1825,17.06 C78.4091678,17.5666692 78.7258313,17.9799984 79.1325,18.3 C79.5391687,18.6200016 80.009164,18.78 80.5425,18.78 C80.942502,18.78 81.3158316,18.6700011 81.6625,18.45 C82.0091684,18.2299989 82.3091654,17.9466684 82.5625,17.6 C82.8691682,17.1733312 83.089166,16.7133358 83.2225,16.22 C83.355834,15.7266642 83.4225,15.2200026 83.4225,14.7 Z M96.4425,19 L93.5425,19.22 L93.5425,17.44 C93.3158322,17.9466692 92.9958354,18.3699983 92.5825,18.71 C92.1691646,19.0500017 91.6758362,19.22 91.1025,19.22 C90.702498,19.22 90.2958354,19.1833337 89.8825,19.11 C89.4691646,19.0366663 89.095835,18.8600014 88.7625,18.58 C88.4558318,18.3266654 88.2491672,18.0200018 88.1425,17.66 C88.0358328,17.2999982 87.9825,16.9400018 87.9825,16.58 L87.9825,12.12 C87.9825,11.9333324 87.9725001,11.7566675 87.9525,11.59 C87.9324999,11.4233325 87.855834,11.2866672 87.7225,11.18 C87.589166,11.0866662 87.3958346,11.0333334 87.1425,11.02 C86.8891654,11.0066666 86.6491678,11 86.4225,11 L86.4225,10.38 L89.3625,10.16 L89.3625,16.58 C89.3625,16.9266684 89.3758332,17.2533318 89.4025,17.56 C89.4291668,17.8666682 89.5158326,18.1066658 89.6625,18.28 C89.8225008,18.480001 90.035832,18.613333 90.3025,18.68 C90.569168,18.746667 90.8491652,18.78 91.1425,18.78 C91.4891684,18.78 91.8058319,18.6966675 92.0925,18.53 C92.3791681,18.3633325 92.6258323,18.1433347 92.8325,17.87 C93.0391677,17.5966653 93.1991661,17.2800018 93.3125,16.92 C93.4258339,16.5599982 93.4825,16.180002 93.4825,15.78 L93.4825,12.12 C93.4825,11.9333324 93.4725001,11.7566675 93.4525,11.59 C93.4324999,11.4233325 93.3625006,11.2866672 93.2425,11.18 C93.109166,11.0866662 92.9158346,11.0333334 92.6625,11.02 C92.4091654,11.0066666 92.1691678,11 91.9425,11 L91.9425,10.38 L94.8825,10.16 L94.8825,17.28 C94.8825,17.4533342 94.8924999,17.6266658 94.9125,17.8 C94.9325001,17.9733342 95.009166,18.1066662 95.1425,18.2 C95.275834,18.2933338 95.4691654,18.3466666 95.7225,18.36 C95.9758346,18.3733334 96.2158322,18.38 96.4425,18.38 L96.4425,19 Z M103.5025,16.58 C103.5025,16.9000016 103.4625,17.2166651 103.3825,17.53 C103.3025,17.8433349 103.185834,18.1266654 103.0325,18.38 C102.879166,18.6333346 102.682501,18.8366659 102.4425,18.99 C102.202499,19.1433341 101.922502,19.22 101.6025,19.22 C101.255832,19.22 100.912502,19.1700005 100.5725,19.07 C100.232498,18.9699995 99.929168,18.786668 99.6625,18.52 C99.395832,18.253332 99.2125005,17.9500017 99.1125,17.61 C99.0124995,17.2699983 98.9625,16.9266684 98.9625,16.58 L98.9625,11 L97.2625,11 L97.2625,10.56 C97.6891688,10.56 98.0658317,10.4500011 98.3925,10.23 C98.7191683,10.0099989 98.9924989,9.7200018 99.2125,9.36 C99.4325011,8.9999982 99.5958328,8.586669 99.7025,8.12 C99.8091672,7.653331 99.8625,7.1800024 99.8625,6.7 L100.3625,6.7 L100.3625,10.38 L103.1825,10.38 L103.1825,11 L100.3625,11 L100.3625,16.58 C100.3625,16.8866682 100.385833,17.1766653 100.4325,17.45 C100.479167,17.7233347 100.575833,17.9733322 100.7225,18.2 C100.962501,18.5466684 101.282498,18.72 101.6825,18.72 C101.895834,18.72 102.085832,18.6633339 102.2525,18.55 C102.419168,18.4366661 102.555833,18.280001 102.6625,18.08 C102.769167,17.879999 102.8525,17.6500013 102.9125,17.39 C102.9725,17.1299987 103.0025,16.8600014 103.0025,16.58 L103.0025,15.38 L103.5025,15.38 L103.5025,16.58 Z M111.8425,16.42 C111.8425,16.8066686 111.775834,17.1833315 111.6425,17.55 C111.509166,17.9166685 111.289168,18.233332 110.9825,18.5 C110.635832,18.7800014 110.255835,18.9699995 109.8425,19.07 C109.429165,19.1700005 109.009169,19.22 108.5825,19.22 C108.115831,19.22 107.709168,19.1433341 107.3625,18.99 C107.015832,18.8366659 106.709168,18.6200014 106.4425,18.34 L105.7425,19.16 C105.7025,19.2000002 105.649167,19.22 105.5825,19.22 L105.5225,19.22 C105.389166,19.22 105.3225,19.153334 105.3225,19.02 L105.3225,15.8 C105.3225,15.7066662 105.375833,15.6466668 105.4825,15.62 C105.549167,15.5933332 105.619166,15.5933332 105.6925,15.62 C105.765834,15.6466668 105.809167,15.693333 105.8225,15.76 C105.995834,16.6666712 106.295831,17.3966639 106.7225,17.95 C107.149169,18.5033361 107.769163,18.78 108.5825,18.78 C108.902502,18.78 109.212499,18.746667 109.5125,18.68 C109.812501,18.613333 110.075832,18.4866676 110.3025,18.3 C110.489168,18.1399992 110.629166,17.9433345 110.7225,17.71 C110.815834,17.4766655 110.8625,17.226668 110.8625,16.96 C110.8625,16.5199978 110.695835,16.1433349 110.3625,15.83 C110.029165,15.5166651 109.615836,15.3066672 109.1225,15.2 L107.7825,14.92 C107.462498,14.853333 107.155835,14.753334 106.8625,14.62 C106.569165,14.486666 106.309168,14.320001 106.0825,14.12 C105.855832,13.919999 105.672501,13.686668 105.5325,13.42 C105.392499,13.153332 105.3225,12.8600016 105.3225,12.54 C105.3225,12.1799982 105.395833,11.8366683 105.5425,11.51 C105.689167,11.1833317 105.909165,10.9133344 106.2025,10.7 C106.549168,10.433332 106.932498,10.2600004 107.3525,10.18 C107.772502,10.0999996 108.182498,10.06 108.5825,10.06 C109.302504,10.06 109.902498,10.2466648 110.3825,10.62 L110.9425,10.1 C110.995834,10.0733332 111.0425,10.06 111.0825,10.06 L111.1425,10.06 C111.275834,10.06 111.3425,10.1199994 111.3425,10.24 L111.3425,12.84 C111.3425,12.973334 111.275834,13.04 111.1425,13.04 L111.0425,13.04 C110.909166,13.04 110.8425,12.973334 110.8425,12.84 C110.8425,12.106663 110.645835,11.5233355 110.2525,11.09 C109.859165,10.6566645 109.302504,10.44 108.5825,10.44 C108.275832,10.44 107.972501,10.4666664 107.6725,10.52 C107.372499,10.5733336 107.102501,10.6866658 106.8625,10.86 C106.489165,11.1133346 106.3025,11.4866642 106.3025,11.98 C106.3025,12.3533352 106.462498,12.6666654 106.7825,12.92 C107.102502,13.1733346 107.495831,13.3466662 107.9625,13.44 L109.3025,13.7 C109.649168,13.766667 109.975832,13.8799992 110.2825,14.04 C110.589168,14.2000008 110.859165,14.3966655 111.0925,14.63 C111.325834,14.8633345 111.509166,15.1333318 111.6425,15.44 C111.775834,15.7466682 111.8425,16.0733316 111.8425,16.42 Z M116.3625,11.44 C116.3625,11.7333348 116.259168,11.9833323 116.0525,12.19 C115.845832,12.3966677 115.595835,12.5 115.3025,12.5 C115.009165,12.5 114.759168,12.3966677 114.5525,12.19 C114.345832,11.9833323 114.2425,11.7333348 114.2425,11.44 C114.2425,11.1466652 114.345832,10.8966677 114.5525,10.69 C114.759168,10.4833323 115.009165,10.38 115.3025,10.38 C115.595835,10.38 115.845832,10.4833323 116.0525,10.69 C116.259168,10.8966677 116.3625,11.1466652 116.3625,11.44 Z M116.3625,17.94 C116.3625,18.2333348 116.259168,18.4833323 116.0525,18.69 C115.845832,18.8966677 115.595835,19 115.3025,19 C115.009165,19 114.759168,18.8966677 114.5525,18.69 C114.345832,18.4833323 114.2425,18.2333348 114.2425,17.94 C114.2425,17.6466652 114.345832,17.3966677 114.5525,17.19 C114.759168,16.9833323 115.009165,16.88 115.3025,16.88 C115.595835,16.88 115.845832,16.9833323 116.0525,17.19 C116.259168,17.3966677 116.3625,17.6466652 116.3625,17.94 Z M135.0425,19 C134.362497,18.9599998 133.685837,18.9433333 133.0125,18.95 C132.339163,18.9566667 131.662503,18.9733332 130.9825,19 L130.9825,18.38 C131.089167,18.38 131.199166,18.3633335 131.3125,18.33 C131.425834,18.2966665 131.515833,18.2333338 131.5825,18.14 C131.715834,18.006666 131.729167,17.8466676 131.6225,17.66 L129.7425,15.22 L128.2425,17.12 C128.135833,17.2400006 128.0625,17.3733326 128.0225,17.52 C127.9825,17.6666674 127.9825,17.8133326 128.0225,17.96 C128.089167,18.2400014 128.275832,18.38 128.5825,18.38 L128.5825,19 C127.982497,18.9733332 127.385836,18.9566667 126.7925,18.95 C126.199164,18.9433333 125.602503,18.9599998 125.0025,19 L125.0025,18.38 C125.535836,18.38 126.015831,18.2733344 126.4425,18.06 C126.669168,17.9533328 126.879166,17.8166675 127.0725,17.65 C127.265834,17.4833325 127.442499,17.3066676 127.6025,17.12 L129.4425,14.82 L127.0625,11.72 C126.955833,11.5999994 126.849167,11.4833339 126.7425,11.37 C126.635833,11.2566661 126.509167,11.1733336 126.3625,11.12 C126.202499,11.053333 126.005834,11.0166667 125.7725,11.01 C125.539165,11.0033333 125.315834,11 125.1025,11 L125.1025,10.38 C125.782503,10.4333336 126.462497,10.4566667 127.1425,10.45 C127.822503,10.4433333 128.502497,10.4200002 129.1825,10.38 L129.1825,11 C128.915832,11 128.709167,11.0799992 128.5625,11.24 C128.429166,11.4000008 128.415833,11.5599992 128.5225,11.72 L130.1825,13.88 L131.4625,12.28 C131.689168,12.013332 131.769167,11.7266682 131.7025,11.42 C131.6625,11.2999994 131.5925,11.2000004 131.4925,11.12 C131.392499,11.0399996 131.275834,11 131.1425,11 L131.1425,10.38 C131.742503,10.4200002 132.33583,10.4433333 132.9225,10.45 C133.50917,10.4566667 134.102497,10.4333336 134.7025,10.38 L134.7025,11 C134.169164,11 133.689169,11.1066656 133.2625,11.32 C133.035832,11.4266672 132.825834,11.5633325 132.6325,11.73 C132.439166,11.8966675 132.262501,12.079999 132.1025,12.28 L130.5025,14.28 L133.0825,17.66 C133.189167,17.793334 133.295833,17.9133328 133.4025,18.02 C133.509167,18.1266672 133.635833,18.2066664 133.7825,18.26 C133.942501,18.326667 134.139165,18.3633333 134.3725,18.37 C134.605834,18.3766667 134.829166,18.38 135.0425,18.38 L135.0425,19 Z M137.246328,21.890625 L137.246328,20.8066406 L139.170156,20.8066406 L139.170156,14.4785156 L137.246328,14.9570312 L137.246328,13.84375 L140.615469,13.0039062 L140.615469,20.8066406 L142.549062,20.8066406 L142.549062,21.890625 L137.246328,21.890625 Z M164.94,11 C164.673332,11 164.413335,11.0233331 164.16,11.07 C163.906665,11.1166669 163.666668,11.1999994 163.44,11.32 C163.026665,11.5333344 162.693335,11.8533312 162.44,12.28 L161.78,13.38 C161.419998,13.9933364 161.040002,14.6166635 160.64,15.25 C160.239998,15.8833365 159.800002,16.4799972 159.32,17.04 C159.773336,17.5600026 160.226664,17.9899983 160.68,18.33 C161.133336,18.6700017 161.586664,18.84 162.04,18.84 C162.360002,18.84 162.656665,18.7800006 162.93,18.66 C163.203335,18.5399994 163.443332,18.380001 163.65,18.18 C163.856668,17.979999 164.019999,17.7433347 164.14,17.47 C164.260001,17.1966653 164.32,16.9000016 164.32,16.58 L164.82,16.58 C164.82,16.9666686 164.746667,17.3333316 164.6,17.68 C164.453333,18.0266684 164.256668,18.3299987 164.01,18.59 C163.763332,18.8500013 163.470002,19.0566659 163.13,19.21 C162.789998,19.3633341 162.426669,19.44 162.04,19.44 C161.33333,19.44 160.690003,19.3000014 160.11,19.02 C159.529997,18.7399986 158.993336,18.3733356 158.5,17.92 C157.993331,18.386669 157.440003,18.7566653 156.84,19.03 C156.239997,19.3033347 155.580004,19.44 154.86,19.44 C154.393331,19.44 153.943335,19.3666674 153.51,19.22 C153.076664,19.0733326 152.693335,18.8700013 152.36,18.61 C152.026665,18.3499987 151.760001,18.0333352 151.56,17.66 C151.359999,17.2866648 151.26,16.8733356 151.26,16.42 C151.26,16.0733316 151.329999,15.7400016 151.47,15.42 C151.610001,15.0999984 151.793332,14.8133346 152.02,14.56 L154.48,11.94 C154.226665,11.27333 154.030001,10.5933368 153.89,9.9 C153.749999,9.2066632 153.68,8.5000036 153.68,7.78 C153.68,7.379998 153.746666,6.9900019 153.88,6.61 C154.013334,6.2299981 154.203332,5.8966681 154.45,5.61 C154.696668,5.3233319 154.989998,5.0933342 155.33,4.92 C155.670002,4.7466658 156.039998,4.66 156.44,4.66 C156.760002,4.66 157.026666,4.7433325 157.24,4.91 C157.453334,5.0766675 157.623333,5.2866654 157.75,5.54 C157.876667,5.7933346 157.97,6.0799984 158.03,6.4 C158.09,6.7200016 158.12,7.0266652 158.12,7.32 C158.12,7.6133348 158.046667,7.9233317 157.9,8.25 C157.753333,8.5766683 157.566668,8.9133316 157.34,9.26 C157.113332,9.6066684 156.856668,9.9533316 156.57,10.3 C156.283332,10.6466684 155.993335,10.9799984 155.7,11.3 C156.086669,12.2733382 156.566664,13.1866624 157.14,14.04 C157.433335,14.4800022 157.736665,14.9233311 158.05,15.37 C158.363335,15.8166689 158.679998,16.2466646 159,16.66 C159.426669,16.1533308 159.829998,15.5933364 160.21,14.98 C160.590002,14.3666636 160.966665,13.7533364 161.34,13.14 L161.86,12.28 C161.953334,12.1333326 161.99,11.9766675 161.97,11.81 C161.95,11.6433325 161.880001,11.5000006 161.76,11.38 C161.599999,11.2333326 161.413334,11.1333336 161.2,11.08 C160.986666,11.0266664 160.766668,11 160.54,11 L160.54,10.38 C161.340004,10.4200002 162.146663,10.44 162.96,10.44 C163.613337,10.44 164.27333,10.4200002 164.94,10.38 L164.94,11 Z M157.62,7.32 C157.62,6.719997 157.523334,6.2033355 157.33,5.77 C157.136666,5.3366645 156.840002,5.12 156.44,5.12 C156.213332,5.12 156.006668,5.1799994 155.82,5.3 C155.633332,5.4200006 155.473334,5.579999 155.34,5.78 C155.206666,5.980001 155.106667,6.213332 155.04,6.48 C154.973333,6.746668 154.94,7.0266652 154.94,7.32 C154.94,7.920003 154.993333,8.5099971 155.1,9.09 C155.206667,9.6700029 155.353332,10.2466638 155.54,10.82 C155.820001,10.5133318 156.083332,10.2033349 156.33,9.89 C156.576668,9.5766651 156.796666,9.2700015 156.99,8.97 C157.183334,8.6699985 157.336666,8.3800014 157.45,8.1 C157.563334,7.8199986 157.62,7.5600012 157.62,7.32 Z M158.12,17.56 C157.706665,17.1466646 157.323335,16.7033357 156.97,16.23 C156.616665,15.7566643 156.286668,15.286669 155.98,14.82 C155.446664,14.0333294 155.006668,13.2266708 154.66,12.4 L153.78,13.34 C153.473332,13.6600016 153.253334,14.0333312 153.12,14.46 C152.986666,14.8866688 152.92,15.333331 152.92,15.8 C152.92,16.200002 152.966666,16.5833315 153.06,16.95 C153.153334,17.3166685 153.286666,17.6399986 153.46,17.92 C153.633334,18.2000014 153.846665,18.4233325 154.1,18.59 C154.353335,18.7566675 154.639998,18.84 154.96,18.84 C155.58667,18.84 156.156664,18.7233345 156.67,18.49 C157.183336,18.2566655 157.666664,17.9466686 158.12,17.56 Z M182.92,19 C182.239997,18.9599998 181.563337,18.9433333 180.89,18.95 C180.216663,18.9566667 179.540003,18.9733332 178.86,19 L178.86,18.38 C178.966667,18.38 179.076666,18.3633335 179.19,18.33 C179.303334,18.2966665 179.393333,18.2333338 179.46,18.14 C179.593334,18.006666 179.606667,17.8466676 179.5,17.66 L177.62,15.22 L176.12,17.12 C176.013333,17.2400006 175.94,17.3733326 175.9,17.52 C175.86,17.6666674 175.86,17.8133326 175.9,17.96 C175.966667,18.2400014 176.153332,18.38 176.46,18.38 L176.46,19 C175.859997,18.9733332 175.263336,18.9566667 174.67,18.95 C174.076664,18.9433333 173.480003,18.9599998 172.88,19 L172.88,18.38 C173.413336,18.38 173.893331,18.2733344 174.32,18.06 C174.546668,17.9533328 174.756666,17.8166675 174.95,17.65 C175.143334,17.4833325 175.319999,17.3066676 175.48,17.12 L177.32,14.82 L174.94,11.72 C174.833333,11.5999994 174.726667,11.4833339 174.62,11.37 C174.513333,11.2566661 174.386667,11.1733336 174.24,11.12 C174.079999,11.053333 173.883334,11.0166667 173.65,11.01 C173.416665,11.0033333 173.193334,11 172.98,11 L172.98,10.38 C173.660003,10.4333336 174.339997,10.4566667 175.02,10.45 C175.700003,10.4433333 176.379997,10.4200002 177.06,10.38 L177.06,11 C176.793332,11 176.586667,11.0799992 176.44,11.24 C176.306666,11.4000008 176.293333,11.5599992 176.4,11.72 L178.06,13.88 L179.34,12.28 C179.566668,12.013332 179.646667,11.7266682 179.58,11.42 C179.54,11.2999994 179.47,11.2000004 179.37,11.12 C179.269999,11.0399996 179.153334,11 179.02,11 L179.02,10.38 C179.620003,10.4200002 180.21333,10.4433333 180.8,10.45 C181.38667,10.4566667 181.979997,10.4333336 182.58,10.38 L182.58,11 C182.046664,11 181.566669,11.1066656 181.14,11.32 C180.913332,11.4266672 180.703334,11.5633325 180.51,11.73 C180.316666,11.8966675 180.140001,12.079999 179.98,12.28 L178.38,14.28 L180.96,17.66 C181.066667,17.793334 181.173333,17.9133328 181.28,18.02 C181.386667,18.1266672 181.513333,18.2066664 181.66,18.26 C181.820001,18.326667 182.016665,18.3633333 182.25,18.37 C182.483334,18.3766667 182.706666,18.38 182.92,18.38 L182.92,19 Z M184.655078,21.890625 L184.655078,20.6992188 C185.084768,19.9505171 185.67721,19.2408888 186.432422,18.5703125 L187.116016,17.9550781 C188.131646,17.0566361 188.639453,16.2233111 188.639453,15.4550781 C188.639453,14.4785107 188.108859,13.9902344 187.047656,13.9902344 C186.422653,13.9902344 185.696749,14.2180967 184.869922,14.6738281 L184.869922,13.5214844 C185.696749,13.1764306 186.517053,13.0039062 187.330859,13.0039062 C188.183728,13.0039062 188.87057,13.2236306 189.391406,13.6630859 C189.912242,14.1025413 190.172656,14.6835901 190.172656,15.40625 C190.172656,16.3112024 189.573704,17.2552034 188.375781,18.2382812 L187.858203,18.6582031 C186.992313,19.3678421 186.484506,20.0481738 186.334766,20.6992188 L190.133594,20.6992188 L190.133594,21.890625 L184.655078,21.890625 Z" id="Inputs:-x₁-&amp;-x₂" fill="#000000"></path>
            <g id="Group" transform="translate(0.000000, 34.000000)">
                <path d="M122.5,140.5 L64.5,0.5" id="Line-3" stroke="#000000" stroke-width="3"></path>
                <path d="M180.5,140.5 L122.5,0.5" id="Line-3" stroke="#000000" stroke-width="3" transform="translate(151.500000, 70.500000) scale(1, -1) translate(-151.500000, -70.500000) "></path>
                <text id="Weight:-w₁" font-family="Euclid" font-size="20" font-weight="normal" fill="#000000">
                    <tspan x="4.38" y="69">Weight: </tspan>
                    <tspan x="26.56125" y="93">w</tspan>
                    <tspan x="41.00125" y="93" font-family="LucidaGrande, Lucida Grande">₁</tspan>
                </text>
                <text id="Weight:-w₂" font-family="Euclid" font-size="20" font-weight="normal" fill="#000000">
                    <tspan x="174.88" y="69">Weight: </tspan>
                    <tspan x="197.06125" y="93">w</tspan>
                    <tspan x="211.50125" y="93" font-family="LucidaGrande, Lucida Grande">₂</tspan>
                </text>
            </g>
            <g id="Group-2" transform="translate(23.000000, 173.000000)">
                <circle id="Oval-2" stroke="#000000" stroke-width="3" cx="99.5" cy="2.5" r="2.5"></circle>
                <circle id="Oval" stroke="#000000" stroke-width="3" cx="100" cy="102" r="100"></circle>
                <path d="M11.5,146.5 L189.5,146.5" id="Line" stroke="#000000" stroke-width="3"></path>
                <text id="Activaction-Function" font-family="Euclid" font-size="20" font-weight="normal" fill="#000000">
                    <tspan x="49.72" y="65">Activaction </tspan>
                    <tspan x="58.76" y="89">Function:    </tspan>
                    <tspan x="80.54" y="113" font-family="Euclid-Italic, Euclid" font-style="italic">f </tspan>
                    <tspan x="93.34" y="113">(x)</tspan>
                </text>
                <text id="Output" font-family="Euclid" font-size="20" font-weight="normal" fill="#000000">
                    <tspan x="67.79" y="177">Output</tspan>
                </text>
            </g>
        </g>
    </g>
</svg>