<?xml version="1.0" encoding="UTF-8"?>
<svg width="323px" height="342px" viewBox="0 0 323 342" version="1.1" xmlns="http://www.w3.org/2000/svg" xmlns:xlink="http://www.w3.org/1999/xlink">
    <!-- Generator: Sketch 48.2 (47327) - http://www.bohemiancoding.com/sketch -->
    <title>Group 3</title>
    <desc>Created with Sketch.</desc>
    <defs></defs>
    <g id="Artboard" stroke="none" stroke-width="1" fill="none" fill-rule="evenodd" transform="translate(-53.000000, -31.000000)">
        <g id="Group-3" transform="translate(31.000000, 32.000000)">
            <path d="M69.2907569,290 C70.7811036,292.402892 71.2968376,294.842796 70.837959,297.319714 C70.3790804,299.796631 69.4330941,301.69006 68,303" id="Line-6" stroke="#4A90E2" stroke-width="2" stroke-linecap="square"></path>
            <path d="M42.5,303.5 L140.5,101.5" id="Line-4" stroke="#D0021B" stroke-width="3" stroke-linecap="square"></path>
            <path id="Line-4-decoration-1" d="M138.48501,112.526324 L140.5,101.5 L133.086761,109.907371" stroke="#D0021B" stroke-width="3" stroke-linecap="square"></path>
            <path d="M53,283.059646 C57.7948398,282.630082 61.4828687,284.520768 64.0640866,288.731705 C66.6453045,292.942641 66.6453045,297.69874 64.0640866,303" id="Line-5" stroke="#D0021B" stroke-width="2" stroke-linecap="square"></path>
            <path d="M42.5,301.5 L237.5,204.5" id="Line-4" stroke="#4A90E2" stroke-width="3" stroke-linecap="square"></path>
            <path id="Line-4-decoration-1" d="M229.166417,211.996092 L237.5,204.5 L226.494161,206.624031" stroke="#4A90E2" stroke-width="3" stroke-linecap="square"></path>
            <g id="Group-2" transform="translate(32.000000, 0.000000)" stroke="#000000" stroke-linecap="round" stroke-width="4">
                <g id="Group" transform="translate(9.000000, 293.000000)">
                    <path d="M1,0 L1,20" id="Line-3"></path>
                    <path d="M101,0 L101,20" id="Line-3"></path>
                    <path d="M202,0 L202,20" id="Line-3"></path>
                    <path d="M302,0 L302,20" id="Line-3"></path>
                </g>
                <g id="Group" transform="translate(10.500000, 152.500000) rotate(-90.000000) translate(-10.500000, -152.500000) translate(-141.500000, 142.500000)">
                    <path d="M1,1 L1,10.5" id="Line-3"></path>
                    <path d="M102,0 L102,20" id="Line-3"></path>
                    <path d="M203,0 L203,20" id="Line-3"></path>
                    <path d="M303,0 L303,20" id="Line-3"></path>
                </g>
                <path d="M310,303 L10,303" id="Line-2"></path>
                <path d="M10,2 L10,302" id="Line"></path>
            </g>
            <text id="Equal-magnitude-and" font-family="Euclid" font-size="18" font-weight="normal" fill="#000000">
                <tspan x="154.653" y="137">Equal magnitude </tspan>
                <tspan x="171.753" y="159">and different </tspan>
                <tspan x="183.939" y="181">directions</tspan>
            </text>
            <text id="Centered-around-an-o" font-family="Euclid" font-size="18" font-weight="normal" fill="#000000">
                <tspan x="21.222" y="338">Centered around an origin point</tspan>
            </text>
        </g>
    </g>
</svg>