<?xml version="1.0" encoding="UTF-8"?>
<svg width="1158px" height="1419px" viewBox="0 0 1158 1419" version="1.1" xmlns="http://www.w3.org/2000/svg" xmlns:xlink="http://www.w3.org/1999/xlink">
    <!-- Generator: Sketch 48.2 (47327) - http://www.bohemiancoding.com/sketch -->
    <title>Artboard</title>
    <desc>Created with Sketch.</desc>
    <defs></defs>
    <g id="Page-1" stroke="none" stroke-width="1" fill="none" fill-rule="evenodd">
        <g id="Artboard">
            <g id="Group-8" transform="translate(35.000000, 112.000000)">
                <g id="node2" transform="translate(146.000000, 1143.062200)">
                    <ellipse id="Oval" stroke="#000000" cx="216.7677" cy="25.5442" rx="216.1707" ry="25.4118"></ellipse>
                    <text id="Harvard:-Please-briefly-elaborate-on-one-of" fill="#000000" font-family="Times-Roman, Times" font-size="14" font-weight="normal">
                        <tspan x="95.7677" y="22.7442">Harvard: Please briefly elaborate on one of</tspan>
                    </text>
                    <text id="your-extracurricular-activities-or-work-experiences." fill="#000000" font-family="Times-Roman, Times" font-size="14" font-weight="normal">
                        <tspan x="73.2677" y="36.7442">your extracurricular activities or work experiences.</tspan>
                    </text>
                </g>
                <g id="node9" transform="translate(146.000000, 969.062200)">
                    <ellipse id="Oval" stroke="#000000" cx="216.7677" cy="25.7208" rx="216.1707" ry="25.4118"></ellipse>
                    <text id="Rensselaer:-Please-briefly-elaborate-on-one-of" fill="#000000" font-family="Times-Roman, Times" font-size="14" font-weight="normal">
                        <tspan x="88.7677" y="22.9208">Rensselaer: Please briefly elaborate on one of</tspan>
                    </text>
                    <text id="your-extracurricular-activities-or-work-experiences." fill="#000000" font-family="Times-Roman, Times" font-size="14" font-weight="normal">
                        <tspan x="73.2677" y="36.9208">your extracurricular activities or work experiences.</tspan>
                    </text>
                </g>
                <g id="edge44" transform="translate(362.000000, 1020.062200)" stroke="#000000">
                    <path d="M0.7677,0.369 C0.7677,33.3276 0.7677,90.2016 0.7677,123.0738" id="Shape"></path>
                </g>
                <g id="node33" transform="translate(411.000000, 1056.062200)">
                    <ellipse id="Oval" stroke="#000000" cx="195.7677" cy="25.6325" rx="195.4292" ry="25.4118"></ellipse>
                    <text id="Stanford:-Briefly-elaborate-on-one-of-your" fill="#000000" font-family="Times-Roman, Times" font-size="14" font-weight="normal">
                        <tspan x="77.7677" y="22.8325">Stanford: Briefly elaborate on one of your</tspan>
                    </text>
                    <text id="extracurricular-activities-or-work-experiences." fill="#000000" font-family="Times-Roman, Times" font-size="14" font-weight="normal">
                        <tspan x="67.2677" y="36.8325">extracurricular activities or work experiences.</tspan>
                    </text>
                </g>
                <g id="edge42" transform="translate(430.000000, 1018.062200)" stroke="#000000">
                    <path d="M0.7353,0.9305 C34.719,13.0353 75.7122,27.6369 109.5867,39.7029" id="Shape"></path>
                </g>
                <g id="node16" transform="translate(432.000000, 832.062200)">
                    <ellipse id="Oval" stroke="#000000" cx="216.7677" cy="26.3116" rx="216.1707" ry="25.4118"></ellipse>
                    <text id="Brown:-Please-briefly-elaborate-on-one-of" fill="#000000" font-family="Times-Roman, Times" font-size="14" font-weight="normal">
                        <tspan x="99.7677" y="23.5116">Brown: Please briefly elaborate on one of</tspan>
                    </text>
                    <text id="your-extracurricular-activities-or-work-experiences." fill="#000000" font-family="Times-Roman, Times" font-size="14" font-weight="normal">
                        <tspan x="73.2677" y="37.5116">your extracurricular activities or work experiences.</tspan>
                    </text>
                </g>
                <g id="edge36" transform="translate(544.000000, 883.062200)" stroke="#000000">
                    <path d="M142.5339,0.3823 C208.4871,47.1301 331.7283,149.6082 266.7677,224.0883 C248.7392,244.7588 116.8878,261.1755 0.8577,271.8227" id="Shape"></path>
                </g>
                <g id="edge52" transform="translate(415.000000, 883.062200)" stroke="#000000">
                    <path d="M181.6435,0.1725 C130.0859,24.7632 51.6176,62.1891 0.0166,86.8004" id="Shape"></path>
                </g>
                <g id="edge4" transform="translate(612.000000, 883.062200)" stroke="#000000">
                    <path d="M32.7687,0.9006 C27.6739,32.8727 18.3713,89.2188 8.7677,137.1766 C6.4042,148.9793 3.487,161.9858 0.9283,172.9823" id="Shape"></path>
                </g>
                <g id="node26" transform="translate(723.000000, 627.062200)">
                    <ellipse id="Oval" stroke="#000000" cx="168.7677" cy="35.5055" rx="168.6394" ry="35.2113"></ellipse>
                    <text id="Berkeley:-What-have-you-done-to-make" fill="#000000" font-family="Times-Roman, Times" font-size="14" font-weight="normal">
                        <tspan x="57.7677" y="25.7055">Berkeley: What have you done to make</tspan>
                    </text>
                    <text id="your-school-or-your-community-a-better" fill="#000000" font-family="Times-Roman, Times" font-size="14" font-weight="normal">
                        <tspan x="57.2677" y="39.7055">your school or your community a better</tspan>
                    </text>
                    <text id="place?" fill="#000000" font-family="Times-Roman, Times" font-size="14" font-weight="normal">
                        <tspan x="150.7677" y="53.7055">place?</tspan>
                    </text>
                </g>
                <g id="edge53" transform="translate(565.000000, 697.062200)" stroke="#000000">
                    <path d="M343.7177,0.7821 C354.0977,24.394 366.3896,56.5021 371.7677,86.3583 C398.5113,234.8216 395.5517,326.8119 269.7677,410.0883 C225.6694,439.284 107.6694,454.648 0.694,462.713" id="Shape"></path>
                </g>
                <g id="edge13" transform="translate(556.000000, 697.062200)" stroke="#000000">
                    <path d="M345.989,0.9034 C360.2395,58.5571 378.0551,172.6749 317.7677,236.2649 C295.54,259.7103 135.3369,276.2794 0.1485,286.2587" id="Shape"></path>
                </g>
                <g id="edge11" transform="translate(680.000000, 696.062200)" stroke="#000000">
                    <path d="M169.1623,0.8364 C120.8411,39.7729 43.1887,102.3442 0.1095,137.0568" id="Shape"></path>
                </g>
                <g id="edge29" transform="translate(712.000000, 698.062200)" stroke="#000000">
                    <path d="M194.4547,0.155 C214.5923,55.1893 243.3964,162.1171 197.7677,235.2649 C154.7556,304.2182 69.36,342.011 0.159,362.1654" id="Shape"></path>
                </g>
                <g id="node28" transform="translate(180.000000, 451.062200)">
                    <ellipse id="Oval" stroke="#000000" cx="224.7677" cy="35.4983" rx="224.1897" ry="35.2113"></ellipse>
                    <text id="University-of-Central-Florida:-Please-briefly-elaborate" fill="#000000" font-family="Times-Roman, Times" font-size="14" font-weight="normal">
                        <tspan x="73.7677" y="25.6983">University of Central Florida: Please briefly elaborate</tspan>
                    </text>
                    <text id="on-one-of-your-extracurricular-activities-or" fill="#000000" font-family="Times-Roman, Times" font-size="14" font-weight="normal">
                        <tspan x="105.7677" y="39.6983">on one of your extracurricular activities or</tspan>
                    </text>
                    <text id="work-experiences." fill="#000000" font-family="Times-Roman, Times" font-size="14" font-weight="normal">
                        <tspan x="173.7677" y="53.6983">work experiences.</tspan>
                    </text>
                </g>
                <g id="edge26" transform="translate(131.000000, 521.062200)" stroke="#000000">
                    <path d="M245.9397,0.6234 C187.6266,76.7429 54.1025,264.8741 6.7677,448.2649 C1.1127,470.1743 -3.9594,479.2536 6.7677,499.1766 C39.6532,560.2532 109.9063,600.347 163.2193,623.2778" id="Shape"></path>
                </g>
                <g id="edge47" transform="translate(363.000000, 521.062200)" stroke="#000000">
                    <path d="M35.6108,0.9025 C32.8665,17.7449 29.8014,38.1916 27.7677,56.6527 C11.4782,204.528 3.3224,383.0169 0.7193,448.2647" id="Shape"></path>
                </g>
                <g id="edge17" transform="translate(427.000000, 521.062200)" stroke="#000000">
                    <path d="M0.9426,0.8128 C49.8344,75.3153 162.5278,247.0403 205.0863,311.892" id="Shape"></path>
                </g>
                <g id="edge21" transform="translate(494.000000, 518.062200)" stroke="#000000">
                    <path d="M0.6586,0.9859 C89.8428,33.218 225.4932,82.2436 312.8861,113.8283" id="Shape"></path>
                </g>
                <g id="edge54" transform="translate(402.000000, 521.062200)" stroke="#000000">
                    <path d="M1.8404,0.9237 C-0.4475,101.0819 -4.4144,381.0923 21.7677,412.2649 C69.7625,469.4077 134.2976,394.2315 185.7677,448.2649 C207.6018,471.1864 209.5652,509.3496 207.9673,534.7487" id="Shape"></path>
                </g>
                <g id="edge2" transform="translate(430.000000, 1105.062200)" stroke="#000000">
                    <path d="M109.4478,0.6115 C75.5934,12.6703 34.6563,27.2519 0.7151,39.3416" id="Shape"></path>
                </g>
                <g id="node34" transform="translate(155.000000, 265.062200)">
                    <ellipse id="Oval" stroke="#000000" cx="160.7677" cy="25.6922" rx="160.4633" ry="25.4118"></ellipse>
                    <text id="MIT:-Describe-one-way-in-which-you" fill="#000000" font-family="Times-Roman, Times" font-size="14" font-weight="normal">
                        <tspan x="55.7677" y="22.8922">MIT: Describe one way in which you</tspan>
                    </text>
                    <text id="have-contributed-to-your-community." fill="#000000" font-family="Times-Roman, Times" font-size="14" font-weight="normal">
                        <tspan x="56.7677" y="36.8922">have contributed to your community.</tspan>
                    </text>
                </g>
                <g id="edge24" transform="translate(41.000000, 314.062200)" stroke="#000000">
                    <path d="M220.7107,0.8432 C175.2212,24.0624 112.2333,63.5638 77.7677,117.344 C-42.8262,305.519 2.6279,400.1659 46.7677,619.2649 C63.3159,701.4057 57.5678,736.9446 119.7677,793.0883 C135.448,807.2419 177.9505,821.1073 219.9466,832.0755" id="Shape"></path>
                </g>
                <g id="edge6" transform="translate(160.000000, 315.062200)" stroke="#000000">
                    <path d="M116.3652,0.5474 C81.4577,25.1264 32.8585,66.2616 11.7677,116.344 C-7.2598,161.5271 2.0527,178.5988 11.7677,226.6527 C46.5287,398.592 148.5591,586.4373 187.4606,653.8573" id="Shape"></path>
                </g>
                <g id="edge8" transform="translate(429.000000, 308.062200)" stroke="#000000">
                    <path d="M0.5674,0.6673 C73.1688,18.6022 162.1062,54.0087 208.7677,123.344 C253.0141,189.0907 231.0413,442.7102 222.5833,524.6336" id="Shape"></path>
                </g>
                <g id="edge9" transform="translate(398.000000, 312.062200)" stroke="#000000">
                    <path d="M0.8653,0.5148 C76.0936,22.7559 187.8059,62.1433 272.7677,119.344 C355.2092,174.8479 430.4099,265.7495 468.1893,315.4111" id="Shape"></path>
                </g>
                <g id="edge18" transform="translate(327.000000, 316.062200)" stroke="#000000">
                    <path d="M0.4029,0.2904 C16.0462,34.7066 43.9318,96.0568 61.6054,134.94" id="Shape"></path>
                </g>
                <g id="edge25" transform="translate(91.000000, 315.062200)" stroke="#000000">
                    <path d="M181.0639,0.2059 C142.9505,24.2808 90.0688,64.8497 65.7677,116.344 C9.8937,234.742 -39.5835,606.7721 46.7677,705.1766 C66.5714,727.7446 216.816,744.5843 341.9991,754.8752" id="Shape"></path>
                </g>
                <g id="node39" transform="translate(275.000000, 0.062200)">
                    <ellipse id="Oval" stroke="#000000" cx="228.7677" cy="35.4891" rx="228.4098" ry="35.2113"></ellipse>
                    <text id="Princeton:-Please-briefly-elaborate-on-one-of" fill="#000000" font-family="Times-Roman, Times" font-size="14" font-weight="normal">
                        <tspan x="104.2677" y="25.6891">Princeton: Please briefly elaborate on one of</tspan>
                    </text>
                    <text id="your-extracurricular-activities-or-work-experiences-that" fill="#000000" font-family="Times-Roman, Times" font-size="14" font-weight="normal">
                        <tspan x="74.7677" y="39.6891">your extracurricular activities or work experiences that</tspan>
                    </text>
                    <text id="was-particularly-meaningful-to-you." fill="#000000" font-family="Times-Roman, Times" font-size="14" font-weight="normal">
                        <tspan x="128.7677" y="53.6891">was particularly meaningful to you.</tspan>
                    </text>
                </g>
                <g id="edge14" transform="translate(0.000000, 60.062200)" stroke="#000000">
                    <path d="M342.6922,0.6041 C259.5275,21.3033 162.2569,58.729 97.7677,126.0404 C0.6911,227.3655 0.7677,286.1749 0.7677,426.4983 C0.7677,426.4983 0.7677,426.4983 0.7677,934.7208 C0.7677,1005.8631 52.6978,1012.3241 114.7677,1047.0883 C149.0183,1066.2714 189.2264,1079.5358 227.1797,1088.6811" id="Shape"></path>
                </g>
                <g id="edge33" transform="translate(93.000000, 62.062200)" stroke="#000000">
                    <path d="M264.7622,0.7593 C190.8268,22.0581 105.9088,59.3696 53.7677,124.0404 C-15.8548,210.3936 18.034,258.896 7.7677,369.344 C-13.7925,601.2965 4.8149,696.4356 158.7677,871.2649 C172.2333,886.5564 190.4598,898.821 208.2487,908.2496" id="Shape"></path>
                </g>
                <g id="edge27" transform="translate(522.000000, 70.062200)" stroke="#000000">
                    <path d="M0.4572,0.831 C35.3006,68.5948 109.6442,222.4196 142.7677,361.344 C157.8997,424.8094 152.0988,442.4629 154.7677,507.6527 C157.8531,583.0143 164.0664,602.509 154.7677,677.3583 C151.0694,707.1281 141.9923,740.3812 135.1684,762.6511" id="Shape"></path>
                </g>
                <g id="edge35" transform="translate(568.000000, 69.062200)" stroke="#000000">
                    <path d="M0.3114,0.6592 C45.0493,27.1952 103.1215,67.7274 140.7677,117.0404 C249.5163,259.4907 300.6553,474.2497 317.3356,558.1519" id="Shape"></path>
                </g>
                <g id="edge38" transform="translate(445.000000, 70.062200)" stroke="#000000">
                    <path d="M64.2894,0.8558 C73.0965,67.2974 85.0502,214.0875 39.7677,325.344 C31.1951,346.4065 15.6174,365.921 0.4708,381.445" id="Shape"></path>
                </g>
                <g id="edge12" transform="translate(576.000000, 69.062200)" stroke="#000000">
                    <path d="M0.4333,0.0182 C57.3109,27.7755 137.1612,70.1492 200.7677,117.0404 C355.723,231.2744 512.7677,224.9872 512.7677,417.4983 C512.7677,417.4983 512.7677,417.4983 512.7677,593.5055 C512.7677,782.0215 445.9892,853.4733 284.7677,951.1766 C250.5261,971.9277 209.708,985.6751 170.9168,994.7815" id="Shape"></path>
                </g>
                <g id="edge50" transform="translate(334.000000, 70.062200)" stroke="#000000">
                    <path d="M143.8245,0.7061 C105.4467,52.8025 34.4477,149.1811 0.6285,195.0894" id="Shape"></path>
                </g>
            </g>
        </g>
    </g>
</svg>